<svg width="1400" height="800" viewBox="0 0 1400 800" fill="none" xmlns="http://www.w3.org/2000/svg">
<g clip-path="url(#clip0)">
<rect width="1400" height="800" fill="#F6F6F6"/>
<path fill-rule="evenodd" clip-rule="evenodd" d="M-315.956 1.9853C-308.513 2.73761 -276.845 3.86875 -245.584 4.49776C-162.623 6.16677 -141.535 8.66314 -103.745 21.2915C-57.094 36.8773 -27.0885 62.9615 -9.3223 103.37C-1.89897 120.253 2.13748 132.926 8.61349 159.677C11.515 171.662 17.3107 195.539 21.4915 212.738C33.7867 263.309 43.8607 287.722 70.7879 332.218C106.145 390.642 109.31 417.834 92.753 520.988C88.6299 546.673 87.2729 582.873 89.8785 597.685C96.046 632.761 120.443 650.543 159.251 648.244C181.053 646.952 193.361 643.471 217.246 631.834C274.511 603.94 327.898 542.56 348.731 480.663C358.042 452.998 359.134 443.92 360.74 380.712C361.577 347.787 363.01 317.632 363.926 313.701C373.703 271.733 393.28 244.103 424.192 228.651C443.945 218.777 468.697 215.449 488.602 219.993C519.658 227.084 545.538 253.836 564.751 298.709C580.883 336.383 587.303 349.374 597.536 365.042C625.612 408.04 667.702 434.628 733.951 451.221C791.596 465.66 847.987 476.414 879.151 478.908C967.91 486.015 1050.95 448.693 1133.94 364.392C1160.7 337.212 1170.39 325.967 1220.77 263.667C1240.64 239.096 1270.12 203.312 1286.27 184.147C1324.56 138.726 1345.64 110.805 1374.57 67.1519L1398.23 31.4629V20.2444C1398.23 14.074 1397.92 9.02589 1397.53 9.02589C1397.15 9.02589 1393.37 14.8549 1389.14 21.9813C1362.27 67.1769 1325.19 118.377 1280.75 171.639C1265.58 189.821 1236.16 226.007 1215.38 252.051C1167.75 311.714 1151.94 330.018 1125.86 355.695C1069.38 411.297 1010.82 444.599 951.538 454.838C931.203 458.35 894.052 458.301 869.77 454.731C844.658 451.037 778.068 434.471 745.035 423.697C701.21 409.403 676.628 395.361 654.181 371.797C634.47 351.104 623.799 332.035 601.671 277.962C596.04 264.203 588.503 247.718 584.921 241.33C557.55 192.515 517.739 169.605 464.636 172.107C397.133 175.287 341.449 221.094 320.752 290.471C316.564 304.513 316.489 306.126 316.438 381.605L316.388 458.444L311.568 475.915C294.435 538.015 247.124 591.756 194.754 608.6C181.398 612.896 161.833 613.012 150.967 608.859C139.797 604.592 129.455 592.903 125.03 579.551C119.646 563.301 120.559 529.563 127.558 486.142C135.83 434.84 137.538 414.555 135.281 394.512C131.808 363.655 124.615 346.692 98.0453 306.677C70.6147 265.366 61.9824 242.85 44.9596 168.213C33.2472 116.865 26.6991 94.7603 17.0996 74.1853C2.65894 43.2317 -18.8333 21.2844 -50.0297 5.63426L-61.0781 0.0911345L-195.284 0.353816C-269.835 0.49856 -323.473 1.22406 -315.956 1.9853ZM-6.26566 6.88513C29.5085 34.8884 45.6796 70.8276 67.4678 170.745C79.6367 226.552 92.5058 258.045 116.387 290.471C139.077 321.28 148.395 336.581 153.852 352.001C158.545 365.264 159.364 370.415 159.983 390.54C160.72 414.512 160.243 418.549 148.791 485.249C140.886 531.28 143.002 559.01 155.494 573.1C162.777 581.313 170.286 584.424 182.836 584.424C209.198 584.424 241.923 562.202 263.97 529.327C288.757 492.366 296.091 452.581 289.542 390.606C284.338 341.351 286.063 307.67 295.173 280.705C300.649 264.497 313.901 239.607 324.359 225.885C352.113 189.478 387.703 165.452 430.166 154.464C444.941 150.64 452.46 149.772 471.667 149.67C514.728 149.445 546.992 161.428 573.517 187.503C593.055 206.713 604.871 226.934 623.759 273.495C643.786 322.865 654.517 341.238 675.486 362.065C690.836 377.311 699.342 383.194 722.918 394.865C753.86 410.18 827.024 432.551 873.148 440.796C897.284 445.112 941.189 445.098 961.468 440.77C1028 426.567 1091.02 386.207 1149.8 320.15C1167.17 300.633 1186.16 277.48 1226.89 226.141C1236.25 214.347 1258.17 187.408 1275.61 166.278C1311.77 122.472 1328.74 100.495 1348.04 72.4627C1362.32 51.7251 1392.82 3.22724 1392.82 1.25265C1392.82 0.614711 1389.77 0.0911345 1386.05 0.0911345C1379.84 0.0911345 1378.91 0.77375 1374.85 8.36651C1367.8 21.5167 1329.4 78.6598 1314.62 97.9929C1307.2 107.696 1288.41 130.848 1272.87 149.443C1257.32 168.04 1230.69 200.945 1213.69 222.567C1168.49 280.044 1151.19 300.258 1124.92 326.244C1054.79 395.628 982.845 426.863 908.953 420.012C862.903 415.741 789.402 394.155 752.253 373.989C702.327 346.89 679.678 319.219 652.879 252.578C647.823 240.004 640.369 222.976 636.316 214.742C609.403 160.057 573.127 131.468 515.798 119.754C489.372 114.356 446.085 115.476 419.34 122.254C359.518 137.411 316.647 167.53 265.142 230.585C240.967 260.178 224.875 275.773 215.268 278.913C201.225 283.502 181.461 277.163 161.542 261.681C133.453 239.848 116.977 205.846 101.026 136.793C87.1322 76.6531 71.1668 36.3412 50.7734 9.91937L43.877 0.98461L14.4092 0.493199L-15.0603 0L-6.26566 6.88513ZM84.2271 16.6204C97.4516 38.2515 109.658 66.9553 119.956 100.629C135.756 152.286 141.042 167.223 148.969 182.575C162.719 209.206 179.808 222.463 200.209 222.32C217.3 222.2 232.937 213.164 267.77 183.273C312.306 145.056 348.51 123.491 390.469 110.182C461.96 87.507 539.663 95.1284 593.014 130.047C624.829 150.871 644.277 178.579 669.236 238.649C695.656 302.236 715.885 329.255 755.861 354.344C789.127 375.221 846.508 395.311 894.801 402.99C989.058 417.975 1073.49 377.558 1160.46 275.82C1167.86 267.169 1189.21 240.794 1207.91 217.206C1226.61 193.618 1254.09 159.845 1268.98 142.154C1309.64 93.8454 1345.42 44.781 1366.4 8.57916L1371.32 0.0911345H1364.38C1357.48 0.0911345 1357.4 0.178694 1343.28 22.2422C1318.94 60.2775 1296.54 89.8122 1259.09 133.219C1249.77 144.03 1225.57 173.381 1205.31 198.443C1158.61 256.231 1143.32 273.677 1119.1 296.836C1053.79 359.293 988.009 386.2 917.692 379.214C849.11 372.401 786.722 345.754 749.831 307.515C727.915 284.795 715.454 263.549 695.578 215.001C677.449 170.722 663.602 147.815 642.294 126.856C590.933 76.3386 494.286 55.9709 397.687 75.3093C370.538 80.7434 346.545 88.0789 304.357 103.843C258.428 121.005 248.147 123.843 231.681 123.904C205.056 124 188.35 108.741 160.137 58.5513C155.047 49.495 145.146 32.6369 138.137 21.0878L125.393 0.0911345H99.7577H74.1225L84.2271 16.6204ZM159.749 2.32482C165.626 11.9887 192.764 45.8425 201.286 54.1393C215.05 67.5414 222.385 72.3197 236.398 77.0176C255.353 83.3702 279.085 81.5029 334.533 69.2926C390.707 56.9234 407.227 54.1947 439.751 51.9181C510.1 46.9915 585.729 63.2778 632.548 93.4326C667.206 115.757 687.031 143.121 711.515 202.44C727.559 241.31 733.584 253.463 745.865 271.733C775.591 315.951 824.411 345.8 889.388 359.485C914.036 364.676 962.284 365.192 982.924 360.484C1047.9 345.666 1103.09 306.787 1167.4 230.542C1176.9 219.277 1195.57 196.79 1208.89 180.573C1222.2 164.357 1242.06 140.635 1253.01 127.858C1280.89 95.3375 1300.1 71.5638 1313.65 52.8062C1325.4 36.5378 1347.71 2.58929 1347.71 0.970315C1347.71 0.487838 1344.58 0.0911345 1340.77 0.0911345C1333.96 0.0911345 1333.57 0.461033 1321.52 18.4074C1304.05 44.4272 1285.28 68.6458 1260.21 97.48C1248.25 111.24 1225.54 137.776 1209.74 156.449C1132.5 247.743 1098.34 280.033 1049.53 307.906C965.925 355.646 858.769 344.417 794.965 281.23C772.765 259.247 760.593 238.333 739.569 186.065C719.367 135.835 707.96 115.807 688.036 95.593C655.147 62.2234 599.383 39.0896 523.995 27.5405C493.434 22.8605 420.39 22.948 378.741 27.7174C338.717 32.3009 291.889 32.5064 275.889 28.1677C260.142 23.8987 244.597 16.4703 232.632 7.49805L222.757 0.0911345H190.573C165.304 0.0911345 158.682 0.571825 159.749 2.32482ZM284.37 1.88166C286.552 2.76263 294.671 4.84085 302.414 6.50093C313.979 8.97943 323.888 9.39579 357.99 8.8329C380.816 8.45407 423.445 8.20747 452.721 8.28252C498.378 8.40046 509.417 8.97407 530.311 12.3246C599.972 23.4948 652.568 42.2971 687.9 68.6636C714.214 88.3004 732.043 114.479 749.51 159.13C769.534 210.315 778.216 229.239 788.868 244.904C815.748 284.434 857.542 310.408 908.119 319.016C987.971 332.604 1070.1 295.253 1150.87 208.618C1171.27 186.731 1267.85 75.4433 1286.08 52.8062C1293.21 43.9608 1304.76 28.4822 1311.75 18.4074L1324.46 0.0911345H1315.68H1306.9L1289.61 22.8748C1265.65 54.4359 1172.28 159.913 1140.39 191.434C1102.1 229.284 1072.17 251.678 1035.54 269.882C1001.33 286.884 975.068 293.559 942.612 293.494C917.177 293.444 895.997 288.659 874.05 278.003C830.42 256.821 808.465 226.33 782.025 150.195C768.557 111.411 758.696 91.2525 744.64 73.7564C724.268 48.4032 688.016 26.6452 637.673 9.5584L612.411 0.98461L446.406 0.630794C347.122 0.419934 281.996 0.922067 284.37 1.88166ZM668.348 1.89596C670.333 2.75548 680.946 7.13887 691.935 11.6366C719.432 22.8926 739.683 35.6479 755.861 51.902C777.227 73.3705 783.931 87.096 805.403 153.365C820.16 198.906 831.942 220.233 853.539 240.492C868.274 254.314 879.969 261.576 897.977 268.084C966.699 292.921 1048.49 262.165 1135.45 178.786C1155.4 159.662 1168.05 145.999 1238.05 67.9953C1264 39.0824 1288.55 9.6281 1291.97 3.28978C1293.55 0.371686 1292.69 0.0911345 1282.17 0.0911345H1270.64L1259.13 13.0465C1228.44 47.5901 1149.38 131.695 1132.27 147.997C1058.41 218.376 987.906 252.051 934.144 242.632C895.486 235.862 866.506 211.345 850.355 171.748C846.349 161.925 842.372 147.08 829.016 92.1191C823.4 69.0067 813.325 47.2291 802.738 35.3173C793.824 25.2889 777.48 13.4557 761.778 5.66285L750.551 0.0911345L707.646 0.212647C681.484 0.285912 666.146 0.943511 668.348 1.89596ZM821.058 7.07454C845.315 24.2757 852.11 40.8015 860.465 102.914C867.141 152.536 876.08 176.151 895.671 195.92C925.873 226.396 969.433 230.072 1019.3 206.354C1039.65 196.679 1048.75 191.15 1071.63 174.58C1105.62 149.968 1133.52 123.612 1201.53 51.8967C1216.89 35.689 1234.28 17.4031 1240.16 11.2596L1250.84 0.0911345H1220.99H1191.14L1166.12 24.6671C1152.36 38.1836 1124.46 66.1655 1104.11 86.8512C1044.63 147.334 1009.73 169.852 975.474 169.852C958.845 169.852 950.416 167.128 940.62 158.588C920.696 141.221 915.398 111.336 925.398 72.7236C929.855 55.5117 942.424 28.8217 953.383 13.2967C957.883 6.92265 961.564 1.34379 961.564 0.898837C961.564 0.453886 927.735 0.0911345 886.387 0.0911345H811.21L821.058 7.07454ZM-334 39.4541V57.7561L-266.786 56.4891C-176.244 54.7826 -154.97 57.4862 -117.516 75.463C-100.717 83.5257 -96.6899 86.4474 -81.3145 101.729C-66.098 116.856 -62.9024 121.18 -54.7447 137.686C-43.6584 160.12 -37.8717 177.752 -24.759 229.044C-11.1267 282.369 -5.41937 298.192 13.1786 334.251C41.8254 389.788 44.6475 395.806 49.6655 412.06C54.3353 427.19 54.6042 429.975 54.5735 462.912C54.5446 492.546 53.7002 503.382 48.924 535.378C38.0235 608.377 37.5742 624.838 45.75 651.66C51.156 669.399 67.614 686.039 86.0803 692.437C121.95 704.863 181.979 695.401 233.352 669.222C297.423 636.573 351.274 583.876 425.724 480.972C461.716 431.225 473.647 421.056 496.027 421.043C510.451 421.036 518.851 423.801 558.654 441.654C639.151 477.758 679.573 489.035 778.417 502.959C854.263 513.643 880.954 515.058 916.997 510.307C985.82 501.236 1054.24 465.567 1118.29 405.365C1147.33 378.073 1171.81 350.534 1226.77 283.323C1242.04 264.649 1269.26 232.484 1287.26 211.845C1334.36 157.818 1358.16 127.41 1389 81.7995C1398.04 68.4367 1398.38 67.4985 1397.86 57.195L1397.33 46.4822L1377.1 76.7514C1354.02 111.306 1326.85 147.475 1302.33 176.29C1260.17 225.846 1239.74 250.359 1209.39 287.79C1168.71 337.963 1150.81 358.177 1123.83 384.391C1061.74 444.712 996.53 480.175 929.987 489.803C907.509 493.056 868.635 492.269 838.996 487.963C805.842 483.147 736.002 469.589 709.551 462.835C656.729 449.347 616.875 427.798 587.133 396.641C570.666 379.39 562.438 366.709 543.661 329.641C535.157 312.852 524.058 293.641 518.995 286.947C482.858 239.158 421.402 251.857 401.53 311.216C396.231 327.044 393.898 345.293 391.389 390.54C389.424 425.968 386.909 441.554 379.275 465.558C368.331 499.968 342.124 543.414 312.293 576.594C255.925 639.295 183.774 674.766 128.637 666.887C100.44 662.855 82.1178 648.944 74.4112 625.708C68.702 608.502 69.9092 564.191 77.4065 515.627C82.5761 482.148 83.4711 471.671 83.4422 445.042C83.4115 418.586 82.8034 411.569 79.4851 399.475C74.8983 382.754 65.4469 362.546 49.3985 335.145C25.8763 294.986 14.8441 266.075 1.6629 210.058C-12.1101 151.526 -18.8045 130.464 -31.0293 107.196C-53.754 63.9353 -97.3557 37.1186 -160.216 27.7371C-175.248 25.4944 -196.694 24.7064 -253.704 24.3079C-294.393 24.022 -329.106 23.1946 -330.842 22.4709C-333.731 21.2647 -334 22.7122 -334 39.4541ZM-274.455 75.2164C-285.867 75.9008 -303.933 76.5655 -314.603 76.6942L-334 76.9301V93.2163V109.501L-326.331 108.464C-305.647 105.666 -251.097 103.347 -226.818 104.233C-177.399 106.034 -146.611 117.501 -120.178 143.948C-98.0576 166.079 -85.3221 190.829 -70.5296 240.436C-46.2278 321.928 -41.2802 335.116 -16.8792 383.392C1.21721 419.196 7.61746 437.026 10.7932 460.472C13.3771 479.554 11.9733 522.028 7.90976 547.792C-0.985964 604.183 -2.59188 618.784 -2.69653 644.287C-2.81562 673.445 -0.657554 684.483 8.40417 701.066C24.9127 731.272 68.1661 747.343 118.004 741.787C187.017 734.092 245.016 711.671 304.179 669.819C328.802 652.402 350.906 634.43 389.248 600.653C456.935 541.026 483.885 524.39 524.026 517.458C553.117 512.435 572.213 513.734 654.815 526.359C759.035 542.29 842.682 548.349 888.485 543.287C928.884 538.823 964.55 528.121 1004.09 508.602C1071.95 475.1 1125.19 429.748 1197.22 344.079C1207.14 332.285 1225.36 310.581 1237.72 295.846C1250.08 281.111 1276.44 250.956 1296.29 228.835C1337.79 182.6 1356.4 160.42 1380.84 128.074L1398.23 105.06V93.4236V81.7852L1383.31 103.036C1353.54 145.41 1337.36 165.4 1283.11 226.807C1268.05 243.842 1239.74 277.197 1220.19 300.93C1173.48 357.61 1164.31 368.012 1135.06 397.466C1057.3 475.746 979.981 516.338 894.415 523.8C868.552 526.055 847.677 525.083 791.95 519.024C715.632 510.725 677.758 503.827 606.096 485.172C536.85 467.145 516.682 465.258 490.428 474.343C469.176 481.696 458.477 490.726 388.665 560.222C344.177 604.51 315.516 631.543 302.762 641.249C253.684 678.598 208.897 699.904 156.799 710.683C135.532 715.083 91.3329 715.208 77.3199 710.907C63.518 706.672 46.9607 695.58 40.0408 685.936C21.432 659.996 19.7467 628.326 32.5598 545.247C37.2638 514.756 38.2635 502.836 38.4205 475.42C38.6857 429.285 36.4537 421.067 9.42184 368.6C-17.6009 316.149 -25.0585 297.186 -38.1621 247.584C-60.4971 163.033 -71.5292 139.379 -101.401 111.99C-116.214 98.4074 -139.922 85.9756 -161.273 80.5915C-188.247 73.7886 -223.04 72.1375 -274.455 75.2164ZM1384.34 135.597C1366.04 160.166 1339.59 191.15 1297.16 237.731C1277.02 259.83 1240.6 301.645 1216.21 330.652C1168.19 387.761 1116.32 441.363 1086.07 465.12C1058.98 486.392 1029.65 504.918 1000.36 519.247C914.624 561.192 847.269 566.501 674.663 544.917C606.632 536.411 577.205 534.402 550.563 536.454C525.643 538.371 504.118 544.363 480.69 555.903C457.285 567.429 437.615 581.531 388.831 621.759C320.711 677.932 292.127 697.797 249.725 718.43C198.915 743.157 140.718 758.048 93.6443 758.368C46.5403 758.688 12.5922 744.314 -5.68643 716.307C-21.964 691.364 -23.209 659.135 -10.9878 579.064C-4.47569 536.404 -3.19636 523.638 -3.10434 500.438C-2.93833 458.426 -7.27613 442.44 -33.6421 387.86C-53.265 347.24 -60.6721 328.856 -71.4426 294.045C-93.8786 221.523 -105.427 193.654 -121.791 172.532C-138.989 150.333 -163.543 134.432 -192.459 126.77C-211.367 121.759 -259.363 120.294 -302.634 123.407L-334 125.662V139.836C-334 152.498 -333.663 153.91 -330.842 153.079C-329.105 152.566 -314.287 151.215 -297.912 150.075C-215.33 144.325 -169.415 160.52 -137.93 206.506C-123.72 227.256 -113.538 251.172 -96.6285 303.517C-84.5859 340.797 -73.6891 368.455 -57.1228 403.805C-42.4133 435.189 -38.9976 443.857 -34.5389 461.125C-25.0153 498.007 -26.0708 533.473 -38.8514 605.868C-53.3336 687.912 -48.5068 725.111 -19.9828 751.263C2.32332 771.715 33.4331 782.492 74.6981 784.061C103.623 785.162 121.4 783.276 156.799 775.355C234.596 757.945 292.014 729.271 367.914 669.925C383.297 657.897 404.002 641.764 413.927 634.073C467.339 592.68 505.881 574.089 552.364 567.291C579.152 563.372 628.597 564.73 682.873 570.87C823.168 586.746 898.327 579.994 979.859 544.195C1031.45 521.542 1081.92 486.165 1132.77 437.022C1158.07 412.57 1178.35 390.008 1247.76 309.11C1260.78 293.945 1281.48 270.764 1293.78 257.598C1334.89 213.569 1358.7 187.015 1378.54 163.054L1398.23 139.279V128.655C1398.23 122.812 1398.03 118.059 1397.78 118.093C1397.53 118.128 1391.48 126.005 1384.34 135.597ZM1387.41 164.108C1370.71 184.317 1342.53 215.533 1308.02 252.051C1276.9 284.994 1261.15 302.731 1196.99 377.138C1123.7 462.138 1066.6 509.288 991.337 546.975C942.482 571.437 898.184 584.648 847.886 589.751C824.258 592.148 750.203 592.23 726.089 589.883C716.165 588.919 691.399 586.415 671.054 584.319C623.763 579.448 565.794 580.15 541.137 585.891C494.955 596.647 463.378 614.118 395.034 666.728C327.887 718.417 301.739 735.627 260.552 755.246C219.789 774.665 160.203 792.197 114.673 798.169C52.641 806.307 -13.9181 789.256 -41.9045 758.061C-50.8778 748.057 -58.8461 732.159 -61.7006 718.562C-65.3275 701.289 -62.7219 659.884 -55.452 619.27C-42.8518 548.884 -40.7244 517.178 -46.383 484.223C-50.0568 462.838 -55.728 446.734 -73.7108 406.623C-88.2831 374.12 -97.704 349.901 -108.467 317.275C-129.795 252.623 -144.288 224.016 -166.865 202.017C-184.417 184.914 -204.527 174.721 -232.217 168.899C-248.054 165.568 -291.398 164.603 -318.211 166.983L-334 168.386V180.895V193.405L-310.994 192.178C-255.817 189.235 -215.786 200.283 -188.177 226.078C-174.343 239.001 -160.241 259.224 -150.885 279.554C-144.24 293.998 -139.958 305.329 -123.808 351.227C-117.583 368.918 -108.657 392.64 -103.972 403.942C-99.2882 415.245 -91.9226 433.032 -87.6047 443.468C-64.0265 500.45 -63.1478 539.32 -83.238 636.6C-97.0093 703.275 -97.3972 732.713 -84.853 758.883C-78.2344 772.689 -61.6934 788.369 -44.0716 797.538L-31.235 804.219H85.0211H201.277L213.773 799.961C259.641 784.333 304.208 761.518 345.359 732.6C353.298 727.021 376.44 709.774 396.785 694.272C441.227 660.409 465.321 644.366 490.614 631.8C544.948 604.806 595.775 599.272 687.294 610.385C757.058 618.857 814.613 617.631 868.637 606.52C930.22 593.856 1001.3 561.496 1061.71 518.622C1114.58 481.097 1154.53 442.388 1223.99 361.375C1260.33 318.991 1278.31 299.247 1325.16 250.264C1348.19 226.185 1374.1 198.668 1382.73 189.117L1398.41 171.749L1397.87 161.93L1397.33 152.112L1387.41 164.108ZM1377.21 206.062C1366.14 218.089 1339.81 245.618 1318.68 267.24C1282.03 304.754 1266.97 321.337 1203.35 394.212C1113.56 497.075 1029.28 559.864 928.182 599.236C848.954 630.088 781.953 637.427 690.001 625.326C599.712 613.443 550.251 618.455 495.125 645.077C471.323 656.573 442.117 676.093 395.882 711.409C337.467 756.031 298.813 780.437 261.546 796.232L244.808 803.326L271.229 803.821L297.649 804.316L310.677 796.838C332.827 784.123 363.564 762.726 404.002 731.866C462.772 687.017 488.075 671.163 520.888 658.631C570.022 639.866 610.002 638.128 688.139 651.362C733.433 659.031 756.361 660.618 781.157 657.798C872.711 647.386 979.929 600.957 1074.34 530.844C1129.57 489.827 1159.51 460.321 1246.23 361.466C1276.39 327.08 1295.16 307.402 1350.69 251.914L1398.23 204.424V194.285C1398.23 188.709 1398.03 184.158 1397.78 184.172C1397.53 184.185 1388.28 194.036 1377.21 206.062ZM-334 219.391V231.85L-312.798 232.906C-266.104 235.234 -236.23 246.408 -212.675 270.359C-191.861 291.518 -178.121 318.403 -157.186 378.925C-152.937 391.21 -143.085 418.953 -135.293 440.575C-115.762 494.78 -113.781 503.056 -112.567 535.505C-111.046 576.156 -115.27 603.073 -132.677 663.615C-149.812 723.212 -150.712 727.758 -150.786 755.078C-150.849 778.872 -150.607 780.589 -145.849 790.187C-143.097 795.735 -139.743 801.183 -138.395 802.291C-136.731 803.657 -126.011 804.148 -105.075 803.816L-74.207 803.326L-83.9111 795.894C-95.2933 787.176 -103.696 775.741 -109.09 761.633C-112.413 752.932 -112.939 747.977 -112.801 726.487C-112.635 700.178 -112.408 698.766 -97.9007 633.566C-86.495 582.307 -85.8923 577.545 -85.923 538.857C-85.9591 495.481 -87.6155 487.702 -107.372 438.216C-114.756 419.719 -125.328 391.777 -130.865 376.119C-147.807 328.22 -157.334 303.548 -163.938 290.471C-181.741 255.223 -200.346 235.031 -226.448 222.631C-249.59 211.638 -263.875 208.834 -301.972 207.801L-334 206.934V219.391ZM1337.74 275.568C1301.21 312.088 1261.08 354.508 1234.05 385.179C1169.28 458.678 1126.12 500.531 1077.95 536.559C990.806 601.735 876.188 656.599 792.5 673.197C781.572 675.364 768.725 676.309 751.35 676.224C728.642 676.113 721.984 675.264 685.49 667.832C637.413 658.04 611.605 655.404 585.793 657.65C529.887 662.516 488.08 682.267 415.731 737.988C374.762 769.542 361.458 779.345 341.961 792.336L324.127 804.219H342.699H361.27L371.359 796.736C376.907 792.62 395.751 778.173 413.235 764.633C486.258 708.078 524.553 688.632 574.602 682.687C605.269 679.045 630.392 682.587 681.247 697.724C698.963 702.996 719.533 708.312 726.96 709.536C764.313 715.692 805.317 703.702 892.094 661.242C981.138 617.674 1053.31 572.371 1115.84 520.793C1148.19 494.108 1185.7 456.484 1237.66 398.581C1283.65 347.341 1316.95 313.281 1368.11 265.169L1398.43 236.65L1397.88 226.319L1397.33 215.989L1337.74 275.568ZM-334 260.857V273.237L-323.625 274.386C-271.207 280.192 -237.594 303.835 -213.917 351.558C-204.705 370.126 -196.955 391.589 -184.034 434.32C-179.13 450.537 -173.173 470.238 -170.795 478.101C-153.309 535.916 -154.012 578.879 -173.386 636.521C-183.182 665.668 -196.751 694.56 -220.884 737.656C-232.302 758.05 -244.911 781.168 -248.901 789.03L-256.158 803.326L-217.224 803.808C-195.811 804.073 -177.982 803.984 -177.603 803.61C-177.226 803.235 -177.848 800.604 -178.991 797.767C-182.347 789.416 -181.526 763.933 -177.356 747.037C-175.295 738.683 -167.442 713.755 -159.905 691.641C-133.897 615.333 -127.394 584.235 -128.758 542.663C-129.842 509.571 -131.594 502.586 -159.301 420.918C-191.686 325.458 -201.603 305.47 -229.088 280.271C-250.429 260.704 -284.855 248.554 -319.114 248.501L-334 248.477V260.857ZM1371.16 274.717C1323.12 319.091 1286.36 356.15 1238.53 408.41C1173.51 479.473 1141.83 509.892 1095.99 545.312C1033.45 593.631 940.667 650.006 843.375 698.798C815.67 712.694 787.828 725.358 778.828 728.158C747.428 737.931 725.517 736.187 685.49 720.728C636.632 701.858 616.873 697.002 588.954 697.002C535.847 697.002 493.73 716.621 413.558 778.711L381.774 803.326L396.216 803.841L410.659 804.355L433.946 786.995C465.603 763.395 483.582 752.005 505.484 741.678C532.618 728.882 549.842 724.773 576.323 724.775C609.903 724.777 626.7 730.633 675.277 759.274C707.834 778.469 725.733 783.185 748.299 778.509C768.101 774.406 783.144 766.327 837.302 730.711C864.46 712.851 911.446 682.567 941.715 663.417C1104.25 560.583 1150.79 523.53 1241.83 424.492C1293.91 367.831 1340.69 322.586 1389.76 281.427L1398.41 274.168L1397.87 262.36L1397.33 250.55L1371.16 274.717ZM-334 304.752V319.702L-323.702 322.666C-292.493 331.651 -267.814 352.991 -251.479 385.113C-233.731 420.016 -213.249 508.525 -213.141 550.79C-213.06 581.919 -220.411 610.344 -236.576 641.408C-252.939 672.853 -279.047 702.89 -316.407 733.247L-334 747.543V775.88V804.219H-323.388H-312.777L-290.608 780.074C-248.572 734.289 -224.404 701.33 -206.824 665.811C-178.029 607.639 -170.764 557.915 -183.18 504.012C-194.74 453.83 -212.906 394.523 -224.128 370.33C-246.216 322.711 -278.881 297.497 -327.233 290.746L-334 289.802V304.752ZM1385.24 300.653C1338.16 339.113 1302.77 372.824 1245.97 433.313C1198.46 483.914 1167.34 513.254 1128.47 544.12C1091.61 573.39 1070.3 588.404 985.021 645.197C905.348 698.257 872.244 721.448 837.06 748.851C798.075 779.213 778.868 793.215 768.716 798.669L758.568 804.125L785.668 804.171L812.769 804.219L830.779 786.221C879.909 737.119 917.922 707.476 1031.03 630.049C1153.45 546.252 1178.93 525.405 1265.61 438.116C1313.75 389.632 1343.17 363.214 1376.08 338.92L1398.14 322.636L1398.19 307C1398.21 298.401 1397.87 291.364 1397.42 291.364C1396.98 291.364 1391.5 295.544 1385.24 300.653ZM-334 361.747V382.095L-320.729 395.252C-310.521 405.372 -305.745 411.917 -300.046 423.599C-280.368 463.937 -276.14 527.744 -290.005 575.145C-296.865 598.6 -305.844 614.19 -325.274 636.385L-334 646.351V678.976V711.598L-326.331 705.651C-311.566 694.202 -284.785 667.391 -273.96 653.222C-260.719 635.892 -247.215 608.539 -241.759 587.998C-230.265 544.724 -243.209 448.659 -267.042 400.368C-276.042 382.131 -287.208 367.982 -300.402 358.096C-310.471 350.552 -327.928 341.399 -332.248 341.399C-333.278 341.399 -334 349.771 -334 361.747ZM1386.71 354.899C1357.21 372.515 1327.7 397.107 1270.12 452.063C1247.79 473.376 1224.65 495.209 1218.69 500.581C1184.09 531.806 1137.91 566.312 1052.69 624.627C947.302 696.736 912.854 723.66 864.126 772.001L832.549 803.326L845.979 803.858L859.409 804.389L869.321 793.137C883.321 777.24 914.617 746.42 932.693 730.729C978.276 691.161 1010.48 668.408 1155.54 573.295C1183.33 555.075 1221.71 529.016 1240.84 515.389C1310.35 465.874 1319.96 459.334 1332.72 452.885C1340.4 449.002 1349.31 445.98 1354.53 445.483C1362.58 444.717 1363.73 445.098 1367.46 449.756C1370.99 454.168 1371.4 456.252 1370.5 464.934C1369.93 470.469 1366.53 482.933 1362.95 492.632C1337.52 561.476 1334.47 573.172 1334.52 601.4C1334.56 623.982 1338.31 639.541 1348.71 660.291C1361.97 686.731 1378.5 705.596 1393.27 711.135L1398.23 712.996V530.771C1398.23 430.548 1398.03 348.549 1397.78 348.552C1397.53 348.554 1392.55 351.409 1386.71 354.899ZM-333.87 504.905C-333.854 594.269 -334.337 591.778 -322.99 560.987C-314.803 538.77 -311.824 518.908 -312.838 493.29C-313.76 469.977 -316.739 455.85 -323.955 440.575C-334.224 418.835 -333.886 416.646 -333.87 504.905ZM1254.72 538.837C1224.71 546.857 1150.35 587.48 1070.73 639.341C1000.08 685.362 958.126 718.112 914.561 761.25C897.145 778.495 881.051 795.217 878.801 798.412L874.707 804.219L885.205 804.214L895.703 804.209L913.747 784.393C968.587 724.175 1051.44 663.027 1132.51 622.944C1162.92 607.905 1185.83 600.21 1203.35 599.147C1233.21 597.335 1243.74 605.812 1265.37 649.082C1291.58 701.536 1314.46 736.133 1332.9 751.227C1348.55 764.036 1370.2 771.968 1389.66 772.027L1398.23 772.054V756.2V740.347L1390.78 739.165C1363.96 734.918 1341.98 713.08 1320.56 669.372C1308.85 645.483 1303.75 626.97 1299.13 591.572C1293.85 551.146 1290.97 543.262 1279.73 538.614C1272.52 535.628 1266.54 535.682 1254.72 538.837ZM1168.17 624.951C1123.4 634.87 1046.1 678.768 986.542 728.108C964.021 746.762 929.341 780.042 916.109 795.694L908.901 804.219L918.541 804.218L928.182 804.214L951.64 780.757C1034.02 698.368 1128.89 647.747 1177.7 660.129C1201 666.042 1212.12 676.256 1251.48 727.902C1265.12 745.797 1280.37 764.758 1285.38 770.037C1296.59 781.857 1313.28 793.839 1326.79 799.756C1336.36 803.944 1338.87 804.219 1367.61 804.219H1398.23L1398.21 795.731L1398.2 787.243L1382.72 786.924C1354.08 786.334 1329.26 775.282 1309.16 754.174C1297.37 741.799 1278.02 714.261 1254.66 676.629C1237.5 648.996 1223.93 633.687 1211.47 627.938C1204.09 624.531 1199.66 623.807 1187.11 623.962C1178.68 624.066 1170.15 624.511 1168.17 624.951ZM1121.25 680.748C1095.53 687.673 1068.4 700.726 1038.08 720.76C1011.81 738.118 992.5 753.933 965.173 780.467L940.813 804.119L951.448 804.169L962.082 804.219L976.784 790.242C1017.58 751.456 1067.38 720.374 1103.31 711.273C1122.89 706.312 1143.9 706.518 1158.61 711.814C1180.47 719.682 1195.19 731.944 1240.06 779.649L1263.17 804.219H1283.15H1303.13L1291.54 795.531C1277.76 785.196 1266.47 773.219 1243.3 744.357C1217.71 712.475 1196.13 691.72 1180.94 684.378C1169.8 678.995 1166.58 678.288 1151.17 677.844C1138.52 677.48 1130.5 678.259 1121.25 680.748ZM1103.73 726.53C1070.27 733.124 1034.01 753.558 991.129 789.985L975.422 803.326L987.488 803.855L999.554 804.386L1014.92 792.962C1035.83 777.421 1056.57 766.222 1077.05 759.404C1091.58 754.569 1096.8 753.702 1111.33 753.72C1140.56 753.758 1158.47 761.642 1192.54 789.477L1210.59 804.219H1227.24H1243.9L1222.27 782.579C1185.17 745.452 1164.86 731.508 1140.42 726.376C1126.07 723.363 1119.66 723.39 1103.73 726.53ZM540.054 744.331C514.905 749.75 486.675 763.843 450.922 788.828L430.175 803.326L446.684 803.837L463.19 804.348L480.962 794.529C513.835 776.366 545.524 768.99 570.365 773.718C585.125 776.527 604.701 786.094 616.361 796.194L625.625 804.219H661.316H697.005L687.188 798.33C681.789 795.09 667.399 785.058 655.214 776.036C630.811 757.966 613.053 748.617 595.242 744.46C581.088 741.156 555.073 741.095 540.054 744.331ZM1079.11 773.798C1064.25 777.773 1045.47 786.334 1029.23 796.53L1018.4 803.326L1040.06 803.857C1056.11 804.252 1064.51 803.617 1072.53 801.405C1086.47 797.563 1110.77 797.508 1125.46 801.283C1141.13 805.311 1186.88 805.567 1183.56 801.607C1179.34 796.566 1152.58 780.735 1140.59 776.18C1123.73 769.778 1097.87 768.775 1079.11 773.798ZM522.191 794.357C516.236 795.656 507.305 798.364 502.342 800.372L493.32 804.025L540.235 804.043L587.149 804.062L579.932 800.258C564.3 792.022 542.913 789.836 522.191 794.357Z" fill="#002E72" fill-opacity="0.02"/>
</g>
<defs>
<clipPath id="clip0">
<rect width="1400" height="800" fill="white"/>
</clipPath>
</defs>
</svg>
