<svg width="1300" height="800" viewBox="0 0 1300 800" fill="none" xmlns="http://www.w3.org/2000/svg">
<g clip-path="url(#clip0)">
<rect width="1300" height="800" fill="white"/>
<path d="M0 0H1300V800H0V0Z" fill="url(#paint0_linear)"/>
<path d="M0 1599.44H1300V799.444H0V1599.44Z" fill="url(#paint1_linear)"/>
<path fill-rule="evenodd" clip-rule="evenodd" d="M13.5401 1.97487C19.1254 2.72323 42.8883 3.84843 66.3465 4.47413C128.6 6.13438 144.424 8.61763 172.781 21.1797C207.788 36.6836 230.304 62.6307 243.635 102.827C249.206 119.621 252.234 132.228 257.094 158.838C259.271 170.76 263.62 194.512 266.758 211.621C275.984 261.926 283.543 286.211 303.749 330.472C330.281 388.59 332.656 415.639 320.232 518.251C317.138 543.801 316.119 579.811 318.075 594.546C322.703 629.437 341.01 647.126 370.131 644.838C386.491 643.553 395.727 640.09 413.65 628.515C456.621 600.767 496.682 539.709 512.315 478.138C519.302 450.618 520.121 441.588 521.326 378.712C521.955 345.96 523.03 315.964 523.718 312.053C531.054 270.305 545.745 242.821 568.94 227.45C583.762 217.627 602.337 214.317 617.273 218.838C640.577 225.891 659.997 252.503 674.415 297.139C686.52 334.616 691.337 347.539 699.016 363.124C720.084 405.896 751.668 432.345 801.38 448.851C844.637 463.214 886.952 473.911 910.338 476.393C976.941 483.462 1039.26 446.336 1101.53 362.477C1121.61 335.441 1128.88 324.254 1166.69 262.281C1181.6 237.84 1203.72 202.244 1215.84 183.18C1244.57 137.998 1260.38 110.223 1282.1 66.7991L1299.85 31.2976V20.138C1299.85 14.0001 1299.61 8.97848 1299.33 8.97848C1299.04 8.97848 1296.2 14.7769 1293.03 21.8658C1272.86 66.824 1245.04 117.755 1211.7 170.737C1200.31 188.824 1178.24 224.819 1162.64 250.727C1126.9 310.077 1115.04 328.284 1095.47 353.826C1053.08 409.137 1009.14 442.263 964.656 452.449C949.397 455.942 921.519 455.894 903.298 452.342C884.454 448.668 834.486 432.188 809.698 421.471C776.812 407.252 758.366 393.284 741.522 369.844C726.731 349.259 718.723 330.291 702.119 276.502C697.893 262.815 692.238 246.417 689.55 240.062C669.011 191.504 639.137 168.714 599.289 171.203C548.635 174.367 506.851 219.933 491.32 288.945C488.177 302.913 488.121 304.518 488.083 379.601L488.045 456.036L484.428 473.415C471.572 535.189 436.07 588.648 396.772 605.403C386.75 609.676 372.068 609.792 363.915 605.661C355.533 601.416 347.772 589.789 344.452 576.507C340.412 560.342 341.097 526.781 346.349 483.588C352.556 432.556 353.838 412.377 352.144 392.44C349.538 361.745 344.141 344.871 324.203 305.066C303.619 263.972 297.142 241.575 284.368 167.329C275.579 116.251 270.665 94.2625 263.462 73.7956C252.626 43.0046 236.498 21.1726 213.089 5.60466L204.798 0.0906558L104.091 0.351958C48.1486 0.495941 7.89929 1.21763 13.5401 1.97487ZM245.929 6.84896C272.773 34.7052 284.908 70.4556 301.258 169.848C310.389 225.361 320.046 256.689 337.966 288.945C354.993 319.592 361.985 334.813 366.08 350.152C369.601 363.345 370.216 368.47 370.681 388.488C371.233 412.335 370.876 416.35 362.282 482.699C356.35 528.49 357.938 556.074 367.312 570.09C372.777 578.26 378.412 581.354 387.829 581.354C407.611 581.354 432.168 559.248 448.711 526.547C467.311 489.779 472.815 450.204 467.9 388.554C463.995 339.558 465.289 306.054 472.126 279.23C476.235 263.108 486.179 238.348 494.027 224.698C514.853 188.482 541.559 164.583 573.423 153.653C584.51 149.849 590.152 148.985 604.565 148.883C636.878 148.659 661.089 160.58 680.993 186.518C695.654 205.627 704.52 225.742 718.694 272.058C733.722 321.169 741.774 339.445 757.509 360.163C769.028 375.329 775.41 381.181 793.102 392.79C816.321 408.026 871.222 430.279 905.833 438.481C923.944 442.774 956.89 442.759 972.108 438.454C1022.03 424.326 1069.32 384.178 1113.43 318.468C1126.47 299.054 1140.71 276.022 1171.28 224.953C1178.3 213.221 1194.75 186.424 1207.84 165.404C1234.97 121.829 1247.7 99.9667 1262.19 72.082C1272.9 51.4534 1295.79 3.21028 1295.79 1.24607C1295.79 0.611482 1293.5 0.0906558 1290.71 0.0906558C1286.05 0.0906558 1285.35 0.769685 1282.3 8.32256C1277.02 21.4037 1248.2 78.2466 1237.11 97.4781C1231.54 107.13 1217.44 130.16 1205.78 148.658C1194.11 167.157 1174.13 199.889 1161.37 221.397C1127.46 278.573 1114.47 298.681 1094.76 324.53C1042.14 393.549 988.148 424.621 932.7 417.806C898.145 413.557 842.99 392.084 815.114 372.025C777.65 345.068 760.654 317.542 740.545 251.252C736.751 238.743 731.157 221.804 728.116 213.613C707.921 159.216 680.7 130.777 637.681 119.125C617.851 113.755 585.368 114.87 565.299 121.612C520.41 136.689 488.24 166.65 449.591 229.373C431.45 258.812 419.375 274.324 412.166 277.448C401.628 282.012 386.797 275.707 371.85 260.307C350.773 238.588 338.409 204.765 326.44 136.074C316.014 76.2504 304.033 36.1503 288.73 9.86726L283.555 0.979438L239.329 0L245.929 6.84896ZM313.834 16.5331C323.757 38.0505 332.917 66.6036 340.645 100.1C352.5 151.486 356.468 166.344 362.416 181.616C372.733 208.107 385.557 221.294 400.866 221.152C413.691 221.033 425.425 212.044 451.562 182.311C484.982 144.294 512.149 122.842 543.635 109.603C597.281 87.0473 655.589 94.6287 695.623 129.364C719.497 150.078 734.09 177.641 752.819 237.396C772.644 300.648 787.824 327.525 817.822 352.482C842.785 373.249 885.842 393.235 922.081 400.873C992.81 415.779 1056.17 375.574 1121.43 274.371C1126.98 265.765 1143 239.529 1157.03 216.065C1171.07 192.601 1191.69 159.005 1202.86 141.407C1233.37 93.3524 1260.22 44.5458 1275.96 8.53409L1279.65 0.0906558H1274.45C1269.27 0.0906558 1269.21 0.177755 1258.61 22.1253C1240.35 59.9608 1223.54 89.3404 1195.44 132.519C1188.45 143.273 1170.28 172.47 1155.09 197.4C1120.04 254.885 1108.57 272.239 1090.4 295.277C1041.39 357.406 992.024 384.171 939.258 377.222C887.795 370.444 840.98 343.937 813.297 305.899C796.851 283.299 787.5 262.164 772.586 213.871C758.982 169.825 748.591 147.038 732.602 126.189C694.061 75.9376 621.538 55.6769 549.051 74.9137C528.679 80.3193 510.674 87.6162 479.018 103.298C444.553 120.37 436.837 123.192 424.482 123.253C404.502 123.349 391.967 108.17 370.796 58.2437C366.976 49.235 359.547 32.4654 354.288 20.977L344.724 0.0906558H306.251L313.834 16.5331ZM370.505 2.31261C374.915 11.9257 395.279 45.6016 401.674 53.8549C412.002 67.1866 417.506 71.9398 428.022 76.613C442.245 82.9323 460.053 81.0747 501.661 68.9286C543.814 56.6243 556.21 53.91 580.616 51.6454C633.405 46.7446 690.156 62.9453 725.289 92.9417C751.295 115.149 766.172 142.369 784.545 201.377C796.584 240.042 801.106 252.132 810.321 270.305C832.627 314.291 869.261 343.984 918.019 357.596C936.515 362.76 972.719 363.274 988.208 358.59C1036.96 343.85 1078.38 305.176 1126.64 229.331C1133.77 218.125 1147.78 195.756 1157.77 179.625C1167.76 163.493 1182.66 139.896 1190.88 127.187C1211.8 94.8366 1226.21 71.1879 1236.38 52.5288C1245.2 36.3459 1261.94 2.57569 1261.94 0.965217C1261.94 0.485275 1259.59 0.0906558 1256.73 0.0906558C1251.62 0.0906558 1251.33 0.458611 1242.29 18.3107C1229.18 44.1938 1215.09 68.2851 1196.28 96.9679C1187.31 110.655 1170.27 137.052 1158.41 155.628C1100.45 246.442 1074.82 278.562 1038.19 306.289C975.452 353.778 895.043 342.608 847.165 279.753C830.506 257.885 821.372 237.081 805.597 185.087C790.437 135.122 781.877 115.199 766.926 95.0908C742.247 61.8966 700.402 38.8842 643.832 27.3958C620.899 22.7404 566.087 22.8275 534.834 27.5718C504.801 32.1313 469.661 32.3357 457.655 28.0197C445.839 23.7731 434.174 16.3838 425.196 7.45866L417.785 0.0906558H393.635C374.673 0.0906558 369.704 0.568821 370.505 2.31261ZM464.019 1.87178C465.656 2.74811 471.749 4.81542 477.559 6.46678C486.237 8.93226 493.673 9.34644 519.263 8.7865C536.391 8.40966 568.38 8.16435 590.348 8.23901C624.609 8.35633 632.893 8.92693 648.571 12.2599C700.844 23.3714 740.312 42.0749 766.825 68.3029C786.57 87.8366 799.949 113.878 813.056 158.294C828.081 209.21 834.597 228.035 842.59 243.617C862.76 282.94 894.122 308.777 932.075 317.34C991.995 330.856 1053.62 293.702 1114.23 207.522C1129.54 185.75 1202.01 75.047 1215.69 52.5288C1221.04 43.7299 1229.71 28.3326 1234.96 18.3107L1244.5 0.0906558H1231.32L1218.34 22.7546C1200.36 54.1499 1130.3 159.072 1106.37 190.429C1077.63 228.079 1055.18 250.356 1027.69 268.464C1002.02 285.377 982.313 292.016 957.958 291.952C938.872 291.903 922.979 287.142 906.51 276.543C873.77 255.472 857.296 225.141 837.455 149.406C827.349 110.826 819.949 90.7731 809.401 73.369C794.115 48.1489 766.911 26.5053 729.134 9.50819L710.178 0.979438L585.609 0.62748C511.108 0.417728 462.237 0.917223 464.019 1.87178ZM752.153 1.886C753.642 2.741 761.606 7.10137 769.852 11.5755C790.486 22.7724 805.682 35.4606 817.822 51.6294C833.855 72.985 838.885 86.6385 854.998 152.559C866.071 197.861 874.913 219.076 891.119 239.228C902.176 252.978 910.951 260.202 924.464 266.676C976.033 291.382 1037.41 260.788 1102.66 177.847C1117.63 158.824 1127.12 145.232 1179.66 67.6381C1199.13 38.8771 1217.54 9.57752 1220.11 3.2725C1221.3 0.369733 1220.65 0.0906558 1212.76 0.0906558H1204.11L1195.47 12.978C1172.44 47.3401 1113.11 131.003 1100.27 147.22C1044.85 217.229 991.946 250.727 951.604 241.358C922.595 234.623 900.849 210.234 888.729 170.845C885.723 161.074 882.739 146.308 872.716 91.6352C868.503 68.6442 860.942 46.981 852.998 35.1318C846.309 25.1561 834.044 13.3851 822.262 5.6331L813.837 0.0906558L781.642 0.21153C762.01 0.28441 750.501 0.938554 752.153 1.886ZM866.745 7.03738C884.947 24.1482 890.046 40.5871 896.315 102.373C901.325 151.735 908.033 175.225 922.733 194.89C945.397 225.207 978.084 228.863 1015.51 205.27C1030.77 195.646 1037.6 190.146 1054.77 173.663C1080.28 149.18 1101.22 122.963 1152.24 51.624C1163.78 35.5015 1176.82 17.3117 1181.23 11.2004L1189.25 0.0906558H1144.45L1125.68 24.5375C1115.35 37.983 1094.41 65.8179 1079.15 86.395C1034.51 146.56 1008.32 168.959 982.617 168.959C970.139 168.959 963.814 166.25 956.463 157.755C941.512 140.479 937.537 110.751 945.041 72.3415C948.385 55.22 957.817 28.6703 966.04 13.2269C969.417 6.88628 972.179 1.33673 972.179 0.894115C972.179 0.451501 946.794 0.0906558 915.767 0.0906558H859.355L866.745 7.03738ZM0 39.2468V57.4527L50.4369 56.1924C118.378 54.4948 134.342 57.1842 162.447 75.0665C175.053 83.0869 178.075 85.9932 189.613 101.195C201.031 116.242 203.429 120.544 209.551 136.963C217.87 159.279 222.212 176.818 232.052 227.841C242.281 280.885 246.564 296.626 260.52 332.495C282.016 387.74 284.134 393.727 287.899 409.896C291.403 424.946 291.605 427.716 291.582 460.48C291.56 489.959 290.927 500.738 287.343 532.565C279.163 605.181 278.826 621.556 284.961 648.237C289.018 665.883 301.367 682.435 315.224 688.799C342.141 701.16 387.186 691.748 425.736 665.707C473.814 633.229 514.223 580.809 570.09 478.446C597.098 428.96 606.051 418.844 622.845 418.832C633.669 418.824 639.972 421.574 669.84 439.334C730.243 475.248 760.576 486.466 834.747 500.317C891.662 510.945 911.69 512.353 938.737 507.626C990.381 498.603 1041.72 463.121 1089.79 403.235C1111.57 376.086 1129.94 348.692 1171.19 281.835C1182.65 263.259 1203.07 231.263 1216.58 210.732C1251.93 156.989 1269.78 126.74 1292.93 81.3698C1299.71 68.0772 1299.96 67.1439 1299.57 56.8945L1299.17 46.238L1284 76.3482C1266.67 110.721 1246.28 146.701 1227.89 175.364C1196.25 224.659 1180.92 249.044 1158.15 286.279C1127.62 336.187 1114.19 356.295 1093.94 382.372C1047.35 442.375 998.417 477.653 948.484 487.23C931.617 490.466 902.446 489.683 880.205 485.4C855.327 480.609 802.92 467.123 783.071 460.403C743.434 446.986 713.528 425.551 691.21 394.557C678.853 377.396 672.679 364.783 658.589 327.909C652.208 311.209 643.879 292.098 640.08 285.44C612.963 237.902 566.847 250.533 551.935 309.581C547.958 325.326 546.208 343.479 544.326 388.488C542.851 423.73 540.964 439.234 535.235 463.112C527.023 497.341 507.357 540.559 484.973 573.565C442.675 635.936 388.533 671.221 347.159 663.384C326 659.373 312.251 645.535 306.468 622.421C302.184 605.305 303.09 561.227 308.716 512.918C312.595 479.615 313.266 469.193 313.245 442.704C313.222 416.387 312.765 409.407 310.275 397.376C306.834 380.744 299.741 360.641 287.699 333.384C270.048 293.437 261.769 264.678 251.878 208.954C241.543 150.73 236.52 129.778 227.346 106.633C210.294 63.5995 177.576 36.9236 130.406 27.5914C119.126 25.3605 103.033 24.5766 60.2534 24.1802C29.7205 23.8958 3.67208 23.0728 2.36952 22.3529C0.201748 21.153 0 22.5928 0 39.2468ZM44.6823 74.8212C36.1182 75.502 22.5619 76.1633 14.5556 76.2913L0 76.5259V108.926L5.75454 107.895C21.2756 105.111 62.21 102.804 80.4282 103.685C117.512 105.477 140.615 116.884 160.45 143.192C177.049 165.207 186.606 189.826 197.706 239.173C215.942 320.237 219.654 333.356 237.965 381.378C251.544 416.994 256.347 434.73 258.73 458.053C260.669 477.034 259.615 519.285 256.566 544.914C249.891 601.009 248.686 615.533 248.607 640.903C248.518 669.907 250.137 680.887 256.937 697.383C269.325 727.431 301.782 743.417 339.18 737.89C390.966 730.236 434.488 707.933 478.884 666.3C497.36 648.975 513.947 631.098 542.718 597.498C593.51 538.184 613.734 521.635 643.855 514.74C665.684 509.743 680.014 511.036 741.998 523.594C820.204 539.441 882.972 545.469 917.342 540.433C947.657 535.993 974.42 525.347 1004.09 505.93C1055.01 472.605 1094.96 427.49 1149.01 342.272C1156.46 330.54 1170.13 308.95 1179.41 294.292C1188.68 279.634 1208.46 249.638 1223.35 227.633C1254.49 181.64 1268.46 159.577 1286.8 127.402L1299.85 104.508V81.3556L1288.65 102.494C1266.32 144.646 1254.17 164.531 1213.46 225.616C1202.17 242.561 1180.92 275.741 1166.25 299.349C1131.2 355.732 1124.32 366.079 1102.37 395.378C1044.02 473.246 986 513.625 921.791 521.049C902.384 523.292 886.719 522.325 844.902 516.297C787.634 508.042 759.214 501.181 705.439 482.623C653.478 464.691 638.344 462.814 618.643 471.851C602.696 479.166 594.668 488.148 542.281 557.279C508.898 601.334 487.391 628.225 477.821 637.881C440.993 675.034 407.385 696.228 368.291 706.95C352.332 711.326 319.166 711.451 308.651 707.172C298.294 702.959 285.869 691.926 280.677 682.332C266.713 656.529 265.448 625.025 275.063 542.383C278.593 512.052 279.343 500.194 279.461 472.923C279.66 427.03 277.985 418.855 257.701 366.664C237.423 314.488 231.827 295.625 221.994 246.283C205.234 162.176 196.956 138.646 174.54 111.402C163.425 97.8905 145.635 85.524 129.613 80.1682C109.372 73.401 83.2635 71.7585 44.6823 74.8212ZM1289.43 134.885C1275.7 159.325 1255.85 190.146 1224 236.482C1208.9 258.465 1181.56 300.06 1163.26 328.915C1127.23 385.724 1088.31 439.044 1065.61 462.677C1045.28 483.837 1023.27 502.265 1001.29 516.519C936.956 558.244 886.414 563.525 756.892 542.054C705.841 533.593 683.76 531.595 663.768 533.636C645.068 535.543 628.916 541.503 611.336 552.983C593.773 564.448 579.013 578.476 542.406 618.493C491.289 674.371 469.84 694.132 438.022 714.656C399.895 739.253 356.224 754.066 320.9 754.384C285.554 754.702 260.08 740.404 246.363 712.544C234.149 687.733 233.215 655.672 242.385 576.022C247.272 533.586 248.232 520.887 248.301 497.809C248.426 456.018 245.171 440.116 225.386 385.822C210.661 345.416 205.103 327.129 197.021 292.5C180.185 220.359 171.519 192.636 159.24 171.626C146.335 149.543 127.909 133.726 106.211 126.104C92.0226 121.12 56.0073 119.662 23.5368 122.759L0 125.002V139.102C0 151.697 0.2532 153.102 2.36952 152.275C3.67343 151.765 14.7926 150.421 27.0802 149.287C89.0492 143.567 123.503 159.677 147.129 205.421C157.792 226.062 165.433 249.853 178.121 301.923C187.158 339.006 195.335 366.52 207.766 401.683C218.804 432.903 221.367 441.526 224.713 458.702C231.859 495.391 231.067 530.67 221.477 602.685C210.609 684.298 214.231 721.302 235.636 747.317C252.374 767.661 275.718 778.381 306.683 779.942C328.388 781.037 341.728 779.162 368.291 771.282C426.669 753.963 469.755 725.44 526.71 666.405C538.253 654.441 553.79 638.393 561.237 630.742C601.317 589.567 630.239 571.073 665.12 564.311C685.221 560.413 722.324 561.764 763.052 567.871C868.328 583.663 924.727 576.948 985.907 541.336C1024.62 518.802 1062.49 483.611 1100.65 434.726C1119.63 410.402 1134.86 387.959 1186.94 307.487C1196.71 292.4 1212.24 269.342 1221.47 256.245C1252.32 212.447 1270.18 186.033 1285.08 162.197L1299.85 138.547V127.979C1299.85 122.167 1299.7 117.438 1299.51 117.472C1299.32 117.508 1294.79 125.343 1289.43 134.885ZM1291.73 163.246C1279.2 183.349 1258.05 214.401 1232.16 250.727C1208.8 283.497 1196.99 301.141 1148.84 375.157C1093.84 459.71 1051 506.613 994.52 544.102C957.861 568.435 924.62 581.576 886.877 586.653C869.146 589.037 813.576 589.119 795.481 586.785C788.034 585.825 769.45 583.334 754.184 581.249C718.696 576.404 675.197 577.102 656.695 582.814C622.04 593.513 598.345 610.892 547.061 663.225C496.674 714.643 477.053 731.763 446.146 751.279C415.558 770.596 370.846 788.035 336.68 793.976C290.132 802.071 240.187 785.109 219.186 754.078C212.452 744.128 206.473 728.313 204.331 714.787C201.609 697.605 203.565 656.417 209.02 616.017C218.475 546 220.071 514.461 215.825 481.679C213.068 460.407 208.813 444.388 195.319 404.487C184.384 372.154 177.314 348.063 169.238 315.608C153.233 251.296 142.358 222.839 125.417 200.955C112.246 183.942 97.1556 173.803 76.377 168.012C64.4929 164.698 31.9682 163.739 11.8476 166.106L0 167.502V192.389L17.2636 191.168C58.6679 188.241 88.7066 199.231 109.424 224.89C119.806 237.746 130.387 257.862 137.408 278.086C142.394 292.454 145.608 303.725 157.726 349.382C162.397 366.98 169.096 390.577 172.611 401.82C176.126 413.063 181.653 430.757 184.893 441.138C202.586 497.821 203.245 536.487 188.169 633.256C177.836 699.58 177.545 728.864 186.958 754.896C191.924 768.63 204.336 784.228 217.56 793.348L227.192 799.995H401.667L411.044 795.759C445.463 780.212 478.905 757.518 509.785 728.752C515.742 723.202 533.108 706.045 548.374 690.625C581.723 656.94 599.803 640.981 618.783 628.481C659.555 601.629 697.694 596.124 766.37 607.179C818.72 615.606 861.909 614.387 902.448 603.334C948.659 590.736 1002 558.546 1047.33 515.897C1087 478.57 1116.98 440.065 1169.1 359.477C1196.37 317.315 1209.86 297.675 1245.02 248.95C1262.3 224.997 1281.74 197.624 1288.22 188.123L1299.99 170.847L1299.17 151.313L1291.73 163.246ZM1284.08 204.98C1275.77 216.943 1256.01 244.328 1240.16 265.837C1212.66 303.153 1201.35 319.649 1153.62 392.141C1086.23 494.463 1023 556.923 947.13 596.088C887.678 626.778 837.401 634.079 768.401 622.041C700.649 610.22 663.534 615.206 622.168 641.688C604.307 653.123 582.391 672.542 547.697 707.672C503.862 752.059 474.857 776.337 446.892 792.049L434.333 799.106L473.983 800.091L483.759 792.652C500.381 780.004 523.445 758.72 553.79 728.021C597.89 683.408 616.878 667.637 641.5 655.171C678.37 636.505 708.371 634.775 767.003 647.94C800.992 655.569 818.197 657.148 836.804 654.343C905.505 643.985 985.96 597.8 1056.8 528.056C1098.25 487.253 1120.72 457.902 1185.79 359.568C1208.42 325.362 1222.5 305.787 1264.18 250.59L1299.85 203.35V193.264C1299.85 187.718 1299.7 183.19 1299.51 183.205C1299.32 183.217 1292.38 193.017 1284.08 204.98ZM0 230.632L15.9096 231.682C50.9487 233.999 73.3657 245.114 91.0409 268.938C106.659 289.987 116.97 316.73 132.679 376.934C135.868 389.155 143.261 416.752 149.108 438.26C163.763 492.181 165.25 500.413 166.161 532.692C167.303 573.129 164.133 599.905 151.071 660.129C138.213 719.412 137.538 723.934 137.482 751.112C137.435 774.78 137.616 776.488 141.187 786.035C143.252 791.555 145.769 796.975 146.78 798.077C148.029 799.435 156.073 799.924 171.783 799.593L194.946 799.106L187.664 791.713C179.123 783.04 172.818 771.666 168.771 757.632C166.276 748.977 165.882 744.048 165.985 722.671C166.11 696.5 166.281 695.095 177.167 630.237C185.725 579.248 186.178 574.511 186.155 536.026C186.128 492.878 184.885 485.14 170.06 435.914C164.519 417.514 156.586 389.719 152.43 374.144C139.718 326.496 132.568 301.953 127.613 288.945C114.254 253.882 100.293 233.796 80.7058 221.461C63.3406 210.526 52.6209 207.737 24.0337 206.709L0 205.847V230.632ZM1254.46 274.12C1227.05 310.448 1196.94 352.646 1176.65 383.156C1128.05 456.269 1095.66 497.901 1059.51 533.74C994.122 598.573 908.114 653.15 845.315 669.66C837.115 671.816 827.475 672.757 814.437 672.671C797.397 672.561 792.401 671.717 765.016 664.324C728.939 654.583 709.573 651.961 690.204 654.195C648.253 659.036 616.882 678.683 562.591 734.111C531.848 765.499 521.865 775.251 507.235 788.174L493.852 799.995H521.724L529.295 792.55C533.458 788.457 547.598 774.085 560.719 760.616C615.514 704.358 644.25 685.015 681.806 679.101C704.819 675.478 723.671 679.001 761.832 694.059C775.126 699.303 790.562 704.591 796.135 705.809C824.164 711.932 854.933 700.005 920.05 657.768C986.868 614.429 1041.02 569.365 1087.95 518.057C1112.22 491.513 1140.37 454.086 1179.36 396.488C1213.87 345.516 1238.86 311.635 1277.25 263.776L1300 235.406L1299.17 214.854L1254.46 274.12ZM0 271.802L7.78556 272.945C47.1195 278.72 72.3421 302.239 90.1094 349.711C97.0216 368.182 102.837 389.532 112.533 432.039C116.213 448.17 120.683 467.768 122.468 475.589C135.589 533.1 135.061 575.838 120.523 633.177C113.172 662.171 102.99 690.911 84.8815 733.78C76.3134 754.068 66.8515 777.064 63.8578 784.885L58.412 799.106L87.6275 799.586C103.696 799.849 117.074 799.76 117.359 799.388C117.642 799.015 117.175 796.399 116.318 793.576C113.799 785.269 114.415 759.919 117.544 743.113C119.091 734.802 124.983 710.005 130.639 688.008C150.156 612.101 155.036 581.166 154.012 539.813C153.198 506.894 151.883 499.945 131.093 418.707C106.791 323.748 99.3491 303.866 78.7248 278.799C62.711 259.334 36.8778 247.249 11.1706 247.195L0 247.172V271.802ZM1279.54 273.274C1243.49 317.414 1215.9 354.279 1180.02 406.264C1131.22 476.954 1107.45 507.214 1073.05 542.447C1026.12 590.512 956.498 646.591 883.492 695.127C862.702 708.95 841.81 721.547 835.056 724.333C811.493 734.054 795.052 732.319 765.016 716.942C728.353 698.17 713.527 693.341 692.576 693.341C652.725 693.341 621.121 712.857 560.961 774.62L537.11 799.106L558.785 800.13L576.26 782.861C600.015 759.384 613.506 748.054 629.941 737.782C650.303 725.053 663.227 720.966 683.098 720.968C708.296 720.969 720.901 726.795 757.352 755.285C781.782 774.38 795.214 779.071 812.147 774.419C827.006 770.338 838.295 762.301 878.934 726.873C899.313 709.106 934.572 678.982 957.285 659.931C1079.25 557.638 1114.17 520.78 1182.49 422.262C1221.57 365.899 1256.67 320.891 1293.49 279.949L1299.98 272.728L1299.17 249.234L1279.54 273.274ZM0 318.022L7.72734 320.971C31.1463 329.909 49.6651 351.137 61.9229 383.09C75.241 417.809 90.6104 505.854 90.6916 547.897C90.7525 578.862 85.2363 607.138 73.1057 638.039C60.8275 669.319 41.2364 699.198 13.2016 729.395L0 743.616V799.995H15.9259L32.5612 775.976C64.1042 730.431 82.2399 697.646 95.432 662.313C117.039 604.447 122.491 554.984 113.174 501.364C104.5 451.446 90.8676 392.451 82.447 368.384C65.8726 321.016 41.3609 295.934 5.07754 289.219L0 288.28V318.022ZM1290.1 299.073C1254.77 337.332 1228.22 370.866 1185.6 431.036C1149.94 481.372 1126.59 510.557 1097.43 541.261C1069.76 570.378 1053.77 585.313 989.781 641.807C929.995 694.589 905.154 717.658 878.752 744.917C849.499 775.119 835.086 789.048 827.468 794.474L819.853 799.9L860.525 799.995L874.039 782.091C910.906 733.247 939.431 703.759 1024.31 626.739C1116.17 543.382 1135.29 522.645 1200.33 435.814C1236.46 387.585 1258.53 361.306 1283.23 337.14L1299.78 320.941L1299.82 305.387C1299.83 296.834 1299.58 289.834 1299.24 289.834C1298.91 289.834 1294.8 293.991 1290.1 299.073ZM0 359.847V380.088L9.95874 393.176C17.6184 403.242 21.2024 409.753 25.4784 421.373C40.2452 461.5 43.4177 524.972 33.0135 572.123C27.8655 595.456 21.128 610.963 6.54799 633.042L0 642.956V707.86L5.75454 701.944C16.8344 690.555 36.9306 663.885 45.0533 649.79C54.9891 632.552 65.1225 605.342 69.217 584.909C77.842 541.862 68.1284 446.302 50.2446 398.265C43.4908 380.123 35.1122 366.048 25.2117 356.215C17.6563 348.71 4.55624 339.605 1.31474 339.605C0.541604 339.605 0 347.933 0 359.847ZM1291.2 353.035C1269.06 370.558 1246.92 395.021 1203.71 449.688C1186.96 470.889 1169.59 492.607 1165.13 497.951C1139.16 529.012 1104.51 563.337 1040.56 621.346C961.477 693.076 935.628 719.858 899.063 767.945L875.368 799.106L895.523 800.164L902.961 788.97C913.467 773.157 936.951 742.499 950.515 726.89C984.72 687.53 1008.89 664.896 1117.74 570.284C1138.59 552.159 1167.39 526.237 1181.75 512.682C1233.9 463.427 1241.12 456.921 1250.69 450.506C1256.45 446.643 1263.14 443.637 1267.06 443.143C1273.1 442.381 1273.96 442.759 1276.76 447.393C1279.41 451.782 1279.72 453.855 1279.04 462.492C1278.61 467.997 1276.06 480.396 1273.37 490.044C1254.3 558.527 1252 570.161 1252.04 598.241C1252.07 620.704 1254.89 636.181 1262.69 656.822C1272.64 683.123 1285.05 701.889 1296.13 707.4L1299.85 709.25V527.983C1299.85 428.286 1299.7 346.718 1299.51 346.721C1299.32 346.723 1295.59 349.563 1291.2 353.035ZM0.0974887 502.253C0.109675 591.147 -0.253199 588.669 8.26217 558.04C14.4053 535.939 16.6408 516.182 15.8798 490.698C15.1879 467.508 12.9525 453.455 7.53777 438.26C-0.167897 416.634 0.0853026 414.457 0.0974887 502.253ZM1192.16 536.007C1169.65 543.984 1113.84 584.394 1054.1 635.982C1001.08 681.762 969.6 714.339 936.909 757.251C923.84 774.405 911.763 791.039 910.075 794.218L907.003 799.995L922.758 799.984L936.298 780.273C977.449 720.37 1039.62 659.544 1100.45 619.671C1123.28 604.711 1140.47 597.057 1153.62 596C1176.02 594.197 1183.92 602.63 1200.15 645.672C1219.82 697.85 1236.99 732.266 1250.83 747.281C1262.57 760.023 1278.81 767.913 1293.42 767.972L1299.85 767.999V736.457L1294.26 735.282C1274.13 731.057 1257.64 709.334 1241.57 665.856C1232.78 642.092 1228.96 623.676 1225.49 588.464C1221.53 548.251 1219.36 540.408 1210.93 535.785C1205.51 532.814 1201.03 532.868 1192.16 536.007ZM1127.21 621.668C1093.62 631.535 1035.62 675.203 990.923 724.283C974.023 742.839 947.999 775.944 938.07 791.514L932.661 799.995L947.13 799.989L964.732 776.655C1026.55 694.699 1097.74 644.344 1134.36 656.661C1151.85 662.543 1160.2 672.703 1189.73 724.078C1199.96 741.879 1211.41 760.741 1215.16 765.992C1223.58 777.75 1236.1 789.669 1246.24 795.554C1253.42 799.721 1255.31 799.995 1276.87 799.995H1299.85L1299.82 783.108L1288.21 782.79C1266.72 782.203 1248.1 771.209 1233.01 750.212C1224.17 737.903 1209.64 710.508 1192.11 673.075C1179.24 645.587 1169.05 630.358 1159.71 624.64C1154.17 621.25 1150.85 620.53 1141.43 620.685C1135.1 620.788 1128.7 621.23 1127.21 621.668ZM1092.01 677.172C1072.71 684.06 1052.34 697.045 1029.6 716.973C1009.88 734.241 995.394 749.972 974.887 776.367L956.608 799.895L972.568 799.995L983.6 786.091C1014.21 747.509 1051.58 716.59 1078.54 707.536C1093.24 702.602 1109.01 702.806 1120.04 708.075C1136.45 715.902 1147.49 728.099 1181.16 775.553L1198.5 799.995H1228.49L1219.79 791.352C1209.45 781.071 1200.98 769.157 1183.59 740.446C1164.39 708.733 1148.2 688.086 1136.8 680.782C1128.44 675.428 1126.02 674.724 1114.46 674.284C1104.97 673.921 1098.94 674.696 1092.01 677.172ZM1078.86 722.713C1053.75 729.272 1026.55 749.599 994.365 785.835L982.578 799.106L1000.69 800.16L1012.22 788.796C1027.91 773.337 1043.47 762.197 1058.84 755.415C1069.74 750.605 1073.66 749.743 1084.56 749.761C1106.5 749.798 1119.93 757.641 1145.5 785.33L1159.04 799.995H1184.04L1167.81 778.468C1139.97 741.536 1124.73 727.666 1106.39 722.56C1095.62 719.563 1090.81 719.59 1078.86 722.713ZM655.882 740.421C637.01 745.811 615.827 759.831 588.998 784.685L573.43 799.106L598.204 800.123L611.54 790.355C636.207 772.288 659.986 764.95 678.627 769.653C689.703 772.448 704.393 781.965 713.142 792.012L720.094 799.995H773.657L766.29 794.136C762.239 790.913 751.44 780.934 742.297 771.959C723.985 753.984 710.66 744.684 697.295 740.549C686.674 737.263 667.152 737.202 655.882 740.421ZM1060.38 769.733C1049.24 773.687 1035.14 782.203 1022.95 792.346L1014.83 799.106L1031.08 799.634C1043.13 800.027 1049.43 799.396 1055.45 797.195C1065.91 793.373 1084.14 793.318 1095.17 797.074C1106.93 801.081 1141.25 801.335 1138.76 797.396C1135.59 792.381 1115.52 776.634 1106.52 772.103C1093.87 765.734 1074.46 764.737 1060.38 769.733ZM642.478 790.184C638.01 791.477 631.307 794.17 627.584 796.168L620.814 799.801L691.222 799.838L685.806 796.054C674.076 787.861 658.027 785.687 642.478 790.184Z" fill="#001064" fill-opacity="0.1"/>
<path fill-rule="evenodd" clip-rule="evenodd" d="M13.5401 1597.03C19.1254 1596.28 42.8883 1595.15 66.3465 1594.53C128.6 1592.87 144.424 1590.38 172.781 1577.82C207.788 1562.32 230.304 1536.37 243.635 1496.17C249.206 1479.38 252.234 1466.77 257.094 1440.16C259.271 1428.24 263.62 1404.49 266.758 1387.38C275.984 1337.07 283.543 1312.79 303.749 1268.53C330.281 1210.41 332.656 1183.36 320.232 1080.75C317.138 1055.2 316.119 1019.19 318.075 1004.45C322.703 969.563 341.01 951.874 370.131 954.162C386.491 955.447 395.727 958.91 413.65 970.485C456.621 998.233 496.682 1059.29 512.315 1120.86C519.302 1148.38 520.121 1157.41 521.326 1220.29C521.955 1253.04 523.03 1283.04 523.718 1286.95C531.054 1328.69 545.745 1356.18 568.94 1371.55C583.762 1381.37 602.337 1384.68 617.273 1380.16C640.577 1373.11 659.997 1346.5 674.415 1301.86C686.52 1264.38 691.337 1251.46 699.016 1235.88C720.084 1193.1 751.668 1166.66 801.38 1150.15C844.637 1135.79 886.952 1125.09 910.338 1122.61C976.941 1115.54 1039.26 1152.66 1101.53 1236.52C1121.61 1263.56 1128.88 1274.75 1166.69 1336.72C1181.6 1361.16 1203.72 1396.76 1215.84 1415.82C1244.57 1461 1260.38 1488.78 1282.1 1532.2L1299.85 1567.7V1578.86C1299.85 1585 1299.61 1590.02 1299.33 1590.02C1299.04 1590.02 1296.2 1584.22 1293.03 1577.13C1272.86 1532.18 1245.04 1481.25 1211.7 1428.26C1200.31 1410.18 1178.24 1374.18 1162.64 1348.27C1126.9 1288.92 1115.04 1270.72 1095.47 1245.17C1053.08 1189.86 1009.14 1156.74 964.656 1146.55C949.397 1143.06 921.519 1143.11 903.298 1146.66C884.454 1150.33 834.486 1166.81 809.698 1177.53C776.812 1191.75 758.366 1205.72 741.522 1229.16C726.731 1249.74 718.723 1268.71 702.119 1322.5C697.893 1336.19 692.238 1352.58 689.55 1358.94C669.011 1407.5 639.137 1430.29 599.289 1427.8C548.635 1424.63 506.851 1379.07 491.32 1310.06C488.177 1296.09 488.121 1294.48 488.083 1219.4L488.045 1142.96L484.428 1125.58C471.572 1063.81 436.07 1010.35 396.772 993.597C386.75 989.324 372.068 989.208 363.915 993.339C355.533 997.584 347.772 1009.21 344.452 1022.49C340.412 1038.66 341.097 1072.22 346.349 1115.41C352.556 1166.44 353.838 1186.62 352.144 1206.56C349.538 1237.26 344.141 1254.13 324.203 1293.93C303.619 1335.03 297.142 1357.43 284.368 1431.67C275.579 1482.75 270.665 1504.74 263.462 1525.2C252.626 1556 236.498 1577.83 213.089 1593.4L204.798 1598.91L104.091 1598.65C48.1486 1598.5 7.89929 1597.78 13.5401 1597.03ZM245.929 1592.15C272.773 1564.29 284.908 1528.54 301.258 1429.15C310.389 1373.64 320.046 1342.31 337.966 1310.06C354.993 1279.41 361.985 1264.19 366.08 1248.85C369.601 1235.66 370.216 1230.53 370.681 1210.51C371.233 1186.67 370.876 1182.65 362.282 1116.3C356.35 1070.51 357.938 1042.93 367.312 1028.91C372.777 1020.74 378.412 1017.65 387.829 1017.65C407.611 1017.65 432.168 1039.75 448.711 1072.45C467.311 1109.22 472.815 1148.8 467.9 1210.45C463.995 1259.44 465.289 1292.95 472.126 1319.77C476.235 1335.89 486.179 1360.65 494.027 1374.3C514.853 1410.52 541.559 1434.42 573.423 1445.35C584.51 1449.15 590.152 1450.02 604.565 1450.12C636.878 1450.34 661.089 1438.42 680.993 1412.48C695.654 1393.37 704.52 1373.26 718.694 1326.94C733.722 1277.83 741.774 1259.55 757.509 1238.84C769.028 1223.67 775.41 1217.82 793.102 1206.21C816.321 1190.97 871.222 1168.72 905.833 1160.52C923.944 1156.23 956.89 1156.24 972.108 1160.55C1022.03 1174.67 1069.32 1214.82 1113.43 1280.53C1126.47 1299.95 1140.71 1322.98 1171.28 1374.05C1178.3 1385.78 1194.75 1412.58 1207.84 1433.6C1234.97 1477.17 1247.7 1499.03 1262.19 1526.92C1272.9 1547.55 1295.79 1595.79 1295.79 1597.75C1295.79 1598.39 1293.5 1598.91 1290.71 1598.91C1286.05 1598.91 1285.35 1598.23 1282.3 1590.68C1277.02 1577.6 1248.2 1520.75 1237.11 1501.52C1231.54 1491.87 1217.44 1468.84 1205.78 1450.34C1194.11 1431.84 1174.13 1399.11 1161.37 1377.6C1127.46 1320.43 1114.47 1300.32 1094.76 1274.47C1042.14 1205.45 988.148 1174.38 932.7 1181.19C898.145 1185.44 842.99 1206.92 815.114 1226.98C777.65 1253.93 760.654 1281.46 740.545 1347.75C736.751 1360.26 731.157 1377.2 728.116 1385.39C707.921 1439.78 680.7 1468.22 637.681 1479.87C617.851 1485.24 585.368 1484.13 565.299 1477.39C520.41 1462.31 488.24 1432.35 449.591 1369.63C431.45 1340.19 419.375 1324.68 412.166 1321.55C401.628 1316.99 386.797 1323.29 371.85 1338.69C350.773 1360.41 338.409 1394.24 326.44 1462.93C316.014 1522.75 304.033 1562.85 288.73 1589.13L283.555 1598.02L239.329 1599L245.929 1592.15ZM313.834 1582.47C323.757 1560.95 332.917 1532.4 340.645 1498.9C352.5 1447.51 356.468 1432.66 362.416 1417.38C372.733 1390.89 385.557 1377.71 400.866 1377.85C413.691 1377.97 425.425 1386.96 451.562 1416.69C484.982 1454.71 512.149 1476.16 543.635 1489.4C597.281 1511.95 655.589 1504.37 695.623 1469.64C719.497 1448.92 734.09 1421.36 752.819 1361.6C772.644 1298.35 787.824 1271.47 817.822 1246.52C842.785 1225.75 885.842 1205.77 922.081 1198.13C992.81 1183.22 1056.17 1223.43 1121.43 1324.63C1126.98 1333.23 1143 1359.47 1157.03 1382.94C1171.07 1406.4 1191.69 1440 1202.86 1457.59C1233.37 1505.65 1260.22 1554.45 1275.96 1590.47L1279.65 1598.91H1274.45C1269.27 1598.91 1269.21 1598.82 1258.61 1576.87C1240.35 1539.04 1223.54 1509.66 1195.44 1466.48C1188.45 1455.73 1170.28 1426.53 1155.09 1401.6C1120.04 1344.12 1108.57 1326.76 1090.4 1303.72C1041.39 1241.59 992.024 1214.83 939.258 1221.78C887.795 1228.56 840.98 1255.06 813.297 1293.1C796.851 1315.7 787.5 1336.84 772.586 1385.13C758.982 1429.18 748.591 1451.96 732.602 1472.81C694.061 1523.06 621.538 1543.32 549.051 1524.09C528.679 1518.68 510.674 1511.38 479.018 1495.7C444.553 1478.63 436.837 1475.81 424.482 1475.75C404.502 1475.65 391.967 1490.83 370.796 1540.76C366.976 1549.77 359.547 1566.53 354.288 1578.02L344.724 1598.91H306.251L313.834 1582.47ZM370.505 1596.69C374.915 1587.07 395.279 1553.4 401.674 1545.15C412.002 1531.81 417.506 1527.06 428.022 1522.39C442.245 1516.07 460.053 1517.93 501.661 1530.07C543.814 1542.38 556.21 1545.09 580.616 1547.35C633.405 1552.26 690.156 1536.05 725.289 1506.06C751.295 1483.85 766.172 1456.63 784.545 1397.62C796.584 1358.96 801.106 1346.87 810.321 1328.69C832.627 1284.71 869.261 1255.02 918.019 1241.4C936.515 1236.24 972.719 1235.73 988.208 1240.41C1036.96 1255.15 1078.38 1293.82 1126.64 1369.67C1133.77 1380.88 1147.78 1403.24 1157.77 1419.38C1167.76 1435.51 1182.66 1459.1 1190.88 1471.81C1211.8 1504.16 1226.21 1527.81 1236.38 1546.47C1245.2 1562.65 1261.94 1596.42 1261.94 1598.03C1261.94 1598.51 1259.59 1598.91 1256.73 1598.91C1251.62 1598.91 1251.33 1598.54 1242.29 1580.69C1229.18 1554.81 1215.09 1530.71 1196.28 1502.03C1187.31 1488.34 1170.27 1461.95 1158.41 1443.37C1100.45 1352.56 1074.82 1320.44 1038.19 1292.71C975.452 1245.22 895.043 1256.39 847.165 1319.25C830.506 1341.11 821.372 1361.92 805.597 1413.91C790.437 1463.88 781.877 1483.8 766.926 1503.91C742.247 1537.1 700.402 1560.12 643.832 1571.6C620.899 1576.26 566.087 1576.17 534.834 1571.43C504.801 1566.87 469.661 1566.66 457.655 1570.98C445.839 1575.23 434.174 1582.62 425.196 1591.54L417.785 1598.91H393.635C374.673 1598.91 369.704 1598.43 370.505 1596.69ZM464.019 1597.13C465.656 1596.25 471.749 1594.18 477.559 1592.53C486.237 1590.07 493.673 1589.65 519.263 1590.21C536.391 1590.59 568.38 1590.84 590.348 1590.76C624.609 1590.64 632.893 1590.07 648.571 1586.74C700.844 1575.63 740.312 1556.93 766.825 1530.7C786.57 1511.16 799.949 1485.12 813.056 1440.71C828.081 1389.79 834.597 1370.97 842.59 1355.38C862.76 1316.06 894.122 1290.22 932.075 1281.66C991.995 1268.14 1053.62 1305.3 1114.23 1391.48C1129.54 1413.25 1202.01 1523.95 1215.69 1546.47C1221.04 1555.27 1229.71 1570.67 1234.96 1580.69L1244.5 1598.91H1231.32L1218.34 1576.25C1200.36 1544.85 1130.3 1439.93 1106.37 1408.57C1077.63 1370.92 1055.18 1348.64 1027.69 1330.54C1002.02 1313.62 982.313 1306.98 957.958 1307.05C938.872 1307.1 922.979 1311.86 906.51 1322.46C873.77 1343.53 857.296 1373.86 837.455 1449.59C827.349 1488.17 819.949 1508.23 809.401 1525.63C794.115 1550.85 766.911 1572.49 729.134 1589.49L710.178 1598.02L585.609 1598.37C511.108 1598.58 462.237 1598.08 464.019 1597.13ZM752.153 1597.11C753.642 1596.26 761.606 1591.9 769.852 1587.42C790.486 1576.23 805.682 1563.54 817.822 1547.37C833.855 1526.02 838.885 1512.36 854.998 1446.44C866.071 1401.14 874.913 1379.92 891.119 1359.77C902.176 1346.02 910.951 1338.8 924.464 1332.32C976.033 1307.62 1037.41 1338.21 1102.66 1421.15C1117.63 1440.18 1127.12 1453.77 1179.66 1531.36C1199.13 1560.12 1217.54 1589.42 1220.11 1595.73C1221.3 1598.63 1220.65 1598.91 1212.76 1598.91H1204.11L1195.47 1586.02C1172.44 1551.66 1113.11 1468 1100.27 1451.78C1044.85 1381.77 991.946 1348.27 951.604 1357.64C922.595 1364.38 900.849 1388.77 888.729 1428.15C885.723 1437.93 882.739 1452.69 872.716 1507.36C868.503 1530.36 860.942 1552.02 852.998 1563.87C846.309 1573.84 834.044 1585.61 822.262 1593.37L813.837 1598.91L781.642 1598.79C762.01 1598.72 750.501 1598.06 752.153 1597.11ZM866.745 1591.96C884.947 1574.85 890.046 1558.41 896.315 1496.63C901.325 1447.27 908.033 1423.77 922.733 1404.11C945.397 1373.79 978.084 1370.14 1015.51 1393.73C1030.77 1403.35 1037.6 1408.85 1054.77 1425.34C1080.28 1449.82 1101.22 1476.04 1152.24 1547.38C1163.78 1563.5 1176.82 1581.69 1181.23 1587.8L1189.25 1598.91H1144.45L1125.68 1574.46C1115.35 1561.02 1094.41 1533.18 1079.15 1512.61C1034.51 1452.44 1008.32 1430.04 982.617 1430.04C970.139 1430.04 963.814 1432.75 956.463 1441.24C941.512 1458.52 937.537 1488.25 945.041 1526.66C948.385 1543.78 957.817 1570.33 966.04 1585.77C969.417 1592.11 972.179 1597.66 972.179 1598.11C972.179 1598.55 946.794 1598.91 915.767 1598.91H859.355L866.745 1591.96ZM0 1559.75V1541.55L50.4369 1542.81C118.378 1544.51 134.342 1541.82 162.447 1523.93C175.053 1515.91 178.075 1513.01 189.613 1497.81C201.031 1482.76 203.429 1478.46 209.551 1462.04C217.87 1439.72 222.212 1422.18 232.052 1371.16C242.281 1318.11 246.564 1302.37 260.52 1266.5C282.016 1211.26 284.134 1205.27 287.899 1189.1C291.403 1174.05 291.605 1171.28 291.582 1138.52C291.56 1109.04 290.927 1098.26 287.343 1066.43C279.163 993.819 278.826 977.444 284.961 950.763C289.018 933.117 301.367 916.565 315.224 910.201C342.141 897.84 387.186 907.252 425.736 933.293C473.814 965.771 514.223 1018.19 570.09 1120.55C597.098 1170.04 606.051 1180.16 622.845 1180.17C633.669 1180.18 639.972 1177.43 669.84 1159.67C730.243 1123.75 760.576 1112.53 834.747 1098.68C891.662 1088.06 911.69 1086.65 938.737 1091.37C990.381 1100.4 1041.72 1135.88 1089.79 1195.76C1111.57 1222.91 1129.94 1250.31 1171.19 1317.17C1182.65 1335.74 1203.07 1367.74 1216.58 1388.27C1251.93 1442.01 1269.78 1472.26 1292.93 1517.63C1299.71 1530.92 1299.96 1531.86 1299.57 1542.11L1299.17 1552.76L1284 1522.65C1266.67 1488.28 1246.28 1452.3 1227.89 1423.64C1196.25 1374.34 1180.92 1349.96 1158.15 1312.72C1127.62 1262.81 1114.19 1242.7 1093.94 1216.63C1047.35 1156.62 998.417 1121.35 948.484 1111.77C931.617 1108.53 902.446 1109.32 880.205 1113.6C855.327 1118.39 802.92 1131.88 783.071 1138.6C743.434 1152.01 713.528 1173.45 691.21 1204.44C678.853 1221.6 672.679 1234.22 658.589 1271.09C652.208 1287.79 643.879 1306.9 640.08 1313.56C612.963 1361.1 566.847 1348.47 551.935 1289.42C547.958 1273.67 546.208 1255.52 544.326 1210.51C542.851 1175.27 540.964 1159.77 535.235 1135.89C527.023 1101.66 507.357 1058.44 484.973 1025.44C442.675 963.064 388.533 927.779 347.159 935.617C326 939.627 312.251 953.465 306.468 976.579C302.184 993.695 303.09 1037.77 308.716 1086.08C312.595 1119.38 313.266 1129.81 313.245 1156.3C313.222 1182.61 312.765 1189.59 310.275 1201.62C306.834 1218.26 299.741 1238.36 287.699 1265.62C270.048 1305.56 261.769 1334.32 251.878 1390.05C241.543 1448.27 236.52 1469.22 227.346 1492.37C210.294 1535.4 177.576 1562.08 130.406 1571.41C119.126 1573.64 103.033 1574.42 60.2534 1574.82C29.7205 1575.1 3.67208 1575.93 2.36952 1576.65C0.201748 1577.85 0 1576.41 0 1559.75ZM44.6823 1524.18C36.1182 1523.5 22.5619 1522.84 14.5556 1522.71L0 1522.47V1490.07L5.75454 1491.11C21.2756 1493.89 62.21 1496.2 80.4282 1495.31C117.512 1493.52 140.615 1482.12 160.45 1455.81C177.049 1433.79 186.606 1409.17 197.706 1359.83C215.942 1278.76 219.654 1265.64 237.965 1217.62C251.544 1182.01 256.347 1164.27 258.73 1140.95C260.669 1121.97 259.615 1079.71 256.566 1054.09C249.891 997.991 248.686 983.467 248.607 958.097C248.518 929.093 250.137 918.113 256.937 901.617C269.325 871.569 301.782 855.583 339.18 861.11C390.966 868.764 434.488 891.067 478.884 932.7C497.36 950.026 513.947 967.902 542.718 1001.5C593.51 1060.82 613.734 1077.36 643.855 1084.26C665.684 1089.26 680.014 1087.96 741.998 1075.41C820.204 1059.56 882.972 1053.53 917.342 1058.57C947.657 1063.01 974.42 1073.65 1004.09 1093.07C1055.01 1126.4 1094.96 1171.51 1149.01 1256.73C1156.46 1268.46 1170.13 1290.05 1179.41 1304.71C1188.68 1319.37 1208.46 1349.36 1223.35 1371.37C1254.49 1417.36 1268.46 1439.42 1286.8 1471.6L1299.85 1494.49V1517.64L1288.65 1496.51C1266.32 1454.35 1254.17 1434.47 1213.46 1373.38C1202.17 1356.44 1180.92 1323.26 1166.25 1299.65C1131.2 1243.27 1124.32 1232.92 1102.37 1203.62C1044.02 1125.75 986 1085.37 921.791 1077.95C902.384 1075.71 886.719 1076.68 844.902 1082.7C787.634 1090.96 759.214 1097.82 705.439 1116.38C653.478 1134.31 638.344 1136.19 618.643 1127.15C602.696 1119.83 594.668 1110.85 542.281 1041.72C508.898 997.666 487.391 970.775 477.821 961.119C440.993 923.966 407.385 902.772 368.291 892.05C352.332 887.674 319.166 887.549 308.651 891.828C298.294 896.041 285.869 907.074 280.677 916.668C266.713 942.471 265.448 973.975 275.063 1056.62C278.593 1086.95 279.343 1098.81 279.461 1126.08C279.66 1171.97 277.985 1180.15 257.701 1232.34C237.423 1284.51 231.827 1303.38 221.994 1352.72C205.234 1436.82 196.956 1460.35 174.54 1487.6C163.425 1501.11 145.635 1513.48 129.613 1518.83C109.372 1525.6 83.2635 1527.24 44.6823 1524.18ZM1289.43 1464.11C1275.7 1439.68 1255.85 1408.85 1224 1362.52C1208.9 1340.54 1181.56 1298.94 1163.26 1270.08C1127.23 1213.28 1088.31 1159.96 1065.61 1136.32C1045.28 1115.16 1023.27 1096.73 1001.29 1082.48C936.956 1040.76 886.414 1035.47 756.892 1056.95C705.841 1065.41 683.76 1067.41 663.768 1065.36C645.068 1063.46 628.916 1057.5 611.336 1046.02C593.773 1034.55 579.013 1020.52 542.406 980.507C491.289 924.629 469.84 904.868 438.022 884.344C399.895 859.747 356.224 844.934 320.9 844.616C285.554 844.298 260.08 858.596 246.363 886.456C234.149 911.267 233.215 943.328 242.385 1022.98C247.272 1065.41 248.232 1078.11 248.301 1101.19C248.426 1142.98 245.171 1158.88 225.386 1213.18C210.661 1253.58 205.103 1271.87 197.021 1306.5C180.185 1378.64 171.519 1406.36 159.24 1427.37C146.335 1449.46 127.909 1465.27 106.211 1472.9C92.0226 1477.88 56.0073 1479.34 23.5368 1476.24L0 1474V1459.9C0 1447.3 0.2532 1445.9 2.36952 1446.72C3.67343 1447.24 14.7926 1448.58 27.0802 1449.71C89.0492 1455.43 123.503 1439.32 147.129 1393.58C157.792 1372.94 165.433 1349.15 178.121 1297.08C187.158 1259.99 195.335 1232.48 207.766 1197.32C218.804 1166.1 221.367 1157.47 224.713 1140.3C231.859 1103.61 231.067 1068.33 221.477 996.315C210.609 914.702 214.231 877.698 235.636 851.683C252.374 831.339 275.718 820.619 306.683 819.058C328.388 817.963 341.728 819.838 368.291 827.718C426.669 845.037 469.755 873.56 526.71 932.595C538.253 944.559 553.79 960.607 561.237 968.258C601.317 1009.43 630.239 1027.93 665.12 1034.69C685.221 1038.59 722.324 1037.24 763.052 1031.13C868.328 1015.34 924.727 1022.05 985.907 1057.66C1024.62 1080.2 1062.49 1115.39 1100.65 1164.27C1119.63 1188.6 1134.86 1211.04 1186.94 1291.51C1196.71 1306.6 1212.24 1329.66 1221.47 1342.76C1252.32 1386.55 1270.18 1412.97 1285.08 1436.8L1299.85 1460.45V1471.02C1299.85 1476.83 1299.7 1481.56 1299.51 1481.53C1299.32 1481.49 1294.79 1473.66 1289.43 1464.11ZM1291.73 1435.75C1279.2 1415.65 1258.05 1384.6 1232.16 1348.27C1208.8 1315.5 1196.99 1297.86 1148.84 1223.84C1093.84 1139.29 1051 1092.39 994.52 1054.9C957.861 1030.57 924.62 1017.42 886.877 1012.35C869.146 1009.96 813.576 1009.88 795.481 1012.22C788.034 1013.18 769.45 1015.67 754.184 1017.75C718.696 1022.6 675.197 1021.9 656.695 1016.19C622.04 1005.49 598.345 988.108 547.061 935.775C496.674 884.357 477.053 867.237 446.146 847.721C415.558 828.404 370.846 810.965 336.68 805.024C290.132 796.929 240.187 813.891 219.186 844.922C212.452 854.872 206.473 870.687 204.331 884.213C201.609 901.395 203.565 942.583 209.02 982.983C218.475 1053 220.071 1084.54 215.825 1117.32C213.068 1138.59 208.813 1154.61 195.319 1194.51C184.384 1226.85 177.314 1250.94 169.238 1283.39C153.233 1347.7 142.358 1376.16 125.417 1398.04C112.246 1415.06 97.1556 1425.2 76.377 1430.99C64.4929 1434.3 31.9682 1435.26 11.8476 1432.89L0 1431.5V1406.61L17.2636 1407.83C58.6679 1410.76 88.7066 1399.77 109.424 1374.11C119.806 1361.25 130.387 1341.14 137.408 1320.91C142.394 1306.55 145.608 1295.27 157.726 1249.62C162.397 1232.02 169.096 1208.42 172.611 1197.18C176.126 1185.94 181.653 1168.24 184.893 1157.86C202.586 1101.18 203.245 1062.51 188.169 965.744C177.836 899.42 177.545 870.136 186.958 844.104C191.924 830.37 204.336 814.772 217.56 805.652L227.192 799.005H401.667L411.044 803.241C445.463 818.788 478.905 841.482 509.785 870.248C515.742 875.798 533.108 892.955 548.374 908.375C581.723 942.06 599.803 958.019 618.783 970.519C659.555 997.371 697.694 1002.88 766.37 991.821C818.72 983.394 861.909 984.613 902.448 995.666C948.659 1008.26 1002 1040.45 1047.33 1083.1C1087 1120.43 1116.98 1158.94 1169.1 1239.52C1196.37 1281.69 1209.86 1301.33 1245.02 1350.05C1262.3 1374 1281.74 1401.38 1288.22 1410.88L1299.99 1428.15L1299.17 1447.69L1291.73 1435.75ZM1284.08 1394.02C1275.77 1382.06 1256.01 1354.67 1240.16 1333.16C1212.66 1295.85 1201.35 1279.35 1153.62 1206.86C1086.23 1104.54 1023 1042.08 947.13 1002.91C887.678 972.222 837.401 964.921 768.401 976.959C700.649 988.78 663.534 983.794 622.168 957.312C604.307 945.877 582.391 926.459 547.697 891.328C503.862 846.941 474.857 822.663 446.892 806.951L434.333 799.894L473.983 798.909L483.759 806.348C500.381 818.996 523.445 840.28 553.79 870.979C597.89 915.592 616.878 931.363 641.5 943.829C678.37 962.495 708.371 964.225 767.003 951.06C800.992 943.431 818.197 941.852 836.804 944.657C905.505 955.015 985.96 1001.2 1056.8 1070.94C1098.25 1111.75 1120.72 1141.1 1185.79 1239.43C1208.42 1273.64 1222.5 1293.21 1264.18 1348.41L1299.85 1395.65V1405.74C1299.85 1411.28 1299.7 1415.81 1299.51 1415.8C1299.32 1415.78 1292.38 1405.98 1284.08 1394.02ZM0 1368.37L15.9096 1367.32C50.9487 1365 73.3657 1353.89 91.0409 1330.06C106.659 1309.01 116.97 1282.27 132.679 1222.07C135.868 1209.84 143.261 1182.25 149.108 1160.74C163.763 1106.82 165.25 1098.59 166.161 1066.31C167.303 1025.87 164.133 999.095 151.071 938.871C138.213 879.588 137.538 875.066 137.482 847.888C137.435 824.22 137.616 822.512 141.187 812.965C143.252 807.445 145.769 802.025 146.78 800.923C148.029 799.565 156.073 799.076 171.783 799.407L194.946 799.894L187.664 807.287C179.123 815.96 172.818 827.334 168.771 841.368C166.276 850.023 165.882 854.952 165.985 876.329C166.11 902.5 166.281 903.905 177.167 968.763C185.725 1019.75 186.178 1024.49 186.155 1062.97C186.128 1106.12 184.885 1113.86 170.06 1163.09C164.519 1181.49 156.586 1209.28 152.43 1224.86C139.718 1272.5 132.568 1297.05 127.613 1310.06C114.254 1345.12 100.293 1365.2 80.7058 1377.54C63.3406 1388.47 52.6209 1391.26 24.0337 1392.29L0 1393.15V1368.37ZM1254.46 1324.88C1227.05 1288.55 1196.94 1246.35 1176.65 1215.84C1128.05 1142.73 1095.66 1101.1 1059.51 1065.26C994.122 1000.43 908.114 945.85 845.315 929.34C837.115 927.184 827.475 926.243 814.437 926.329C797.397 926.439 792.401 927.283 765.016 934.676C728.939 944.417 709.573 947.039 690.204 944.805C648.253 939.964 616.882 920.317 562.591 864.889C531.848 833.501 521.865 823.749 507.235 810.826L493.852 799.005H521.724L529.295 806.45C533.458 810.543 547.598 824.915 560.719 838.384C615.514 894.642 644.25 913.985 681.806 919.899C704.819 923.522 723.671 919.999 761.832 904.941C775.126 899.697 790.562 894.409 796.135 893.191C824.164 887.068 854.933 898.995 920.05 941.232C986.868 984.571 1041.02 1029.64 1087.95 1080.94C1112.22 1107.49 1140.37 1144.91 1179.36 1202.51C1213.87 1253.48 1238.86 1287.36 1277.25 1335.22L1300 1363.59L1299.17 1384.15L1254.46 1324.88ZM0 1327.2L7.78556 1326.05C47.1195 1320.28 72.3421 1296.76 90.1094 1249.29C97.0216 1230.82 102.837 1209.47 112.533 1166.96C116.213 1150.83 120.683 1131.23 122.468 1123.41C135.589 1065.9 135.061 1023.16 120.523 965.823C113.172 936.829 102.99 908.089 84.8815 865.22C76.3134 844.932 66.8515 821.936 63.8578 814.115L58.412 799.894L87.6275 799.414C103.696 799.151 117.074 799.24 117.359 799.612C117.642 799.985 117.175 802.601 116.318 805.424C113.799 813.731 114.415 839.081 117.544 855.887C119.091 864.198 124.983 888.995 130.639 910.992C150.156 986.899 155.036 1017.83 154.012 1059.19C153.198 1092.11 151.883 1099.05 131.093 1180.29C106.791 1275.25 99.3491 1295.13 78.7248 1320.2C62.711 1339.67 36.8778 1351.75 11.1706 1351.8L0 1351.83V1327.2ZM1279.54 1325.73C1243.49 1281.59 1215.9 1244.72 1180.02 1192.74C1131.22 1122.05 1107.45 1091.79 1073.05 1056.55C1026.12 1008.49 956.498 952.409 883.492 903.873C862.702 890.05 841.81 877.453 835.056 874.667C811.493 864.946 795.052 866.681 765.016 882.058C728.353 900.83 713.527 905.659 692.576 905.659C652.725 905.659 621.121 886.143 560.961 824.38L537.11 799.894L558.785 798.87L576.26 816.139C600.015 839.616 613.506 850.946 629.941 861.218C650.303 873.947 663.227 878.034 683.098 878.032C708.296 878.031 720.901 872.205 757.352 843.715C781.782 824.62 795.214 819.929 812.147 824.581C827.006 828.662 838.295 836.699 878.934 872.127C899.313 889.894 934.572 920.018 957.285 939.069C1079.25 1041.36 1114.17 1078.22 1182.49 1176.74C1221.57 1233.1 1256.67 1278.11 1293.49 1319.05L1299.98 1326.27L1299.17 1349.77L1279.54 1325.73ZM0 1280.98L7.72734 1278.03C31.1463 1269.09 49.6651 1247.86 61.9229 1215.91C75.241 1181.19 90.6104 1093.15 90.6916 1051.1C90.7525 1020.14 85.2363 991.862 73.1057 960.961C60.8275 929.681 41.2364 899.802 13.2016 869.605L0 855.384V799.005H15.9259L32.5612 823.024C64.1042 868.569 82.2399 901.354 95.432 936.687C117.039 994.553 122.491 1044.02 113.174 1097.64C104.5 1147.55 90.8676 1206.55 82.447 1230.62C65.8726 1277.98 41.3609 1303.07 5.07754 1309.78L0 1310.72V1280.98ZM1290.1 1299.93C1254.77 1261.67 1228.22 1228.13 1185.6 1167.96C1149.94 1117.63 1126.59 1088.44 1097.43 1057.74C1069.76 1028.62 1053.77 1013.69 989.781 957.193C929.995 904.411 905.154 881.342 878.752 854.083C849.499 823.881 835.086 809.952 827.468 804.526L819.853 799.1L860.525 799.005L874.039 816.909C910.906 865.753 939.431 895.241 1024.31 972.261C1116.17 1055.62 1135.29 1076.36 1200.33 1163.19C1236.46 1211.41 1258.53 1237.69 1283.23 1261.86L1299.78 1278.06L1299.82 1293.61C1299.83 1302.17 1299.58 1309.17 1299.24 1309.17C1298.91 1309.17 1294.8 1305.01 1290.1 1299.93ZM0 1239.15V1218.91L9.95874 1205.82C17.6184 1195.76 21.2024 1189.25 25.4784 1177.63C40.2452 1137.5 43.4177 1074.03 33.0135 1026.88C27.8655 1003.54 21.128 988.037 6.54799 965.958L0 956.044V891.14L5.75454 897.056C16.8344 908.445 36.9306 935.115 45.0533 949.21C54.9891 966.448 65.1225 993.658 69.217 1014.09C77.842 1057.14 68.1284 1152.7 50.2446 1200.73C43.4908 1218.88 35.1122 1232.95 25.2117 1242.78C17.6563 1250.29 4.55624 1259.39 1.31474 1259.39C0.541604 1259.39 0 1251.07 0 1239.15ZM1291.2 1245.97C1269.06 1228.44 1246.92 1203.98 1203.71 1149.31C1186.96 1128.11 1169.59 1106.39 1165.13 1101.05C1139.16 1069.99 1104.51 1035.66 1040.56 977.654C961.477 905.924 935.628 879.142 899.063 831.055L875.368 799.894L895.523 798.836L902.961 810.03C913.467 825.843 936.951 856.501 950.515 872.11C984.72 911.47 1008.89 934.104 1117.74 1028.72C1138.59 1046.84 1167.39 1072.76 1181.75 1086.32C1233.9 1135.57 1241.12 1142.08 1250.69 1148.49C1256.45 1152.36 1263.14 1155.36 1267.06 1155.86C1273.1 1156.62 1273.96 1156.24 1276.76 1151.61C1279.41 1147.22 1279.72 1145.15 1279.04 1136.51C1278.61 1131 1276.06 1118.6 1273.37 1108.96C1254.3 1040.47 1252 1028.84 1252.04 1000.76C1252.07 978.296 1254.89 962.819 1262.69 942.178C1272.64 915.877 1285.05 897.111 1296.13 891.6L1299.85 889.75V1071.02C1299.85 1170.71 1299.7 1252.28 1299.51 1252.28C1299.32 1252.28 1295.59 1249.44 1291.2 1245.97ZM0.0974887 1096.75C0.109675 1007.85 -0.253199 1010.33 8.26217 1040.96C14.4053 1063.06 16.6408 1082.82 15.8798 1108.3C15.1879 1131.49 12.9525 1145.55 7.53777 1160.74C-0.167897 1182.37 0.0853026 1184.54 0.0974887 1096.75ZM1192.16 1062.99C1169.65 1055.02 1113.84 1014.61 1054.1 963.018C1001.08 917.238 969.6 884.661 936.909 841.749C923.84 824.595 911.763 807.961 910.075 804.782L907.003 799.005L922.758 799.016L936.298 818.727C977.449 878.63 1039.62 939.456 1100.45 979.329C1123.28 994.289 1140.47 1001.94 1153.62 1003C1176.02 1004.8 1183.92 996.37 1200.15 953.328C1219.82 901.15 1236.99 866.734 1250.83 851.719C1262.57 838.977 1278.81 831.087 1293.42 831.028L1299.85 831.001V862.543L1294.26 863.718C1274.13 867.943 1257.64 889.666 1241.57 933.144C1232.78 956.908 1228.96 975.324 1225.49 1010.54C1221.53 1050.75 1219.36 1058.59 1210.93 1063.22C1205.51 1066.19 1201.03 1066.13 1192.16 1062.99ZM1127.21 977.332C1093.62 967.465 1035.62 923.798 990.923 874.717C974.023 856.161 947.999 823.056 938.07 807.486L932.661 799.005L947.13 799.011L964.732 822.345C1026.55 904.301 1097.74 954.656 1134.36 942.339C1151.85 936.457 1160.2 926.297 1189.73 874.922C1199.96 857.121 1211.41 838.259 1215.16 833.008C1223.58 821.25 1236.1 809.331 1246.24 803.446C1253.42 799.279 1255.31 799.005 1276.87 799.005H1299.85L1299.82 815.892L1288.21 816.21C1266.72 816.797 1248.1 827.791 1233.01 848.788C1224.17 861.097 1209.64 888.492 1192.11 925.925C1179.24 953.414 1169.05 968.642 1159.71 974.36C1154.17 977.75 1150.85 978.47 1141.43 978.315C1135.1 978.212 1128.7 977.77 1127.21 977.332ZM1092.01 921.828C1072.71 914.94 1052.34 901.955 1029.6 882.027C1009.88 864.759 995.394 849.028 974.887 822.633L956.608 799.105L972.568 799.005L983.6 812.909C1014.21 851.491 1051.58 882.41 1078.54 891.464C1093.24 896.398 1109.01 896.194 1120.04 890.925C1136.45 883.098 1147.49 870.901 1181.16 823.447L1198.5 799.005H1228.49L1219.79 807.648C1209.45 817.929 1200.98 829.843 1183.59 858.554C1164.39 890.267 1148.2 910.914 1136.8 918.218C1128.44 923.572 1126.02 924.276 1114.46 924.716C1104.97 925.079 1098.94 924.304 1092.01 921.828ZM1078.86 876.287C1053.75 869.728 1026.55 849.401 994.365 813.165L982.578 799.894L1000.69 798.84L1012.22 810.204C1027.91 825.663 1043.47 836.803 1058.84 843.585C1069.74 848.395 1073.66 849.257 1084.56 849.239C1106.5 849.202 1119.93 841.359 1145.5 813.67L1159.04 799.005H1184.04L1167.81 820.532C1139.97 857.464 1124.73 871.334 1106.39 876.44C1095.62 879.437 1090.81 879.41 1078.86 876.287ZM655.882 858.579C637.01 853.189 615.827 839.169 588.998 814.316L573.43 799.894L598.204 798.877L611.54 808.645C636.207 826.712 659.986 834.05 678.627 829.347C689.703 826.552 704.393 817.035 713.142 806.988L720.094 799.005H773.657L766.29 804.864C762.239 808.087 751.44 818.066 742.297 827.041C723.985 845.016 710.66 854.316 697.295 858.451C686.674 861.737 667.152 861.798 655.882 858.579ZM1060.38 829.267C1049.24 825.313 1035.14 816.797 1022.95 806.654L1014.83 799.894L1031.08 799.366C1043.13 798.973 1049.43 799.604 1055.45 801.805C1065.91 805.627 1084.14 805.682 1095.17 801.926C1106.93 797.919 1141.25 797.665 1138.76 801.604C1135.59 806.619 1115.52 822.366 1106.52 826.897C1093.87 833.266 1074.46 834.263 1060.38 829.267ZM642.478 808.816C638.01 807.523 631.307 804.83 627.584 802.832L620.814 799.199L691.222 799.162L685.806 802.946C674.076 811.139 658.027 813.313 642.478 808.816Z" fill="#001064" fill-opacity="0.1"/>
</g>
<defs>
<linearGradient id="paint0_linear" x1="1036" y1="4.89574e-05" x2="1036" y2="1599" gradientUnits="userSpaceOnUse">
<stop stop-color="#001064"/>
<stop offset="0.515625" stop-color="#5F5FC4"/>
</linearGradient>
<linearGradient id="paint1_linear" x1="1036" y1="4.89574e-05" x2="1036" y2="1599" gradientUnits="userSpaceOnUse">
<stop stop-color="#001064"/>
<stop offset="0.515625" stop-color="#5F5FC4"/>
</linearGradient>
<clipPath id="clip0">
<rect width="1300" height="800" fill="white"/>
</clipPath>
</defs>
</svg>
