<svg width="650" height="800" viewBox="0 0 650 800" fill="none" xmlns="http://www.w3.org/2000/svg">
<g clip-path="url(#clip0)">
<rect width="650" height="800" fill="white"/>
<path d="M-650 0H650V800H-650V0Z" fill="url(#paint0_linear)"/>
<path d="M-650 1599.44H650V799.444H-650V1599.44Z" fill="url(#paint1_linear)"/>
<path fill-rule="evenodd" clip-rule="evenodd" d="M-636.46 1.97487C-630.875 2.72323 -607.112 3.84843 -583.654 4.47413C-521.4 6.13438 -505.576 8.61763 -477.219 21.1797C-442.212 36.6836 -419.696 62.6307 -406.365 102.827C-400.794 119.621 -397.766 132.228 -392.906 158.838C-390.729 170.76 -386.38 194.512 -383.242 211.621C-374.016 261.926 -366.457 286.211 -346.251 330.472C-319.719 388.59 -317.344 415.639 -329.768 518.251C-332.862 543.801 -333.881 579.811 -331.925 594.546C-327.297 629.437 -308.99 647.126 -279.869 644.838C-263.509 643.553 -254.273 640.09 -236.35 628.515C-193.379 600.767 -153.318 539.709 -137.685 478.138C-130.698 450.618 -129.879 441.588 -128.674 378.712C-128.045 345.96 -126.97 315.964 -126.282 312.053C-118.946 270.305 -104.255 242.821 -81.0599 227.45C-66.2376 217.627 -47.6632 214.317 -32.7271 218.838C-9.42322 225.891 9.99731 252.503 24.4148 297.139C36.5197 334.616 41.3372 347.539 49.0158 363.124C70.0842 405.896 101.668 432.345 151.38 448.851C194.637 463.214 236.952 473.911 260.338 476.393C326.941 483.462 389.255 446.336 451.53 362.477C471.611 335.441 478.884 324.254 516.687 262.281C531.597 237.84 553.715 202.244 565.839 183.18C594.571 137.998 610.384 110.223 632.097 66.7991L649.85 31.2976V20.138C649.85 14.0001 649.614 8.97848 649.327 8.97848C649.04 8.97848 646.203 14.7769 643.026 21.8658C622.863 66.824 595.039 117.755 561.695 170.737C550.314 188.824 528.237 224.819 512.637 250.727C476.902 310.077 465.039 328.284 445.467 353.826C403.083 409.137 359.142 442.263 314.656 452.449C299.397 455.942 271.519 455.894 253.298 452.342C234.454 448.668 184.486 432.188 159.698 421.471C126.812 407.252 108.366 393.284 91.5223 369.844C76.731 349.259 68.7234 330.291 52.1191 276.502C47.8933 262.815 42.2376 246.417 39.55 240.062C19.011 191.504 -10.8625 168.714 -50.7111 171.203C-101.365 174.367 -143.149 219.933 -158.68 288.945C-161.823 302.913 -161.879 304.518 -161.917 379.601L-161.955 456.036L-165.572 473.415C-178.428 535.189 -213.93 588.648 -253.228 605.403C-263.25 609.676 -277.932 609.792 -286.085 605.661C-294.467 601.416 -302.228 589.789 -305.548 576.507C-309.588 560.342 -308.903 526.781 -303.651 483.588C-297.444 432.556 -296.162 412.377 -297.856 392.44C-300.462 361.745 -305.859 344.871 -325.797 305.066C-346.381 263.972 -352.858 241.575 -365.632 167.329C-374.421 116.251 -379.335 94.2625 -386.538 73.7956C-397.374 43.0046 -413.502 21.1726 -436.911 5.60466L-445.202 0.0906558L-545.909 0.351958C-601.851 0.495941 -642.101 1.21763 -636.46 1.97487ZM-404.071 6.84896C-377.227 34.7052 -365.092 70.4556 -348.742 169.848C-339.611 225.361 -329.954 256.689 -312.034 288.945C-295.007 319.592 -288.015 334.813 -283.92 350.152C-280.399 363.345 -279.784 368.47 -279.319 388.488C-278.767 412.335 -279.124 416.35 -287.718 482.699C-293.65 528.49 -292.062 556.074 -282.688 570.09C-277.223 578.26 -271.588 581.354 -262.171 581.354C-242.389 581.354 -217.832 559.248 -201.289 526.547C-182.689 489.779 -177.185 450.204 -182.1 388.554C-186.005 339.558 -184.711 306.054 -177.874 279.23C-173.765 263.108 -163.821 238.348 -155.973 224.698C-135.147 188.482 -108.441 164.583 -76.5767 153.653C-65.4901 149.849 -59.8479 148.985 -45.4345 148.883C-13.1224 148.659 11.0886 160.58 30.9926 186.518C45.6538 205.627 54.5199 225.742 68.6937 272.058C83.7218 321.169 91.7741 339.445 107.509 360.163C119.028 375.329 125.41 381.181 143.102 392.79C166.321 408.026 221.222 430.279 255.833 438.481C273.944 442.774 306.89 442.759 322.108 438.454C372.031 424.326 419.32 384.178 463.432 318.468C476.466 299.054 490.713 276.022 521.278 224.953C528.3 213.221 544.753 186.424 557.839 165.404C584.968 121.829 597.701 99.9667 612.187 72.082C622.903 51.4534 645.788 3.21028 645.788 1.24607C645.788 0.611482 643.502 0.0906558 640.707 0.0906558C636.047 0.0906558 635.354 0.769685 632.302 8.32256C627.016 21.4037 598.201 78.2466 587.106 97.4781C581.538 107.13 567.441 130.16 555.777 148.658C544.114 167.157 524.133 199.889 511.374 221.397C477.458 278.573 464.471 298.681 444.76 324.53C392.137 393.549 338.148 424.621 282.7 417.806C248.145 413.557 192.99 392.084 165.114 372.025C127.65 345.068 110.654 317.542 90.5447 251.252C86.7507 238.743 81.1573 221.804 78.1162 213.613C57.9212 159.216 30.7001 130.777 -12.3195 119.125C-32.149 113.755 -64.6316 114.87 -84.7008 121.612C-129.59 136.689 -161.76 166.65 -200.409 229.373C-218.55 258.812 -230.625 274.324 -237.834 277.448C-248.372 282.012 -263.203 275.707 -278.15 260.307C-299.227 238.588 -311.591 204.765 -323.56 136.074C-333.986 76.2504 -345.967 36.1503 -361.27 9.86726L-366.445 0.979438L-410.671 0L-404.071 6.84896ZM-336.166 16.5331C-326.243 38.0505 -317.083 66.6036 -309.355 100.1C-297.5 151.486 -293.532 166.344 -287.584 181.616C-277.267 208.107 -264.443 221.294 -249.134 221.152C-236.309 221.033 -224.575 212.044 -198.438 182.311C-165.018 144.294 -137.851 122.842 -106.365 109.603C-52.7191 87.0473 5.58863 94.6287 45.6226 129.364C69.4966 150.078 84.0901 177.641 102.819 237.396C122.644 300.648 137.824 327.525 167.822 352.482C192.785 373.249 235.842 393.235 272.081 400.873C342.81 415.779 406.166 375.574 471.43 274.371C476.979 265.765 493.001 239.529 507.034 216.065C521.068 192.601 541.691 159.005 552.863 141.407C583.37 93.3524 610.222 44.5458 625.964 8.53409L629.653 0.0906558H624.452C619.272 0.0906558 619.208 0.177755 608.615 22.1253C590.35 59.9608 573.539 89.3404 545.443 132.519C538.446 143.273 520.285 172.47 505.086 197.4C470.04 254.885 458.569 272.239 440.396 295.277C391.388 357.406 342.024 384.171 289.258 377.222C237.795 370.444 190.98 343.937 163.297 305.899C146.851 283.299 137.5 262.164 122.586 213.871C108.982 169.825 98.5915 147.038 82.602 126.189C44.0614 75.9376 -28.462 55.6769 -100.949 74.9137C-121.321 80.3193 -139.326 87.6162 -170.982 103.298C-205.447 120.37 -213.163 123.192 -225.518 123.253C-245.498 123.349 -258.033 108.17 -279.204 58.2437C-283.024 49.235 -290.453 32.4654 -295.712 20.977L-305.276 0.0906558H-343.749L-336.166 16.5331ZM-279.495 2.31261C-275.085 11.9257 -254.721 45.6016 -248.326 53.8549C-237.998 67.1866 -232.494 71.9398 -221.978 76.613C-207.755 82.9323 -189.947 81.0747 -148.339 68.9286C-106.186 56.6243 -93.7902 53.91 -69.3842 51.6454C-16.5954 46.7446 40.1565 62.9453 75.289 92.9417C101.295 115.149 116.172 142.369 134.545 201.377C146.584 240.042 151.106 252.132 160.321 270.305C182.627 314.291 219.261 343.984 268.019 357.596C286.515 362.76 322.719 363.274 338.208 358.59C386.965 343.85 428.382 305.176 476.638 229.331C483.768 218.125 497.777 195.756 507.768 179.625C517.758 163.493 532.657 139.896 540.876 127.187C561.797 94.8366 576.212 71.1879 586.38 52.5288C595.199 36.3459 611.937 2.57569 611.937 0.965217C611.937 0.485275 609.594 0.0906558 606.728 0.0906558C601.624 0.0906558 601.331 0.458611 592.291 18.3107C579.181 44.1938 565.09 68.2851 546.283 96.9679C537.308 110.655 520.265 137.052 508.408 155.628C450.446 246.442 424.816 278.562 388.187 306.289C325.452 353.778 245.043 342.608 197.165 279.753C180.506 257.885 171.372 237.081 155.597 185.087C140.437 135.122 131.877 115.199 116.926 95.0908C92.2466 61.8966 50.4023 38.8842 -6.16824 27.3958C-29.1011 22.7404 -83.9127 22.8275 -115.166 27.5718C-145.199 32.1313 -180.339 32.3357 -192.345 28.0197C-204.161 23.7731 -215.826 16.3838 -224.804 7.45866L-232.215 0.0906558H-256.365C-275.327 0.0906558 -280.296 0.568821 -279.495 2.31261ZM-185.981 1.87178C-184.344 2.74811 -178.251 4.81542 -172.441 6.46678C-163.763 8.93226 -156.327 9.34644 -130.737 8.7865C-113.609 8.40966 -81.6204 8.16435 -59.6516 8.23901C-25.3911 8.35633 -17.1073 8.92693 -1.4292 12.2599C50.8437 23.3714 90.3118 42.0749 116.825 68.3029C136.57 87.8366 149.949 113.878 163.056 158.294C178.081 209.21 184.597 228.035 192.59 243.617C212.76 282.94 244.122 308.777 282.075 317.34C341.995 330.856 403.624 293.702 464.231 207.522C479.542 185.75 552.012 75.047 565.694 52.5288C571.041 43.7299 579.708 28.3326 584.956 18.3107L594.496 0.0906558H581.318L568.341 22.7546C550.364 54.1499 480.296 159.072 456.368 190.429C427.635 228.079 405.177 250.356 377.694 268.464C352.023 285.377 332.313 292.016 307.958 291.952C288.872 291.903 272.979 287.142 256.51 276.543C223.77 255.472 207.296 225.141 187.455 149.406C177.349 110.826 169.949 90.7731 159.401 73.369C144.115 48.1489 116.911 26.5053 79.1344 9.50819L60.1783 0.979438L-64.3906 0.62748C-138.892 0.417728 -187.763 0.917223 -185.981 1.87178ZM102.153 1.886C103.642 2.741 111.606 7.10137 119.852 11.5755C140.486 22.7724 155.682 35.4606 167.822 51.6294C183.855 72.985 188.885 86.6385 204.998 152.559C216.071 197.861 224.913 219.076 241.119 239.228C252.176 252.978 260.951 260.202 274.464 266.676C326.033 291.382 387.407 260.788 452.661 177.847C467.628 158.824 477.123 145.232 529.656 67.6381C549.128 38.8771 567.545 9.57752 570.115 3.2725C571.298 0.369733 570.655 0.0906558 562.761 0.0906558H554.109L545.472 12.978C522.443 47.3401 463.114 131.003 450.274 147.22C394.849 217.229 341.946 250.727 301.604 241.358C272.595 234.623 250.849 210.234 238.729 170.845C235.723 161.074 232.739 146.308 222.716 91.6352C218.503 68.6442 210.942 46.981 202.998 35.1318C196.309 25.1561 184.044 13.3851 172.262 5.6331L163.837 0.0906558L131.642 0.21153C112.01 0.28441 100.501 0.938554 102.153 1.886ZM216.745 7.03738C234.947 24.1482 240.046 40.5871 246.315 102.373C251.325 151.735 258.033 175.225 272.733 194.89C295.397 225.207 328.084 228.863 365.508 205.27C380.771 195.646 387.605 190.146 404.774 173.663C430.275 149.18 451.215 122.963 502.245 51.624C513.777 35.5015 526.822 17.3117 531.232 11.2004L539.25 0.0906558H494.449L475.677 24.5375C465.351 37.983 444.413 65.8179 429.146 86.395C384.508 146.56 358.32 168.959 332.617 168.959C320.139 168.959 313.814 166.25 306.463 157.755C291.512 140.479 287.537 110.751 295.041 72.3415C298.385 55.22 307.817 28.6703 316.04 13.2269C319.417 6.88628 322.179 1.33673 322.179 0.894115C322.179 0.451501 296.794 0.0906558 265.767 0.0906558H209.355L216.745 7.03738ZM-650 39.2468V57.4527L-599.563 56.1924C-531.622 54.4948 -515.658 57.1842 -487.553 75.0665C-474.947 83.0869 -471.925 85.9932 -460.387 101.195C-448.969 116.242 -446.571 120.544 -440.449 136.963C-432.13 159.279 -427.788 176.818 -417.948 227.841C-407.719 280.885 -403.436 296.626 -389.48 332.495C-367.984 387.74 -365.866 393.727 -362.101 409.896C-358.597 424.946 -358.395 427.716 -358.418 460.48C-358.44 489.959 -359.073 500.738 -362.657 532.565C-370.837 605.181 -371.174 621.556 -365.039 648.237C-360.982 665.883 -348.633 682.435 -334.776 688.799C-307.859 701.16 -262.814 691.748 -224.264 665.707C-176.186 633.229 -135.777 580.809 -79.9104 478.446C-52.9019 428.96 -43.9492 418.844 -27.1554 418.832C-16.3314 418.824 -10.0285 421.574 19.8396 439.334C80.2434 475.248 110.576 486.466 184.747 500.317C241.662 510.945 261.69 512.353 288.737 507.626C340.381 498.603 391.72 463.121 439.786 403.235C461.574 376.086 479.944 348.692 521.19 281.835C532.649 263.259 553.074 231.263 566.578 210.732C601.926 156.989 619.778 126.74 642.927 81.3698C649.709 68.0772 649.962 67.1439 649.575 56.8945L649.173 46.238L633.996 76.3482C616.671 110.721 596.284 146.701 577.889 175.364C546.253 224.659 530.92 249.044 508.147 286.279C477.621 336.187 464.186 356.295 443.94 382.372C397.354 442.375 348.417 477.653 298.484 487.23C281.617 490.466 252.446 489.683 230.205 485.4C205.327 480.609 152.92 467.123 133.071 460.403C93.4341 446.986 63.5281 425.551 41.2099 394.557C28.8532 377.396 22.679 364.783 8.58914 327.909C2.2077 311.209 -6.12079 292.098 -9.92015 285.44C-37.0369 237.902 -83.1531 250.533 -98.0649 309.581C-102.042 325.326 -103.792 343.479 -105.674 388.488C-107.149 423.73 -109.036 439.234 -114.765 463.112C-122.977 497.341 -142.643 540.559 -165.027 573.565C-207.325 635.936 -261.467 671.221 -302.841 663.384C-324 659.373 -337.749 645.535 -343.532 622.421C-347.816 605.305 -346.91 561.227 -341.284 512.918C-337.405 479.615 -336.734 469.193 -336.755 442.704C-336.778 416.387 -337.235 409.407 -339.725 397.376C-343.166 380.744 -350.259 360.641 -362.301 333.384C-379.952 293.437 -388.231 264.678 -398.122 208.954C-408.457 150.73 -413.48 129.778 -422.654 106.633C-439.706 63.5995 -472.424 36.9236 -519.594 27.5914C-530.874 25.3605 -546.967 24.5766 -589.747 24.1802C-620.279 23.8958 -646.328 23.0728 -647.63 22.3529C-649.798 21.153 -650 22.5928 -650 39.2468ZM-605.318 74.8212C-613.882 75.502 -627.438 76.1633 -635.444 76.2913L-650 76.5259V108.926L-644.245 107.895C-628.724 105.111 -587.79 102.804 -569.572 103.685C-532.488 105.477 -509.385 116.884 -489.55 143.192C-472.951 165.207 -463.394 189.826 -452.294 239.173C-434.058 320.237 -430.346 333.356 -412.035 381.378C-398.456 416.994 -393.653 434.73 -391.27 458.053C-389.331 477.034 -390.385 519.285 -393.434 544.914C-400.109 601.009 -401.314 615.533 -401.393 640.903C-401.482 669.907 -399.863 680.887 -393.063 697.383C-380.675 727.431 -348.218 743.417 -310.82 737.89C-259.034 730.236 -215.512 707.933 -171.116 666.3C-152.64 648.975 -136.053 631.098 -107.282 597.498C-56.49 538.184 -36.2665 521.635 -6.1452 514.74C15.6841 509.743 30.0137 511.036 91.9975 523.594C170.204 539.441 232.972 545.469 267.342 540.433C297.657 535.993 324.42 525.347 354.089 505.93C405.012 472.605 444.962 427.49 499.014 342.272C506.456 330.54 520.131 308.95 529.406 294.292C538.68 279.634 558.457 249.638 573.355 227.633C604.493 181.64 618.458 159.577 636.8 127.402L649.85 104.508V81.3556L638.651 102.494C616.318 144.646 604.173 164.531 563.461 225.616C552.166 242.561 530.92 275.741 516.247 299.349C481.202 355.732 474.32 366.079 452.366 395.378C394.022 473.246 336 513.625 271.791 521.049C252.384 523.292 236.719 522.325 194.902 516.297C137.634 508.042 109.214 501.181 55.4393 482.623C3.47779 464.691 -11.656 462.814 -31.3569 471.851C-47.3044 479.166 -55.3323 488.148 -107.719 557.279C-141.102 601.334 -162.609 628.225 -172.179 637.881C-209.007 675.034 -242.615 696.228 -281.709 706.95C-297.668 711.326 -330.834 711.451 -341.349 707.172C-351.706 702.959 -364.131 691.926 -369.323 682.332C-383.287 656.529 -384.552 625.025 -374.937 542.383C-371.407 512.052 -370.657 500.194 -370.539 472.923C-370.34 427.03 -372.015 418.855 -392.299 366.664C-412.577 314.488 -418.173 295.625 -428.006 246.283C-444.766 162.176 -453.044 138.646 -475.46 111.402C-486.575 97.8905 -504.365 85.524 -520.387 80.1682C-540.628 73.401 -566.737 71.7585 -605.318 74.8212ZM639.425 134.885C625.697 159.325 605.85 190.146 574.005 236.482C558.895 258.465 531.562 300.06 513.261 328.915C477.232 385.724 438.306 439.044 415.606 462.677C395.281 483.837 373.267 502.265 351.29 516.519C286.956 558.244 236.414 563.525 106.892 542.054C55.8414 533.593 33.7602 531.595 13.7682 533.636C-4.932 535.543 -21.084 541.503 -38.6645 552.983C-56.2273 564.448 -70.9874 578.476 -107.594 618.493C-158.711 674.371 -180.16 694.132 -211.978 714.656C-250.105 739.253 -293.776 754.066 -329.1 754.384C-364.446 754.702 -389.92 740.404 -403.637 712.544C-415.851 687.733 -416.785 655.672 -407.615 576.022C-402.728 533.586 -401.768 520.887 -401.699 497.809C-401.574 456.018 -404.829 440.116 -424.614 385.822C-439.339 345.416 -444.897 327.129 -452.979 292.5C-469.815 220.359 -478.481 192.636 -490.76 171.626C-503.665 149.543 -522.091 133.726 -543.789 126.104C-557.977 121.12 -593.993 119.662 -626.463 122.759L-650 125.002V139.102C-650 151.697 -649.747 153.102 -647.63 152.275C-646.327 151.765 -635.207 150.421 -622.92 149.287C-560.951 143.567 -526.497 159.677 -502.871 205.421C-492.208 226.062 -484.567 249.853 -471.879 301.923C-462.842 339.006 -454.665 366.52 -442.234 401.683C-431.196 432.903 -428.633 441.526 -425.287 458.702C-418.141 495.391 -418.933 530.67 -428.523 602.685C-439.391 684.298 -435.769 721.302 -414.364 747.317C-397.626 767.661 -374.282 778.381 -343.317 779.942C-321.612 781.037 -308.272 779.162 -281.709 771.282C-223.331 753.963 -180.245 725.44 -123.29 666.405C-111.747 654.441 -96.2099 638.393 -88.7628 630.742C-48.6828 589.567 -19.7612 571.073 15.1195 564.311C35.2211 560.413 72.3238 561.764 113.052 567.871C218.328 583.663 274.727 576.948 335.907 541.336C374.62 518.802 412.494 483.611 450.65 434.726C469.635 410.402 484.855 387.959 536.942 307.487C546.707 292.4 562.244 269.342 571.469 256.245C602.321 212.447 620.185 186.033 635.076 162.197L649.85 138.547V127.979C649.85 122.167 649.698 117.438 649.511 117.472C649.324 117.508 644.787 125.343 639.425 134.885ZM641.731 163.246C629.197 183.349 608.051 214.401 582.16 250.727C558.805 283.497 546.99 301.141 498.844 375.157C443.842 459.71 401 506.613 344.52 544.102C307.861 568.435 274.62 581.576 236.877 586.653C219.146 589.037 163.576 589.119 145.481 586.785C138.034 585.825 119.45 583.334 104.184 581.249C68.6964 576.404 25.1974 577.102 6.69489 582.814C-27.9597 593.513 -51.6549 610.892 -102.939 663.225C-153.326 714.643 -172.947 731.763 -203.854 751.279C-234.442 770.596 -279.154 788.035 -313.32 793.976C-359.868 802.071 -409.813 785.109 -430.814 754.078C-437.548 744.128 -443.527 728.313 -445.669 714.787C-448.391 697.605 -446.435 656.417 -440.98 616.017C-431.525 546 -429.929 514.461 -434.175 481.679C-436.932 460.407 -441.187 444.388 -454.681 404.487C-465.616 372.154 -472.686 348.063 -480.762 315.608C-496.767 251.296 -507.642 222.839 -524.583 200.955C-537.754 183.942 -552.844 173.803 -573.623 168.012C-585.507 164.698 -618.032 163.739 -638.152 166.106L-650 167.502V192.389L-632.736 191.168C-591.332 188.241 -561.293 199.231 -540.576 224.89C-530.194 237.746 -519.613 257.862 -512.592 278.086C-507.606 292.454 -504.392 303.725 -492.274 349.382C-487.603 366.98 -480.904 390.577 -477.389 401.82C-473.874 413.063 -468.347 430.757 -465.107 441.138C-447.414 497.821 -446.755 536.487 -461.831 633.256C-472.164 699.58 -472.455 728.864 -463.042 754.896C-458.076 768.63 -445.664 784.228 -432.44 793.348L-422.808 799.995H-248.333L-238.956 795.759C-204.537 780.212 -171.095 757.518 -140.215 728.752C-134.258 723.202 -116.892 706.045 -101.626 690.625C-68.2767 656.94 -50.1966 640.981 -31.2174 628.481C9.55452 601.629 47.6943 596.124 116.37 607.179C168.72 615.606 211.909 614.387 252.448 603.334C298.659 590.736 351.997 558.546 397.327 515.897C437.001 478.57 466.977 440.065 519.101 359.477C546.369 317.315 559.861 297.675 595.02 248.95C612.303 224.997 631.742 197.624 638.216 188.123L649.988 170.847L649.173 151.313L641.731 163.246ZM634.077 204.98C625.773 216.943 606.011 244.328 590.16 265.837C562.657 303.153 551.355 319.649 503.617 392.141C436.234 494.463 372.996 556.923 297.13 596.088C237.678 626.778 187.401 634.079 118.401 622.041C50.6487 610.22 13.534 615.206 -27.8324 641.688C-45.6931 653.123 -67.6091 672.542 -102.303 707.672C-146.138 752.059 -175.143 776.337 -203.108 792.049L-215.667 799.106L-176.017 800.091L-166.241 792.652C-149.619 780.004 -126.555 758.72 -96.2099 728.021C-52.1098 683.408 -33.1225 667.637 -8.49979 655.171C28.3699 636.505 58.3707 634.775 117.003 647.94C150.992 655.569 168.197 657.148 186.804 654.343C255.505 643.985 335.96 597.8 406.805 528.056C448.25 487.253 470.72 457.902 535.789 359.568C558.424 325.362 572.505 305.787 614.18 250.59L649.85 203.35V193.264C649.85 187.718 649.698 183.19 649.511 183.205C649.324 183.217 642.38 193.017 634.077 204.98ZM-650 230.632L-634.09 231.682C-599.051 233.999 -576.634 245.114 -558.959 268.938C-543.341 289.987 -533.03 316.73 -517.321 376.934C-514.132 389.155 -506.739 416.752 -500.892 438.26C-486.237 492.181 -484.75 500.413 -483.839 532.692C-482.697 573.129 -485.867 599.905 -498.929 660.129C-511.787 719.412 -512.462 723.934 -512.518 751.112C-512.565 774.78 -512.384 776.488 -508.813 786.035C-506.748 791.555 -504.231 796.975 -503.22 798.077C-501.971 799.435 -493.927 799.924 -478.217 799.593L-455.054 799.106L-462.336 791.713C-470.877 783.04 -477.182 771.666 -481.229 757.632C-483.724 748.977 -484.118 744.048 -484.015 722.671C-483.89 696.5 -483.719 695.095 -472.833 630.237C-464.275 579.248 -463.822 574.511 -463.845 536.026C-463.872 492.878 -465.115 485.14 -479.94 435.914C-485.481 417.514 -493.414 389.719 -497.57 374.144C-510.282 326.496 -517.432 301.953 -522.387 288.945C-535.746 253.882 -549.707 233.796 -569.294 221.461C-586.659 210.526 -597.379 207.737 -625.966 206.709L-650 205.847V230.632ZM604.456 274.12C577.046 310.448 546.935 352.646 526.652 383.156C478.046 456.269 445.661 497.901 409.513 533.74C344.122 598.573 258.114 653.15 195.315 669.66C187.115 671.816 177.475 672.757 164.437 672.671C147.397 672.561 142.401 671.717 115.016 664.324C78.9394 654.583 59.573 651.961 40.2039 654.195C-1.74742 659.036 -33.1184 678.683 -87.4088 734.111C-118.152 765.499 -128.135 775.251 -142.765 788.174L-156.148 799.995H-128.276L-120.705 792.55C-116.542 788.457 -102.402 774.085 -89.2814 760.616C-34.486 704.358 -5.74986 685.015 31.8063 679.101C54.8191 675.478 73.6709 679.001 111.832 694.059C125.126 699.303 140.562 704.591 146.135 705.809C174.164 711.932 204.933 700.005 270.05 657.768C336.868 614.429 391.024 569.365 437.947 518.057C462.223 491.513 490.366 454.086 529.36 396.488C563.869 345.516 588.858 311.635 627.246 263.776L650 235.406L649.173 214.854L604.456 274.12ZM-650 271.802L-642.214 272.945C-602.88 278.72 -577.658 302.239 -559.891 349.711C-552.978 368.182 -547.163 389.532 -537.467 432.039C-533.787 448.17 -529.317 467.768 -527.532 475.589C-514.411 533.1 -514.939 575.838 -529.477 633.177C-536.828 662.171 -547.01 690.911 -565.118 733.78C-573.687 754.068 -583.148 777.064 -586.142 784.885L-591.588 799.106L-562.373 799.586C-546.304 799.849 -532.926 799.76 -532.641 799.388C-532.358 799.015 -532.825 796.399 -533.682 793.576C-536.201 785.269 -535.585 759.919 -532.456 743.113C-530.909 734.802 -525.017 710.005 -519.361 688.008C-499.844 612.101 -494.964 581.166 -495.988 539.813C-496.802 506.894 -498.117 499.945 -518.907 418.707C-543.209 323.748 -550.651 303.866 -571.275 278.799C-587.289 259.334 -613.122 247.249 -638.829 247.195L-650 247.172V271.802ZM629.54 273.274C593.488 317.414 565.9 354.279 530.016 406.264C481.221 476.954 457.453 507.214 423.053 542.447C376.123 590.512 306.498 646.591 233.492 695.127C212.702 708.95 191.81 721.547 185.056 724.333C161.493 734.054 145.052 732.319 115.016 716.942C78.3531 698.17 63.5267 693.341 42.5761 693.341C2.72488 693.341 -28.8791 712.857 -89.0391 774.62L-112.89 799.106L-91.2149 800.13L-73.7401 782.861C-49.9853 759.384 -36.494 748.054 -20.059 737.782C0.30255 725.053 13.2266 720.966 33.0981 720.968C58.2962 720.969 70.9008 726.795 107.352 755.285C131.782 774.38 145.214 779.071 162.147 774.419C177.006 770.338 188.295 762.301 228.934 726.873C249.313 709.106 284.572 678.982 307.285 659.931C429.252 557.638 464.174 520.78 532.485 422.262C571.568 365.899 606.674 320.891 643.493 279.949L649.985 272.728L649.173 249.234L629.54 273.274ZM-650 318.022L-642.273 320.971C-618.854 329.909 -600.335 351.137 -588.077 383.09C-574.759 417.809 -559.39 505.854 -559.308 547.897C-559.247 578.862 -564.764 607.138 -576.894 638.039C-589.172 669.319 -608.764 699.198 -636.798 729.395L-650 743.616V799.995H-634.074L-617.439 775.976C-585.896 730.431 -567.76 697.646 -554.568 662.313C-532.961 604.447 -527.509 554.984 -536.826 501.364C-545.5 451.446 -559.132 392.451 -567.553 368.384C-584.127 321.016 -608.639 295.934 -644.922 289.219L-650 288.28V318.022ZM640.103 299.073C604.775 337.332 578.217 370.866 535.596 431.036C499.942 481.372 476.595 510.557 447.425 541.261C419.763 570.378 403.775 585.313 339.781 641.807C279.995 694.589 255.154 717.658 228.752 744.917C199.499 775.119 185.086 789.048 177.468 794.474L169.853 799.9L210.525 799.995L224.039 782.091C260.906 733.247 289.431 703.759 374.309 626.739C466.169 543.382 485.287 522.645 550.33 435.814C586.456 387.585 608.535 361.306 633.229 337.14L649.782 320.941L649.816 305.387C649.835 296.834 649.576 289.834 649.243 289.834C648.909 289.834 644.796 293.991 640.103 299.073ZM-650 359.847V380.088L-640.041 393.176C-632.382 403.242 -628.798 409.753 -624.522 421.373C-609.755 461.5 -606.582 524.972 -616.987 572.123C-622.134 595.456 -628.872 610.963 -643.452 633.042L-650 642.956V707.86L-644.245 701.944C-633.166 690.555 -613.069 663.885 -604.947 649.79C-595.011 632.552 -584.878 605.342 -580.783 584.909C-572.158 541.862 -581.872 446.302 -599.755 398.265C-606.509 380.123 -614.888 366.048 -624.788 356.215C-632.344 348.71 -645.444 339.605 -648.685 339.605C-649.458 339.605 -650 347.933 -650 359.847ZM641.202 353.035C619.065 370.558 596.923 395.021 553.715 449.688C536.959 470.889 519.594 492.607 515.126 497.951C489.16 529.012 454.507 563.337 390.557 621.346C311.477 693.076 285.628 719.858 249.063 767.945L225.368 799.106L245.523 800.164L252.961 788.97C263.467 773.157 286.951 742.499 300.515 726.89C334.72 687.53 358.888 664.896 467.735 570.284C488.587 552.159 517.392 526.237 531.747 512.682C583.903 463.427 591.115 456.921 600.691 450.506C606.455 446.643 613.138 443.637 617.061 443.143C623.098 442.381 623.962 442.759 626.758 447.393C629.407 451.782 629.72 453.855 629.044 462.492C628.613 467.997 626.061 480.396 623.373 490.044C604.297 558.527 602.003 570.161 602.041 598.241C602.071 620.704 604.886 636.181 612.693 656.822C622.641 683.123 635.046 701.889 646.126 707.4L649.85 709.25V527.983C649.85 428.286 649.698 346.718 649.511 346.721C649.324 346.723 645.586 349.563 641.202 353.035ZM-649.903 502.253C-649.89 591.147 -650.253 588.669 -641.738 558.04C-635.595 535.939 -633.359 516.182 -634.12 490.698C-634.812 467.508 -637.048 453.455 -642.462 438.26C-650.168 416.634 -649.915 414.457 -649.903 502.253ZM542.163 536.007C519.645 543.984 463.841 584.394 404.097 635.982C351.081 681.762 319.6 714.339 286.909 757.251C273.84 774.405 261.763 791.039 260.075 794.218L257.003 799.995L272.758 799.984L286.298 780.273C327.449 720.37 389.621 659.544 450.454 619.671C473.279 604.711 490.469 597.057 503.617 596C526.023 594.197 533.922 602.63 550.15 645.672C569.822 697.85 586.987 732.266 600.826 747.281C612.572 760.023 628.812 767.913 643.418 767.972L649.85 767.999V736.457L644.256 735.282C624.13 731.057 607.642 709.334 591.568 665.856C582.78 642.092 578.955 623.676 575.488 588.464C571.527 548.251 569.361 540.408 560.929 535.785C555.514 532.814 551.027 532.868 542.163 536.007ZM477.213 621.668C443.616 631.535 385.617 675.203 340.923 724.283C324.023 742.839 297.999 775.944 288.07 791.514L282.661 799.995L297.13 799.989L314.732 776.655C376.552 694.699 447.739 644.344 484.363 656.661C501.851 662.543 510.196 672.703 539.729 724.078C549.963 741.879 561.41 760.741 565.164 765.992C573.577 777.75 586.104 789.669 596.242 795.554C603.419 799.721 605.307 799.995 626.871 799.995H649.85L649.824 783.108L638.211 782.79C616.722 782.203 598.095 771.209 583.01 750.212C574.167 737.903 559.643 710.508 542.112 673.075C529.24 645.587 519.054 630.358 509.71 624.64C504.17 621.25 500.846 620.53 491.43 620.685C485.101 620.788 478.703 621.23 477.213 621.668ZM442.009 677.172C422.706 684.06 402.345 697.045 379.596 716.973C359.884 734.241 345.394 749.972 324.887 776.367L306.608 799.895L322.568 799.995L333.6 786.091C364.213 747.509 401.582 716.59 428.545 707.536C443.239 702.602 459.006 702.806 470.044 708.075C486.445 715.902 497.494 728.099 531.161 775.553L548.502 799.995H578.491L569.794 791.352C559.449 781.071 550.977 769.157 533.593 740.446C514.39 708.733 498.198 688.086 486.798 680.782C478.441 675.428 476.023 674.724 464.457 674.284C454.966 673.921 448.944 674.696 442.009 677.172ZM428.86 722.713C403.754 729.272 376.545 749.599 344.365 785.835L332.578 799.106L350.687 800.16L362.22 788.796C377.91 773.337 393.468 762.197 408.836 755.415C419.74 750.605 423.658 749.743 434.562 749.761C456.497 749.798 469.934 757.641 495.502 785.33L509.045 799.995H534.04L517.812 778.468C489.971 741.536 474.733 727.666 456.391 722.56C445.62 719.563 440.809 719.59 428.86 722.713ZM5.88244 740.421C-12.9898 745.811 -34.1732 759.831 -61.0016 784.685L-76.57 799.106L-51.7957 800.123L-38.46 790.355C-13.7927 772.288 9.98646 764.95 28.6271 769.653C39.7029 772.448 54.3926 781.965 63.1422 792.012L70.0937 799.995H123.657L116.29 794.136C112.239 790.913 101.44 780.934 92.2967 771.959C73.9851 753.984 60.6602 744.684 47.2948 740.549C36.674 737.263 17.1519 737.202 5.88244 740.421ZM410.382 769.733C399.237 773.687 385.145 782.203 372.955 792.346L364.83 799.106L381.079 799.634C393.125 800.027 399.428 799.396 405.451 797.195C415.911 793.373 434.141 793.318 445.165 797.074C456.926 801.081 491.254 801.335 488.764 797.396C485.595 792.381 465.517 776.634 456.517 772.103C443.869 765.734 424.459 764.737 410.382 769.733ZM-7.52223 790.184C-11.9905 791.477 -18.6928 794.17 -22.4163 796.168L-29.1864 799.801L41.2221 799.838L35.8061 796.054C24.0763 787.861 8.02722 785.687 -7.52223 790.184Z" fill="#001064" fill-opacity="0.1"/>
<path fill-rule="evenodd" clip-rule="evenodd" d="M-636.46 1597.03C-630.875 1596.28 -607.112 1595.15 -583.654 1594.53C-521.4 1592.87 -505.576 1590.38 -477.219 1577.82C-442.212 1562.32 -419.696 1536.37 -406.365 1496.17C-400.794 1479.38 -397.766 1466.77 -392.906 1440.16C-390.729 1428.24 -386.38 1404.49 -383.242 1387.38C-374.016 1337.07 -366.457 1312.79 -346.251 1268.53C-319.719 1210.41 -317.344 1183.36 -329.768 1080.75C-332.862 1055.2 -333.881 1019.19 -331.925 1004.45C-327.297 969.563 -308.99 951.874 -279.869 954.162C-263.509 955.447 -254.273 958.91 -236.35 970.485C-193.379 998.233 -153.318 1059.29 -137.685 1120.86C-130.698 1148.38 -129.879 1157.41 -128.674 1220.29C-128.045 1253.04 -126.97 1283.04 -126.282 1286.95C-118.946 1328.69 -104.255 1356.18 -81.0599 1371.55C-66.2376 1381.37 -47.6632 1384.68 -32.7271 1380.16C-9.42322 1373.11 9.99731 1346.5 24.4148 1301.86C36.5197 1264.38 41.3372 1251.46 49.0158 1235.88C70.0842 1193.1 101.668 1166.66 151.38 1150.15C194.637 1135.79 236.952 1125.09 260.338 1122.61C326.941 1115.54 389.255 1152.66 451.53 1236.52C471.611 1263.56 478.884 1274.75 516.687 1336.72C531.597 1361.16 553.715 1396.76 565.839 1415.82C594.571 1461 610.384 1488.78 632.097 1532.2L649.85 1567.7V1578.86C649.85 1585 649.614 1590.02 649.327 1590.02C649.04 1590.02 646.203 1584.22 643.026 1577.13C622.863 1532.18 595.039 1481.25 561.695 1428.26C550.314 1410.18 528.237 1374.18 512.637 1348.27C476.902 1288.92 465.039 1270.72 445.467 1245.17C403.083 1189.86 359.142 1156.74 314.656 1146.55C299.397 1143.06 271.519 1143.11 253.298 1146.66C234.454 1150.33 184.486 1166.81 159.698 1177.53C126.812 1191.75 108.366 1205.72 91.5223 1229.16C76.731 1249.74 68.7234 1268.71 52.1191 1322.5C47.8933 1336.19 42.2376 1352.58 39.55 1358.94C19.011 1407.5 -10.8625 1430.29 -50.7111 1427.8C-101.365 1424.63 -143.149 1379.07 -158.68 1310.06C-161.823 1296.09 -161.879 1294.48 -161.917 1219.4L-161.955 1142.96L-165.572 1125.58C-178.428 1063.81 -213.93 1010.35 -253.228 993.597C-263.25 989.324 -277.932 989.208 -286.085 993.339C-294.467 997.584 -302.228 1009.21 -305.548 1022.49C-309.588 1038.66 -308.903 1072.22 -303.651 1115.41C-297.444 1166.44 -296.162 1186.62 -297.856 1206.56C-300.462 1237.26 -305.859 1254.13 -325.797 1293.93C-346.381 1335.03 -352.858 1357.43 -365.632 1431.67C-374.421 1482.75 -379.335 1504.74 -386.538 1525.2C-397.374 1556 -413.502 1577.83 -436.911 1593.4L-445.202 1598.91L-545.909 1598.65C-601.851 1598.5 -642.101 1597.78 -636.46 1597.03ZM-404.071 1592.15C-377.227 1564.29 -365.092 1528.54 -348.742 1429.15C-339.611 1373.64 -329.954 1342.31 -312.034 1310.06C-295.007 1279.41 -288.015 1264.19 -283.92 1248.85C-280.399 1235.66 -279.784 1230.53 -279.319 1210.51C-278.767 1186.67 -279.124 1182.65 -287.718 1116.3C-293.65 1070.51 -292.062 1042.93 -282.688 1028.91C-277.223 1020.74 -271.588 1017.65 -262.171 1017.65C-242.389 1017.65 -217.832 1039.75 -201.289 1072.45C-182.689 1109.22 -177.185 1148.8 -182.1 1210.45C-186.005 1259.44 -184.711 1292.95 -177.874 1319.77C-173.765 1335.89 -163.821 1360.65 -155.973 1374.3C-135.147 1410.52 -108.441 1434.42 -76.5767 1445.35C-65.4901 1449.15 -59.8479 1450.02 -45.4345 1450.12C-13.1224 1450.34 11.0886 1438.42 30.9926 1412.48C45.6538 1393.37 54.5199 1373.26 68.6937 1326.94C83.7218 1277.83 91.7741 1259.55 107.509 1238.84C119.028 1223.67 125.41 1217.82 143.102 1206.21C166.321 1190.97 221.222 1168.72 255.833 1160.52C273.944 1156.23 306.89 1156.24 322.108 1160.55C372.031 1174.67 419.32 1214.82 463.432 1280.53C476.466 1299.95 490.713 1322.98 521.278 1374.05C528.3 1385.78 544.753 1412.58 557.839 1433.6C584.968 1477.17 597.701 1499.03 612.187 1526.92C622.903 1547.55 645.788 1595.79 645.788 1597.75C645.788 1598.39 643.502 1598.91 640.707 1598.91C636.047 1598.91 635.354 1598.23 632.302 1590.68C627.016 1577.6 598.201 1520.75 587.106 1501.52C581.538 1491.87 567.441 1468.84 555.777 1450.34C544.114 1431.84 524.133 1399.11 511.374 1377.6C477.458 1320.43 464.471 1300.32 444.76 1274.47C392.137 1205.45 338.148 1174.38 282.7 1181.19C248.145 1185.44 192.99 1206.92 165.114 1226.98C127.65 1253.93 110.654 1281.46 90.5447 1347.75C86.7507 1360.26 81.1573 1377.2 78.1162 1385.39C57.9212 1439.78 30.7001 1468.22 -12.3195 1479.87C-32.149 1485.24 -64.6316 1484.13 -84.7008 1477.39C-129.59 1462.31 -161.76 1432.35 -200.409 1369.63C-218.55 1340.19 -230.625 1324.68 -237.834 1321.55C-248.372 1316.99 -263.203 1323.29 -278.15 1338.69C-299.227 1360.41 -311.591 1394.24 -323.56 1462.93C-333.986 1522.75 -345.967 1562.85 -361.27 1589.13L-366.445 1598.02L-410.671 1599L-404.071 1592.15ZM-336.166 1582.47C-326.243 1560.95 -317.083 1532.4 -309.355 1498.9C-297.5 1447.51 -293.532 1432.66 -287.584 1417.38C-277.267 1390.89 -264.443 1377.71 -249.134 1377.85C-236.309 1377.97 -224.575 1386.96 -198.438 1416.69C-165.018 1454.71 -137.851 1476.16 -106.365 1489.4C-52.7191 1511.95 5.58863 1504.37 45.6226 1469.64C69.4966 1448.92 84.0901 1421.36 102.819 1361.6C122.644 1298.35 137.824 1271.47 167.822 1246.52C192.785 1225.75 235.842 1205.77 272.081 1198.13C342.81 1183.22 406.166 1223.43 471.43 1324.63C476.979 1333.23 493.001 1359.47 507.034 1382.94C521.068 1406.4 541.691 1440 552.863 1457.59C583.37 1505.65 610.222 1554.45 625.964 1590.47L629.653 1598.91H624.452C619.272 1598.91 619.208 1598.82 608.615 1576.87C590.35 1539.04 573.539 1509.66 545.443 1466.48C538.446 1455.73 520.285 1426.53 505.086 1401.6C470.04 1344.12 458.569 1326.76 440.396 1303.72C391.388 1241.59 342.024 1214.83 289.258 1221.78C237.795 1228.56 190.98 1255.06 163.297 1293.1C146.851 1315.7 137.5 1336.84 122.586 1385.13C108.982 1429.18 98.5915 1451.96 82.602 1472.81C44.0614 1523.06 -28.462 1543.32 -100.949 1524.09C-121.321 1518.68 -139.326 1511.38 -170.982 1495.7C-205.447 1478.63 -213.163 1475.81 -225.518 1475.75C-245.498 1475.65 -258.033 1490.83 -279.204 1540.76C-283.024 1549.77 -290.453 1566.53 -295.712 1578.02L-305.276 1598.91H-343.749L-336.166 1582.47ZM-279.495 1596.69C-275.085 1587.07 -254.721 1553.4 -248.326 1545.15C-237.998 1531.81 -232.494 1527.06 -221.978 1522.39C-207.755 1516.07 -189.947 1517.93 -148.339 1530.07C-106.186 1542.38 -93.7902 1545.09 -69.3842 1547.35C-16.5954 1552.26 40.1565 1536.05 75.289 1506.06C101.295 1483.85 116.172 1456.63 134.545 1397.62C146.584 1358.96 151.106 1346.87 160.321 1328.69C182.627 1284.71 219.261 1255.02 268.019 1241.4C286.515 1236.24 322.719 1235.73 338.208 1240.41C386.965 1255.15 428.382 1293.82 476.638 1369.67C483.768 1380.88 497.777 1403.24 507.768 1419.38C517.758 1435.51 532.657 1459.1 540.876 1471.81C561.797 1504.16 576.212 1527.81 586.38 1546.47C595.199 1562.65 611.937 1596.42 611.937 1598.03C611.937 1598.51 609.594 1598.91 606.728 1598.91C601.624 1598.91 601.331 1598.54 592.291 1580.69C579.181 1554.81 565.09 1530.71 546.283 1502.03C537.308 1488.34 520.265 1461.95 508.408 1443.37C450.446 1352.56 424.816 1320.44 388.187 1292.71C325.452 1245.22 245.043 1256.39 197.165 1319.25C180.506 1341.11 171.372 1361.92 155.597 1413.91C140.437 1463.88 131.877 1483.8 116.926 1503.91C92.2466 1537.1 50.4023 1560.12 -6.16824 1571.6C-29.1011 1576.26 -83.9127 1576.17 -115.166 1571.43C-145.199 1566.87 -180.339 1566.66 -192.345 1570.98C-204.161 1575.23 -215.826 1582.62 -224.804 1591.54L-232.215 1598.91H-256.365C-275.327 1598.91 -280.296 1598.43 -279.495 1596.69ZM-185.981 1597.13C-184.344 1596.25 -178.251 1594.18 -172.441 1592.53C-163.763 1590.07 -156.327 1589.65 -130.737 1590.21C-113.609 1590.59 -81.6204 1590.84 -59.6516 1590.76C-25.3911 1590.64 -17.1073 1590.07 -1.4292 1586.74C50.8437 1575.63 90.3118 1556.93 116.825 1530.7C136.57 1511.16 149.949 1485.12 163.056 1440.71C178.081 1389.79 184.597 1370.97 192.59 1355.38C212.76 1316.06 244.122 1290.22 282.075 1281.66C341.995 1268.14 403.624 1305.3 464.231 1391.48C479.542 1413.25 552.012 1523.95 565.694 1546.47C571.041 1555.27 579.708 1570.67 584.956 1580.69L594.496 1598.91H581.318L568.341 1576.25C550.364 1544.85 480.296 1439.93 456.368 1408.57C427.635 1370.92 405.177 1348.64 377.694 1330.54C352.023 1313.62 332.313 1306.98 307.958 1307.05C288.872 1307.1 272.979 1311.86 256.51 1322.46C223.77 1343.53 207.296 1373.86 187.455 1449.59C177.349 1488.17 169.949 1508.23 159.401 1525.63C144.115 1550.85 116.911 1572.49 79.1344 1589.49L60.1783 1598.02L-64.3906 1598.37C-138.892 1598.58 -187.763 1598.08 -185.981 1597.13ZM102.153 1597.11C103.642 1596.26 111.606 1591.9 119.852 1587.42C140.486 1576.23 155.682 1563.54 167.822 1547.37C183.855 1526.02 188.885 1512.36 204.998 1446.44C216.071 1401.14 224.913 1379.92 241.119 1359.77C252.176 1346.02 260.951 1338.8 274.464 1332.32C326.033 1307.62 387.407 1338.21 452.661 1421.15C467.628 1440.18 477.123 1453.77 529.656 1531.36C549.128 1560.12 567.545 1589.42 570.115 1595.73C571.298 1598.63 570.655 1598.91 562.761 1598.91H554.109L545.472 1586.02C522.443 1551.66 463.114 1468 450.274 1451.78C394.849 1381.77 341.946 1348.27 301.604 1357.64C272.595 1364.38 250.849 1388.77 238.729 1428.15C235.723 1437.93 232.739 1452.69 222.716 1507.36C218.503 1530.36 210.942 1552.02 202.998 1563.87C196.309 1573.84 184.044 1585.61 172.262 1593.37L163.837 1598.91L131.642 1598.79C112.01 1598.72 100.501 1598.06 102.153 1597.11ZM216.745 1591.96C234.947 1574.85 240.046 1558.41 246.315 1496.63C251.325 1447.27 258.033 1423.77 272.733 1404.11C295.397 1373.79 328.084 1370.14 365.508 1393.73C380.771 1403.35 387.605 1408.85 404.774 1425.34C430.275 1449.82 451.215 1476.04 502.245 1547.38C513.777 1563.5 526.822 1581.69 531.232 1587.8L539.25 1598.91H494.449L475.677 1574.46C465.351 1561.02 444.413 1533.18 429.146 1512.61C384.508 1452.44 358.32 1430.04 332.617 1430.04C320.139 1430.04 313.814 1432.75 306.463 1441.24C291.512 1458.52 287.537 1488.25 295.041 1526.66C298.385 1543.78 307.817 1570.33 316.04 1585.77C319.417 1592.11 322.179 1597.66 322.179 1598.11C322.179 1598.55 296.794 1598.91 265.767 1598.91H209.355L216.745 1591.96ZM-650 1559.75V1541.55L-599.563 1542.81C-531.622 1544.51 -515.658 1541.82 -487.553 1523.93C-474.947 1515.91 -471.925 1513.01 -460.387 1497.81C-448.969 1482.76 -446.571 1478.46 -440.449 1462.04C-432.13 1439.72 -427.788 1422.18 -417.948 1371.16C-407.719 1318.11 -403.436 1302.37 -389.48 1266.5C-367.984 1211.26 -365.866 1205.27 -362.101 1189.1C-358.597 1174.05 -358.395 1171.28 -358.418 1138.52C-358.44 1109.04 -359.073 1098.26 -362.657 1066.43C-370.837 993.819 -371.174 977.444 -365.039 950.763C-360.982 933.117 -348.633 916.565 -334.776 910.201C-307.859 897.84 -262.814 907.252 -224.264 933.293C-176.186 965.771 -135.777 1018.19 -79.9104 1120.55C-52.9019 1170.04 -43.9492 1180.16 -27.1554 1180.17C-16.3314 1180.18 -10.0285 1177.43 19.8396 1159.67C80.2434 1123.75 110.576 1112.53 184.747 1098.68C241.662 1088.06 261.69 1086.65 288.737 1091.37C340.381 1100.4 391.72 1135.88 439.786 1195.76C461.574 1222.91 479.944 1250.31 521.19 1317.17C532.649 1335.74 553.074 1367.74 566.578 1388.27C601.926 1442.01 619.778 1472.26 642.927 1517.63C649.709 1530.92 649.962 1531.86 649.575 1542.11L649.173 1552.76L633.996 1522.65C616.671 1488.28 596.284 1452.3 577.889 1423.64C546.253 1374.34 530.92 1349.96 508.147 1312.72C477.621 1262.81 464.186 1242.7 443.94 1216.63C397.354 1156.62 348.417 1121.35 298.484 1111.77C281.617 1108.53 252.446 1109.32 230.205 1113.6C205.327 1118.39 152.92 1131.88 133.071 1138.6C93.4341 1152.01 63.5281 1173.45 41.2099 1204.44C28.8532 1221.6 22.679 1234.22 8.58914 1271.09C2.2077 1287.79 -6.12079 1306.9 -9.92015 1313.56C-37.0369 1361.1 -83.1531 1348.47 -98.0649 1289.42C-102.042 1273.67 -103.792 1255.52 -105.674 1210.51C-107.149 1175.27 -109.036 1159.77 -114.765 1135.89C-122.977 1101.66 -142.643 1058.44 -165.027 1025.44C-207.325 963.064 -261.467 927.779 -302.841 935.617C-324 939.627 -337.749 953.465 -343.532 976.579C-347.816 993.695 -346.91 1037.77 -341.284 1086.08C-337.405 1119.38 -336.734 1129.81 -336.755 1156.3C-336.778 1182.61 -337.235 1189.59 -339.725 1201.62C-343.166 1218.26 -350.259 1238.36 -362.301 1265.62C-379.952 1305.56 -388.231 1334.32 -398.122 1390.05C-408.457 1448.27 -413.48 1469.22 -422.654 1492.37C-439.706 1535.4 -472.424 1562.08 -519.594 1571.41C-530.874 1573.64 -546.967 1574.42 -589.747 1574.82C-620.279 1575.1 -646.328 1575.93 -647.63 1576.65C-649.798 1577.85 -650 1576.41 -650 1559.75ZM-605.318 1524.18C-613.882 1523.5 -627.438 1522.84 -635.444 1522.71L-650 1522.47V1490.07L-644.245 1491.11C-628.724 1493.89 -587.79 1496.2 -569.572 1495.31C-532.488 1493.52 -509.385 1482.12 -489.55 1455.81C-472.951 1433.79 -463.394 1409.17 -452.294 1359.83C-434.058 1278.76 -430.346 1265.64 -412.035 1217.62C-398.456 1182.01 -393.653 1164.27 -391.27 1140.95C-389.331 1121.97 -390.385 1079.71 -393.434 1054.09C-400.109 997.991 -401.314 983.467 -401.393 958.097C-401.482 929.093 -399.863 918.113 -393.063 901.617C-380.675 871.569 -348.218 855.583 -310.82 861.11C-259.034 868.764 -215.512 891.067 -171.116 932.7C-152.64 950.026 -136.053 967.902 -107.282 1001.5C-56.49 1060.82 -36.2665 1077.36 -6.1452 1084.26C15.6841 1089.26 30.0137 1087.96 91.9975 1075.41C170.204 1059.56 232.972 1053.53 267.342 1058.57C297.657 1063.01 324.42 1073.65 354.089 1093.07C405.012 1126.4 444.962 1171.51 499.014 1256.73C506.456 1268.46 520.131 1290.05 529.406 1304.71C538.68 1319.37 558.457 1349.36 573.355 1371.37C604.493 1417.36 618.458 1439.42 636.8 1471.6L649.85 1494.49V1517.64L638.651 1496.51C616.318 1454.35 604.173 1434.47 563.461 1373.38C552.166 1356.44 530.92 1323.26 516.247 1299.65C481.202 1243.27 474.32 1232.92 452.366 1203.62C394.022 1125.75 336 1085.37 271.791 1077.95C252.384 1075.71 236.719 1076.68 194.902 1082.7C137.634 1090.96 109.214 1097.82 55.4393 1116.38C3.47779 1134.31 -11.656 1136.19 -31.3569 1127.15C-47.3044 1119.83 -55.3323 1110.85 -107.719 1041.72C-141.102 997.666 -162.609 970.775 -172.179 961.119C-209.007 923.966 -242.615 902.772 -281.709 892.05C-297.668 887.674 -330.834 887.549 -341.349 891.828C-351.706 896.041 -364.131 907.074 -369.323 916.668C-383.287 942.471 -384.552 973.975 -374.937 1056.62C-371.407 1086.95 -370.657 1098.81 -370.539 1126.08C-370.34 1171.97 -372.015 1180.15 -392.299 1232.34C-412.577 1284.51 -418.173 1303.38 -428.006 1352.72C-444.766 1436.82 -453.044 1460.35 -475.46 1487.6C-486.575 1501.11 -504.365 1513.48 -520.387 1518.83C-540.628 1525.6 -566.737 1527.24 -605.318 1524.18ZM639.425 1464.11C625.697 1439.68 605.85 1408.85 574.005 1362.52C558.895 1340.54 531.562 1298.94 513.261 1270.08C477.232 1213.28 438.306 1159.96 415.606 1136.32C395.281 1115.16 373.267 1096.73 351.29 1082.48C286.956 1040.76 236.414 1035.47 106.892 1056.95C55.8414 1065.41 33.7602 1067.41 13.7682 1065.36C-4.932 1063.46 -21.084 1057.5 -38.6645 1046.02C-56.2273 1034.55 -70.9874 1020.52 -107.594 980.507C-158.711 924.629 -180.16 904.868 -211.978 884.344C-250.105 859.747 -293.776 844.934 -329.1 844.616C-364.446 844.298 -389.92 858.596 -403.637 886.456C-415.851 911.267 -416.785 943.328 -407.615 1022.98C-402.728 1065.41 -401.768 1078.11 -401.699 1101.19C-401.574 1142.98 -404.829 1158.88 -424.614 1213.18C-439.339 1253.58 -444.897 1271.87 -452.979 1306.5C-469.815 1378.64 -478.481 1406.36 -490.76 1427.37C-503.665 1449.46 -522.091 1465.27 -543.789 1472.9C-557.977 1477.88 -593.993 1479.34 -626.463 1476.24L-650 1474V1459.9C-650 1447.3 -649.747 1445.9 -647.63 1446.72C-646.327 1447.24 -635.207 1448.58 -622.92 1449.71C-560.951 1455.43 -526.497 1439.32 -502.871 1393.58C-492.208 1372.94 -484.567 1349.15 -471.879 1297.08C-462.842 1259.99 -454.665 1232.48 -442.234 1197.32C-431.196 1166.1 -428.633 1157.47 -425.287 1140.3C-418.141 1103.61 -418.933 1068.33 -428.523 996.315C-439.391 914.702 -435.769 877.698 -414.364 851.683C-397.626 831.339 -374.282 820.619 -343.317 819.058C-321.612 817.963 -308.272 819.838 -281.709 827.718C-223.331 845.037 -180.245 873.56 -123.29 932.595C-111.747 944.559 -96.2099 960.607 -88.7628 968.258C-48.6828 1009.43 -19.7612 1027.93 15.1195 1034.69C35.2211 1038.59 72.3238 1037.24 113.052 1031.13C218.328 1015.34 274.727 1022.05 335.907 1057.66C374.62 1080.2 412.494 1115.39 450.65 1164.27C469.635 1188.6 484.855 1211.04 536.942 1291.51C546.707 1306.6 562.244 1329.66 571.469 1342.76C602.321 1386.55 620.185 1412.97 635.076 1436.8L649.85 1460.45V1471.02C649.85 1476.83 649.698 1481.56 649.511 1481.53C649.324 1481.49 644.787 1473.66 639.425 1464.11ZM641.731 1435.75C629.197 1415.65 608.051 1384.6 582.16 1348.27C558.805 1315.5 546.99 1297.86 498.844 1223.84C443.842 1139.29 401 1092.39 344.52 1054.9C307.861 1030.57 274.62 1017.42 236.877 1012.35C219.146 1009.96 163.576 1009.88 145.481 1012.22C138.034 1013.18 119.45 1015.67 104.184 1017.75C68.6964 1022.6 25.1974 1021.9 6.69489 1016.19C-27.9597 1005.49 -51.6549 988.108 -102.939 935.775C-153.326 884.357 -172.947 867.237 -203.854 847.721C-234.442 828.404 -279.154 810.965 -313.32 805.024C-359.868 796.929 -409.813 813.891 -430.814 844.922C-437.548 854.872 -443.527 870.687 -445.669 884.213C-448.391 901.395 -446.435 942.583 -440.98 982.983C-431.525 1053 -429.929 1084.54 -434.175 1117.32C-436.932 1138.59 -441.187 1154.61 -454.681 1194.51C-465.616 1226.85 -472.686 1250.94 -480.762 1283.39C-496.767 1347.7 -507.642 1376.16 -524.583 1398.04C-537.754 1415.06 -552.844 1425.2 -573.623 1430.99C-585.507 1434.3 -618.032 1435.26 -638.152 1432.89L-650 1431.5V1406.61L-632.736 1407.83C-591.332 1410.76 -561.293 1399.77 -540.576 1374.11C-530.194 1361.25 -519.613 1341.14 -512.592 1320.91C-507.606 1306.55 -504.392 1295.27 -492.274 1249.62C-487.603 1232.02 -480.904 1208.42 -477.389 1197.18C-473.874 1185.94 -468.347 1168.24 -465.107 1157.86C-447.414 1101.18 -446.755 1062.51 -461.831 965.744C-472.164 899.42 -472.455 870.136 -463.042 844.104C-458.076 830.37 -445.664 814.772 -432.44 805.652L-422.808 799.005H-248.333L-238.956 803.241C-204.537 818.788 -171.095 841.482 -140.215 870.248C-134.258 875.798 -116.892 892.955 -101.626 908.375C-68.2767 942.06 -50.1966 958.019 -31.2174 970.519C9.55452 997.371 47.6943 1002.88 116.37 991.821C168.72 983.394 211.909 984.613 252.448 995.666C298.659 1008.26 351.997 1040.45 397.327 1083.1C437.001 1120.43 466.977 1158.94 519.101 1239.52C546.369 1281.69 559.861 1301.33 595.02 1350.05C612.303 1374 631.742 1401.38 638.216 1410.88L649.988 1428.15L649.173 1447.69L641.731 1435.75ZM634.077 1394.02C625.773 1382.06 606.011 1354.67 590.16 1333.16C562.657 1295.85 551.355 1279.35 503.617 1206.86C436.234 1104.54 372.996 1042.08 297.13 1002.91C237.678 972.222 187.401 964.921 118.401 976.959C50.6487 988.78 13.534 983.794 -27.8324 957.312C-45.6931 945.877 -67.6091 926.459 -102.303 891.328C-146.138 846.941 -175.143 822.663 -203.108 806.951L-215.667 799.894L-176.017 798.909L-166.241 806.348C-149.619 818.996 -126.555 840.28 -96.2099 870.979C-52.1098 915.592 -33.1225 931.363 -8.49979 943.829C28.3699 962.495 58.3707 964.225 117.003 951.06C150.992 943.431 168.197 941.852 186.804 944.657C255.505 955.015 335.96 1001.2 406.805 1070.94C448.25 1111.75 470.72 1141.1 535.789 1239.43C558.424 1273.64 572.505 1293.21 614.18 1348.41L649.85 1395.65V1405.74C649.85 1411.28 649.698 1415.81 649.511 1415.8C649.324 1415.78 642.38 1405.98 634.077 1394.02ZM-650 1368.37L-634.09 1367.32C-599.051 1365 -576.634 1353.89 -558.959 1330.06C-543.341 1309.01 -533.03 1282.27 -517.321 1222.07C-514.132 1209.84 -506.739 1182.25 -500.892 1160.74C-486.237 1106.82 -484.75 1098.59 -483.839 1066.31C-482.697 1025.87 -485.867 999.095 -498.929 938.871C-511.787 879.588 -512.462 875.066 -512.518 847.888C-512.565 824.22 -512.384 822.512 -508.813 812.965C-506.748 807.445 -504.231 802.025 -503.22 800.923C-501.971 799.565 -493.927 799.076 -478.217 799.407L-455.054 799.894L-462.336 807.287C-470.877 815.96 -477.182 827.334 -481.229 841.368C-483.724 850.023 -484.118 854.952 -484.015 876.329C-483.89 902.5 -483.719 903.905 -472.833 968.763C-464.275 1019.75 -463.822 1024.49 -463.845 1062.97C-463.872 1106.12 -465.115 1113.86 -479.94 1163.09C-485.481 1181.49 -493.414 1209.28 -497.57 1224.86C-510.282 1272.5 -517.432 1297.05 -522.387 1310.06C-535.746 1345.12 -549.707 1365.2 -569.294 1377.54C-586.659 1388.47 -597.379 1391.26 -625.966 1392.29L-650 1393.15V1368.37ZM604.456 1324.88C577.046 1288.55 546.935 1246.35 526.652 1215.84C478.046 1142.73 445.661 1101.1 409.513 1065.26C344.122 1000.43 258.114 945.85 195.315 929.34C187.115 927.184 177.475 926.243 164.437 926.329C147.397 926.439 142.401 927.283 115.016 934.676C78.9394 944.417 59.573 947.039 40.2039 944.805C-1.74742 939.964 -33.1184 920.317 -87.4088 864.889C-118.152 833.501 -128.135 823.749 -142.765 810.826L-156.148 799.005H-128.276L-120.705 806.45C-116.542 810.543 -102.402 824.915 -89.2814 838.384C-34.486 894.642 -5.74986 913.985 31.8063 919.899C54.8191 923.522 73.6709 919.999 111.832 904.941C125.126 899.697 140.562 894.409 146.135 893.191C174.164 887.068 204.933 898.995 270.05 941.232C336.868 984.571 391.024 1029.64 437.947 1080.94C462.223 1107.49 490.366 1144.91 529.36 1202.51C563.869 1253.48 588.858 1287.36 627.246 1335.22L650 1363.59L649.173 1384.15L604.456 1324.88ZM-650 1327.2L-642.214 1326.05C-602.88 1320.28 -577.658 1296.76 -559.891 1249.29C-552.978 1230.82 -547.163 1209.47 -537.467 1166.96C-533.787 1150.83 -529.317 1131.23 -527.532 1123.41C-514.411 1065.9 -514.939 1023.16 -529.477 965.823C-536.828 936.829 -547.01 908.089 -565.118 865.22C-573.687 844.932 -583.148 821.936 -586.142 814.115L-591.588 799.894L-562.373 799.414C-546.304 799.151 -532.926 799.24 -532.641 799.612C-532.358 799.985 -532.825 802.601 -533.682 805.424C-536.201 813.731 -535.585 839.081 -532.456 855.887C-530.909 864.198 -525.017 888.995 -519.361 910.992C-499.844 986.899 -494.964 1017.83 -495.988 1059.19C-496.802 1092.11 -498.117 1099.05 -518.907 1180.29C-543.209 1275.25 -550.651 1295.13 -571.275 1320.2C-587.289 1339.67 -613.122 1351.75 -638.829 1351.8L-650 1351.83V1327.2ZM629.54 1325.73C593.488 1281.59 565.9 1244.72 530.016 1192.74C481.221 1122.05 457.453 1091.79 423.053 1056.55C376.123 1008.49 306.498 952.409 233.492 903.873C212.702 890.05 191.81 877.453 185.056 874.667C161.493 864.946 145.052 866.681 115.016 882.058C78.3531 900.83 63.5267 905.659 42.5761 905.659C2.72488 905.659 -28.8791 886.143 -89.0391 824.38L-112.89 799.894L-91.2149 798.87L-73.7401 816.139C-49.9853 839.616 -36.494 850.946 -20.059 861.218C0.30255 873.947 13.2266 878.034 33.0981 878.032C58.2962 878.031 70.9008 872.205 107.352 843.715C131.782 824.62 145.214 819.929 162.147 824.581C177.006 828.662 188.295 836.699 228.934 872.127C249.313 889.894 284.572 920.018 307.285 939.069C429.252 1041.36 464.174 1078.22 532.485 1176.74C571.568 1233.1 606.674 1278.11 643.493 1319.05L649.985 1326.27L649.173 1349.77L629.54 1325.73ZM-650 1280.98L-642.273 1278.03C-618.854 1269.09 -600.335 1247.86 -588.077 1215.91C-574.759 1181.19 -559.39 1093.15 -559.308 1051.1C-559.247 1020.14 -564.764 991.862 -576.894 960.961C-589.172 929.681 -608.764 899.802 -636.798 869.605L-650 855.384V799.005H-634.074L-617.439 823.024C-585.896 868.569 -567.76 901.354 -554.568 936.687C-532.961 994.553 -527.509 1044.02 -536.826 1097.64C-545.5 1147.55 -559.132 1206.55 -567.553 1230.62C-584.127 1277.98 -608.639 1303.07 -644.922 1309.78L-650 1310.72V1280.98ZM640.103 1299.93C604.775 1261.67 578.217 1228.13 535.596 1167.96C499.942 1117.63 476.595 1088.44 447.425 1057.74C419.763 1028.62 403.775 1013.69 339.781 957.193C279.995 904.411 255.154 881.342 228.752 854.083C199.499 823.881 185.086 809.952 177.468 804.526L169.853 799.1L210.525 799.005L224.039 816.909C260.906 865.753 289.431 895.241 374.309 972.261C466.169 1055.62 485.287 1076.36 550.33 1163.19C586.456 1211.41 608.535 1237.69 633.229 1261.86L649.782 1278.06L649.816 1293.61C649.835 1302.17 649.576 1309.17 649.243 1309.17C648.909 1309.17 644.796 1305.01 640.103 1299.93ZM-650 1239.15V1218.91L-640.041 1205.82C-632.382 1195.76 -628.798 1189.25 -624.522 1177.63C-609.755 1137.5 -606.582 1074.03 -616.987 1026.88C-622.134 1003.54 -628.872 988.037 -643.452 965.958L-650 956.044V891.14L-644.245 897.056C-633.166 908.445 -613.069 935.115 -604.947 949.21C-595.011 966.448 -584.878 993.658 -580.783 1014.09C-572.158 1057.14 -581.872 1152.7 -599.755 1200.73C-606.509 1218.88 -614.888 1232.95 -624.788 1242.78C-632.344 1250.29 -645.444 1259.39 -648.685 1259.39C-649.458 1259.39 -650 1251.07 -650 1239.15ZM641.202 1245.97C619.065 1228.44 596.923 1203.98 553.715 1149.31C536.959 1128.11 519.594 1106.39 515.126 1101.05C489.16 1069.99 454.507 1035.66 390.557 977.654C311.477 905.924 285.628 879.142 249.063 831.055L225.368 799.894L245.523 798.836L252.961 810.03C263.467 825.843 286.951 856.501 300.515 872.11C334.72 911.47 358.888 934.104 467.735 1028.72C488.587 1046.84 517.392 1072.76 531.747 1086.32C583.903 1135.57 591.115 1142.08 600.691 1148.49C606.455 1152.36 613.138 1155.36 617.061 1155.86C623.098 1156.62 623.962 1156.24 626.758 1151.61C629.407 1147.22 629.72 1145.15 629.044 1136.51C628.613 1131 626.061 1118.6 623.373 1108.96C604.297 1040.47 602.003 1028.84 602.041 1000.76C602.071 978.296 604.886 962.819 612.693 942.178C622.641 915.877 635.046 897.111 646.126 891.6L649.85 889.75V1071.02C649.85 1170.71 649.698 1252.28 649.511 1252.28C649.324 1252.28 645.586 1249.44 641.202 1245.97ZM-649.903 1096.75C-649.89 1007.85 -650.253 1010.33 -641.738 1040.96C-635.595 1063.06 -633.359 1082.82 -634.12 1108.3C-634.812 1131.49 -637.048 1145.55 -642.462 1160.74C-650.168 1182.37 -649.915 1184.54 -649.903 1096.75ZM542.163 1062.99C519.645 1055.02 463.841 1014.61 404.097 963.018C351.081 917.238 319.6 884.661 286.909 841.749C273.84 824.595 261.763 807.961 260.075 804.782L257.003 799.005L272.758 799.016L286.298 818.727C327.449 878.63 389.621 939.456 450.454 979.329C473.279 994.289 490.469 1001.94 503.617 1003C526.023 1004.8 533.922 996.37 550.15 953.328C569.822 901.15 586.987 866.734 600.826 851.719C612.572 838.977 628.812 831.087 643.418 831.028L649.85 831.001V862.543L644.256 863.718C624.13 867.943 607.642 889.666 591.568 933.144C582.78 956.908 578.955 975.324 575.488 1010.54C571.527 1050.75 569.361 1058.59 560.929 1063.22C555.514 1066.19 551.027 1066.13 542.163 1062.99ZM477.213 977.332C443.616 967.465 385.617 923.798 340.923 874.717C324.023 856.161 297.999 823.056 288.07 807.486L282.661 799.005L297.13 799.011L314.732 822.345C376.552 904.301 447.739 954.656 484.363 942.339C501.851 936.457 510.196 926.297 539.729 874.922C549.963 857.121 561.41 838.259 565.164 833.008C573.577 821.25 586.104 809.331 596.242 803.446C603.419 799.279 605.307 799.005 626.871 799.005H649.85L649.824 815.892L638.211 816.21C616.722 816.797 598.095 827.791 583.01 848.788C574.167 861.097 559.643 888.492 542.112 925.925C529.24 953.414 519.054 968.642 509.71 974.36C504.17 977.75 500.846 978.47 491.43 978.315C485.101 978.212 478.703 977.77 477.213 977.332ZM442.009 921.828C422.706 914.94 402.345 901.955 379.596 882.027C359.884 864.759 345.394 849.028 324.887 822.633L306.608 799.105L322.568 799.005L333.6 812.909C364.213 851.491 401.582 882.41 428.545 891.464C443.239 896.398 459.006 896.194 470.044 890.925C486.445 883.098 497.494 870.901 531.161 823.447L548.502 799.005H578.491L569.794 807.648C559.449 817.929 550.977 829.843 533.593 858.554C514.39 890.267 498.198 910.914 486.798 918.218C478.441 923.572 476.023 924.276 464.457 924.716C454.966 925.079 448.944 924.304 442.009 921.828ZM428.86 876.287C403.754 869.728 376.545 849.401 344.365 813.165L332.578 799.894L350.687 798.84L362.22 810.204C377.91 825.663 393.468 836.803 408.836 843.585C419.74 848.395 423.658 849.257 434.562 849.239C456.497 849.202 469.934 841.359 495.502 813.67L509.045 799.005H534.04L517.812 820.532C489.971 857.464 474.733 871.334 456.391 876.44C445.62 879.437 440.809 879.41 428.86 876.287ZM5.88244 858.579C-12.9898 853.189 -34.1732 839.169 -61.0016 814.316L-76.57 799.894L-51.7957 798.877L-38.46 808.645C-13.7927 826.712 9.98646 834.05 28.6271 829.347C39.7029 826.552 54.3926 817.035 63.1422 806.988L70.0937 799.005H123.657L116.29 804.864C112.239 808.087 101.44 818.066 92.2967 827.041C73.9851 845.016 60.6602 854.316 47.2948 858.451C36.674 861.737 17.1519 861.798 5.88244 858.579ZM410.382 829.267C399.237 825.313 385.145 816.797 372.955 806.654L364.83 799.894L381.079 799.366C393.125 798.973 399.428 799.604 405.451 801.805C415.911 805.627 434.141 805.682 445.165 801.926C456.926 797.919 491.254 797.665 488.764 801.604C485.595 806.619 465.517 822.366 456.517 826.897C443.869 833.266 424.459 834.263 410.382 829.267ZM-7.52223 808.816C-11.9905 807.523 -18.6928 804.83 -22.4163 802.832L-29.1864 799.199L41.2221 799.162L35.8061 802.946C24.0763 811.139 8.02722 813.313 -7.52223 808.816Z" fill="#001064" fill-opacity="0.1"/>
</g>
<defs>
<linearGradient id="paint0_linear" x1="386" y1="4.89574e-05" x2="386" y2="1599" gradientUnits="userSpaceOnUse">
<stop stop-color="#001064"/>
<stop offset="0.515625" stop-color="#5F5FC4"/>
</linearGradient>
<linearGradient id="paint1_linear" x1="386" y1="4.89574e-05" x2="386" y2="1599" gradientUnits="userSpaceOnUse">
<stop stop-color="#001064"/>
<stop offset="0.515625" stop-color="#5F5FC4"/>
</linearGradient>
<clipPath id="clip0">
<rect width="650" height="800" fill="white"/>
</clipPath>
</defs>
</svg>
