<svg width="400" height="800" viewBox="0 0 400 800" fill="none" xmlns="http://www.w3.org/2000/svg">
<g clip-path="url(#clip0)">
<path d="M-900 0H400V800H-900V0Z" fill="url(#paint0_linear)"/>
<path d="M-900 1599.44H400V799.444H-900V1599.44Z" fill="url(#paint1_linear)"/>
<path fill-rule="evenodd" clip-rule="evenodd" d="M-886.46 1.97487C-880.875 2.72323 -857.112 3.84843 -833.654 4.47413C-771.4 6.13438 -755.576 8.61763 -727.219 21.1797C-692.212 36.6836 -669.696 62.6307 -656.365 102.827C-650.794 119.621 -647.766 132.228 -642.906 158.838C-640.729 170.76 -636.38 194.512 -633.242 211.621C-624.016 261.926 -616.457 286.211 -596.251 330.472C-569.719 388.59 -567.344 415.639 -579.768 518.251C-582.862 543.801 -583.881 579.811 -581.925 594.546C-577.297 629.437 -558.99 647.126 -529.869 644.838C-513.509 643.553 -504.273 640.09 -486.35 628.515C-443.379 600.767 -403.318 539.709 -387.685 478.138C-380.698 450.618 -379.879 441.588 -378.674 378.712C-378.045 345.96 -376.97 315.964 -376.282 312.053C-368.946 270.305 -354.255 242.821 -331.06 227.45C-316.238 217.627 -297.663 214.317 -282.727 218.838C-259.423 225.891 -240.003 252.503 -225.585 297.139C-213.48 334.616 -208.663 347.539 -200.984 363.124C-179.916 405.896 -148.332 432.345 -98.6197 448.851C-55.3631 463.214 -13.0476 473.911 10.3376 476.393C76.9413 483.462 139.255 446.336 201.53 362.477C221.611 335.441 228.884 324.254 266.687 262.281C281.597 237.84 303.715 202.244 315.839 183.18C344.571 137.998 360.384 110.223 382.097 66.7991L399.85 31.2976V20.138C399.85 14.0001 399.614 8.97848 399.327 8.97848C399.04 8.97848 396.203 14.7769 393.026 21.8658C372.863 66.824 345.039 117.755 311.695 170.737C300.314 188.824 278.237 224.819 262.637 250.727C226.902 310.077 215.039 328.284 195.467 353.826C153.083 409.137 109.142 442.263 64.6563 452.449C49.3965 455.942 21.519 455.894 3.29807 452.342C-15.5457 448.668 -65.5141 432.188 -90.302 421.471C-123.188 407.252 -141.634 393.284 -158.478 369.844C-173.269 349.259 -181.277 330.291 -197.881 276.502C-202.107 262.815 -207.762 246.417 -210.45 240.062C-230.989 191.504 -260.863 168.714 -300.711 171.203C-351.365 174.367 -393.149 219.933 -408.68 288.945C-411.823 302.913 -411.879 304.518 -411.917 379.601L-411.955 456.036L-415.572 473.415C-428.428 535.189 -463.93 588.648 -503.228 605.403C-513.25 609.676 -527.932 609.792 -536.085 605.661C-544.467 601.416 -552.228 589.789 -555.548 576.507C-559.588 560.342 -558.903 526.781 -553.651 483.588C-547.444 432.556 -546.162 412.377 -547.856 392.44C-550.462 361.745 -555.859 344.871 -575.797 305.066C-596.381 263.972 -602.858 241.575 -615.632 167.329C-624.421 116.251 -629.335 94.2625 -636.538 73.7956C-647.374 43.0046 -663.502 21.1726 -686.911 5.60466L-695.202 0.0906558L-795.909 0.351958C-851.851 0.495941 -892.101 1.21763 -886.46 1.97487ZM-654.071 6.84896C-627.227 34.7052 -615.092 70.4556 -598.742 169.848C-589.611 225.361 -579.954 256.689 -562.034 288.945C-545.007 319.592 -538.015 334.813 -533.92 350.152C-530.399 363.345 -529.784 368.47 -529.319 388.488C-528.767 412.335 -529.124 416.35 -537.718 482.699C-543.65 528.49 -542.062 556.074 -532.688 570.09C-527.223 578.26 -521.588 581.354 -512.171 581.354C-492.389 581.354 -467.832 559.248 -451.289 526.547C-432.689 489.779 -427.185 450.204 -432.1 388.554C-436.005 339.558 -434.711 306.054 -427.874 279.23C-423.765 263.108 -413.821 238.348 -405.973 224.698C-385.147 188.482 -358.441 164.583 -326.577 153.653C-315.49 149.849 -309.848 148.985 -295.435 148.883C-263.122 148.659 -238.911 160.58 -219.007 186.518C-204.346 205.627 -195.48 225.742 -181.306 272.058C-166.278 321.169 -158.226 339.445 -142.491 360.163C-130.972 375.329 -124.59 381.181 -106.898 392.79C-83.6795 408.026 -28.7785 430.279 5.83275 438.481C23.944 442.774 56.8897 442.759 72.1075 438.454C122.031 424.326 169.32 384.178 213.432 318.468C226.466 299.054 240.713 276.022 271.278 224.953C278.3 213.221 294.753 186.424 307.839 165.404C334.968 121.829 347.701 99.9667 362.187 72.082C372.903 51.4534 395.788 3.21028 395.788 1.24607C395.788 0.611482 393.502 0.0906558 390.707 0.0906558C386.047 0.0906558 385.354 0.769685 382.302 8.32256C377.016 21.4037 348.201 78.2466 337.106 97.4781C331.538 107.13 317.441 130.16 305.777 148.658C294.114 167.157 274.133 199.889 261.374 221.397C227.458 278.573 214.471 298.681 194.76 324.53C142.137 393.549 88.1484 424.621 32.7003 417.806C-1.85537 413.557 -57.0096 392.084 -84.8859 372.025C-122.35 345.068 -139.346 317.542 -159.455 251.252C-163.249 238.743 -168.843 221.804 -171.884 213.613C-192.079 159.216 -219.3 130.777 -262.319 119.125C-282.149 113.755 -314.632 114.87 -334.701 121.612C-379.59 136.689 -411.76 166.65 -450.409 229.373C-468.55 258.812 -480.625 274.324 -487.834 277.448C-498.372 282.012 -513.203 275.707 -528.15 260.307C-549.227 238.588 -561.591 204.765 -573.56 136.074C-583.986 76.2504 -595.967 36.1503 -611.27 9.86726L-616.445 0.979438L-660.671 0L-654.071 6.84896ZM-586.166 16.5331C-576.243 38.0505 -567.083 66.6036 -559.355 100.1C-547.5 151.486 -543.532 166.344 -537.584 181.616C-527.267 208.107 -514.443 221.294 -499.134 221.152C-486.309 221.033 -474.575 212.044 -448.438 182.311C-415.018 144.294 -387.851 122.842 -356.365 109.603C-302.719 87.0473 -244.411 94.6287 -204.377 129.364C-180.503 150.078 -165.91 177.641 -147.181 237.396C-127.356 300.648 -112.176 327.525 -82.178 352.482C-57.2155 373.249 -14.1579 393.235 22.0808 400.873C92.8103 415.779 156.166 375.574 221.43 274.371C226.979 265.765 243.001 239.529 257.034 216.065C271.068 192.601 291.691 159.005 302.863 141.407C333.37 93.3524 360.222 44.5458 375.964 8.53409L379.653 0.0906558H374.452C369.272 0.0906558 369.208 0.177755 358.615 22.1253C340.35 59.9608 323.539 89.3404 295.443 132.519C288.446 143.273 270.285 172.47 255.086 197.4C220.04 254.885 208.569 272.239 190.396 295.277C141.388 357.406 92.0236 384.171 39.2578 377.222C-12.2054 370.444 -59.0202 343.937 -86.7029 305.899C-103.149 283.299 -112.5 262.164 -127.414 213.871C-141.018 169.825 -151.409 147.038 -167.398 126.189C-205.939 75.9376 -278.462 55.6769 -350.949 74.9137C-371.321 80.3193 -389.326 87.6162 -420.982 103.298C-455.447 120.37 -463.163 123.192 -475.518 123.253C-495.498 123.349 -508.033 108.17 -529.204 58.2437C-533.024 49.235 -540.453 32.4654 -545.712 20.977L-555.276 0.0906558H-593.749L-586.166 16.5331ZM-529.495 2.31261C-525.085 11.9257 -504.721 45.6016 -498.326 53.8549C-487.998 67.1866 -482.494 71.9398 -471.978 76.613C-457.755 82.9323 -439.947 81.0747 -398.339 68.9286C-356.186 56.6243 -343.79 53.91 -319.384 51.6454C-266.595 46.7446 -209.844 62.9453 -174.711 92.9417C-148.705 115.149 -133.828 142.369 -115.455 201.377C-103.416 240.042 -98.8945 252.132 -89.6791 270.305C-67.3731 314.291 -30.7391 343.984 18.0188 357.596C36.5146 362.76 72.7195 363.274 88.208 358.59C136.965 343.85 178.382 305.176 226.638 229.331C233.768 218.125 247.777 195.756 257.768 179.625C267.758 163.493 282.657 139.896 290.876 127.187C311.797 94.8366 326.212 71.1879 336.38 52.5288C345.199 36.3459 361.937 2.57569 361.937 0.965217C361.937 0.485275 359.594 0.0906558 356.728 0.0906558C351.624 0.0906558 351.331 0.458611 342.291 18.3107C329.181 44.1938 315.09 68.2851 296.283 96.9679C287.308 110.655 270.265 137.052 258.408 155.628C200.446 246.442 174.816 278.562 138.187 306.289C75.4518 353.778 -4.95733 342.608 -52.8351 279.753C-69.4935 257.885 -78.6277 237.081 -94.4033 185.087C-109.563 135.122 -118.123 115.199 -133.074 95.0908C-157.753 61.8966 -199.598 38.8842 -256.168 27.3958C-279.101 22.7404 -333.913 22.8275 -365.166 27.5718C-395.199 32.1313 -430.339 32.3357 -442.345 28.0197C-454.161 23.7731 -465.826 16.3838 -474.804 7.45866L-482.215 0.0906558H-506.365C-525.327 0.0906558 -530.296 0.568821 -529.495 2.31261ZM-435.981 1.87178C-434.344 2.74811 -428.251 4.81542 -422.441 6.46678C-413.763 8.93226 -406.327 9.34644 -380.737 8.7865C-363.609 8.40966 -331.62 8.16435 -309.652 8.23901C-275.391 8.35633 -267.107 8.92693 -251.429 12.2599C-199.156 23.3714 -159.688 42.0749 -133.175 68.3029C-113.43 87.8366 -100.051 113.878 -86.944 158.294C-71.9186 209.21 -65.4031 228.035 -57.4104 243.617C-37.2397 282.94 -5.87809 308.777 32.0748 317.34C91.9951 330.856 153.624 293.702 214.231 207.522C229.542 185.75 302.012 75.047 315.694 52.5288C321.041 43.7299 329.708 28.3326 334.956 18.3107L344.496 0.0906558H331.318L318.341 22.7546C300.364 54.1499 230.296 159.072 206.368 190.429C177.635 228.079 155.177 250.356 127.694 268.464C102.023 285.377 82.3126 292.016 57.9581 291.952C38.8719 291.903 22.9785 287.142 6.50968 276.543C-26.2302 255.472 -42.7045 225.141 -62.5448 149.406C-72.6512 110.826 -80.0508 90.7731 -90.5985 73.369C-105.885 48.1489 -133.089 26.5053 -170.866 9.50819L-189.822 0.979438L-314.391 0.62748C-388.892 0.417728 -437.763 0.917223 -435.981 1.87178ZM-147.847 1.886C-146.358 2.741 -138.394 7.10137 -130.148 11.5755C-109.514 22.7724 -94.318 35.4606 -82.178 51.6294C-66.1451 72.985 -61.115 86.6385 -45.0023 152.559C-33.9292 197.861 -25.0874 219.076 -8.88131 239.228C2.17551 252.978 10.9509 260.202 24.4639 266.676C76.0328 291.382 137.407 260.788 202.661 177.847C217.628 158.824 227.123 145.232 279.656 67.6381C299.128 38.8771 317.545 9.57752 320.115 3.2725C321.298 0.369733 320.655 0.0906558 312.761 0.0906558H304.109L295.472 12.978C272.443 47.3401 213.114 131.003 200.274 147.22C144.849 217.229 91.9464 250.727 51.6037 241.358C22.5954 234.623 0.848585 210.234 -11.2712 170.845C-14.277 161.074 -17.2613 146.308 -27.2837 91.6352C-31.4974 68.6442 -39.0582 46.981 -47.0021 35.1318C-53.691 25.1561 -65.9556 13.3851 -77.7382 5.6331L-86.1628 0.0906558L-118.358 0.21153C-137.99 0.28441 -149.499 0.938554 -147.847 1.886ZM-33.2548 7.03738C-15.0529 24.1482 -9.95367 40.5871 -3.68463 102.373C1.32518 151.735 8.03299 175.225 22.7335 194.89C45.3969 225.207 78.0841 228.863 115.508 205.27C130.771 195.646 137.605 190.146 154.774 173.663C180.275 149.18 201.215 122.963 252.245 51.624C263.777 35.5015 276.822 17.3117 281.232 11.2004L289.25 0.0906558H244.449L225.677 24.5375C215.351 37.983 194.413 65.8179 179.146 86.395C134.508 146.56 108.32 168.959 82.6173 168.959C70.1387 168.959 63.8142 166.25 56.4632 157.755C41.5122 140.479 37.5369 110.751 45.0408 72.3415C48.3852 55.22 57.8172 28.6703 66.0401 13.2269C69.417 6.88628 72.1792 1.33673 72.1792 0.894115C72.1792 0.451501 46.7942 0.0906558 15.767 0.0906558H-40.6449L-33.2548 7.03738ZM-900 39.2468V57.4527L-849.563 56.1924C-781.622 54.4948 -765.658 57.1842 -737.553 75.0665C-724.947 83.0869 -721.925 85.9932 -710.387 101.195C-698.969 116.242 -696.571 120.544 -690.449 136.963C-682.13 159.279 -677.788 176.818 -667.948 227.841C-657.719 280.885 -653.436 296.626 -639.48 332.495C-617.984 387.74 -615.866 393.727 -612.101 409.896C-608.597 424.946 -608.395 427.716 -608.418 460.48C-608.44 489.959 -609.073 500.738 -612.657 532.565C-620.837 605.181 -621.174 621.556 -615.039 648.237C-610.982 665.883 -598.633 682.435 -584.776 688.799C-557.859 701.16 -512.814 691.748 -474.264 665.707C-426.186 633.229 -385.777 580.809 -329.91 478.446C-302.902 428.96 -293.949 418.844 -277.155 418.832C-266.331 418.824 -260.028 421.574 -230.16 439.334C-169.757 475.248 -139.424 486.466 -65.2528 500.317C-8.3383 510.945 11.6902 512.353 38.7365 507.626C90.3812 498.603 141.72 463.121 189.786 403.235C211.574 376.086 229.944 348.692 271.19 281.835C282.649 263.259 303.074 231.263 316.578 210.732C351.926 156.989 369.778 126.74 392.927 81.3698C399.709 68.0772 399.962 67.1439 399.575 56.8945L399.173 46.238L383.996 76.3482C366.671 110.721 346.284 146.701 327.889 175.364C296.253 224.659 280.92 249.044 258.147 286.279C227.621 336.187 214.186 356.295 193.94 382.372C147.354 442.375 98.4172 477.653 48.484 487.23C31.6171 490.466 2.44637 489.683 -19.7946 485.4C-44.6732 480.609 -97.0802 467.123 -116.929 460.403C-156.566 446.986 -186.472 425.551 -208.79 394.557C-221.147 377.396 -227.321 364.783 -241.411 327.909C-247.792 311.209 -256.121 292.098 -259.92 285.44C-287.037 237.902 -333.153 250.533 -348.065 309.581C-352.042 325.326 -353.792 343.479 -355.674 388.488C-357.149 423.73 -359.036 439.234 -364.765 463.112C-372.977 497.341 -392.643 540.559 -415.027 573.565C-457.325 635.936 -511.467 671.221 -552.841 663.384C-574 659.373 -587.749 645.535 -593.532 622.421C-597.816 605.305 -596.91 561.227 -591.284 512.918C-587.405 479.615 -586.734 469.193 -586.755 442.704C-586.778 416.387 -587.235 409.407 -589.725 397.376C-593.166 380.744 -600.259 360.641 -612.301 333.384C-629.952 293.437 -638.231 264.678 -648.122 208.954C-658.457 150.73 -663.48 129.778 -672.654 106.633C-689.706 63.5995 -722.424 36.9236 -769.594 27.5914C-780.874 25.3605 -796.967 24.5766 -839.747 24.1802C-870.279 23.8958 -896.328 23.0728 -897.63 22.3529C-899.798 21.153 -900 22.5928 -900 39.2468ZM-855.318 74.8212C-863.882 75.502 -877.438 76.1633 -885.444 76.2913L-900 76.5259V108.926L-894.245 107.895C-878.724 105.111 -837.79 102.804 -819.572 103.685C-782.488 105.477 -759.385 116.884 -739.55 143.192C-722.951 165.207 -713.394 189.826 -702.294 239.173C-684.058 320.237 -680.346 333.356 -662.035 381.378C-648.456 416.994 -643.653 434.73 -641.27 458.053C-639.331 477.034 -640.385 519.285 -643.434 544.914C-650.109 601.009 -651.314 615.533 -651.393 640.903C-651.482 669.907 -649.863 680.887 -643.063 697.383C-630.675 727.431 -598.218 743.417 -560.82 737.89C-509.034 730.236 -465.512 707.933 -421.116 666.3C-402.64 648.975 -386.053 631.098 -357.282 597.498C-306.49 538.184 -286.266 521.635 -256.145 514.74C-234.316 509.743 -219.986 511.036 -158.002 523.594C-79.7962 539.441 -17.0284 545.469 17.3418 540.433C47.6567 535.993 74.42 525.347 104.089 505.93C155.012 472.605 194.962 427.49 249.014 342.272C256.456 330.54 270.131 308.95 279.406 294.292C288.68 279.634 308.457 249.638 323.355 227.633C354.493 181.64 368.458 159.577 386.8 127.402L399.85 104.508V81.3556L388.651 102.494C366.318 144.646 354.173 164.531 313.461 225.616C302.166 242.561 280.92 275.741 266.247 299.349C231.202 355.732 224.32 366.079 202.366 395.378C144.022 473.246 85.9996 513.625 21.7911 521.049C2.38408 523.292 -13.2805 522.325 -55.0978 516.297C-112.366 508.042 -140.786 501.181 -194.561 482.623C-246.522 464.691 -261.656 462.814 -281.357 471.851C-297.304 479.166 -305.332 488.148 -357.719 557.279C-391.102 601.334 -412.609 628.225 -422.179 637.881C-459.007 675.034 -492.615 696.228 -531.709 706.95C-547.668 711.326 -580.834 711.451 -591.349 707.172C-601.706 702.959 -614.131 691.926 -619.323 682.332C-633.287 656.529 -634.552 625.025 -624.937 542.383C-621.407 512.052 -620.657 500.194 -620.539 472.923C-620.34 427.03 -622.015 418.855 -642.299 366.664C-662.577 314.488 -668.173 295.625 -678.006 246.283C-694.766 162.176 -703.044 138.646 -725.46 111.402C-736.575 97.8905 -754.365 85.524 -770.387 80.1682C-790.628 73.401 -816.737 71.7585 -855.318 74.8212ZM389.425 134.885C375.697 159.325 355.85 190.146 324.005 236.482C308.895 258.465 281.562 300.06 263.261 328.915C227.232 385.724 188.306 439.044 165.606 462.677C145.281 483.837 123.267 502.265 101.29 516.519C36.956 558.244 -13.5865 563.525 -143.108 542.054C-194.159 533.593 -216.24 531.595 -236.232 533.636C-254.932 535.543 -271.084 541.503 -288.664 552.983C-306.227 564.448 -320.987 578.476 -357.594 618.493C-408.711 674.371 -430.16 694.132 -461.978 714.656C-500.105 739.253 -543.776 754.066 -579.1 754.384C-614.446 754.702 -639.92 740.404 -653.637 712.544C-665.851 687.733 -666.785 655.672 -657.615 576.022C-652.728 533.586 -651.768 520.887 -651.699 497.809C-651.574 456.018 -654.829 440.116 -674.614 385.822C-689.339 345.416 -694.897 327.129 -702.979 292.5C-719.815 220.359 -728.481 192.636 -740.76 171.626C-753.665 149.543 -772.091 133.726 -793.789 126.104C-807.977 121.12 -843.993 119.662 -876.463 122.759L-900 125.002V139.102C-900 151.697 -899.747 153.102 -897.63 152.275C-896.327 151.765 -885.207 150.421 -872.92 149.287C-810.951 143.567 -776.497 159.677 -752.871 205.421C-742.208 226.062 -734.567 249.853 -721.879 301.923C-712.842 339.006 -704.665 366.52 -692.234 401.683C-681.196 432.903 -678.633 441.526 -675.287 458.702C-668.141 495.391 -668.933 530.67 -678.523 602.685C-689.391 684.298 -685.769 721.302 -664.364 747.317C-647.626 767.661 -624.282 778.381 -593.317 779.942C-571.612 781.037 -558.272 779.162 -531.709 771.282C-473.331 753.963 -430.245 725.44 -373.29 666.405C-361.747 654.441 -346.21 638.393 -338.763 630.742C-298.683 589.567 -269.761 571.073 -234.88 564.311C-214.779 560.413 -177.676 561.764 -136.948 567.871C-31.672 583.663 24.7265 576.948 85.9075 541.336C124.62 518.802 162.494 483.611 200.65 434.726C219.635 410.402 234.855 387.959 286.942 307.487C296.707 292.4 312.244 269.342 321.469 256.245C352.321 212.447 370.185 186.033 385.076 162.197L399.85 138.547V127.979C399.85 122.167 399.698 117.438 399.511 117.472C399.324 117.508 394.787 125.343 389.425 134.885ZM391.731 163.246C379.197 183.349 358.051 214.401 332.16 250.727C308.805 283.497 296.99 301.141 248.844 375.157C193.842 459.71 151 506.613 94.5204 544.102C57.8605 568.435 24.6196 581.576 -13.1234 586.653C-30.8541 589.037 -86.4241 589.119 -104.519 586.785C-111.966 585.825 -130.55 583.334 -145.816 581.249C-181.304 576.404 -224.803 577.102 -243.305 582.814C-277.96 593.513 -301.655 610.892 -352.939 663.225C-403.326 714.643 -422.947 731.763 -453.854 751.279C-484.442 770.596 -529.154 788.035 -563.32 793.976C-609.868 802.071 -659.813 785.109 -680.814 754.078C-687.548 744.128 -693.527 728.313 -695.669 714.787C-698.391 697.605 -696.435 656.417 -690.98 616.017C-681.525 546 -679.929 514.461 -684.175 481.679C-686.932 460.407 -691.187 444.388 -704.681 404.487C-715.616 372.154 -722.686 348.063 -730.762 315.608C-746.767 251.296 -757.642 222.839 -774.583 200.955C-787.754 183.942 -802.844 173.803 -823.623 168.012C-835.507 164.698 -868.032 163.739 -888.152 166.106L-900 167.502V192.389L-882.736 191.168C-841.332 188.241 -811.293 199.231 -790.576 224.89C-780.194 237.746 -769.613 257.862 -762.592 278.086C-757.606 292.454 -754.392 303.725 -742.274 349.382C-737.603 366.98 -730.904 390.577 -727.389 401.82C-723.874 413.063 -718.347 430.757 -715.107 441.138C-697.414 497.821 -696.755 536.487 -711.831 633.256C-722.164 699.58 -722.455 728.864 -713.042 754.896C-708.076 768.63 -695.664 784.228 -682.44 793.348L-672.808 799.995H-498.333L-488.956 795.759C-454.537 780.212 -421.095 757.518 -390.215 728.752C-384.258 723.202 -366.892 706.045 -351.626 690.625C-318.277 656.94 -300.197 640.981 -281.217 628.481C-240.445 601.629 -202.306 596.124 -133.63 607.179C-81.2802 615.606 -38.0913 614.387 2.44775 603.334C48.6588 590.736 101.997 558.546 147.327 515.897C187.001 478.57 216.977 440.065 269.101 359.477C296.369 317.315 309.861 297.675 345.02 248.95C362.303 224.997 381.742 197.624 388.216 188.123L399.988 170.847L399.173 151.313L391.731 163.246ZM384.077 204.98C375.773 216.943 356.011 244.328 340.16 265.837C312.657 303.153 301.355 319.649 253.617 392.141C186.234 494.463 122.996 556.923 47.13 596.088C-12.3219 626.778 -62.599 634.079 -131.599 622.041C-199.351 610.22 -236.466 615.206 -277.832 641.688C-295.693 653.123 -317.609 672.542 -352.303 707.672C-396.138 752.059 -425.143 776.337 -453.108 792.049L-465.667 799.106L-426.017 800.091L-416.241 792.652C-399.619 780.004 -376.555 758.72 -346.21 728.021C-302.11 683.408 -283.122 667.637 -258.5 655.171C-221.63 636.505 -191.629 634.775 -132.997 647.94C-99.0083 655.569 -81.8029 657.148 -63.1961 654.343C5.505 643.985 85.9603 597.8 156.805 528.056C198.25 487.253 220.72 457.902 285.789 359.568C308.424 325.362 322.505 305.787 364.18 250.59L399.85 203.35V193.264C399.85 187.718 399.698 183.19 399.511 183.205C399.324 183.217 392.38 193.017 384.077 204.98ZM-900 230.632L-884.09 231.682C-849.051 233.999 -826.634 245.114 -808.959 268.938C-793.341 289.987 -783.03 316.73 -767.321 376.934C-764.132 389.155 -756.739 416.752 -750.892 438.26C-736.237 492.181 -734.75 500.413 -733.839 532.692C-732.697 573.129 -735.867 599.905 -748.929 660.129C-761.787 719.412 -762.462 723.934 -762.518 751.112C-762.565 774.78 -762.384 776.488 -758.813 786.035C-756.748 791.555 -754.231 796.975 -753.22 798.077C-751.971 799.435 -743.927 799.924 -728.217 799.593L-705.054 799.106L-712.336 791.713C-720.877 783.04 -727.182 771.666 -731.229 757.632C-733.724 748.977 -734.118 744.048 -734.015 722.671C-733.89 696.5 -733.719 695.095 -722.833 630.237C-714.275 579.248 -713.822 574.511 -713.845 536.026C-713.872 492.878 -715.115 485.14 -729.94 435.914C-735.481 417.514 -743.414 389.719 -747.57 374.144C-760.282 326.496 -767.432 301.953 -772.387 288.945C-785.746 253.882 -799.707 233.796 -819.294 221.461C-836.659 210.526 -847.379 207.737 -875.966 206.709L-900 205.847V230.632ZM354.456 274.12C327.046 310.448 296.935 352.646 276.652 383.156C228.046 456.269 195.661 497.901 159.513 533.74C94.1224 598.573 8.11415 653.15 -54.6848 669.66C-62.8847 671.816 -72.5252 672.757 -85.563 672.671C-102.603 672.561 -107.599 671.717 -134.984 664.324C-171.061 654.583 -190.427 651.961 -209.796 654.195C-251.747 659.036 -283.118 678.683 -337.409 734.111C-368.152 765.499 -378.135 775.251 -392.765 788.174L-406.148 799.995H-378.276L-370.705 792.55C-366.542 788.457 -352.402 774.085 -339.281 760.616C-284.486 704.358 -255.75 685.015 -218.194 679.101C-195.181 675.478 -176.329 679.001 -138.168 694.059C-124.874 699.303 -109.438 704.591 -103.865 705.809C-75.8358 711.932 -45.0671 700.005 20.0499 657.768C86.8675 614.429 141.024 569.365 187.947 518.057C212.223 491.513 240.366 454.086 279.36 396.488C313.869 345.516 338.858 311.635 377.246 263.776L400 235.406L399.173 214.854L354.456 274.12ZM-900 271.802L-892.214 272.945C-852.88 278.72 -827.658 302.239 -809.891 349.711C-802.978 368.182 -797.163 389.532 -787.467 432.039C-783.787 448.17 -779.317 467.768 -777.532 475.589C-764.411 533.1 -764.939 575.838 -779.477 633.177C-786.828 662.171 -797.01 690.911 -815.118 733.78C-823.687 754.068 -833.148 777.064 -836.142 784.885L-841.588 799.106L-812.373 799.586C-796.304 799.849 -782.926 799.76 -782.641 799.388C-782.358 799.015 -782.825 796.399 -783.682 793.576C-786.201 785.269 -785.585 759.919 -782.456 743.113C-780.909 734.802 -775.017 710.005 -769.361 688.008C-749.844 612.101 -744.964 581.166 -745.988 539.813C-746.802 506.894 -748.117 499.945 -768.907 418.707C-793.209 323.748 -800.651 303.866 -821.275 278.799C-837.289 259.334 -863.122 247.249 -888.829 247.195L-900 247.172V271.802ZM379.54 273.274C343.488 317.414 315.9 354.279 280.016 406.264C231.221 476.954 207.453 507.214 173.053 542.447C126.123 590.512 56.4984 646.591 -16.5084 695.127C-37.2979 708.95 -58.1903 721.547 -64.9441 724.333C-88.5065 734.054 -104.948 732.319 -134.984 716.942C-171.647 698.17 -186.473 693.341 -207.424 693.341C-247.275 693.341 -278.879 712.857 -339.039 774.62L-362.89 799.106L-341.215 800.13L-323.74 782.861C-299.985 759.384 -286.494 748.054 -270.059 737.782C-249.697 725.053 -236.773 720.966 -216.902 720.968C-191.704 720.969 -179.099 726.795 -142.648 755.285C-118.218 774.38 -104.786 779.071 -87.8526 774.419C-72.9937 770.338 -61.7053 762.301 -21.066 726.873C-0.686821 709.106 34.5716 678.982 57.2851 659.931C179.252 557.638 214.174 520.78 282.485 422.262C321.568 365.899 356.674 320.891 393.493 279.949L399.985 272.728L399.173 249.234L379.54 273.274ZM-900 318.022L-892.273 320.971C-868.854 329.909 -850.335 351.137 -838.077 383.09C-824.759 417.809 -809.39 505.854 -809.308 547.897C-809.247 578.862 -814.764 607.138 -826.894 638.039C-839.172 669.319 -858.764 699.198 -886.798 729.395L-900 743.616V799.995H-884.074L-867.439 775.976C-835.896 730.431 -817.76 697.646 -804.568 662.313C-782.961 604.447 -777.509 554.984 -786.826 501.364C-795.5 451.446 -809.132 392.451 -817.553 368.384C-834.127 321.016 -858.639 295.934 -894.922 289.219L-900 288.28V318.022ZM390.103 299.073C354.775 337.332 328.217 370.866 285.596 431.036C249.942 481.372 226.595 510.557 197.425 541.261C169.763 570.378 153.775 585.313 89.7813 641.807C29.995 694.589 5.15426 717.658 -21.2475 744.917C-50.501 775.119 -64.9143 789.048 -72.532 794.474L-80.1469 799.9L-39.4751 799.995L-25.9608 782.091C10.9062 733.247 39.4311 703.759 124.309 626.739C216.169 543.382 235.287 522.645 300.33 435.814C336.456 387.585 358.535 361.306 383.229 337.14L399.782 320.941L399.816 305.387C399.835 296.834 399.576 289.834 399.243 289.834C398.909 289.834 394.796 293.991 390.103 299.073ZM-900 359.847V380.088L-890.041 393.176C-882.382 403.242 -878.798 409.753 -874.522 421.373C-859.755 461.5 -856.582 524.972 -866.987 572.123C-872.134 595.456 -878.872 610.963 -893.452 633.042L-900 642.956V707.86L-894.245 701.944C-883.166 690.555 -863.069 663.885 -854.947 649.79C-845.011 632.552 -834.878 605.342 -830.783 584.909C-822.158 541.862 -831.872 446.302 -849.755 398.265C-856.509 380.123 -864.888 366.048 -874.788 356.215C-882.344 348.71 -895.444 339.605 -898.685 339.605C-899.458 339.605 -900 347.933 -900 359.847ZM391.202 353.035C369.065 370.558 346.923 395.021 303.715 449.688C286.959 470.889 269.594 492.607 265.126 497.951C239.16 529.012 204.507 563.337 140.557 621.346C61.4772 693.076 35.6277 719.858 -0.937348 767.945L-24.6325 799.106L-4.4767 800.164L2.96089 788.97C13.4666 773.157 36.9506 742.499 50.5151 726.89C84.7201 687.53 108.888 664.896 217.735 570.284C238.587 552.159 267.392 526.237 281.747 512.682C333.903 463.427 341.115 456.921 350.691 450.506C356.455 446.643 363.138 443.637 367.061 443.143C373.098 442.381 373.962 442.759 376.758 447.393C379.407 451.782 379.72 453.855 379.044 462.492C378.613 467.997 376.061 480.396 373.373 490.044C354.297 558.527 352.003 570.161 352.041 598.241C352.071 620.704 354.886 636.181 362.693 656.822C372.641 683.123 385.046 701.889 396.126 707.4L399.85 709.25V527.983C399.85 428.286 399.698 346.718 399.511 346.721C399.324 346.723 395.586 349.563 391.202 353.035ZM-899.903 502.253C-899.89 591.147 -900.253 588.669 -891.738 558.04C-885.595 535.939 -883.359 516.182 -884.12 490.698C-884.812 467.508 -887.048 453.455 -892.462 438.26C-900.168 416.634 -899.915 414.457 -899.903 502.253ZM292.163 536.007C269.645 543.984 213.841 584.394 154.097 635.982C101.081 681.762 69.5998 714.339 36.9086 757.251C23.8397 774.405 11.7632 791.039 10.0748 794.218L7.00258 799.995L22.7579 799.984L36.298 780.273C77.449 720.37 139.621 659.544 200.454 619.671C223.279 604.711 240.469 597.057 253.617 596C276.023 594.197 283.922 602.63 300.15 645.672C319.822 697.85 336.987 732.266 350.826 747.281C362.572 760.023 378.812 767.913 393.418 767.972L399.85 767.999V736.457L394.256 735.282C374.13 731.057 357.642 709.334 341.568 665.856C332.78 642.092 328.955 623.676 325.488 588.464C321.527 548.251 319.361 540.408 310.929 535.785C305.514 532.814 301.027 532.868 292.163 536.007ZM227.213 621.668C193.616 631.535 135.617 675.203 90.9228 724.283C74.0234 742.839 47.9993 775.944 38.0703 791.514L32.6611 799.995L47.13 799.989L64.7322 776.655C126.552 694.699 197.739 644.344 234.363 656.661C251.851 662.543 260.196 672.703 289.729 724.078C299.963 741.879 311.41 760.741 315.164 765.992C323.577 777.75 336.104 789.669 346.242 795.554C353.419 799.721 355.307 799.995 376.871 799.995H399.85L399.824 783.108L388.211 782.79C366.722 782.203 348.095 771.209 333.01 750.212C324.167 737.903 309.643 710.508 292.112 673.075C279.24 645.587 269.054 630.358 259.71 624.64C254.17 621.25 250.846 620.53 241.43 620.685C235.101 620.788 228.703 621.23 227.213 621.668ZM192.009 677.172C172.706 684.06 152.345 697.045 129.596 716.973C109.884 734.241 95.3937 749.972 74.8872 776.367L56.6081 799.895L72.5678 799.995L83.6003 786.091C114.213 747.509 151.582 716.59 178.545 707.536C193.239 702.602 209.006 702.806 220.044 708.075C236.445 715.902 247.494 728.099 281.161 775.553L298.502 799.995H328.491L319.794 791.352C309.449 781.071 300.977 769.157 283.593 740.446C264.39 708.733 248.198 688.086 236.798 680.782C228.441 675.428 226.023 674.724 214.457 674.284C204.966 673.921 198.944 674.696 192.009 677.172ZM178.86 722.713C153.754 729.272 126.545 749.599 94.3647 785.835L82.5781 799.106L100.687 800.16L112.22 788.796C127.91 773.337 143.468 762.197 158.836 755.415C169.74 750.605 173.658 749.743 184.562 749.761C206.497 749.798 219.934 757.641 245.502 785.33L259.045 799.995H284.04L267.812 778.468C239.971 741.536 224.733 727.666 206.391 722.56C195.62 719.563 190.809 719.59 178.86 722.713ZM-244.118 740.421C-262.99 745.811 -284.173 759.831 -311.002 784.685L-326.57 799.106L-301.796 800.123L-288.46 790.355C-263.793 772.288 -240.014 764.95 -221.373 769.653C-210.297 772.448 -195.607 781.965 -186.858 792.012L-179.906 799.995H-126.343L-133.71 794.136C-137.761 790.913 -148.56 780.934 -157.703 771.959C-176.015 753.984 -189.34 744.684 -202.705 740.549C-213.326 737.263 -232.848 737.202 -244.118 740.421ZM160.382 769.733C149.237 773.687 135.145 782.203 122.955 792.346L114.83 799.106L131.079 799.634C143.125 800.027 149.428 799.396 155.451 797.195C165.911 793.373 184.141 793.318 195.165 797.074C206.926 801.081 241.254 801.335 238.764 797.396C235.595 792.381 215.517 776.634 206.517 772.103C193.869 765.734 174.459 764.737 160.382 769.733ZM-257.522 790.184C-261.99 791.477 -268.693 794.17 -272.416 796.168L-279.186 799.801L-208.778 799.838L-214.194 796.054C-225.924 787.861 -241.973 785.687 -257.522 790.184Z" fill="#001064" fill-opacity="0.1"/>
<path fill-rule="evenodd" clip-rule="evenodd" d="M-886.46 1597.03C-880.875 1596.28 -857.112 1595.15 -833.654 1594.53C-771.4 1592.87 -755.576 1590.38 -727.219 1577.82C-692.212 1562.32 -669.696 1536.37 -656.365 1496.17C-650.794 1479.38 -647.766 1466.77 -642.906 1440.16C-640.729 1428.24 -636.38 1404.49 -633.242 1387.38C-624.016 1337.07 -616.457 1312.79 -596.251 1268.53C-569.719 1210.41 -567.344 1183.36 -579.768 1080.75C-582.862 1055.2 -583.881 1019.19 -581.925 1004.45C-577.297 969.563 -558.99 951.874 -529.869 954.162C-513.509 955.447 -504.273 958.91 -486.35 970.485C-443.379 998.233 -403.318 1059.29 -387.685 1120.86C-380.698 1148.38 -379.879 1157.41 -378.674 1220.29C-378.045 1253.04 -376.97 1283.04 -376.282 1286.95C-368.946 1328.69 -354.255 1356.18 -331.06 1371.55C-316.238 1381.37 -297.663 1384.68 -282.727 1380.16C-259.423 1373.11 -240.003 1346.5 -225.585 1301.86C-213.48 1264.38 -208.663 1251.46 -200.984 1235.88C-179.916 1193.1 -148.332 1166.66 -98.6197 1150.15C-55.3631 1135.79 -13.0476 1125.09 10.3376 1122.61C76.9413 1115.54 139.255 1152.66 201.53 1236.52C221.611 1263.56 228.884 1274.75 266.687 1336.72C281.597 1361.16 303.715 1396.76 315.839 1415.82C344.571 1461 360.384 1488.78 382.097 1532.2L399.85 1567.7V1578.86C399.85 1585 399.614 1590.02 399.327 1590.02C399.04 1590.02 396.203 1584.22 393.026 1577.13C372.863 1532.18 345.039 1481.25 311.695 1428.26C300.314 1410.18 278.237 1374.18 262.637 1348.27C226.902 1288.92 215.039 1270.72 195.467 1245.17C153.083 1189.86 109.142 1156.74 64.6563 1146.55C49.3965 1143.06 21.519 1143.11 3.29807 1146.66C-15.5457 1150.33 -65.5141 1166.81 -90.302 1177.53C-123.188 1191.75 -141.634 1205.72 -158.478 1229.16C-173.269 1249.74 -181.277 1268.71 -197.881 1322.5C-202.107 1336.19 -207.762 1352.58 -210.45 1358.94C-230.989 1407.5 -260.863 1430.29 -300.711 1427.8C-351.365 1424.63 -393.149 1379.07 -408.68 1310.06C-411.823 1296.09 -411.879 1294.48 -411.917 1219.4L-411.955 1142.96L-415.572 1125.58C-428.428 1063.81 -463.93 1010.35 -503.228 993.597C-513.25 989.324 -527.932 989.208 -536.085 993.339C-544.467 997.584 -552.228 1009.21 -555.548 1022.49C-559.588 1038.66 -558.903 1072.22 -553.651 1115.41C-547.444 1166.44 -546.162 1186.62 -547.856 1206.56C-550.462 1237.26 -555.859 1254.13 -575.797 1293.93C-596.381 1335.03 -602.858 1357.43 -615.632 1431.67C-624.421 1482.75 -629.335 1504.74 -636.538 1525.2C-647.374 1556 -663.502 1577.83 -686.911 1593.4L-695.202 1598.91L-795.909 1598.65C-851.851 1598.5 -892.101 1597.78 -886.46 1597.03ZM-654.071 1592.15C-627.227 1564.29 -615.092 1528.54 -598.742 1429.15C-589.611 1373.64 -579.954 1342.31 -562.034 1310.06C-545.007 1279.41 -538.015 1264.19 -533.92 1248.85C-530.399 1235.66 -529.784 1230.53 -529.319 1210.51C-528.767 1186.67 -529.124 1182.65 -537.718 1116.3C-543.65 1070.51 -542.062 1042.93 -532.688 1028.91C-527.223 1020.74 -521.588 1017.65 -512.171 1017.65C-492.389 1017.65 -467.832 1039.75 -451.289 1072.45C-432.689 1109.22 -427.185 1148.8 -432.1 1210.45C-436.005 1259.44 -434.711 1292.95 -427.874 1319.77C-423.765 1335.89 -413.821 1360.65 -405.973 1374.3C-385.147 1410.52 -358.441 1434.42 -326.577 1445.35C-315.49 1449.15 -309.848 1450.02 -295.435 1450.12C-263.122 1450.34 -238.911 1438.42 -219.007 1412.48C-204.346 1393.37 -195.48 1373.26 -181.306 1326.94C-166.278 1277.83 -158.226 1259.55 -142.491 1238.84C-130.972 1223.67 -124.59 1217.82 -106.898 1206.21C-83.6795 1190.97 -28.7785 1168.72 5.83275 1160.52C23.944 1156.23 56.8897 1156.24 72.1075 1160.55C122.031 1174.67 169.32 1214.82 213.432 1280.53C226.466 1299.95 240.713 1322.98 271.278 1374.05C278.3 1385.78 294.753 1412.58 307.839 1433.6C334.968 1477.17 347.701 1499.03 362.187 1526.92C372.903 1547.55 395.788 1595.79 395.788 1597.75C395.788 1598.39 393.502 1598.91 390.707 1598.91C386.047 1598.91 385.354 1598.23 382.302 1590.68C377.016 1577.6 348.201 1520.75 337.106 1501.52C331.538 1491.87 317.441 1468.84 305.777 1450.34C294.114 1431.84 274.133 1399.11 261.374 1377.6C227.458 1320.43 214.471 1300.32 194.76 1274.47C142.137 1205.45 88.1484 1174.38 32.7003 1181.19C-1.85537 1185.44 -57.0096 1206.92 -84.8859 1226.98C-122.35 1253.93 -139.346 1281.46 -159.455 1347.75C-163.249 1360.26 -168.843 1377.2 -171.884 1385.39C-192.079 1439.78 -219.3 1468.22 -262.319 1479.87C-282.149 1485.24 -314.632 1484.13 -334.701 1477.39C-379.59 1462.31 -411.76 1432.35 -450.409 1369.63C-468.55 1340.19 -480.625 1324.68 -487.834 1321.55C-498.372 1316.99 -513.203 1323.29 -528.15 1338.69C-549.227 1360.41 -561.591 1394.24 -573.56 1462.93C-583.986 1522.75 -595.967 1562.85 -611.27 1589.13L-616.445 1598.02L-660.671 1599L-654.071 1592.15ZM-586.166 1582.47C-576.243 1560.95 -567.083 1532.4 -559.355 1498.9C-547.5 1447.51 -543.532 1432.66 -537.584 1417.38C-527.267 1390.89 -514.443 1377.71 -499.134 1377.85C-486.309 1377.97 -474.575 1386.96 -448.438 1416.69C-415.018 1454.71 -387.851 1476.16 -356.365 1489.4C-302.719 1511.95 -244.411 1504.37 -204.377 1469.64C-180.503 1448.92 -165.91 1421.36 -147.181 1361.6C-127.356 1298.35 -112.176 1271.47 -82.178 1246.52C-57.2155 1225.75 -14.1579 1205.77 22.0808 1198.13C92.8103 1183.22 156.166 1223.43 221.43 1324.63C226.979 1333.23 243.001 1359.47 257.034 1382.94C271.068 1406.4 291.691 1440 302.863 1457.59C333.37 1505.65 360.222 1554.45 375.964 1590.47L379.653 1598.91H374.452C369.272 1598.91 369.208 1598.82 358.615 1576.87C340.35 1539.04 323.539 1509.66 295.443 1466.48C288.446 1455.73 270.285 1426.53 255.086 1401.6C220.04 1344.12 208.569 1326.76 190.396 1303.72C141.388 1241.59 92.0236 1214.83 39.2578 1221.78C-12.2054 1228.56 -59.0202 1255.06 -86.7029 1293.1C-103.149 1315.7 -112.5 1336.84 -127.414 1385.13C-141.018 1429.18 -151.409 1451.96 -167.398 1472.81C-205.939 1523.06 -278.462 1543.32 -350.949 1524.09C-371.321 1518.68 -389.326 1511.38 -420.982 1495.7C-455.447 1478.63 -463.163 1475.81 -475.518 1475.75C-495.498 1475.65 -508.033 1490.83 -529.204 1540.76C-533.024 1549.77 -540.453 1566.53 -545.712 1578.02L-555.276 1598.91H-593.749L-586.166 1582.47ZM-529.495 1596.69C-525.085 1587.07 -504.721 1553.4 -498.326 1545.15C-487.998 1531.81 -482.494 1527.06 -471.978 1522.39C-457.755 1516.07 -439.947 1517.93 -398.339 1530.07C-356.186 1542.38 -343.79 1545.09 -319.384 1547.35C-266.595 1552.26 -209.844 1536.05 -174.711 1506.06C-148.705 1483.85 -133.828 1456.63 -115.455 1397.62C-103.416 1358.96 -98.8945 1346.87 -89.6791 1328.69C-67.3731 1284.71 -30.7391 1255.02 18.0188 1241.4C36.5146 1236.24 72.7195 1235.73 88.208 1240.41C136.965 1255.15 178.382 1293.82 226.638 1369.67C233.768 1380.88 247.777 1403.24 257.768 1419.38C267.758 1435.51 282.657 1459.1 290.876 1471.81C311.797 1504.16 326.212 1527.81 336.38 1546.47C345.199 1562.65 361.937 1596.42 361.937 1598.03C361.937 1598.51 359.594 1598.91 356.728 1598.91C351.624 1598.91 351.331 1598.54 342.291 1580.69C329.181 1554.81 315.09 1530.71 296.283 1502.03C287.308 1488.34 270.265 1461.95 258.408 1443.37C200.446 1352.56 174.816 1320.44 138.187 1292.71C75.4518 1245.22 -4.95733 1256.39 -52.8351 1319.25C-69.4935 1341.11 -78.6277 1361.92 -94.4033 1413.91C-109.563 1463.88 -118.123 1483.8 -133.074 1503.91C-157.753 1537.1 -199.598 1560.12 -256.168 1571.6C-279.101 1576.26 -333.913 1576.17 -365.166 1571.43C-395.199 1566.87 -430.339 1566.66 -442.345 1570.98C-454.161 1575.23 -465.826 1582.62 -474.804 1591.54L-482.215 1598.91H-506.365C-525.327 1598.91 -530.296 1598.43 -529.495 1596.69ZM-435.981 1597.13C-434.344 1596.25 -428.251 1594.18 -422.441 1592.53C-413.763 1590.07 -406.327 1589.65 -380.737 1590.21C-363.609 1590.59 -331.62 1590.84 -309.652 1590.76C-275.391 1590.64 -267.107 1590.07 -251.429 1586.74C-199.156 1575.63 -159.688 1556.93 -133.175 1530.7C-113.43 1511.16 -100.051 1485.12 -86.944 1440.71C-71.9186 1389.79 -65.4031 1370.97 -57.4104 1355.38C-37.2397 1316.06 -5.87809 1290.22 32.0748 1281.66C91.9951 1268.14 153.624 1305.3 214.231 1391.48C229.542 1413.25 302.012 1523.95 315.694 1546.47C321.041 1555.27 329.708 1570.67 334.956 1580.69L344.496 1598.91H331.318L318.341 1576.25C300.364 1544.85 230.296 1439.93 206.368 1408.57C177.635 1370.92 155.177 1348.64 127.694 1330.54C102.023 1313.62 82.3126 1306.98 57.9581 1307.05C38.8719 1307.1 22.9785 1311.86 6.50968 1322.46C-26.2302 1343.53 -42.7045 1373.86 -62.5448 1449.59C-72.6512 1488.17 -80.0508 1508.23 -90.5985 1525.63C-105.885 1550.85 -133.089 1572.49 -170.866 1589.49L-189.822 1598.02L-314.391 1598.37C-388.892 1598.58 -437.763 1598.08 -435.981 1597.13ZM-147.847 1597.11C-146.358 1596.26 -138.394 1591.9 -130.148 1587.42C-109.514 1576.23 -94.318 1563.54 -82.178 1547.37C-66.1451 1526.02 -61.115 1512.36 -45.0023 1446.44C-33.9292 1401.14 -25.0874 1379.92 -8.88131 1359.77C2.17551 1346.02 10.9509 1338.8 24.4639 1332.32C76.0328 1307.62 137.407 1338.21 202.661 1421.15C217.628 1440.18 227.123 1453.77 279.656 1531.36C299.128 1560.12 317.545 1589.42 320.115 1595.73C321.298 1598.63 320.655 1598.91 312.761 1598.91H304.109L295.472 1586.02C272.443 1551.66 213.114 1468 200.274 1451.78C144.849 1381.77 91.9464 1348.27 51.6037 1357.64C22.5954 1364.38 0.848585 1388.77 -11.2712 1428.15C-14.277 1437.93 -17.2613 1452.69 -27.2837 1507.36C-31.4974 1530.36 -39.0582 1552.02 -47.0021 1563.87C-53.691 1573.84 -65.9556 1585.61 -77.7382 1593.37L-86.1628 1598.91L-118.358 1598.79C-137.99 1598.72 -149.499 1598.06 -147.847 1597.11ZM-33.2548 1591.96C-15.0529 1574.85 -9.95367 1558.41 -3.68463 1496.63C1.32518 1447.27 8.03299 1423.77 22.7335 1404.11C45.3969 1373.79 78.0841 1370.14 115.508 1393.73C130.771 1403.35 137.605 1408.85 154.774 1425.34C180.275 1449.82 201.215 1476.04 252.245 1547.38C263.777 1563.5 276.822 1581.69 281.232 1587.8L289.25 1598.91H244.449L225.677 1574.46C215.351 1561.02 194.413 1533.18 179.146 1512.61C134.508 1452.44 108.32 1430.04 82.6173 1430.04C70.1387 1430.04 63.8142 1432.75 56.4632 1441.24C41.5122 1458.52 37.5369 1488.25 45.0408 1526.66C48.3852 1543.78 57.8172 1570.33 66.0401 1585.77C69.417 1592.11 72.1792 1597.66 72.1792 1598.11C72.1792 1598.55 46.7942 1598.91 15.767 1598.91H-40.6449L-33.2548 1591.96ZM-900 1559.75V1541.55L-849.563 1542.81C-781.622 1544.51 -765.658 1541.82 -737.553 1523.93C-724.947 1515.91 -721.925 1513.01 -710.387 1497.81C-698.969 1482.76 -696.571 1478.46 -690.449 1462.04C-682.13 1439.72 -677.788 1422.18 -667.948 1371.16C-657.719 1318.11 -653.436 1302.37 -639.48 1266.5C-617.984 1211.26 -615.866 1205.27 -612.101 1189.1C-608.597 1174.05 -608.395 1171.28 -608.418 1138.52C-608.44 1109.04 -609.073 1098.26 -612.657 1066.43C-620.837 993.819 -621.174 977.444 -615.039 950.763C-610.982 933.117 -598.633 916.565 -584.776 910.201C-557.859 897.84 -512.814 907.252 -474.264 933.293C-426.186 965.771 -385.777 1018.19 -329.91 1120.55C-302.902 1170.04 -293.949 1180.16 -277.155 1180.17C-266.331 1180.18 -260.028 1177.43 -230.16 1159.67C-169.757 1123.75 -139.424 1112.53 -65.2528 1098.68C-8.3383 1088.06 11.6902 1086.65 38.7365 1091.37C90.3812 1100.4 141.72 1135.88 189.786 1195.76C211.574 1222.91 229.944 1250.31 271.19 1317.17C282.649 1335.74 303.074 1367.74 316.578 1388.27C351.926 1442.01 369.778 1472.26 392.927 1517.63C399.709 1530.92 399.962 1531.86 399.575 1542.11L399.173 1552.76L383.996 1522.65C366.671 1488.28 346.284 1452.3 327.889 1423.64C296.253 1374.34 280.92 1349.96 258.147 1312.72C227.621 1262.81 214.186 1242.7 193.94 1216.63C147.354 1156.62 98.4172 1121.35 48.484 1111.77C31.6171 1108.53 2.44637 1109.32 -19.7946 1113.6C-44.6732 1118.39 -97.0802 1131.88 -116.929 1138.6C-156.566 1152.01 -186.472 1173.45 -208.79 1204.44C-221.147 1221.6 -227.321 1234.22 -241.411 1271.09C-247.792 1287.79 -256.121 1306.9 -259.92 1313.56C-287.037 1361.1 -333.153 1348.47 -348.065 1289.42C-352.042 1273.67 -353.792 1255.52 -355.674 1210.51C-357.149 1175.27 -359.036 1159.77 -364.765 1135.89C-372.977 1101.66 -392.643 1058.44 -415.027 1025.44C-457.325 963.064 -511.467 927.779 -552.841 935.617C-574 939.627 -587.749 953.465 -593.532 976.579C-597.816 993.695 -596.91 1037.77 -591.284 1086.08C-587.405 1119.38 -586.734 1129.81 -586.755 1156.3C-586.778 1182.61 -587.235 1189.59 -589.725 1201.62C-593.166 1218.26 -600.259 1238.36 -612.301 1265.62C-629.952 1305.56 -638.231 1334.32 -648.122 1390.05C-658.457 1448.27 -663.48 1469.22 -672.654 1492.37C-689.706 1535.4 -722.424 1562.08 -769.594 1571.41C-780.874 1573.64 -796.967 1574.42 -839.747 1574.82C-870.279 1575.1 -896.328 1575.93 -897.63 1576.65C-899.798 1577.85 -900 1576.41 -900 1559.75ZM-855.318 1524.18C-863.882 1523.5 -877.438 1522.84 -885.444 1522.71L-900 1522.47V1490.07L-894.245 1491.11C-878.724 1493.89 -837.79 1496.2 -819.572 1495.31C-782.488 1493.52 -759.385 1482.12 -739.55 1455.81C-722.951 1433.79 -713.394 1409.17 -702.294 1359.83C-684.058 1278.76 -680.346 1265.64 -662.035 1217.62C-648.456 1182.01 -643.653 1164.27 -641.27 1140.95C-639.331 1121.97 -640.385 1079.71 -643.434 1054.09C-650.109 997.991 -651.314 983.467 -651.393 958.097C-651.482 929.093 -649.863 918.113 -643.063 901.617C-630.675 871.569 -598.218 855.583 -560.82 861.11C-509.034 868.764 -465.512 891.067 -421.116 932.7C-402.64 950.026 -386.053 967.902 -357.282 1001.5C-306.49 1060.82 -286.266 1077.36 -256.145 1084.26C-234.316 1089.26 -219.986 1087.96 -158.002 1075.41C-79.7962 1059.56 -17.0284 1053.53 17.3418 1058.57C47.6567 1063.01 74.42 1073.65 104.089 1093.07C155.012 1126.4 194.962 1171.51 249.014 1256.73C256.456 1268.46 270.131 1290.05 279.406 1304.71C288.68 1319.37 308.457 1349.36 323.355 1371.37C354.493 1417.36 368.458 1439.42 386.8 1471.6L399.85 1494.49V1517.64L388.651 1496.51C366.318 1454.35 354.173 1434.47 313.461 1373.38C302.166 1356.44 280.92 1323.26 266.247 1299.65C231.202 1243.27 224.32 1232.92 202.366 1203.62C144.022 1125.75 85.9996 1085.37 21.7911 1077.95C2.38408 1075.71 -13.2805 1076.68 -55.0978 1082.7C-112.366 1090.96 -140.786 1097.82 -194.561 1116.38C-246.522 1134.31 -261.656 1136.19 -281.357 1127.15C-297.304 1119.83 -305.332 1110.85 -357.719 1041.72C-391.102 997.666 -412.609 970.775 -422.179 961.119C-459.007 923.966 -492.615 902.772 -531.709 892.05C-547.668 887.674 -580.834 887.549 -591.349 891.828C-601.706 896.041 -614.131 907.074 -619.323 916.668C-633.287 942.471 -634.552 973.975 -624.937 1056.62C-621.407 1086.95 -620.657 1098.81 -620.539 1126.08C-620.34 1171.97 -622.015 1180.15 -642.299 1232.34C-662.577 1284.51 -668.173 1303.38 -678.006 1352.72C-694.766 1436.82 -703.044 1460.35 -725.46 1487.6C-736.575 1501.11 -754.365 1513.48 -770.387 1518.83C-790.628 1525.6 -816.737 1527.24 -855.318 1524.18ZM389.425 1464.11C375.697 1439.68 355.85 1408.85 324.005 1362.52C308.895 1340.54 281.562 1298.94 263.261 1270.08C227.232 1213.28 188.306 1159.96 165.606 1136.32C145.281 1115.16 123.267 1096.73 101.29 1082.48C36.956 1040.76 -13.5865 1035.47 -143.108 1056.95C-194.159 1065.41 -216.24 1067.41 -236.232 1065.36C-254.932 1063.46 -271.084 1057.5 -288.664 1046.02C-306.227 1034.55 -320.987 1020.52 -357.594 980.507C-408.711 924.629 -430.16 904.868 -461.978 884.344C-500.105 859.747 -543.776 844.934 -579.1 844.616C-614.446 844.298 -639.92 858.596 -653.637 886.456C-665.851 911.267 -666.785 943.328 -657.615 1022.98C-652.728 1065.41 -651.768 1078.11 -651.699 1101.19C-651.574 1142.98 -654.829 1158.88 -674.614 1213.18C-689.339 1253.58 -694.897 1271.87 -702.979 1306.5C-719.815 1378.64 -728.481 1406.36 -740.76 1427.37C-753.665 1449.46 -772.091 1465.27 -793.789 1472.9C-807.977 1477.88 -843.993 1479.34 -876.463 1476.24L-900 1474V1459.9C-900 1447.3 -899.747 1445.9 -897.63 1446.72C-896.327 1447.24 -885.207 1448.58 -872.92 1449.71C-810.951 1455.43 -776.497 1439.32 -752.871 1393.58C-742.208 1372.94 -734.567 1349.15 -721.879 1297.08C-712.842 1259.99 -704.665 1232.48 -692.234 1197.32C-681.196 1166.1 -678.633 1157.47 -675.287 1140.3C-668.141 1103.61 -668.933 1068.33 -678.523 996.315C-689.391 914.702 -685.769 877.698 -664.364 851.683C-647.626 831.339 -624.282 820.619 -593.317 819.058C-571.612 817.963 -558.272 819.838 -531.709 827.718C-473.331 845.037 -430.245 873.56 -373.29 932.595C-361.747 944.559 -346.21 960.607 -338.763 968.258C-298.683 1009.43 -269.761 1027.93 -234.88 1034.69C-214.779 1038.59 -177.676 1037.24 -136.948 1031.13C-31.672 1015.34 24.7265 1022.05 85.9075 1057.66C124.62 1080.2 162.494 1115.39 200.65 1164.27C219.635 1188.6 234.855 1211.04 286.942 1291.51C296.707 1306.6 312.244 1329.66 321.469 1342.76C352.321 1386.55 370.185 1412.97 385.076 1436.8L399.85 1460.45V1471.02C399.85 1476.83 399.698 1481.56 399.511 1481.53C399.324 1481.49 394.787 1473.66 389.425 1464.11ZM391.731 1435.75C379.197 1415.65 358.051 1384.6 332.16 1348.27C308.805 1315.5 296.99 1297.86 248.844 1223.84C193.842 1139.29 151 1092.39 94.5204 1054.9C57.8605 1030.57 24.6196 1017.42 -13.1234 1012.35C-30.8541 1009.96 -86.4241 1009.88 -104.519 1012.22C-111.966 1013.18 -130.55 1015.67 -145.816 1017.75C-181.304 1022.6 -224.803 1021.9 -243.305 1016.19C-277.96 1005.49 -301.655 988.108 -352.939 935.775C-403.326 884.357 -422.947 867.237 -453.854 847.721C-484.442 828.404 -529.154 810.965 -563.32 805.024C-609.868 796.929 -659.813 813.891 -680.814 844.922C-687.548 854.872 -693.527 870.687 -695.669 884.213C-698.391 901.395 -696.435 942.583 -690.98 982.983C-681.525 1053 -679.929 1084.54 -684.175 1117.32C-686.932 1138.59 -691.187 1154.61 -704.681 1194.51C-715.616 1226.85 -722.686 1250.94 -730.762 1283.39C-746.767 1347.7 -757.642 1376.16 -774.583 1398.04C-787.754 1415.06 -802.844 1425.2 -823.623 1430.99C-835.507 1434.3 -868.032 1435.26 -888.152 1432.89L-900 1431.5V1406.61L-882.736 1407.83C-841.332 1410.76 -811.293 1399.77 -790.576 1374.11C-780.194 1361.25 -769.613 1341.14 -762.592 1320.91C-757.606 1306.55 -754.392 1295.27 -742.274 1249.62C-737.603 1232.02 -730.904 1208.42 -727.389 1197.18C-723.874 1185.94 -718.347 1168.24 -715.107 1157.86C-697.414 1101.18 -696.755 1062.51 -711.831 965.744C-722.164 899.42 -722.455 870.136 -713.042 844.104C-708.076 830.37 -695.664 814.772 -682.44 805.652L-672.808 799.005H-498.333L-488.956 803.241C-454.537 818.788 -421.095 841.482 -390.215 870.248C-384.258 875.798 -366.892 892.955 -351.626 908.375C-318.277 942.06 -300.197 958.019 -281.217 970.519C-240.445 997.371 -202.306 1002.88 -133.63 991.821C-81.2802 983.394 -38.0913 984.613 2.44775 995.666C48.6588 1008.26 101.997 1040.45 147.327 1083.1C187.001 1120.43 216.977 1158.94 269.101 1239.52C296.369 1281.69 309.861 1301.33 345.02 1350.05C362.303 1374 381.742 1401.38 388.216 1410.88L399.988 1428.15L399.173 1447.69L391.731 1435.75ZM384.077 1394.02C375.773 1382.06 356.011 1354.67 340.16 1333.16C312.657 1295.85 301.355 1279.35 253.617 1206.86C186.234 1104.54 122.996 1042.08 47.13 1002.91C-12.3219 972.222 -62.599 964.921 -131.599 976.959C-199.351 988.78 -236.466 983.794 -277.832 957.312C-295.693 945.877 -317.609 926.459 -352.303 891.328C-396.138 846.941 -425.143 822.663 -453.108 806.951L-465.667 799.894L-426.017 798.909L-416.241 806.348C-399.619 818.996 -376.555 840.28 -346.21 870.979C-302.11 915.592 -283.122 931.363 -258.5 943.829C-221.63 962.495 -191.629 964.225 -132.997 951.06C-99.0083 943.431 -81.8029 941.852 -63.1961 944.657C5.505 955.015 85.9603 1001.2 156.805 1070.94C198.25 1111.75 220.72 1141.1 285.789 1239.43C308.424 1273.64 322.505 1293.21 364.18 1348.41L399.85 1395.65V1405.74C399.85 1411.28 399.698 1415.81 399.511 1415.8C399.324 1415.78 392.38 1405.98 384.077 1394.02ZM-900 1368.37L-884.09 1367.32C-849.051 1365 -826.634 1353.89 -808.959 1330.06C-793.341 1309.01 -783.03 1282.27 -767.321 1222.07C-764.132 1209.84 -756.739 1182.25 -750.892 1160.74C-736.237 1106.82 -734.75 1098.59 -733.839 1066.31C-732.697 1025.87 -735.867 999.095 -748.929 938.871C-761.787 879.588 -762.462 875.066 -762.518 847.888C-762.565 824.22 -762.384 822.512 -758.813 812.965C-756.748 807.445 -754.231 802.025 -753.22 800.923C-751.971 799.565 -743.927 799.076 -728.217 799.407L-705.054 799.894L-712.336 807.287C-720.877 815.96 -727.182 827.334 -731.229 841.368C-733.724 850.023 -734.118 854.952 -734.015 876.329C-733.89 902.5 -733.719 903.905 -722.833 968.763C-714.275 1019.75 -713.822 1024.49 -713.845 1062.97C-713.872 1106.12 -715.115 1113.86 -729.94 1163.09C-735.481 1181.49 -743.414 1209.28 -747.57 1224.86C-760.282 1272.5 -767.432 1297.05 -772.387 1310.06C-785.746 1345.12 -799.707 1365.2 -819.294 1377.54C-836.659 1388.47 -847.379 1391.26 -875.966 1392.29L-900 1393.15V1368.37ZM354.456 1324.88C327.046 1288.55 296.935 1246.35 276.652 1215.84C228.046 1142.73 195.661 1101.1 159.513 1065.26C94.1224 1000.43 8.11415 945.85 -54.6848 929.34C-62.8847 927.184 -72.5252 926.243 -85.563 926.329C-102.603 926.439 -107.599 927.283 -134.984 934.676C-171.061 944.417 -190.427 947.039 -209.796 944.805C-251.747 939.964 -283.118 920.317 -337.409 864.889C-368.152 833.501 -378.135 823.749 -392.765 810.826L-406.148 799.005H-378.276L-370.705 806.45C-366.542 810.543 -352.402 824.915 -339.281 838.384C-284.486 894.642 -255.75 913.985 -218.194 919.899C-195.181 923.522 -176.329 919.999 -138.168 904.941C-124.874 899.697 -109.438 894.409 -103.865 893.191C-75.8358 887.068 -45.0671 898.995 20.0499 941.232C86.8675 984.571 141.024 1029.64 187.947 1080.94C212.223 1107.49 240.366 1144.91 279.36 1202.51C313.869 1253.48 338.858 1287.36 377.246 1335.22L400 1363.59L399.173 1384.15L354.456 1324.88ZM-900 1327.2L-892.214 1326.05C-852.88 1320.28 -827.658 1296.76 -809.891 1249.29C-802.978 1230.82 -797.163 1209.47 -787.467 1166.96C-783.787 1150.83 -779.317 1131.23 -777.532 1123.41C-764.411 1065.9 -764.939 1023.16 -779.477 965.823C-786.828 936.829 -797.01 908.089 -815.118 865.22C-823.687 844.932 -833.148 821.936 -836.142 814.115L-841.588 799.894L-812.373 799.414C-796.304 799.151 -782.926 799.24 -782.641 799.612C-782.358 799.985 -782.825 802.601 -783.682 805.424C-786.201 813.731 -785.585 839.081 -782.456 855.887C-780.909 864.198 -775.017 888.995 -769.361 910.992C-749.844 986.899 -744.964 1017.83 -745.988 1059.19C-746.802 1092.11 -748.117 1099.05 -768.907 1180.29C-793.209 1275.25 -800.651 1295.13 -821.275 1320.2C-837.289 1339.67 -863.122 1351.75 -888.829 1351.8L-900 1351.83V1327.2ZM379.54 1325.73C343.488 1281.59 315.9 1244.72 280.016 1192.74C231.221 1122.05 207.453 1091.79 173.053 1056.55C126.123 1008.49 56.4984 952.409 -16.5084 903.873C-37.2979 890.05 -58.1903 877.453 -64.9441 874.667C-88.5065 864.946 -104.948 866.681 -134.984 882.058C-171.647 900.83 -186.473 905.659 -207.424 905.659C-247.275 905.659 -278.879 886.143 -339.039 824.38L-362.89 799.894L-341.215 798.87L-323.74 816.139C-299.985 839.616 -286.494 850.946 -270.059 861.218C-249.697 873.947 -236.773 878.034 -216.902 878.032C-191.704 878.031 -179.099 872.205 -142.648 843.715C-118.218 824.62 -104.786 819.929 -87.8526 824.581C-72.9937 828.662 -61.7053 836.699 -21.066 872.127C-0.686821 889.894 34.5716 920.018 57.2851 939.069C179.252 1041.36 214.174 1078.22 282.485 1176.74C321.568 1233.1 356.674 1278.11 393.493 1319.05L399.985 1326.27L399.173 1349.77L379.54 1325.73ZM-900 1280.98L-892.273 1278.03C-868.854 1269.09 -850.335 1247.86 -838.077 1215.91C-824.759 1181.19 -809.39 1093.15 -809.308 1051.1C-809.247 1020.14 -814.764 991.862 -826.894 960.961C-839.172 929.681 -858.764 899.802 -886.798 869.605L-900 855.384V799.005H-884.074L-867.439 823.024C-835.896 868.569 -817.76 901.354 -804.568 936.687C-782.961 994.553 -777.509 1044.02 -786.826 1097.64C-795.5 1147.55 -809.132 1206.55 -817.553 1230.62C-834.127 1277.98 -858.639 1303.07 -894.922 1309.78L-900 1310.72V1280.98ZM390.103 1299.93C354.775 1261.67 328.217 1228.13 285.596 1167.96C249.942 1117.63 226.595 1088.44 197.425 1057.74C169.763 1028.62 153.775 1013.69 89.7813 957.193C29.995 904.411 5.15426 881.342 -21.2475 854.083C-50.501 823.881 -64.9143 809.952 -72.532 804.526L-80.1469 799.1L-39.4751 799.005L-25.9608 816.909C10.9062 865.753 39.4311 895.241 124.309 972.261C216.169 1055.62 235.287 1076.36 300.33 1163.19C336.456 1211.41 358.535 1237.69 383.229 1261.86L399.782 1278.06L399.816 1293.61C399.835 1302.17 399.576 1309.17 399.243 1309.17C398.909 1309.17 394.796 1305.01 390.103 1299.93ZM-900 1239.15V1218.91L-890.041 1205.82C-882.382 1195.76 -878.798 1189.25 -874.522 1177.63C-859.755 1137.5 -856.582 1074.03 -866.987 1026.88C-872.134 1003.54 -878.872 988.037 -893.452 965.958L-900 956.044V891.14L-894.245 897.056C-883.166 908.445 -863.069 935.115 -854.947 949.21C-845.011 966.448 -834.878 993.658 -830.783 1014.09C-822.158 1057.14 -831.872 1152.7 -849.755 1200.73C-856.509 1218.88 -864.888 1232.95 -874.788 1242.78C-882.344 1250.29 -895.444 1259.39 -898.685 1259.39C-899.458 1259.39 -900 1251.07 -900 1239.15ZM391.202 1245.97C369.065 1228.44 346.923 1203.98 303.715 1149.31C286.959 1128.11 269.594 1106.39 265.126 1101.05C239.16 1069.99 204.507 1035.66 140.557 977.654C61.4772 905.924 35.6277 879.142 -0.937348 831.055L-24.6325 799.894L-4.4767 798.836L2.96089 810.03C13.4666 825.843 36.9506 856.501 50.5151 872.11C84.7201 911.47 108.888 934.104 217.735 1028.72C238.587 1046.84 267.392 1072.76 281.747 1086.32C333.903 1135.57 341.115 1142.08 350.691 1148.49C356.455 1152.36 363.138 1155.36 367.061 1155.86C373.098 1156.62 373.962 1156.24 376.758 1151.61C379.407 1147.22 379.72 1145.15 379.044 1136.51C378.613 1131 376.061 1118.6 373.373 1108.96C354.297 1040.47 352.003 1028.84 352.041 1000.76C352.071 978.296 354.886 962.819 362.693 942.178C372.641 915.877 385.046 897.111 396.126 891.6L399.85 889.75V1071.02C399.85 1170.71 399.698 1252.28 399.511 1252.28C399.324 1252.28 395.586 1249.44 391.202 1245.97ZM-899.903 1096.75C-899.89 1007.85 -900.253 1010.33 -891.738 1040.96C-885.595 1063.06 -883.359 1082.82 -884.12 1108.3C-884.812 1131.49 -887.048 1145.55 -892.462 1160.74C-900.168 1182.37 -899.915 1184.54 -899.903 1096.75ZM292.163 1062.99C269.645 1055.02 213.841 1014.61 154.097 963.018C101.081 917.238 69.5998 884.661 36.9086 841.749C23.8397 824.595 11.7632 807.961 10.0748 804.782L7.00258 799.005L22.7579 799.016L36.298 818.727C77.449 878.63 139.621 939.456 200.454 979.329C223.279 994.289 240.469 1001.94 253.617 1003C276.023 1004.8 283.922 996.37 300.15 953.328C319.822 901.15 336.987 866.734 350.826 851.719C362.572 838.977 378.812 831.087 393.418 831.028L399.85 831.001V862.543L394.256 863.718C374.13 867.943 357.642 889.666 341.568 933.144C332.78 956.908 328.955 975.324 325.488 1010.54C321.527 1050.75 319.361 1058.59 310.929 1063.22C305.514 1066.19 301.027 1066.13 292.163 1062.99ZM227.213 977.332C193.616 967.465 135.617 923.798 90.9228 874.717C74.0234 856.161 47.9993 823.056 38.0703 807.486L32.6611 799.005L47.13 799.011L64.7322 822.345C126.552 904.301 197.739 954.656 234.363 942.339C251.851 936.457 260.196 926.297 289.729 874.922C299.963 857.121 311.41 838.259 315.164 833.008C323.577 821.25 336.104 809.331 346.242 803.446C353.419 799.279 355.307 799.005 376.871 799.005H399.85L399.824 815.892L388.211 816.21C366.722 816.797 348.095 827.791 333.01 848.788C324.167 861.097 309.643 888.492 292.112 925.925C279.24 953.414 269.054 968.642 259.71 974.36C254.17 977.75 250.846 978.47 241.43 978.315C235.101 978.212 228.703 977.77 227.213 977.332ZM192.009 921.828C172.706 914.94 152.345 901.955 129.596 882.027C109.884 864.759 95.3937 849.028 74.8872 822.633L56.6081 799.105L72.5678 799.005L83.6003 812.909C114.213 851.491 151.582 882.41 178.545 891.464C193.239 896.398 209.006 896.194 220.044 890.925C236.445 883.098 247.494 870.901 281.161 823.447L298.502 799.005H328.491L319.794 807.648C309.449 817.929 300.977 829.843 283.593 858.554C264.39 890.267 248.198 910.914 236.798 918.218C228.441 923.572 226.023 924.276 214.457 924.716C204.966 925.079 198.944 924.304 192.009 921.828ZM178.86 876.287C153.754 869.728 126.545 849.401 94.3647 813.165L82.5781 799.894L100.687 798.84L112.22 810.204C127.91 825.663 143.468 836.803 158.836 843.585C169.74 848.395 173.658 849.257 184.562 849.239C206.497 849.202 219.934 841.359 245.502 813.67L259.045 799.005H284.04L267.812 820.532C239.971 857.464 224.733 871.334 206.391 876.44C195.62 879.437 190.809 879.41 178.86 876.287ZM-244.118 858.579C-262.99 853.189 -284.173 839.169 -311.002 814.316L-326.57 799.894L-301.796 798.877L-288.46 808.645C-263.793 826.712 -240.014 834.05 -221.373 829.347C-210.297 826.552 -195.607 817.035 -186.858 806.988L-179.906 799.005H-126.343L-133.71 804.864C-137.761 808.087 -148.56 818.066 -157.703 827.041C-176.015 845.016 -189.34 854.316 -202.705 858.451C-213.326 861.737 -232.848 861.798 -244.118 858.579ZM160.382 829.267C149.237 825.313 135.145 816.797 122.955 806.654L114.83 799.894L131.079 799.366C143.125 798.973 149.428 799.604 155.451 801.805C165.911 805.627 184.141 805.682 195.165 801.926C206.926 797.919 241.254 797.665 238.764 801.604C235.595 806.619 215.517 822.366 206.517 826.897C193.869 833.266 174.459 834.263 160.382 829.267ZM-257.522 808.816C-261.99 807.523 -268.693 804.83 -272.416 802.832L-279.186 799.199L-208.778 799.162L-214.194 802.946C-225.924 811.139 -241.973 813.313 -257.522 808.816Z" fill="#001064" fill-opacity="0.1"/>
</g>
<defs>
<linearGradient id="paint0_linear" x1="136" y1="4.89574e-05" x2="136" y2="1599" gradientUnits="userSpaceOnUse">
<stop stop-color="#001064"/>
<stop offset="0.515625" stop-color="#5F5FC4"/>
</linearGradient>
<linearGradient id="paint1_linear" x1="136" y1="4.89574e-05" x2="136" y2="1599" gradientUnits="userSpaceOnUse">
<stop stop-color="#001064"/>
<stop offset="0.515625" stop-color="#5F5FC4"/>
</linearGradient>
<clipPath id="clip0">
<rect width="400" height="800" fill="white"/>
</clipPath>
</defs>
</svg>
