<svg width="512" height="171" viewBox="0 0 512 171" fill="none" xmlns="http://www.w3.org/2000/svg">
<path d="M40.6044 92.6151C35.2948 92.6151 30.6488 91.7855 26.6666 90.1263C22.6844 88.4006 19.5982 85.9781 17.4079 82.8587C15.2841 79.6729 14.2222 75.9894 14.2222 71.808V69.6178C14.2222 69.286 14.3217 69.0205 14.5208 68.8214C14.7863 68.5559 15.085 68.4231 15.4168 68.4231H26.7662C27.098 68.4231 27.3635 68.5559 27.5626 68.8214C27.8281 69.0205 27.9608 69.286 27.9608 69.6178V71.1111C27.9608 73.766 29.1887 76.0226 31.6444 77.8809C34.1001 79.6729 37.4186 80.5689 41.5999 80.5689C45.1176 80.5689 47.7392 79.8388 49.4648 78.3787C51.1905 76.8522 52.0533 74.9938 52.0533 72.8036C52.0533 71.2107 51.5223 69.8833 50.4604 68.8214C49.3985 67.6931 47.9383 66.7307 46.0799 65.9343C44.2879 65.0714 41.4008 63.91 37.4186 62.4498C32.9718 60.9233 29.1887 59.3636 26.0693 57.7707C23.0162 56.1778 20.4278 54.0208 18.3039 51.2996C16.2465 48.512 15.2177 45.094 15.2177 41.0454C15.2177 37.0631 16.2465 33.5787 18.3039 30.592C20.3614 27.6054 23.2154 25.3156 26.8657 23.7227C30.5161 22.1298 34.7306 21.3334 39.5093 21.3334C44.5534 21.3334 49.0334 22.2294 52.9493 24.0214C56.9315 25.8134 60.0177 28.3354 62.2079 31.5876C64.4645 34.7734 65.5928 38.4901 65.5928 42.7378V44.2311C65.5928 44.563 65.4601 44.8617 65.1946 45.1272C64.9955 45.3263 64.73 45.4258 64.3982 45.4258H52.9493C52.6174 45.4258 52.3188 45.3263 52.0533 45.1272C51.8542 44.8617 51.7546 44.563 51.7546 44.2311V43.4347C51.7546 40.6472 50.5931 38.291 48.2702 36.3663C46.0136 34.3752 42.8942 33.3796 38.9119 33.3796C35.7925 33.3796 33.3368 34.0433 31.5448 35.3707C29.8192 36.6981 28.9564 38.5233 28.9564 40.8463C28.9564 42.5055 29.4542 43.8993 30.4497 45.0276C31.5117 46.1559 33.0382 47.1846 35.0293 48.1138C37.0868 48.9766 40.2394 50.1713 44.4871 51.6978C49.1994 53.4235 52.8829 54.95 55.5377 56.2774C58.2589 57.6048 60.6814 59.5959 62.8053 62.2507C64.9955 64.8391 66.0906 68.224 66.0906 72.4054C66.0906 78.6442 63.8008 83.5888 59.2213 87.2391C54.6417 90.8231 48.4361 92.6151 40.6044 92.6151Z" fill="white"/>
<path d="M123.227 22.1298C123.559 22.1298 123.824 22.2626 124.023 22.528C124.289 22.7272 124.422 22.9926 124.422 23.3245V33.0809C124.422 33.4128 124.289 33.7114 124.023 33.9769C123.824 34.176 123.559 34.2756 123.227 34.2756H105.407C105.075 34.2756 104.909 34.4415 104.909 34.7734V90.624C104.909 90.9559 104.776 91.2546 104.511 91.52C104.311 91.7192 104.046 91.8187 103.714 91.8187H92.0661C91.7342 91.8187 91.4355 91.7192 91.1701 91.52C90.9709 91.2546 90.8714 90.9559 90.8714 90.624V34.7734C90.8714 34.4415 90.7055 34.2756 90.3736 34.2756H73.051C72.7191 34.2756 72.4204 34.176 72.1549 33.9769C71.9558 33.7114 71.8563 33.4128 71.8563 33.0809V23.3245C71.8563 22.9926 71.9558 22.7272 72.1549 22.528C72.4204 22.2626 72.7191 22.1298 73.051 22.1298H123.227Z" fill="white"/>
<path d="M171.611 92.2176C170.947 92.2176 170.516 91.8858 170.317 91.2221L162.996 69.6185L145.414 69.7297L138.957 91.2221C138.758 91.8858 138.326 92.2176 137.663 92.2176H125.019C124.621 92.2176 124.322 92.1181 124.123 91.919C123.924 91.6535 123.891 91.2884 124.023 90.8238L145.527 23.5243C145.727 22.8606 146.158 22.5287 146.822 22.5287H162.452C163.116 22.5287 163.547 22.8606 163.746 23.5243L185.25 90.8238C185.316 90.9566 185.35 91.1225 185.35 91.3216C185.35 91.9189 184.985 92.2176 184.255 92.2176H171.611ZM145.414 69.7297L162.996 69.6185L154.786 40.0505C154.72 39.785 154.62 39.6855 154.487 39.7518C154.355 39.7518 154.255 39.8514 154.189 40.0505L145.414 69.7297Z" fill="white"/>
<path d="M233.774 23.3245C233.774 22.9926 233.874 22.7272 234.073 22.528C234.338 22.2626 234.637 22.1298 234.969 22.1298H246.617C246.949 22.1298 247.214 22.2626 247.413 22.528C247.679 22.7272 247.811 22.9926 247.811 23.3245V90.624C247.811 90.9559 247.679 91.2546 247.413 91.52C247.214 91.7192 246.949 91.8187 246.617 91.8187H235.367C234.703 91.8187 234.239 91.5532 233.973 91.0223L208.188 48.4125C208.056 48.2134 207.923 48.147 207.79 48.2134C207.657 48.2134 207.591 48.3461 207.591 48.6116L207.79 90.624C207.79 90.9559 207.657 91.2546 207.392 91.52C207.193 91.7192 206.927 91.8187 206.595 91.8187H194.947C194.616 91.8187 194.317 91.7192 194.051 91.52C193.852 91.2546 193.753 90.9559 193.753 90.624V23.3245C193.753 22.9926 193.852 22.7272 194.051 22.528C194.317 22.2626 194.616 22.1298 194.947 22.1298H206.197C206.861 22.1298 207.325 22.3953 207.591 22.9263L233.276 65.3369C233.409 65.536 233.542 65.6356 233.675 65.6356C233.807 65.5692 233.874 65.4033 233.874 65.1378L233.774 23.3245Z" fill="white"/>
<path d="M260.572 91.8187C260.241 91.8187 259.942 91.7192 259.676 91.52C259.477 91.2546 259.378 90.9559 259.378 90.624V23.3245C259.378 22.9926 259.477 22.7272 259.676 22.528C259.942 22.2626 260.241 22.1298 260.572 22.1298H285.461C290.439 22.1298 294.786 23.0258 298.503 24.8178C302.286 26.5434 305.206 28.9991 307.264 32.1849C309.321 35.3707 310.35 39.0543 310.35 43.2356V70.7129C310.35 74.8943 309.321 78.5778 307.264 81.7636C305.206 84.9494 302.286 87.4383 298.503 89.2303C294.786 90.9559 290.439 91.8187 285.461 91.8187H260.572ZM273.415 79.2747C273.415 79.6066 273.581 79.7725 273.913 79.7725H285.959C289.012 79.7725 291.468 78.7437 293.326 76.6863C295.251 74.6288 296.246 71.8744 296.313 68.4231V45.5254C296.313 42.0741 295.35 39.3197 293.426 37.2623C291.567 35.2048 289.045 34.176 285.859 34.176H273.913C273.581 34.176 273.415 34.342 273.415 34.6738V79.2747Z" fill="white"/>
<path d="M422.149 91.8187C421.485 91.8187 421.02 91.52 420.755 90.9227L408.31 63.3458C408.178 63.0803 407.979 62.9476 407.713 62.9476H398.454C398.123 62.9476 397.957 63.1135 397.957 63.4454V90.624C397.957 90.9559 397.824 91.2546 397.558 91.52C397.359 91.7192 397.094 91.8187 396.762 91.8187H385.114C384.782 91.8187 384.484 91.7192 384.218 91.52C384.019 91.2546 383.919 90.9559 383.919 90.624V23.3245C383.919 22.9926 384.019 22.7272 384.218 22.528C384.484 22.2626 384.782 22.1298 385.114 22.1298H413.587C417.835 22.1298 421.551 22.9926 424.737 24.7183C427.989 26.4439 430.478 28.8996 432.204 32.0854C433.996 35.2711 434.892 38.9547 434.892 43.136C434.892 47.6492 433.764 51.5319 431.507 54.784C429.25 57.9698 426.098 60.2264 422.049 61.5538C421.717 61.6866 421.618 61.9189 421.75 62.2507L435.29 90.4249C435.423 90.6904 435.489 90.8895 435.489 91.0223C435.489 91.5532 435.124 91.8187 434.394 91.8187H422.149ZM398.454 34.176C398.123 34.176 397.957 34.342 397.957 34.6738V51.6978C397.957 52.0297 398.123 52.1956 398.454 52.1956H411.496C414.284 52.1956 416.54 51.366 418.266 49.7067C420.058 48.0474 420.954 45.8904 420.954 43.2356C420.954 40.5808 420.058 38.4237 418.266 36.7645C416.54 35.0389 414.284 34.176 411.496 34.176H398.454Z" fill="white"/>
<path d="M446.267 91.8187C445.935 91.8187 445.636 91.7192 445.371 91.52C445.172 91.2546 445.072 90.9559 445.072 90.624V23.3245C445.072 22.9926 445.172 22.7272 445.371 22.528C445.636 22.2626 445.935 22.1298 446.267 22.1298H471.156C476.134 22.1298 480.481 23.0258 484.198 24.8178C487.981 26.5434 490.901 28.9991 492.958 32.1849C495.016 35.3707 496.045 39.0543 496.045 43.2356V70.7129C496.045 74.8943 495.016 78.5778 492.958 81.7636C490.901 84.9494 487.981 87.4383 484.198 89.2303C480.481 90.9559 476.134 91.8187 471.156 91.8187H446.267ZM459.109 79.2747C459.109 79.6066 459.275 79.7725 459.607 79.7725H471.654C474.707 79.7725 477.162 78.7437 479.021 76.6863C480.945 74.6288 481.941 71.8744 482.007 68.4231V45.5254C482.007 42.0741 481.045 39.3197 479.12 37.2623C477.262 35.2048 474.74 34.176 471.554 34.176H459.607C459.275 34.176 459.109 34.342 459.109 34.6738V79.2747Z" fill="white"/>
<path d="M363.15 91.8187C362.486 91.8187 362.055 91.4868 361.856 90.8231L354.535 69.2196L336.953 69.3308L330.496 90.8231C330.297 91.4868 329.865 91.8187 329.202 91.8187H316.558C316.16 91.8187 315.861 91.7192 315.662 91.52C315.463 91.2546 315.43 90.8895 315.563 90.4249L337.067 23.1254C337.266 22.4617 337.697 22.1298 338.361 22.1298H353.991C354.655 22.1298 355.086 22.4617 355.285 23.1254L376.789 90.4249C376.856 90.5577 376.889 90.7236 376.889 90.9227C376.889 91.52 376.524 91.8187 375.794 91.8187H363.15ZM336.953 69.3308L354.535 69.2196L346.325 39.6516C346.259 39.3861 346.159 39.2866 346.027 39.3529C345.894 39.3529 345.794 39.4525 345.728 39.6516L336.953 69.3308Z" fill="white"/>
<path d="M432.604 117.884C432.747 117.884 432.861 117.937 432.947 118.041C433.061 118.12 433.119 118.224 433.119 118.355V122.203C433.119 122.334 433.061 122.452 432.947 122.556C432.861 122.635 432.747 122.674 432.604 122.674H424.928C424.785 122.674 424.713 122.739 424.713 122.87V144.896C424.713 145.027 424.656 145.145 424.542 145.249C424.456 145.328 424.341 145.367 424.199 145.367H419.181C419.038 145.367 418.909 145.328 418.795 145.249C418.709 145.145 418.666 145.027 418.666 144.896V122.87C418.666 122.739 418.595 122.674 418.452 122.674H410.99C410.847 122.674 410.718 122.635 410.604 122.556C410.518 122.452 410.475 122.334 410.475 122.203V118.355C410.475 118.224 410.518 118.12 410.604 118.041C410.718 117.937 410.847 117.884 410.99 117.884H432.604Z" fill="white"/>
<path d="M453.297 145.367C453.011 145.367 452.825 145.236 452.739 144.974L451.453 141.127C451.395 141.022 451.324 140.97 451.238 140.97H440.688C440.603 140.97 440.531 141.022 440.474 141.127L439.23 144.974C439.144 145.236 438.959 145.367 438.673 145.367H433.226C433.055 145.367 432.926 145.328 432.84 145.249C432.755 145.145 432.74 145.001 432.797 144.817L442.061 118.277C442.146 118.015 442.332 117.884 442.618 117.884H449.351C449.637 117.884 449.823 118.015 449.909 118.277L459.172 144.817C459.201 144.87 459.215 144.935 459.215 145.014C459.215 145.249 459.058 145.367 458.743 145.367H453.297ZM442.018 136.455C441.989 136.612 442.046 136.69 442.189 136.69H449.737C449.909 136.69 449.966 136.612 449.909 136.455L446.049 124.794C446.02 124.689 445.978 124.65 445.92 124.676C445.863 124.676 445.82 124.716 445.792 124.794L442.018 136.455Z" fill="white"/>
<path d="M462.127 145.367C461.927 145.367 461.784 145.315 461.698 145.21C461.612 145.105 461.626 144.974 461.741 144.817L470.061 131.743C470.118 131.665 470.118 131.586 470.061 131.508L461.741 118.434L461.655 118.198C461.655 117.989 461.812 117.884 462.127 117.884H467.573C467.859 117.884 468.073 117.989 468.216 118.198L473.791 127.189C473.877 127.346 473.963 127.346 474.049 127.189L479.624 118.198C479.767 117.989 479.981 117.884 480.267 117.884H485.671C485.871 117.884 486.014 117.937 486.1 118.041C486.185 118.146 486.171 118.277 486.057 118.434L477.737 131.508C477.708 131.586 477.708 131.665 477.737 131.743L486.057 144.817L486.143 145.053C486.143 145.262 485.985 145.367 485.671 145.367H480.267C479.981 145.367 479.767 145.262 479.624 145.053L474.049 136.101C473.963 135.944 473.877 135.944 473.791 136.101L468.174 145.053C468.031 145.262 467.816 145.367 467.53 145.367H462.127Z" fill="white"/>
<path fill-rule="evenodd" clip-rule="evenodd" d="M401.285 109.471V131.556V153.64H494.714V109.471H401.285ZM398.988 106.667C398.565 106.667 398.222 106.981 398.222 107.368V155.743C398.222 156.131 398.565 156.444 398.988 156.444H497.012C497.435 156.444 497.778 156.131 497.778 155.743V107.368C497.778 106.981 497.435 106.667 497.012 106.667H398.988Z" fill="white"/>
</svg>
