<svg width="415" height="14" viewBox="0 0 415 14" fill="none" xmlns="http://www.w3.org/2000/svg">
<path d="M2.7862 4.71265C2.9131 4.28967 3.30242 4 3.74403 4H411.588C412.017 4 412.399 4.2737 412.536 4.68023L414.059 9.19192C414.276 9.83677 413.8 10.5059 413.119 10.5117L1.35592 13.9886C0.682554 13.9942 0.196131 13.3462 0.389628 12.7012L2.7862 4.71265Z" fill="white"/>
<path d="M5.5296 0.901943C5.58118 0.390143 6.01262 0.000963464 6.52702 0.00222736L411.506 0.99729C412.096 0.998742 412.557 1.50959 412.498 2.09757L411.591 11.0981C411.539 11.6099 411.108 11.999 410.593 11.9978L5.61495 11.0027C5.024 11.0013 4.56318 10.4904 4.62245 9.90243L5.5296 0.901943Z" fill="white"/>
<path d="M2.7862 4.71265C2.9131 4.28967 3.30242 4 3.74403 4H411.588C412.017 4 412.399 4.2737 412.536 4.68023L414.059 9.19192C414.276 9.83677 413.8 10.5059 413.119 10.5117L1.35592 13.9886C0.682554 13.9942 0.196131 13.3462 0.389628 12.7012L2.7862 4.71265Z" fill="#283593" fill-opacity="0.2"/>
<path d="M5.5296 0.901943C5.58118 0.390143 6.01262 0.000963464 6.52702 0.00222736L411.506 0.99729C412.096 0.998742 412.557 1.50959 412.498 2.09757L411.591 11.0981C411.539 11.6099 411.108 11.999 410.593 11.9978L5.61495 11.0027C5.024 11.0013 4.56318 10.4904 4.62245 9.90243L5.5296 0.901943Z" fill="#283593" fill-opacity="0.2"/>
</svg>
