<svg width="18" height="18" viewBox="0 0 18 18" fill="none" xmlns="http://www.w3.org/2000/svg">
<path d="M1.0459 11.2617H0.545898V11.7617H1.0459V11.2617ZM7.13965 11.2617H7.63965V10.7617H7.13965V11.2617ZM7.13965 17.3555H6.63965V17.8555H7.13965V17.3555ZM10.875 17.3555V17.8555H11.375V17.3555H10.875ZM10.875 11.2617V10.7617H10.375V11.2617H10.875ZM16.9541 11.2617V11.7617H17.4541V11.2617H16.9541ZM16.9541 7.52637H17.4541V7.02637H16.9541V7.52637ZM10.875 7.52637H10.375V8.02637H10.875V7.52637ZM10.875 1.44727H11.375V0.947266H10.875V1.44727ZM7.13965 1.44727V0.947266H6.63965V1.44727H7.13965ZM7.13965 7.52637V8.02637H7.63965V7.52637H7.13965ZM1.0459 7.52637V7.02637H0.545898V7.52637H1.0459ZM1.0459 11.7617H7.13965V10.7617H1.0459V11.7617ZM6.63965 11.2617V17.3555H7.63965V11.2617H6.63965ZM7.13965 17.8555H10.875V16.8555H7.13965V17.8555ZM11.375 17.3555V11.2617H10.375V17.3555H11.375ZM10.875 11.7617H16.9541V10.7617H10.875V11.7617ZM17.4541 11.2617V7.52637H16.4541V11.2617H17.4541ZM16.9541 7.02637H10.875V8.02637H16.9541V7.02637ZM11.375 7.52637V1.44727H10.375V7.52637H11.375ZM10.875 0.947266H7.13965V1.94727H10.875V0.947266ZM6.63965 1.44727V7.52637H7.63965V1.44727H6.63965ZM7.13965 7.02637H1.0459V8.02637H7.13965V7.02637ZM0.545898 7.52637V11.2617H1.5459V7.52637H0.545898Z" fill="white"/>
</svg>
