<svg width="31" height="22" viewBox="0 0 31 22" fill="none" xmlns="http://www.w3.org/2000/svg">
<path d="M0.998047 5.73438H0.498047V6.23438H0.998047V5.73438ZM30.002 5.73438V6.23438H30.502V5.73438H30.002ZM30.002 0.988281H30.502V0.488281H30.002V0.988281ZM0.998047 0.988281V0.488281H0.498047V0.988281H0.998047ZM0.998047 20.7051H0.498047V21.2051H0.998047V20.7051ZM30.002 20.7051V21.2051H30.502V20.7051H30.002ZM30.002 15.959H30.502V15.459H30.002V15.959ZM0.998047 15.959V15.459H0.498047V15.959H0.998047ZM0.998047 6.23438H30.002V5.23438H0.998047V6.23438ZM30.502 5.73438V0.988281H29.502V5.73438H30.502ZM30.002 0.488281H0.998047V1.48828H30.002V0.488281ZM0.498047 0.988281V5.73438H1.49805V0.988281H0.498047ZM0.998047 21.2051H30.002V20.2051H0.998047V21.2051ZM30.502 20.7051V15.959H29.502V20.7051H30.502ZM30.002 15.459H0.998047V16.459H30.002V15.459ZM0.498047 15.959V20.7051H1.49805V15.959H0.498047Z" fill="#002E72"/>
</svg>
