<svg width="39" height="42" viewBox="0 0 39 42" fill="none" xmlns="http://www.w3.org/2000/svg">
<path fill-rule="evenodd" clip-rule="evenodd" d="M5.35565 0.0615206C4.99303 0.0933121 4.69063 0.126624 4.6836 0.135553C3.38432 1.79099 1.93446 4.41746 0.706746 7.33969C-0.0163524 9.06099 -0.0471941 9.15946 0.0279783 9.50974C0.11189 9.90118 0.233799 10.1341 0.521443 10.4524C0.984446 10.9649 2.01957 11.5837 2.76927 11.7962C2.96958 11.853 3.29345 11.9451 3.48901 12.001L3.84467 12.1026L3.49502 12.4601C2.78098 13.1903 2.35129 13.9997 2.11748 15.0548C1.99386 15.6126 1.87163 17.4091 1.95725 17.4091C1.98303 17.4091 2.27536 17.2239 2.60695 16.9975C2.93848 16.7711 3.22112 16.5858 3.23493 16.5858C3.24874 16.5858 3.26007 17.8825 3.26007 19.4673V22.3488H3.87076H4.48145L4.44085 22.9663C4.16657 27.1386 4.17721 37.0314 4.46049 41.1765C4.48854 41.5875 4.52869 41.9408 4.54965 41.9618C4.59107 42.0032 33.9627 42.016 33.9999 41.9746C34.0289 41.9423 34.2065 38.8359 34.3037 36.6613C34.4042 34.4112 34.4047 26.9858 34.3044 25.3886C34.2165 23.9894 34.1108 22.7016 34.0667 22.4936C34.0379 22.3574 34.0545 22.3529 34.6551 22.3353L35.2732 22.3172V19.4515C35.2732 17.8753 35.2836 16.5858 35.2962 16.5858C35.3087 16.5858 35.5866 16.7711 35.9136 16.9975C36.2405 17.2239 36.5262 17.4091 36.5483 17.4091C36.5705 17.4091 36.5729 16.9745 36.5538 16.4433C36.4901 14.6768 36.0191 13.4454 35.0314 12.4637L34.6867 12.1211L35.2349 11.9864C37.1268 11.5216 38.4573 10.5066 38.6317 9.39524C38.6641 9.1886 38.6136 8.99436 38.3441 8.28963C37.5131 6.11635 36.4194 3.8121 35.5936 2.49496C35.1426 1.7756 34.4733 0.859412 34.0556 0.389695C33.8168 0.121114 33.8163 0.120924 33.1833 0.0501217C31.2929 -0.161336 29.1995 0.302807 27.4592 1.31919C25.2989 2.5809 23.3284 4.9861 22.2933 7.62467C22.0796 8.16949 22.0407 8.21427 21.8952 8.08261C21.6731 7.8816 21.2193 7.72245 20.8657 7.72156C20.6742 7.72106 20.1897 7.76114 19.7891 7.81054C19.3032 7.87051 18.966 7.88179 18.7758 7.84449C18.0589 7.7037 17.1734 7.82688 16.7074 8.13219C16.6284 8.18393 16.5395 8.2263 16.5098 8.2263C16.4802 8.2263 16.3902 8.06247 16.3097 7.86216C16.0683 7.26097 15.3836 5.98608 14.9381 5.3082C13.3528 2.89628 11.2784 1.15016 9.14973 0.435673C8.1338 0.0947057 6.64815 -0.0518395 5.35565 0.0615206ZM6.93484 0.692032C10.2881 1.1 13.2997 3.42376 15.263 7.11803C15.5978 7.74804 15.5831 7.75152 15.1297 7.1497C14.4229 6.21159 13.3368 5.20566 12.2367 4.47009C11.6255 4.06155 10.4919 3.44314 10.4433 3.49184C10.4288 3.50634 10.6307 3.65358 10.8919 3.81906C12.6592 4.9386 14.3981 6.71405 15.483 8.50666C15.6572 8.79437 15.5759 8.76156 15.1661 8.3788C14.4841 7.74177 13.7083 7.16502 12.8545 6.66035C12.3076 6.33711 11.904 6.1292 12.0015 6.22103C12.0179 6.23648 12.302 6.46802 12.6329 6.73558C13.4555 7.40074 14.917 8.73864 15.2611 9.14142L15.5439 9.47244L15.4658 9.74172L15.3877 10.011L15.1344 9.8065C14.5481 9.33337 13.3009 8.56201 12.4745 8.16139C11.1351 7.51213 9.99423 7.13101 8.68369 6.89505C7.71785 6.72114 7.60265 6.74622 8.38978 6.95901C10.7339 7.59281 13.0772 8.77474 14.8152 10.2C15.256 10.5614 15.3921 10.7112 15.4248 10.8709L15.4668 11.0766L15.2373 10.9386C15.111 10.8627 14.9351 10.7507 14.8463 10.6898C14.5004 10.4524 12.9823 9.72943 12.1408 9.40138C9.99215 8.56366 7.98016 8.07501 5.53994 7.79819C4.8328 7.71795 3.20846 7.75773 2.701 7.86767C1.83604 8.05506 1.20293 8.44219 1.00433 8.90507C0.901294 9.14509 0.889705 9.66654 0.981976 9.90922C1.09572 10.2083 0.996415 10.15 0.79547 9.7996C0.68876 9.61347 0.601175 9.39752 0.600795 9.31962C0.600479 9.24173 0.773875 8.75726 0.986093 8.24302C2.10703 5.52675 3.34443 3.10008 4.48214 1.38669C5.01 0.59178 4.95275 0.626738 5.72683 0.626738C6.0961 0.626738 6.63972 0.656124 6.93484 0.692032ZM33.9591 1.27587C35.1454 3.02712 36.3384 5.34537 37.4992 8.1548C37.7204 8.69013 37.9014 9.21139 37.9014 9.31304C37.9014 9.46864 37.6882 9.99953 37.6257 9.99953C37.6149 9.99953 37.6185 9.84969 37.6336 9.66654C37.672 9.20411 37.5635 8.86194 37.2747 8.53383C36.5859 7.75126 35.2438 7.50789 33.12 7.7804C30.4559 8.12225 28.1048 8.68937 26.0904 9.47605C25.356 9.76287 24.0019 10.4482 23.4855 10.7945L23.0823 11.0649V10.7906C23.0823 10.5248 23.0954 10.5068 23.5097 10.2069C25.0331 9.10392 27.3535 7.92378 29.0828 7.37224C29.4589 7.25229 29.5155 7.19865 29.2094 7.25223C27.764 7.50542 25.6543 8.3066 24.2855 9.12223C24.0243 9.27789 23.7251 9.45635 23.6206 9.5188C23.3666 9.67066 24.3555 8.71812 25.1088 8.08539C25.4397 7.80744 26.0524 7.32322 26.4704 7.00936C27.5637 6.18835 27.5704 6.15947 26.5359 6.72843C25.4474 7.32721 24.2168 8.21693 23.2882 9.07663C22.8303 9.50056 22.7202 9.44761 23.0282 8.95168C24.1635 7.12373 25.8806 5.09655 27.6103 3.54225C28.1386 3.06759 28.0637 3.09818 27.2767 3.67847C25.6396 4.88566 24.1796 6.39886 22.9854 8.12611C22.7465 8.47164 22.5392 8.71869 22.5247 8.67518C22.483 8.55004 23.4083 6.74173 23.8887 6.00976C25.1842 4.03571 26.7318 2.5714 28.4653 1.67947C29.3541 1.22216 30.163 0.932304 30.9453 0.790635C31.7111 0.652007 31.7714 0.646623 32.6864 0.636237L33.5194 0.626738L33.9591 1.27587ZM32.8984 1.72956C32.8984 1.74831 33.1731 2.11347 33.5089 2.54094C34.6913 4.04641 35.6348 5.63795 36.4234 7.45735C36.5691 7.79351 36.5783 7.66045 36.447 7.11449C36.0948 5.64916 35.0917 3.82793 33.9899 2.65329C33.5476 2.18174 32.8984 1.63235 32.8984 1.72956ZM4.83553 2.41751C3.80642 3.79747 2.29037 6.25383 1.93439 7.11803L1.80393 7.43468L2.02856 7.18294C2.8414 6.27201 5.42785 2.08953 5.33881 1.83C5.32753 1.79707 5.101 2.06147 4.83553 2.41751ZM21.4777 8.47151C22.1538 8.96118 22.6527 10.0442 22.5421 10.7818C22.4844 11.1661 22.1772 11.6785 21.8936 11.863C21.1485 12.3479 18.8677 12.631 17.7772 12.3739C16.9807 12.1861 16.3645 11.7374 16.0951 11.1489C15.9033 10.7302 15.9076 10.0201 16.1045 9.58789C16.2858 9.18986 16.687 8.77214 17.0976 8.5541C17.4121 8.38703 17.4236 8.38589 18.7864 8.38526C19.541 8.38494 20.1799 8.36328 20.206 8.33713C20.2321 8.31097 20.4725 8.28963 20.7401 8.28963C21.1755 8.28963 21.2532 8.30882 21.4777 8.47151ZM6.07824 8.57195C6.60071 8.66169 7.24193 8.78968 7.50316 8.85643L7.97813 8.97777L7.50316 8.9349C6.69362 8.86175 5.10354 8.90266 4.3178 9.01691C3.49971 9.13578 2.9856 9.26358 3.55639 9.20608C3.96727 9.16472 6.06545 9.16713 6.61655 9.20956C7.08132 9.24534 8.75158 9.53982 8.87222 9.6072C8.91554 9.6314 8.67457 9.64698 8.33664 9.64178C7.62013 9.63076 6.79254 9.7053 6.07824 9.84526C5.52436 9.95374 4.25732 10.3213 4.29779 10.3618C4.31166 10.3756 4.54699 10.3446 4.82064 10.2929C5.09435 10.2411 5.60327 10.1692 5.95158 10.133C7.03743 10.0201 8.76976 10.0216 8.76976 10.1354C8.76976 10.1651 8.69699 10.1895 8.60801 10.1895C8.33208 10.1895 6.93332 10.5479 6.26823 10.7891C5.91992 10.9153 5.37117 11.1595 5.04882 11.3317L4.46264 11.6448L3.94055 11.522C2.74355 11.2404 2.4138 11.0573 2.0069 10.4479C1.31319 9.40898 1.62161 8.62604 2.81676 8.39241C3.24354 8.30895 5.1618 8.41458 6.07824 8.57195ZM35.6288 8.41718C36.1148 8.50869 36.6223 8.77284 36.7666 9.00937C37.033 9.44622 36.8485 10.1252 36.2977 10.735C35.9562 11.1133 35.6703 11.2497 34.7279 11.4842L34.0558 11.6514L33.5987 11.4033L33.1417 11.1553L33.5425 11.1176C33.7629 11.0968 34.1948 11.0612 34.5022 11.0385C34.8096 11.0157 35.0376 10.9756 35.0088 10.9494C34.9419 10.8885 32.9975 10.6957 32.4523 10.696C32.2022 10.6961 31.8257 10.6352 31.5024 10.5423C31.2078 10.4577 30.8528 10.3686 30.7135 10.3442C30.336 10.2782 30.2222 10.1955 30.4918 10.1833C30.6137 10.1777 30.7847 10.1661 30.8718 10.1574C31.2918 10.1156 34.1698 9.99522 34.4327 10.0085C34.9659 10.0354 34.8156 9.95868 34.1812 9.88003C33.2849 9.76901 31.4847 9.6744 30.9683 9.71126C30.7237 9.72867 30.267 9.75989 29.9535 9.7806C29.4207 9.81581 28.9764 9.87009 28.3703 9.97401C27.8985 10.0549 28.1885 9.93569 28.7747 9.80777C30.2382 9.48833 31.8449 9.27377 33.8166 9.13445L34.5133 9.08524L34.0383 9.04401C32.9319 8.94801 30.7354 9.00678 30.1119 9.14908C30.0055 9.17333 29.9743 9.16421 30.0169 9.12121C30.1131 9.02394 32.1575 8.6097 33.3329 8.44928C34.0853 8.34663 35.1732 8.33143 35.6288 8.41718ZM19.6625 8.92559C19.4709 8.95206 18.965 8.97657 18.5384 8.97999C18.1117 8.98341 17.7626 9.01153 17.7626 9.04237C17.7626 9.07321 17.8695 9.15161 18.0001 9.21652C18.1842 9.30803 18.3802 9.33457 18.8725 9.33457C19.4269 9.33457 19.5469 9.31431 19.8176 9.17498C19.9882 9.08721 20.1394 8.98037 20.1537 8.93749C20.1816 8.85365 20.1827 8.85364 19.6625 8.92559ZM12.6012 10.5594L12.9178 10.6015L12.2846 10.7148C11.3556 10.881 9.66821 11.2498 9.33972 11.3584C9.05816 11.4515 9.06234 11.4522 9.68804 11.4184C10.6603 11.3659 13.1206 11.0951 13.7411 10.9723C13.8456 10.9516 13.9166 10.9502 13.8989 10.969C13.8811 10.988 13.5069 11.0763 13.0672 11.1653C12.1034 11.3604 11.0259 11.6812 10.2709 11.9977C9.96447 12.1261 9.72223 12.2393 9.73256 12.2491C9.74288 12.2589 10.1076 12.1846 10.543 12.084C11.5174 11.8588 13.3866 11.541 14.0261 11.4918L14.5011 11.4552L13.9402 11.5783C12.6804 11.8548 11.4014 12.2967 10.3242 12.8275C9.26335 13.3504 8.80889 13.805 8.57761 14.5751C8.49826 14.8393 8.54709 14.7857 8.73423 14.4032C8.82871 14.21 9.0346 13.9417 9.20021 13.796C9.74997 13.3121 11.1346 12.7551 12.8665 12.3211C13.72 12.1071 15.4085 11.8042 15.46 11.8556C15.4742 11.8698 14.7239 12.1451 13.7928 12.4675C11.1047 13.3981 10.4391 13.727 9.57613 14.5515C8.99065 15.1109 8.46134 15.8809 8.07161 16.7403C7.92057 17.0733 7.78074 17.3443 7.76091 17.3425C7.74103 17.3408 7.28309 16.6426 6.74321 15.791C6.20332 14.9394 5.73829 14.2427 5.70979 14.2426C5.66242 14.2426 4.5874 14.9619 3.07667 16.0043L2.48162 16.415L2.52608 16.0216C2.74153 14.1177 3.81446 12.5729 5.53994 11.6823C6.74447 11.0606 8.01581 10.7352 9.97302 10.5477C10.3829 10.5084 12.2814 10.5169 12.6012 10.5594ZM29.3202 10.6593C32.639 11.1516 34.7223 12.3231 35.5312 14.152C35.7409 14.6262 35.9252 15.361 35.9766 15.9274L36.0196 16.4032L35.2031 15.8417C34.7541 15.5329 34.0273 15.0349 33.5881 14.7349L32.7896 14.1897L31.8149 15.7328C31.2788 16.5814 30.8245 17.2773 30.8054 17.2792C30.7863 17.281 30.7329 17.1756 30.6868 17.045C30.2335 15.7592 29.322 14.4626 28.4181 13.8176C27.7502 13.3409 26.2854 12.7829 23.9534 12.1165C23.4747 11.9797 23.0828 11.8492 23.0826 11.8265C23.0824 11.8039 23.1872 11.7234 23.3155 11.6476L23.5488 11.51L24.3624 11.6733C26.1919 12.0406 27.5865 12.6434 29.6686 13.9671C29.9687 14.1579 29.1292 13.4224 28.6468 13.0719C27.4476 12.2007 26.1364 11.6021 24.5483 11.2008C24.3967 11.1625 24.2839 11.12 24.2976 11.1063C24.3794 11.0245 27.4913 11.8127 28.9344 12.2809C29.4885 12.4606 29.9872 12.6207 30.0427 12.6368C30.0981 12.6527 29.8672 12.5224 29.5295 12.3471C28.8107 11.9739 28.0719 11.6602 27.1037 11.317C26.6751 11.1651 26.5045 11.0833 26.6604 11.1045C27.5713 11.2283 29.7773 11.4583 29.8858 11.4407C30.028 11.4177 28.0415 10.9192 26.9137 10.695C26.5306 10.6188 26.2028 10.5413 26.1854 10.5229C26.1219 10.4556 28.7047 10.568 29.3202 10.6593ZM20.2641 10.6675C19.9506 10.7114 19.2809 10.7542 18.7758 10.7627C18.2708 10.7711 17.7872 10.7963 17.7012 10.8187L17.5448 10.8593L17.7329 10.9328C18.2919 11.1512 19.3145 11.2124 19.9918 11.0679C20.3746 10.9862 20.955 10.7446 21.0197 10.6399C21.0704 10.5578 21.0375 10.559 20.2641 10.6675ZM20.5491 11.5598C19.7215 11.7708 18.6582 11.817 17.6725 11.6847C17.2573 11.629 16.9041 11.5969 16.8875 11.6134C16.8286 11.6723 17.5491 11.9625 18.0094 12.0651C18.5575 12.1874 19.7006 12.1562 20.1691 12.0063C20.5426 11.8866 20.9847 11.6743 21.1824 11.5195C21.3836 11.362 21.3057 11.3669 20.5491 11.5598ZM16.4391 12.4107C16.7682 12.645 17.3777 12.8519 18.0362 12.9528C19.2158 13.1337 20.8171 12.9394 21.8737 12.4871L22.4067 12.259L22.5559 12.4434C22.7132 12.6375 23.3989 13.7154 23.3989 13.7684C23.3989 13.7854 22.6366 13.7974 21.7048 13.795C20.7731 13.7927 20.0678 13.7682 20.1374 13.7407C20.2071 13.7132 20.5143 13.6307 20.8202 13.5573C21.3259 13.4361 22.2409 13.0635 22.1808 13.0034C22.1672 12.9897 21.8015 13.0511 21.3684 13.1398C20.3104 13.3564 18.6492 13.4119 17.5129 13.2686C17.0795 13.214 16.7117 13.1824 16.6957 13.1986C16.644 13.2502 17.2103 13.4707 17.6676 13.5769C17.9114 13.6335 18.1928 13.6996 18.2929 13.7238C18.393 13.7479 17.7411 13.7617 16.8442 13.7545C15.9474 13.7472 15.2009 13.7286 15.1854 13.7131C15.1447 13.6724 15.7792 12.6601 15.9748 12.4536C16.1725 12.2448 16.2023 12.242 16.4391 12.4107ZM24.8001 13.1092C25.5794 13.3915 26.3168 13.6605 26.4387 13.7071C26.6341 13.7818 26.5073 13.7904 25.3692 13.7797L24.0781 13.7676L23.7088 13.1818C23.5057 12.8597 23.3494 12.596 23.3614 12.596C23.3733 12.596 24.0207 12.8269 24.8001 13.1092ZM14.8144 13.1783C14.66 13.4288 14.512 13.6544 14.4856 13.6794C14.4293 13.7331 12.7591 13.7912 12.7603 13.7395C12.7608 13.7202 13.1384 13.5521 13.5995 13.3661C14.0605 13.1801 14.566 12.9605 14.7227 12.8782C14.8795 12.7958 15.0274 12.7271 15.0516 12.7256C15.0756 12.724 14.9689 12.9277 14.8144 13.1783ZM14.3806 15.715C14.357 16.4901 14.3254 17.3094 14.3103 17.5358C14.2952 17.7622 14.2672 18.5601 14.2481 19.309C14.229 20.0579 14.196 20.92 14.1749 21.2247L14.1364 21.7789H8.98324H3.83004V18.973V16.1671L4.69075 15.5779C5.16408 15.2539 5.5735 15.0132 5.60048 15.0432C5.70409 15.1582 7.58245 18.1349 7.67858 18.3365C7.73431 18.4534 7.7965 18.549 7.81677 18.549C7.83697 18.549 7.94989 18.3852 8.06762 18.1849C8.64848 17.1968 9.62755 15.7996 10.065 15.3347C10.3327 15.0501 10.7241 14.7021 10.9346 14.5616L11.3174 14.306H12.8704H14.4234L14.3806 15.715ZM23.1383 14.3469L23.5296 14.3878L23.4944 16.3892C23.475 17.49 23.4308 20.7133 23.3963 23.5521C23.3617 26.3908 23.2926 30.5801 23.2427 32.8615C23.1195 38.5009 23.0832 40.3358 23.0827 40.9524L23.0823 41.4754L19.2667 41.4591L15.451 41.4427L15.4373 39.1312C15.4195 36.1249 15.3101 31.1263 15.1872 27.7002C15.1334 26.2024 15.0759 22.576 15.0592 19.6415L15.0288 14.306H18.8879C21.0104 14.306 22.9231 14.3244 23.1383 14.3469ZM28.4519 14.8619C29.1926 15.5981 29.8564 16.7056 30.3675 18.0582C30.4827 18.363 30.5934 18.6111 30.6136 18.6096C30.6337 18.608 31.1631 17.7963 31.7901 16.8057C32.4171 15.8151 32.9443 15.0049 32.9617 15.0052C32.9791 15.0056 33.3781 15.2688 33.8483 15.5902L34.7033 16.1746L34.7197 18.9767L34.7363 21.7789H29.4577H24.1792L24.1374 20.0587C24.1143 19.1125 24.0955 17.4383 24.0955 16.3381V14.3376L26.0277 14.3552L27.96 14.3729L28.4519 14.8619ZM15.9602 17.2256C15.9353 17.7619 15.9042 18.4002 15.8912 18.644C15.8783 18.8879 15.8486 20.384 15.8252 21.9688C15.7692 25.7662 15.8862 29.9889 16.1489 33.6532C16.2625 35.2376 16.4935 37.5668 16.5414 37.6113C16.5763 37.6437 16.5425 36.3426 16.431 33.3682C16.2902 29.611 16.242 27.504 16.1731 22.0955C16.1334 18.9781 16.0794 16.3877 16.0532 16.339C16.027 16.2904 15.9852 16.6894 15.9602 17.2256ZM5.47737 16.57C5.47902 16.6746 5.90491 17.3688 6.17033 17.6996C6.32548 17.8929 6.62472 18.1815 6.83529 18.3409C7.24478 18.6509 7.83824 18.9545 7.95711 18.9149C7.99688 18.9017 7.74717 18.6442 7.40215 18.3429C7.05713 18.0416 6.50926 17.5087 6.18464 17.1588C5.64773 16.5799 5.47522 16.4364 5.47737 16.57ZM22.4259 20.1106C22.3573 25.6216 22.2293 30.0204 21.9758 35.5847C21.8299 38.7891 21.7976 39.735 21.8356 39.6998C21.8802 39.6583 22.1641 36.8504 22.29 35.2047C22.5773 31.4503 22.7168 27.6463 22.721 23.4571C22.7242 20.291 22.6214 16.9123 22.5162 16.7225C22.4903 16.6757 22.4497 18.2004 22.4259 20.1106ZM32.0743 17.5137C31.3326 18.2133 30.4436 19.3875 30.5089 19.581C30.5449 19.6874 31.4374 18.8125 31.9169 18.2007C32.3214 17.6847 32.6243 17.1773 32.5639 17.1168C32.5455 17.0984 32.3251 17.277 32.0743 17.5137ZM14.1528 22.4692C14.1528 22.5781 14.0843 22.5935 13.4403 22.6293C9.41021 22.8536 7.16067 23.0183 6.8382 23.1126C6.72541 23.1456 8.18155 23.1623 10.4214 23.1538L14.1945 23.1394L14.2712 25.2931C14.3134 26.4777 14.4454 30.0545 14.5646 33.2415C14.6838 36.4286 14.8009 39.5707 14.8247 40.224L14.8681 41.4118L9.96656 41.3956L5.06497 41.3794L5.04895 31.8887L5.03286 22.3981L7.55047 22.4363C8.93511 22.4572 10.7805 22.4508 11.6513 22.422C14.3048 22.3343 14.1528 22.3315 14.1528 22.4692ZM33.4683 31.8799V41.4111H28.5603H23.6522V41.2448C23.6522 41.0717 24.0815 24.623 24.1106 23.6804L24.1272 23.1437L25.4255 23.1624C26.1395 23.1726 27.2224 23.15 27.832 23.1122C28.8962 23.0462 30.8412 22.832 31.2042 22.7408C31.2999 22.7168 29.8892 22.6968 28.0693 22.6962C26.2494 22.6957 24.6251 22.6726 24.4597 22.6448C24.2216 22.6049 24.1589 22.5688 24.1589 22.4716C24.1589 22.3512 24.2501 22.3488 28.8136 22.3488H33.4683V31.8799ZM5.51252 34.5714C5.4395 35.14 5.37402 37.0113 5.35882 38.9662L5.34602 40.6062L7.64369 40.5634C8.90743 40.5398 10.0981 40.4992 10.2897 40.4731L10.638 40.4257L10.258 40.3818C10.049 40.3577 9.4363 40.3232 8.89641 40.3051C6.2037 40.215 5.8279 40.2002 5.812 40.1843C5.80251 40.1749 5.76425 39.0007 5.72695 37.5751C5.68965 36.1495 5.63804 34.7979 5.61226 34.5714L5.5654 34.1598L5.51252 34.5714ZM32.4333 35.2771C32.4109 35.5682 32.3736 36.7682 32.3504 37.9438L32.3083 40.0811L31.6693 40.0813C30.7443 40.0815 28.092 40.1985 27.832 40.2506C27.6145 40.2942 27.6169 40.2959 27.9587 40.3447C28.1502 40.3719 29.2973 40.4134 30.5077 40.4368L32.7084 40.4792V39.0641C32.7084 37.4968 32.597 34.9678 32.5221 34.8338C32.4954 34.7859 32.456 34.9823 32.4333 35.2771Z" fill="#444E9E"/>
</svg>
