<svg width="35" height="42" viewBox="0 0 35 42" fill="none" xmlns="http://www.w3.org/2000/svg">
<path fill-rule="evenodd" clip-rule="evenodd" d="M10.775 0.0362327C10.1408 0.149628 9.4762 0.551106 9.27341 0.943275C8.93322 1.6011 9.10561 2.4052 9.78284 3.31986C10.0515 3.68259 11.0617 4.785 11.4676 5.15812L11.7486 5.41647L12.0208 5.14428L12.2929 4.8721L12.0985 4.67154C11.9916 4.56123 11.9041 4.43 11.9041 4.37995C11.9041 4.25217 12.3673 3.30717 12.5436 3.07542C12.7081 2.85903 12.7335 2.69359 12.6023 2.69359C12.4928 2.69359 12.0417 3.32373 11.7859 3.83401C11.5932 4.21856 11.5929 4.2188 11.4951 4.07924C11.2773 3.76819 11.4331 3.09615 11.9044 2.31478C12.1732 1.86912 12.1945 1.78661 12.0401 1.78763C11.859 1.78884 11.3643 2.60334 11.1136 3.31315C11.0696 3.43785 11.0143 3.53982 10.9907 3.53982C10.967 3.53982 10.8794 3.45858 10.7959 3.35933C10.6602 3.19813 10.6506 3.15461 10.7055 2.95133C10.7393 2.82621 10.9153 2.42727 11.0966 2.06478C11.3072 1.64396 11.4053 1.38483 11.3683 1.34777C11.2876 1.26708 11.0055 1.67176 10.6928 2.31677C10.5521 2.60715 10.4277 2.85534 10.4164 2.8684C10.3801 2.91047 10.1552 2.60582 10.1536 2.51225C10.1519 2.41367 10.361 1.78903 10.5886 1.21268C10.7181 0.885187 10.7538 0.844507 10.9579 0.79337C11.2819 0.712192 12.1227 0.825226 13.2339 1.09934C14.0844 1.30915 14.2461 1.33055 14.9868 1.33115C15.5771 1.3317 16.0281 1.29241 16.6171 1.18911C18.3116 0.892017 18.8349 1.05673 20.2397 2.32928C20.9074 2.93422 21.0605 3.02344 21.2768 2.93386C21.5426 2.82373 21.5459 2.70157 21.2904 2.42636L21.0616 2.17998L21.2882 2.38816C21.6415 2.71275 21.5679 2.47042 21.1843 2.04664C20.8188 1.64275 20.821 1.62099 21.2488 1.40447C21.6523 1.20035 22.1706 1.15671 22.9174 1.26412C23.2984 1.31894 23.812 1.36398 24.0586 1.36416C24.6234 1.36458 25.2005 1.45718 25.308 1.56465C25.4924 1.74913 25.3259 1.97943 24.2194 3.0692C23.4908 3.7868 23.1437 4.16948 23.1668 4.22968C23.1874 4.28354 23.1722 4.30941 23.1287 4.2943C23.0889 4.28046 22.8721 4.4951 22.6472 4.77127C22.1898 5.33269 22.0123 5.53573 21.5568 6.0182C21.3842 6.20117 21.1446 6.46694 21.0244 6.60893L20.8059 6.86703L20.4804 6.78253C20.3013 6.73599 20.0121 6.67844 19.8376 6.65457C19.663 6.63069 19.5202 6.59823 19.5202 6.5824C19.5202 6.51349 19.8942 6.01808 19.9462 6.01808C19.9779 6.01808 20.0038 5.96368 20.0038 5.89719C20.0038 5.8307 19.9685 5.7763 19.9254 5.7763C19.8371 5.7763 19.4852 6.13184 19.2879 6.4204C19.1595 6.60809 19.1083 6.61951 18.8079 6.52757C18.6578 6.48163 18.9955 5.96325 19.6263 5.2711C19.9325 4.93514 19.9849 4.81292 19.8429 4.76559C19.734 4.72932 18.6762 5.88999 18.5109 6.22698L18.3551 6.54456L17.5928 6.5836C17.1735 6.60506 16.5673 6.67167 16.2459 6.73163C15.6755 6.83814 15.6633 6.83802 15.7405 6.72771C15.7841 6.66557 15.808 6.56886 15.7936 6.51282C15.7793 6.45679 15.8625 6.26137 15.9785 6.07852C16.166 5.78325 16.1795 5.73592 16.0991 5.65541C16.0187 5.57483 15.9952 5.58154 15.8882 5.71585C15.6734 5.98538 15.4111 6.46827 15.4105 6.59533C15.4102 6.66345 15.4406 6.74989 15.4781 6.78736C15.5286 6.8379 15.4779 6.87241 15.2816 6.92101C15.0598 6.97595 14.7895 7.07527 14.337 7.26815C14.2955 7.28586 14.2615 7.26071 14.2615 7.21224C14.2615 7.16376 14.1963 7.00152 14.1166 6.85168C14.0214 6.6727 13.99 6.55036 14.025 6.49511C14.1101 6.36074 14.0885 6.19941 13.9854 6.19941C13.9157 6.19941 13.9011 6.16345 13.9303 6.06341C14.0284 5.72649 14.3274 5.16622 14.5267 4.94548C14.7514 4.69681 14.7886 4.60148 14.6859 4.53796C14.5119 4.43042 13.8892 5.19844 13.6811 5.77714C13.6185 5.95129 13.5355 6.07852 13.4846 6.07852C13.4118 6.07852 13.4138 6.05936 13.4965 5.96797C13.6198 5.83173 13.627 5.65541 13.5092 5.65541C13.4357 5.65541 13.4393 5.60445 13.5314 5.33674C13.6623 4.95606 13.9373 4.39645 14.0641 4.25229C14.1669 4.13545 14.1278 3.96294 13.9985 3.96294C13.8297 3.96294 13.3075 4.83118 13.1146 5.43267C13.0434 5.65444 13.0362 5.65928 12.9257 5.5593C12.8625 5.50212 12.8108 5.39156 12.8108 5.31359C12.8108 5.22606 12.7751 5.17184 12.7174 5.17184C12.6424 5.17184 12.6321 5.12699 12.6649 4.94518C12.6874 4.82054 12.7294 4.67269 12.7583 4.61672C12.8393 4.45968 12.8211 4.4239 12.705 4.51203C12.6469 4.55621 12.6839 4.49836 12.7874 4.3834C13.1264 4.007 13.2977 3.70744 13.2246 3.61925C13.1883 3.57555 13.1369 3.53982 13.1102 3.53982C13.0422 3.53982 12.5414 4.30736 12.4229 4.59308L12.3246 4.83033L12.4619 4.71621C12.5375 4.65341 12.4145 4.79328 12.1887 5.02702L11.7781 5.45195L12.3096 5.96398C12.6019 6.2456 12.9906 6.58753 13.1735 6.72384C13.8385 7.21973 14.0275 7.52407 13.8653 7.83772C13.702 8.15361 13.8048 8.6457 14.0647 8.79107C14.1627 8.84595 14.1609 8.85985 14.0384 8.99053C13.7552 9.29288 13.7039 9.73945 13.8912 10.2723L14.0045 10.5947L13.5739 10.8258C12.8427 11.2183 12.7377 11.2797 12.1459 11.6603C10.9546 12.4264 9.77384 13.4179 8.48738 14.7324C7.08843 16.1618 5.976 17.4832 4.63333 19.3102C3.64076 20.6609 2.82535 21.9589 2.11294 23.3223C1.66915 24.1715 1.14207 25.3144 0.963818 25.8139L0.855923 26.1161L1.16661 26.4486L1.4773 26.781L1.16135 26.4824C0.987573 26.3182 0.835856 26.1958 0.82425 26.2104C0.723367 26.3369 0.382637 27.5189 0.204626 28.3595C0.014646 29.2568 -0.0589165 30.8145 0.0521215 31.589C0.386021 33.9176 1.51387 35.8565 3.56139 37.6217C6.42614 40.0916 10.688 41.5471 16.0748 41.8956L16.7095 41.9367L16.498 41.703L16.2866 41.4692L16.5461 41.711L16.8057 41.9528L18.1404 41.9712C19.4605 41.9895 19.4768 41.9882 19.6332 41.8503L19.7914 41.711L19.6709 41.8555L19.5504 42L21.1522 41.9632C24.6861 41.8823 27.2917 41.3795 29.3426 40.3828C30.5641 39.7891 31.1549 39.3651 32.1116 38.3955C33.9465 36.5359 34.9583 33.8846 34.9524 30.9518C34.9457 27.5849 33.6591 24.2589 30.7162 20.0005C28.3291 16.5464 26.2512 14.0928 24.3896 12.5299C23.5513 11.8261 22.9764 11.4421 21.9682 10.9126C21.5693 10.7031 21.2313 10.5222 21.2171 10.5107C21.2029 10.4992 21.261 10.4152 21.3462 10.3242C21.5756 10.079 21.6962 9.8028 21.6962 9.52294C21.6962 9.24283 21.6285 9.08308 21.4109 8.84952L21.2612 8.68885L21.4032 8.49688C21.5245 8.33271 21.5459 8.23062 21.5503 7.79269L21.5555 7.28048L21.9201 6.9062C22.1206 6.70032 22.6025 6.15366 22.991 5.69143L23.6973 4.851L23.4684 4.60342L23.2395 4.35583L23.4719 4.57513L23.7044 4.79436L24.7825 3.72593C25.6906 2.82596 25.8897 2.59597 26.0451 2.26751C26.1465 2.05305 26.2296 1.8019 26.2296 1.70942C26.2297 1.31405 25.9242 0.925443 25.4516 0.719869C25.3055 0.65628 24.9196 0.608046 24.2954 0.575164C23.7801 0.548084 23.1256 0.506739 22.8409 0.483347C22.5135 0.456388 22.1694 0.467572 21.9043 0.513752C21.4202 0.598013 20.831 0.8896 20.65 1.13434C20.5133 1.31931 20.4163 1.3456 20.3162 1.22489C20.2803 1.18173 20.1206 1.0548 19.9612 0.942731L19.6713 0.739092L19.8519 0.945633C19.9622 1.07184 19.9152 1.04186 19.731 0.868504C19.5244 0.674112 19.2774 0.523664 18.946 0.390382C18.5195 0.218899 18.391 0.195264 17.858 0.190489C17.2357 0.184928 17.112 0.198771 15.9887 0.399509C15.0065 0.575103 14.5369 0.554432 13.1788 0.2759C11.9007 0.0136882 11.2589 -0.0502645 10.775 0.0362327ZM16.7397 0.477968C16.7397 0.489452 16.6785 0.550623 16.6037 0.613969L16.4677 0.729118L16.5829 0.593116C16.6911 0.465334 16.7397 0.429611 16.7397 0.477968ZM10.3238 1.37425C10.1896 1.64595 10.0516 1.93833 10.0172 2.02404L9.95463 2.1798L9.90041 1.99847C9.83422 1.77718 9.88427 1.45833 10.017 1.25578C10.1082 1.11669 10.4276 0.880956 10.5257 0.880472C10.5488 0.880351 10.458 1.10255 10.3238 1.37425ZM16.2562 0.96038C16.2562 0.9712 16.1814 1.04597 16.0899 1.12661L15.9237 1.27313L16.0702 1.1069C16.2072 0.951556 16.2562 0.912931 16.2562 0.96038ZM20.2153 1.30335C20.2755 1.36984 20.3111 1.42424 20.2945 1.42424C20.2779 1.42424 20.215 1.36984 20.1549 1.30335C20.0947 1.23686 20.0591 1.18246 20.0757 1.18246C20.0923 1.18246 20.1552 1.23686 20.2153 1.30335ZM20.9105 2.01104C20.9105 2.05644 20.8562 2.00844 20.6057 1.74158L20.3362 1.45446L20.6233 1.72393C20.7812 1.87214 20.9105 2.00137 20.9105 2.01104ZM18.0319 3.31503C17.5423 3.83335 17.1327 4.36236 17.0759 4.54998C17.0535 4.62355 17.0659 4.74093 17.1032 4.81081C17.1577 4.91254 17.1885 4.92353 17.2577 4.86611C17.3053 4.82664 17.3442 4.75556 17.3442 4.70811C17.3442 4.54853 17.518 4.28378 18.0672 3.60643C18.3677 3.23584 18.6135 2.91971 18.6135 2.90382C18.6135 2.78057 18.3823 2.94401 18.0319 3.31503ZM18.7763 3.50029C18.6965 3.62221 18.1868 4.23162 17.6612 4.83371C17.2753 5.27569 17.0951 5.85179 17.3162 5.93666C17.4365 5.98284 17.6713 5.77702 17.5905 5.69621C17.5019 5.60759 17.6585 5.34508 18.2457 4.59761C18.9242 3.73379 19.0367 3.57132 19.0367 3.45496C19.0367 3.3114 18.8825 3.3383 18.7763 3.50029ZM18.7949 4.69898C17.8661 5.83668 17.7607 5.99892 17.7811 6.25938C17.793 6.41248 17.8296 6.4765 17.9144 6.49257C18.0527 6.51887 18.1887 6.35766 18.1512 6.21175C18.1219 6.09726 18.2874 5.82979 18.821 5.12899C19.6031 4.10196 19.7041 3.95563 19.6697 3.89989C19.5882 3.768 19.4571 3.88781 18.7949 4.69898ZM15.1726 5.55912C14.8306 5.98888 14.6846 6.287 14.6846 6.55519C14.6846 6.81033 14.7416 6.92476 14.8688 6.92476C15.0232 6.92476 15.0669 6.82962 15.0796 6.4661C15.0891 6.19488 15.133 6.09031 15.3975 5.71005C15.5664 5.46736 15.691 5.24698 15.6746 5.22032C15.6017 5.10251 15.4597 5.19838 15.1726 5.55912ZM20.2456 7.45547C20.66 7.57267 20.9105 7.73926 20.9105 7.89762C20.9105 7.92664 20.8335 8.03653 20.7395 8.14182L20.5685 8.33319L20.0897 8.23787C18.8036 7.9817 18.4839 7.97264 16.4073 8.13336C15.7033 8.18782 15.3885 8.24162 14.9992 8.37387L14.4978 8.54427L14.4032 8.39986C14.2588 8.17936 14.3438 7.97415 14.6637 7.77123C15.2191 7.41902 16.2039 7.29045 18.1904 7.31076C19.6091 7.32533 19.8441 7.34183 20.2456 7.45547ZM19.4338 8.92308C20.2157 9.07395 20.6974 9.24658 20.8184 9.41933C20.9006 9.53678 20.897 9.56066 20.7775 9.68789C20.5396 9.9411 20.3253 9.95639 17.2705 9.93802L14.37 9.92055L14.4019 9.68275C14.4661 9.20439 15.055 8.93015 16.1655 8.86167C17.659 8.76949 18.7437 8.78986 19.4338 8.92308ZM18.5995 10.821C18.6083 10.829 18.5203 10.9939 18.4039 11.1873C18.1861 11.5488 18.0861 11.8824 18.1598 12.0014C18.2378 12.1278 18.3207 12.0298 18.4421 11.6681C18.5087 11.4695 18.6357 11.1915 18.7243 11.0503L18.8855 10.7935L19.2957 10.7934C19.7763 10.7933 19.7786 10.7573 19.2495 11.5186C18.8405 12.107 18.7344 12.318 18.7344 12.5431C18.7344 12.882 18.851 12.7863 19.1723 12.1835C19.2876 11.9674 19.5083 11.573 19.6629 11.307C19.9342 10.8403 19.9529 10.8224 20.2005 10.792C20.4196 10.7652 20.4757 10.7823 20.5844 10.9092L20.7117 11.0578L20.2634 11.66C19.7524 12.3467 19.538 12.7372 19.4894 13.07C19.4537 13.3148 19.5243 13.4948 19.6304 13.4293C19.6652 13.4078 19.7387 13.2349 19.7939 13.0453C19.9235 12.5995 20.2486 12.0363 20.8731 11.1759C20.8771 11.1703 21.0359 11.2622 21.2259 11.3801L21.5712 11.5945L21.2974 11.9041C21.1467 12.0744 20.9012 12.4632 20.7517 12.7681C20.5329 13.2145 20.4836 13.3735 20.4988 13.5841C20.5291 14.0064 20.6745 13.9246 20.8394 13.3924C21.0363 12.7571 21.2173 12.3853 21.5091 12.0164L21.7609 11.6982L22.1177 11.9406C22.3139 12.0738 22.4904 12.2086 22.5098 12.24C22.5292 12.2714 22.4688 12.3872 22.3755 12.4972C22.0764 12.8499 21.5802 13.613 21.3938 14.0071C21.1991 14.4187 21.1449 14.9035 21.2936 14.9035C21.3751 14.9035 21.5149 14.661 21.5149 14.5197C21.5149 14.2741 22.576 12.4975 22.754 12.445C22.7873 12.4352 22.9207 12.517 23.0505 12.6268L23.2865 12.8264L23.0618 13.2099C22.9382 13.4207 22.7561 13.7717 22.6573 13.9897C22.5584 14.2078 22.3944 14.5157 22.2928 14.674C22.1913 14.8322 22.0744 15.0778 22.033 15.2197C21.9013 15.6722 22.0871 16.0148 22.2309 15.5845C22.4003 15.0772 23.3916 13.0769 23.4889 13.0457C23.5274 13.0335 23.7383 13.1913 23.9577 13.3965L24.3566 13.7696L24.1464 14.0495C23.8456 14.4498 23.3149 15.2454 23.113 15.5987C22.9755 15.839 22.9643 15.8823 23.058 15.8102C23.1267 15.7574 23.1056 15.8048 23.0074 15.924C22.8636 16.0986 22.8416 16.1739 22.8569 16.4378C22.8848 16.9164 23.0184 16.8451 23.2401 16.2333C23.3425 15.9507 23.4745 15.6282 23.5334 15.5164C23.6061 15.3785 23.6146 15.329 23.56 15.3621C23.5156 15.3888 23.561 15.3164 23.6607 15.201C23.7604 15.0856 23.9883 14.7675 24.167 14.494C24.3457 14.2206 24.5097 13.9969 24.5314 13.9969C24.5531 13.9969 24.7417 14.1692 24.9505 14.3798L25.33 14.7628L25.085 15.0728C24.7084 15.5492 24.1348 16.4448 23.9211 16.8901C23.722 17.3047 23.6327 17.8777 23.742 18.0393C23.8395 18.1835 23.9215 18.0596 24.0867 17.5177C24.288 16.858 24.5344 16.3676 25.051 15.5987C25.5429 14.8666 25.499 14.9131 25.5855 15.0315C25.6247 15.0851 25.8269 15.3199 26.0348 15.5533C26.2426 15.7866 26.4725 16.0535 26.5456 16.1463C26.6186 16.2392 26.7439 16.3852 26.824 16.4707C27.1677 16.8377 27.1677 16.8417 26.8082 17.2128C26.384 17.6508 25.6252 19.131 25.5791 19.6104C25.5265 20.1582 25.7808 19.9279 26.0711 19.1649C26.3498 18.4326 26.7168 17.7266 27.0026 17.3731L27.2783 17.032L27.6277 17.4876L27.9771 17.9433L27.7672 18.1884C27.6519 18.3232 27.4607 18.6372 27.3425 18.8863C27.2242 19.1354 26.968 19.5856 26.7732 19.8868C26.3787 20.4963 26.2901 20.6918 26.2901 20.952C26.2901 21.2262 26.3788 21.1645 26.5778 20.7516C26.678 20.5439 26.9126 20.1168 27.0993 19.8027C27.2859 19.4886 27.4385 19.2106 27.4385 19.1849C27.4385 19.0759 27.7449 18.4812 27.9047 18.2801L28.0782 18.0619L28.5369 18.6738C29.1071 19.4345 29.5541 20.0749 29.5541 20.131C29.5541 20.1544 29.3626 20.4284 29.1284 20.7399C28.3845 21.7297 27.8626 22.7058 27.6442 23.5158C27.5575 23.8374 27.6079 23.9848 27.7613 23.8575C27.8086 23.8182 27.9485 23.5487 28.072 23.2586C28.1956 22.9686 28.3496 22.6123 28.4144 22.4671C28.5622 22.1352 29.4058 20.7993 29.6163 20.5637L29.7738 20.3874L30.1061 20.8944C30.2888 21.1733 30.4581 21.4346 30.4823 21.4753C30.5088 21.5198 30.3867 21.7293 30.1762 22.0008C29.9837 22.2491 29.7446 22.5695 29.6449 22.7127C29.4266 23.0261 28.3655 24.7245 28.2549 24.9374C28.1492 25.141 28.1183 25.4355 28.1997 25.463C28.2807 25.4902 28.3922 25.3256 29.2511 23.9099C29.6242 23.2948 30.096 22.5665 30.2994 22.2913C30.7363 21.7007 30.6287 21.641 31.3387 22.868C32.3656 24.6427 33.0468 26.1384 33.4606 27.527L33.6288 28.0915L33.5052 28.1919C33.3899 28.2854 32.3158 29.6012 31.9677 30.0753C31.8823 30.1917 31.6674 30.5398 31.4901 30.8489C31.2466 31.2734 31.1848 31.4279 31.2375 31.4806C31.3476 31.5907 31.7381 31.1648 31.9922 30.6576C32.1129 30.4166 32.4614 29.9082 32.7666 29.5278C33.0717 29.1474 33.3971 28.7323 33.4895 28.6052L33.6575 28.3743L33.7182 28.6052C33.7516 28.7323 33.8034 29.0238 33.8334 29.2531L33.8879 29.67L33.0089 30.734C32.0991 31.8352 31.8248 32.2239 31.7568 32.5082C31.7275 32.6307 31.7398 32.6744 31.8037 32.6744C31.9089 32.6744 32.0688 32.502 32.3364 32.1002C32.4471 31.934 32.8388 31.4226 33.2068 30.9637C33.9576 30.0275 33.9493 30.029 33.9606 30.8366C33.9657 31.1993 33.9472 31.2831 33.8404 31.3797C33.771 31.4425 33.5619 31.6983 33.3758 31.9482C33.1896 32.198 32.8793 32.5733 32.6862 32.7822C32.3219 33.1761 32.1208 33.5036 32.084 33.7628C32.0481 34.0157 32.2248 33.9403 32.4391 33.6113C32.5473 33.4451 32.7804 33.1459 32.9571 32.9464C33.1338 32.747 33.3699 32.4478 33.4819 32.2815C33.5939 32.1153 33.7388 31.9113 33.8038 31.8282L33.9221 31.6771L33.8812 32.2008C33.8587 32.4889 33.8155 32.8108 33.7853 32.9162C33.7551 33.0216 33.5293 33.33 33.2835 33.6014C32.8468 34.0839 32.6973 34.2935 32.6973 34.4234C32.6973 34.6187 33.0537 34.3442 33.4772 33.8229C33.6517 33.6081 33.6337 33.7261 33.3886 34.4051C32.6964 36.3224 31.5459 37.8008 29.9054 38.8814C28.0895 40.0775 25.7692 40.6958 22.2251 40.9281C21.901 40.9493 21.6358 40.9522 21.6358 40.9346C21.6358 40.9169 21.7174 40.8131 21.8171 40.7039C22.0254 40.4759 22.0381 40.4228 21.8971 40.3688C21.825 40.3411 21.7125 40.4203 21.5081 40.6426C21.2317 40.9432 21.208 40.9554 20.9031 40.9554C20.6602 40.9554 20.5496 40.9873 20.4312 41.0914C20.2975 41.2091 20.2909 41.2104 20.3821 41.1017C20.4401 41.0325 20.4745 40.9627 20.4584 40.9466C20.4422 40.9305 20.5374 40.8116 20.6698 40.6824C20.9314 40.4269 20.9656 40.3246 20.8095 40.2647C20.7369 40.2369 20.6111 40.3318 20.3629 40.6017C20.0047 40.9912 20.0257 40.9823 19.5079 40.9609C19.3833 40.9558 19.3883 40.9409 19.5848 40.7288C20.107 40.1652 20.1053 40.1678 19.9876 40.0818C19.8932 40.0127 19.8227 40.0591 19.3839 40.4795L18.8871 40.9554H18.4445C17.9367 40.9554 17.9363 40.9971 18.4503 40.3696C18.7834 39.9629 18.838 39.807 18.6473 39.807C18.5783 39.807 18.2244 40.1753 17.6985 40.7945C17.5536 40.9651 17.5499 40.9659 17.0556 40.9227C16.7822 40.8989 16.5584 40.8575 16.5584 40.8308C16.5584 40.8041 16.7749 40.5486 17.0395 40.263C17.4874 39.7795 17.5926 39.5652 17.3818 39.5652C17.2926 39.5652 16.2935 40.576 16.1986 40.7621C16.1382 40.8807 16.0951 40.8961 15.9079 40.8663L15.6881 40.8314L15.8359 40.9992L15.9837 41.167L15.7993 41.0008C15.6906 40.9028 15.5453 40.8346 15.4454 40.8346C15.2975 40.8346 15.2805 40.8164 15.3117 40.6919C15.3358 40.5962 15.3113 40.5166 15.2374 40.4496C15.1336 40.3557 15.1207 40.3622 15.0123 40.5636C14.901 40.7702 14.8884 40.776 14.6247 40.7415C14.2209 40.6887 14.0197 40.647 14.0197 40.616C14.0197 40.5712 14.2147 40.2769 14.4045 40.0353C14.5516 39.8481 14.5684 39.7948 14.5046 39.7179C14.4625 39.6672 14.4074 39.6256 14.3822 39.6256C14.357 39.6256 14.165 39.8433 13.9555 40.1092C13.7461 40.3752 13.5535 40.5928 13.5276 40.5928C13.3458 40.5928 12.569 40.449 12.569 40.4154C12.569 40.3924 12.6523 40.2938 12.7541 40.1963C13.0462 39.9165 13.4964 39.2228 13.4553 39.1158C13.3957 38.9603 13.3169 39.0057 13.122 39.3083C13.0204 39.4662 12.763 39.7676 12.5502 39.978L12.1633 40.3605L11.8006 40.2892C11.2911 40.1889 11.267 40.1672 11.3918 39.9208C11.4487 39.8083 11.6237 39.5667 11.7807 39.3839C12.1258 38.9819 12.2275 38.8008 12.1791 38.6748C12.1321 38.5523 11.3742 39.3446 11.1397 39.7617C11.0509 39.9195 10.9431 40.0488 10.9001 40.0488C10.7082 40.0488 10.2116 39.9122 10.2116 39.8594C10.2116 39.7578 10.3936 39.4438 10.6699 39.0685C10.9425 38.6981 11.0084 38.4772 10.8463 38.4772C10.7964 38.4772 10.7556 38.4988 10.7556 38.5251C10.7556 38.5515 10.6204 38.7331 10.4551 38.9287C10.2897 39.1242 10.1061 39.4014 10.047 39.5447C9.97542 39.7185 9.90942 39.7971 9.84897 39.7808C9.48757 39.6831 8.88185 39.4832 8.88185 39.4615C8.88185 39.3848 9.53302 38.4722 9.74259 38.255C9.9721 38.0173 10.0211 37.8123 9.84843 37.8123C9.70765 37.8123 9.063 38.619 8.67029 39.2866C8.61528 39.3801 8.55611 39.3674 8.01035 39.1447C7.68068 39.0103 7.39676 38.886 7.37948 38.8688C7.36219 38.8515 7.45854 38.7223 7.59364 38.5817C7.98411 38.1753 8.71278 37.1456 8.67663 37.0514C8.62888 36.927 8.47318 36.9471 8.3981 37.0872C8.27099 37.3247 7.72105 38.0258 7.3877 38.3753L7.04884 38.7306L6.77158 38.5948C6.61902 38.52 6.37844 38.3923 6.23688 38.3109L5.97951 38.1629L6.12197 38.0508C6.20037 37.9892 6.39325 37.7486 6.55059 37.5161C6.70799 37.2836 6.99341 36.922 7.1849 36.7124C7.51143 36.3551 7.58366 36.1803 7.40468 36.1803C7.30966 36.1803 6.88649 36.632 6.25725 37.4053C5.99389 37.7289 5.76178 37.9936 5.74141 37.9936C5.72104 37.9936 5.56183 37.9017 5.3875 37.7895L5.07065 37.5853L5.3076 37.2908C5.43792 37.1288 5.84616 36.6563 6.21482 36.2407C6.58342 35.8252 6.88552 35.4639 6.88606 35.4379C6.88667 35.4119 6.84871 35.3759 6.80168 35.3579C6.74891 35.3377 6.56975 35.482 6.33323 35.7353C6.12258 35.9609 5.74504 36.3641 5.49413 36.6313C5.24328 36.8985 4.9928 37.1828 4.93749 37.2631L4.83697 37.4091L4.59404 37.2407C4.20483 36.971 4.20078 36.9564 4.41337 36.5958C4.51788 36.4185 4.73935 36.1247 4.90539 35.943C5.0715 35.7613 5.25114 35.5431 5.30463 35.4582C5.43181 35.2562 5.79043 34.7981 5.96409 34.6156C6.11666 34.4552 6.13255 34.3933 6.03644 34.3339C5.9517 34.2816 5.76444 34.4594 5.20641 35.1225C4.9546 35.4217 4.61646 35.809 4.45502 35.9832C4.29357 36.1574 4.12051 36.3979 4.0704 36.5178L3.97937 36.7358L3.63501 36.4127C3.44564 36.235 3.28226 36.0576 3.27198 36.0186C3.22465 35.8386 3.67968 35.1977 4.44468 34.3669C5.01951 33.7427 5.09465 33.6382 5.02145 33.565C4.96801 33.5116 4.82017 33.6246 4.40485 34.0366C3.79411 34.6425 3.22 35.306 3.07148 35.5777L2.9732 35.7575L2.69098 35.4272C2.41783 35.1074 2.41154 35.0914 2.49623 34.9283C2.64015 34.6512 3.20217 33.9914 4.22309 32.9009C4.46583 32.6416 4.53335 32.5329 4.48306 32.4827C4.43277 32.4324 4.36326 32.4603 4.21553 32.5905C3.92255 32.8485 2.77053 34.0455 2.46697 34.4072C2.32287 34.579 2.18469 34.7069 2.15991 34.6916C2.13519 34.6763 2.01696 34.4886 1.89715 34.2744L1.67943 33.885L1.81912 33.6877C1.9802 33.4604 3.2996 31.9755 3.49327 31.8037C3.61948 31.6918 3.67322 31.4655 3.57366 31.4655C3.5157 31.4655 2.56828 32.3839 1.94732 33.0419L1.51508 33.5L1.38947 33.1978C1.32038 33.0316 1.24737 32.7924 1.22718 32.6662C1.19417 32.4597 1.21678 32.4051 1.45439 32.1174C1.86905 31.6154 2.4796 30.9084 2.66668 30.7136C2.76049 30.6159 2.83732 30.5155 2.83732 30.4905C2.83732 30.3145 2.62606 30.483 1.9058 31.2335C1.45391 31.7045 1.07292 32.0786 1.0592 32.0648C1.04548 32.051 1.00613 31.8361 0.971615 31.5872C0.914071 31.1711 0.919693 31.113 1.04167 30.8689C1.22591 30.5 1.85798 29.7849 2.22404 29.5313C2.50771 29.3348 2.6344 29.1074 2.45954 29.1088C2.33127 29.1097 1.59928 29.6929 1.24223 30.0786L0.90307 30.4449V30.0191V29.5934L1.24712 29.1845C1.43638 28.9597 1.74695 28.6125 1.93735 28.4131C2.50856 27.8145 2.59554 27.7143 2.59554 27.6543C2.59554 27.4968 2.37818 27.66 1.70663 28.322C0.975786 29.0425 0.971434 29.0456 1.00413 28.8207C1.06246 28.4193 1.26278 28.0974 1.82196 27.5066C2.60007 26.6844 2.43379 26.6678 1.54621 27.4789C1.35798 27.651 1.21575 27.7547 1.23008 27.7095C1.24447 27.6643 1.32963 27.3961 1.41933 27.1135C1.84759 25.7647 2.72441 23.8912 3.63217 22.3853C4.12758 21.5635 4.88907 20.4011 5.20726 19.9809C5.27024 19.8978 5.43447 19.6802 5.57235 19.4974C8.49675 15.6178 11.4036 12.8526 14.3521 11.1453L15.017 10.7603L16.8002 10.7833C17.7809 10.796 18.5906 10.813 18.5995 10.821ZM16.9815 14.691C16.6234 14.8064 16.2675 15.1077 16.1288 15.413C16.0452 15.5973 16.0167 15.8062 16.0157 16.2444C16.0143 16.8856 16.039 16.8457 15.5913 16.9281C15.2688 16.9876 14.6241 17.2047 14.6241 17.2539C14.6241 17.278 14.7197 17.3903 14.8365 17.5034L15.0488 17.7092L15.6405 17.5153C15.9659 17.4086 16.2859 17.3213 16.3516 17.3213C16.4173 17.3213 16.5335 17.2776 16.6098 17.2241C16.7439 17.1302 16.7471 17.1072 16.7062 16.53C16.657 15.8366 16.7141 15.6315 17.0065 15.4507C17.2486 15.3011 17.6751 15.2264 17.7349 15.3231C17.7601 15.3639 17.6655 15.5136 17.509 15.681C17.2301 15.979 17.0712 16.2222 17.1219 16.2729C17.1812 16.3322 17.3815 16.1478 17.6425 15.7937C17.871 15.4839 17.9173 15.4469 17.9557 15.5446C18.0154 15.6967 18.021 16.0518 17.9637 16.0528C17.8704 16.0546 17.1024 16.83 17.1024 16.9226C17.1024 17.1074 17.2892 17.0169 17.6024 16.6804L17.9177 16.3416L17.9915 16.7827C18.1066 17.4697 18.1542 17.4997 19.2873 17.5984C19.8031 17.6432 20.3764 17.73 20.578 17.7937L20.9407 17.9082L21.2731 17.5996L21.6055 17.2911L21.313 17.6009L21.0205 17.9107L21.3542 18.1016C21.7722 18.3408 22.2325 18.8392 22.44 19.2775C22.6332 19.6855 22.8447 20.4881 22.8447 20.8132C22.8447 21.1003 22.6431 21.4259 22.3897 21.5477C22.1869 21.6452 21.6886 21.7066 21.5456 21.6517C21.4589 21.6185 21.4591 21.598 21.5474 21.4273C21.7346 21.0651 21.5176 20.9643 21.3095 21.3167C21.2053 21.493 21.1964 21.4961 21.0847 21.395C20.9703 21.2914 20.9707 21.2872 21.1123 21.134C21.3125 20.9174 21.5754 20.5123 21.5754 20.4203C21.5754 20.2804 21.3613 20.341 21.2589 20.5098C21.2036 20.6013 21.0896 20.7543 21.0056 20.85L20.8529 21.024L20.791 20.8612C20.6941 20.6062 20.7142 20.5146 20.9435 20.1664C21.0718 19.9715 21.1428 19.8024 21.1203 19.7447C21.0808 19.6433 21.0673 19.6555 20.7029 20.12L20.5701 20.2893L20.4574 20.0799L20.3446 19.8706L20.5382 19.6502C20.8368 19.31 20.6536 19.1661 20.3394 19.4941C20.1748 19.6658 20.164 19.6685 20.0312 19.5696C19.8936 19.4672 19.8936 19.467 20.0091 19.2787C20.1377 19.0689 20.1565 18.9534 20.062 18.9534C20.0276 18.9534 19.7923 19.1545 19.5391 19.4004L19.0788 19.8475L19.2621 19.9423C19.5504 20.0914 19.7329 20.3552 19.9361 20.9167C20.0396 21.2028 20.1693 21.5241 20.2243 21.6307C20.5145 22.1927 21.2943 22.569 22.0272 22.5006C22.7294 22.435 23.3231 22.0502 23.5464 21.5161C23.9472 20.5567 23.388 18.7998 22.3831 17.8611C22.0129 17.5153 21.6282 17.2882 21.1041 17.1059C20.6623 16.9523 19.4936 16.7773 18.909 16.7773H18.5457L18.5947 16.4902C18.6686 16.0577 18.6517 15.3812 18.5616 15.1648C18.5176 15.0592 18.3724 14.8971 18.239 14.8046C17.9465 14.602 17.4089 14.5534 16.9815 14.691ZM23.4492 15.4704C23.4492 15.4829 23.4015 15.5305 23.3434 15.5762C23.2475 15.6513 23.2454 15.6492 23.3205 15.5533C23.3995 15.4526 23.4492 15.4206 23.4492 15.4704ZM25.9196 16.2175C25.6624 16.4893 25.5757 16.6329 25.0568 17.647C24.7989 18.1507 24.6581 18.4977 24.6581 18.6292C24.6581 18.9494 24.883 18.8847 24.991 18.5333C25.1037 18.1669 25.9373 16.5455 26.107 16.3626C26.2888 16.1667 26.3172 16.051 26.1935 16.0097C26.1612 15.9989 26.0378 16.0924 25.9196 16.2175ZM14.0499 17.4837C12.4006 18.3291 11.5643 19.7825 11.7828 21.4238C12.0566 23.4817 13.9373 25.4045 15.9214 25.6551L16.2214 25.693L16.2056 28.0806C16.1969 29.3938 16.1745 30.5566 16.1558 30.6646C16.1129 30.9129 16.0108 30.9163 15.5696 30.6842C15.0774 30.4253 14.8312 30.2078 14.6432 29.8657C14.4892 29.5855 14.4756 29.5067 14.4707 28.8664C14.4639 27.9982 14.353 27.7435 13.8684 27.4838C13.4262 27.2468 12.6384 27.3547 12.2449 27.7061C11.8923 28.0211 11.6807 28.6933 11.7477 29.2854C11.8615 30.2895 12.5718 31.5733 13.3861 32.2461C13.9119 32.6805 14.6573 33.0057 15.5378 33.1845C15.6854 33.2145 15.6978 33.2434 15.7263 33.6255C15.7801 34.3464 16.191 34.9825 16.8605 35.3814C17.0818 35.5132 17.2077 35.5437 17.5347 35.5445C17.8897 35.5455 17.9675 35.5235 18.1996 35.3565C18.587 35.0777 18.7943 34.6366 18.8682 33.9337C18.9028 33.6048 18.9641 33.3286 19.015 33.2712C19.0732 33.2058 19.3388 33.1375 19.8099 33.067C21.0671 32.8789 21.5019 32.685 22.2261 31.9895C22.6237 31.6078 23.0643 30.9996 23.2259 30.6095C23.7925 29.2422 23.4612 27.2929 22.4552 26.0732C21.7245 25.1873 20.0148 24.1896 19.0131 24.0644L18.674 24.0221L18.6721 23.4069C18.6711 23.0685 18.6458 22.4551 18.616 22.0438C18.5652 21.3453 18.5504 21.2835 18.3911 21.1072L18.2206 20.9183L18.3869 21.0646L18.5531 21.2109L18.5522 20.9132C18.5509 20.4844 18.4917 20.4261 18.281 20.646L18.1069 20.8277L17.9323 20.6612L17.7576 20.4947L17.7741 20.8134C17.7871 21.0641 17.766 21.1543 17.6752 21.2365C17.5678 21.3338 17.568 21.3305 17.6786 21.1898L17.7975 21.0387L17.6612 21.1542C17.5861 21.2177 17.5365 21.2814 17.5507 21.2957C17.565 21.3099 17.4407 21.4892 17.2745 21.694C16.955 22.0876 16.7713 22.39 16.8214 22.4401C16.838 22.4567 16.9049 22.4533 16.97 22.4326C17.0862 22.3957 17.2116 22.2322 17.5623 21.6605C17.6584 21.5038 17.7574 21.3746 17.7824 21.3734C17.854 21.3699 17.8352 21.9639 17.7622 22.009C17.593 22.1136 17.1628 22.7871 17.1628 22.9475C17.1628 23.2098 17.288 23.1162 17.5556 22.6537L17.7905 22.2476L17.8337 22.4542C17.8736 22.6441 17.8485 22.6946 17.5231 23.0812C17.186 23.4817 17.0481 23.7731 17.1317 23.9084C17.2067 24.0298 17.2823 23.9659 17.4339 23.653C17.5185 23.4784 17.6513 23.2586 17.729 23.1646L17.8702 22.9935L17.913 23.6144C17.9365 23.9558 17.9696 24.2576 17.9865 24.2849C18.0359 24.3649 18.447 24.5594 18.9702 24.7504C20.3939 25.27 21.7545 26.3206 22.1968 27.242C22.6183 28.1204 22.772 29.1832 22.576 29.8657C22.361 30.6145 21.7791 31.4215 21.1828 31.7977C20.7089 32.0968 20.3886 32.199 19.6528 32.2861C18.6363 32.4064 18.251 32.6745 18.155 33.3286C18.1314 33.4892 18.0126 33.7794 17.8799 34.0004C17.7342 34.2433 17.6464 34.4648 17.6464 34.5898C17.6464 34.7641 17.6265 34.79 17.4923 34.79C17.2722 34.79 17.0299 34.6495 16.8016 34.3895C16.5097 34.0571 16.4375 33.8314 16.4375 33.252C16.4375 32.624 16.4465 32.6319 15.4802 32.4098C14.2939 32.1372 13.6221 31.6665 13.0378 30.6985C12.3122 29.4964 12.2545 28.5257 12.8858 28.1407C13.0978 28.0115 13.4152 27.9786 13.4152 28.0859C13.4152 28.1221 13.32 28.3218 13.2037 28.53C12.9704 28.9471 12.947 29.0477 13.0833 29.0477C13.1364 29.0477 13.2563 28.877 13.3699 28.6397C13.4773 28.4153 13.5745 28.2182 13.5858 28.2016C13.5972 28.185 13.6442 28.2231 13.6903 28.2861C13.7657 28.3892 13.7485 28.4305 13.5191 28.6969C13.1863 29.0833 12.9944 29.4063 12.9931 29.5816C12.9916 29.7924 13.1213 29.7141 13.2943 29.3997C13.3775 29.2488 13.519 29.033 13.6088 28.9202L13.7722 28.7153L13.7751 28.9484C13.7772 29.127 13.7426 29.2092 13.6267 29.3003C13.417 29.4653 13.1605 29.9219 13.1841 30.0882C13.2147 30.3038 13.3761 30.252 13.4586 30.0002C13.4993 29.8759 13.5793 29.7028 13.6364 29.6158L13.7401 29.4575L13.7905 29.594C13.8244 29.6855 13.8139 29.7622 13.7586 29.8273C13.596 30.0185 13.2339 30.6674 13.2339 30.7676C13.2339 30.9831 13.438 30.8181 13.632 30.4459C13.7423 30.2342 13.8442 30.0494 13.8583 30.0352C13.8725 30.021 13.9535 30.1278 14.0383 30.2725C14.1231 30.4172 14.312 30.6457 14.458 30.7803L14.7236 31.0251L14.5529 31.2161C14.3434 31.4506 14.3148 31.7678 14.5033 31.7678C14.5697 31.7678 14.6283 31.7338 14.6333 31.6922C14.6384 31.6507 14.6457 31.5876 14.6495 31.552C14.6596 31.4568 14.861 31.1633 14.9162 31.1633C14.9423 31.1633 15.0129 31.1993 15.073 31.2432C15.1753 31.318 15.1761 31.3354 15.085 31.5114C14.9741 31.726 15.0098 31.8887 15.1679 31.8887C15.2429 31.8887 15.2875 31.8251 15.3149 31.6792C15.3365 31.564 15.374 31.4576 15.3981 31.4426C15.4223 31.4276 15.5687 31.4444 15.7233 31.4797C15.9899 31.5407 16.0016 31.5519 15.9475 31.6941C15.8739 31.8877 15.9357 32.0824 16.063 32.0578C16.1254 32.0458 16.1806 31.9441 16.2126 31.7824C16.2405 31.6414 16.2821 31.5242 16.3051 31.5221C16.6824 31.4873 16.7733 31.4632 16.8322 31.3826C16.987 31.1709 16.9996 27.6807 16.8505 26.3277C16.8156 26.0119 16.7771 25.6204 16.7649 25.4576C16.7346 25.054 16.6338 24.9619 16.17 24.9144C15.7215 24.8684 15.2225 24.7076 14.8486 24.4885C14.7029 24.4031 14.5656 24.3513 14.5435 24.3734C14.5213 24.3955 14.5033 24.3846 14.5033 24.3491C14.5033 24.3136 14.3242 24.1393 14.1053 23.9617C12.7234 22.8404 12.0933 21.0301 12.6504 19.7814C12.9867 19.0278 13.648 18.4054 14.6304 17.9179L15.0011 17.734L14.7701 17.4974C14.6431 17.3673 14.5243 17.2622 14.5061 17.2639C14.4879 17.2655 14.2826 17.3644 14.0499 17.4837ZM18.1974 18.7431C18.0948 18.86 17.9926 19.0283 17.9703 19.1171C17.948 19.2059 17.7776 19.4383 17.5916 19.6334C17.0928 20.1567 16.6929 20.8327 16.9286 20.7542C17.0346 20.7188 17.3548 20.1074 17.3074 20.0307C17.2826 19.9907 17.2919 19.9789 17.3297 20.0023C17.3653 20.0242 17.4941 19.9265 17.616 19.7849L17.8375 19.5276L17.8147 19.8411C17.7933 20.1354 17.765 20.1832 17.3494 20.6269C16.8952 21.1117 16.6855 21.462 16.788 21.5645C16.8232 21.5997 16.8992 21.5503 16.9886 21.4342C17.0678 21.3313 17.2742 21.0744 17.4474 20.8633C17.6205 20.6522 17.7432 20.4557 17.72 20.4267C17.6969 20.3976 17.7743 20.4623 17.8919 20.5705L18.1059 20.7671L18.3062 20.5605C18.5036 20.3567 18.5056 20.3491 18.4483 20.0163C18.3922 19.6912 18.395 19.6787 18.523 19.6787C18.5961 19.6787 18.7444 19.7095 18.8525 19.7472C19.04 19.8126 19.0603 19.8041 19.2997 19.5591C19.4587 19.3963 19.5228 19.292 19.4749 19.274C19.3527 19.228 19.3866 19.1233 19.5926 18.9108C19.7364 18.7625 19.7684 18.6938 19.7176 18.643C19.641 18.5664 19.3839 18.7454 19.1816 19.0163C19.0901 19.1388 19.0308 19.1633 18.8892 19.1372L18.7116 19.1045L18.9043 18.8849C19.0822 18.6823 19.1492 18.5303 19.0605 18.5303C18.9775 18.5303 18.557 18.9061 18.5242 19.0096C18.4922 19.1104 18.1894 19.2302 18.1911 19.1414C18.1916 19.1211 18.2577 18.9893 18.3381 18.8486C18.5232 18.525 18.4422 18.4643 18.1974 18.7431ZM14.9192 19.0937C13.6787 19.5573 13.3164 20.7908 14.0017 22.2174C14.3037 22.8461 15.2569 23.6077 15.7417 23.6077C16.1363 23.6077 16.4468 23.2367 16.5259 22.6708L16.5681 22.3685L16.2761 22.6405L15.9842 22.9125L16.2562 22.6228L16.5282 22.333L16.5086 21.4139C16.4978 20.9083 16.4602 20.3179 16.4251 20.1018C16.3899 19.8857 16.3638 19.6103 16.3671 19.4899C16.3765 19.1486 16.2289 19.0564 15.6349 19.0322C15.3179 19.0193 15.0587 19.0416 14.9192 19.0937ZM28.4438 19.452C27.3463 21.1975 26.7341 22.3987 26.942 22.3987C27.0651 22.3987 27.3323 22.0049 27.6803 21.3107C27.8747 20.9229 28.1855 20.3429 28.3709 20.0218C28.5562 19.7007 28.7079 19.4105 28.7079 19.377C28.7079 19.2642 28.5301 19.3148 28.4438 19.452ZM15.8614 19.7492C15.8716 19.7603 15.8574 20.0958 15.8301 20.4947C15.8027 20.8937 15.7786 21.5789 15.7765 22.0174C15.7741 22.5091 15.7481 22.8299 15.7086 22.8543C15.6275 22.9044 15.2186 22.6232 14.9843 22.3564C14.4444 21.7416 14.2536 20.6551 14.6012 20.1762C14.7869 19.9203 15.3303 19.664 15.6114 19.6996C15.7388 19.7158 15.8513 19.7381 15.8614 19.7492ZM30.8851 22.819C30.8444 22.9172 30.6686 23.2096 30.4943 23.4688C30.32 23.7281 29.9183 24.3248 29.6016 24.795C29.0179 25.6619 28.8288 26.0627 28.8288 26.4335C28.8288 26.588 28.8522 26.634 28.9236 26.6192C29.0297 26.5973 29.0657 26.5368 29.4575 25.7206C29.6099 25.4033 29.9905 24.7616 30.3033 24.2946C30.9405 23.3434 31.2101 22.8506 31.162 22.7251C31.1071 22.5822 30.9629 22.6311 30.8851 22.819ZM15.9539 22.9607C15.9539 22.9706 15.8383 23.0862 15.6971 23.2176L15.4402 23.4565L15.6791 23.1996C15.9013 22.9608 15.9539 22.9149 15.9539 22.9607ZM14.4428 24.4723C14.4428 24.4824 14.3408 24.5843 14.2161 24.6989L13.9895 24.9072L14.1978 24.6806C14.3917 24.4696 14.4428 24.4261 14.4428 24.4723ZM31.3837 24.741C31.0893 25.0981 30.019 26.5877 29.6832 27.1077C29.4467 27.474 29.3681 27.7179 29.4865 27.7179C29.6039 27.7179 29.9493 27.288 30.3851 26.5997C30.8827 25.8136 31.1944 25.3705 31.5652 24.9217C31.7046 24.753 31.7887 24.5966 31.7685 24.5439C31.7123 24.3975 31.6339 24.4376 31.3837 24.741ZM31.9544 26.038C31.9365 26.081 31.6637 26.4251 31.3481 26.8026C31.0325 27.1801 30.6735 27.6354 30.5503 27.8142C30.2787 28.2086 30.1255 28.6157 30.2152 28.7054C30.291 28.7812 30.2441 28.8371 30.7141 28.1108C30.9292 27.7784 31.342 27.2086 31.6313 26.8446C31.9207 26.4805 32.1498 26.1428 32.1403 26.0939C32.1174 25.9763 31.9953 25.9395 31.9544 26.038ZM18.2027 26.4641C18.1681 26.5058 18.1201 26.6182 18.096 26.714C18.072 26.8097 17.9202 27.0626 17.7587 27.276C17.5871 27.5027 17.4651 27.7274 17.4651 27.8168C17.4651 28.0426 17.5852 27.9697 17.8277 27.5967C17.9925 27.3435 18.0432 27.2983 18.0571 27.3928C18.067 27.4596 17.9242 27.7694 17.7398 28.0814C17.4359 28.5957 17.3238 28.9268 17.4536 28.9268C17.5567 28.9268 17.7876 28.655 17.9109 28.3886L18.0393 28.1108L18.058 28.3365C18.0732 28.5196 18.0247 28.6424 17.8011 28.9881C17.6496 29.2225 17.5255 29.4405 17.5255 29.4727C17.5255 29.5943 17.7254 29.5243 17.8942 29.3435C18.065 29.1606 18.0695 29.1595 18.0669 29.2982C18.0625 29.5321 17.9249 29.8423 17.6572 30.2213C17.4185 30.5593 17.3364 30.8006 17.4604 30.8006C17.5251 30.8006 17.9486 30.3193 17.9486 30.2458C17.9486 30.2185 17.9758 30.1962 18.0091 30.1962C18.0423 30.1962 18.0695 30.2381 18.0695 30.2893C18.0695 30.4524 18.2996 30.8405 18.4928 31.003C19.0467 31.4692 19.9039 31.2935 20.6974 30.5512C21.704 29.6097 21.7413 28.1554 20.7816 27.2669C20.395 26.9089 19.8641 26.626 19.3067 26.4808C18.8729 26.3678 18.2899 26.359 18.2027 26.4641ZM32.0385 27.8362C31.1742 28.9014 30.8807 29.368 30.8383 29.7436C30.7859 30.2085 30.9748 30.0581 31.3326 29.35C31.5029 29.013 31.8523 28.5281 32.5915 27.6024C33.0165 27.0701 33.0771 26.9321 32.8857 26.9321C32.8121 26.9321 32.5132 27.2511 32.0385 27.8362ZM34.2689 27.1332C34.2689 27.144 34.1941 27.2188 34.1026 27.2994L33.9364 27.4459L34.0829 27.2797C34.2199 27.1244 34.2689 27.0857 34.2689 27.1332ZM19.2395 27.2698C19.6906 27.3863 20.2181 27.6986 20.4395 27.9805C20.9958 28.6883 20.6887 29.8097 19.799 30.32C19.593 30.4382 19.4055 30.4974 19.2365 30.4979C18.818 30.4988 18.7957 30.4267 18.7898 29.0494C18.787 28.4002 18.7651 27.7127 18.7413 27.5215C18.6911 27.1197 18.6799 27.1253 19.2395 27.2698ZM13.7898 30.6223C13.7056 30.7697 13.6654 30.913 13.688 30.9845C13.7407 31.1504 13.8988 31.1345 13.8988 30.9633C13.8988 30.8865 13.9388 30.771 13.9875 30.7064C14.0364 30.6419 14.0772 30.5415 14.0782 30.4833C14.0816 30.2987 13.934 30.3698 13.7898 30.6223ZM14.1441 31.1171C14.0405 31.2578 13.9634 31.412 13.9727 31.4596C13.9985 31.5927 14.1356 31.6098 14.1814 31.4857C14.2039 31.4247 14.2879 31.2876 14.368 31.181C14.5022 31.0023 14.5093 30.8611 14.384 30.8611C14.3556 30.8611 14.2476 30.9763 14.1441 31.1171ZM18.0828 32.7198C17.8852 33.0034 17.4706 33.8797 17.5197 33.91C17.6326 33.9798 17.858 33.7086 18.0698 33.2481C18.1959 32.974 18.329 32.7311 18.3656 32.7085C18.4717 32.6429 18.4428 32.5536 18.3154 32.5536C18.2512 32.5536 18.1465 32.6283 18.0828 32.7198ZM14.6926 39.2751C14.4115 39.5691 14.407 39.5812 14.5379 39.6898C14.6198 39.7577 14.6684 39.7275 14.8855 39.4734C15.0244 39.3111 15.1379 39.15 15.1379 39.1156C15.1379 38.9597 14.9195 39.0379 14.6926 39.2751ZM15.499 40.074C15.2109 40.3299 15.2028 40.3456 15.3049 40.4504C15.4073 40.5555 15.4232 40.5478 15.7206 40.2505C16.0057 39.9653 16.0602 39.807 15.8732 39.807C15.8327 39.807 15.6643 39.9272 15.499 40.074ZM16.1655 41.3181C16.2256 41.3846 16.2613 41.439 16.2447 41.439C16.2281 41.439 16.1652 41.3846 16.1051 41.3181C16.0449 41.2516 16.0093 41.1972 16.0259 41.1972C16.0425 41.1972 16.1054 41.2516 16.1655 41.3181ZM20.2456 41.276C20.2456 41.2861 20.1436 41.3881 20.0189 41.5027L19.7922 41.711L20.0005 41.4843C20.1944 41.2734 20.2456 41.2299 20.2456 41.276Z" fill="#464D9E"/>
</svg>
