<svg width="29" height="30" viewBox="0 0 29 30" fill="none" xmlns="http://www.w3.org/2000/svg">
<path d="M1.05273 4.51953L0.699181 4.16598L0.345628 4.51953L0.699181 4.87308L1.05273 4.51953ZM11.3652 14.832L11.7188 15.1856L12.0723 14.832L11.7188 14.4785L11.3652 14.832ZM1.05273 25.1445L0.699181 24.791L0.345628 25.1445L0.699181 25.4981L1.05273 25.1445ZM4.2168 28.3086L3.86324 28.6621L4.2168 29.0157L4.57035 28.6621L4.2168 28.3086ZM14.5293 17.9961L14.8829 17.6425L14.5293 17.289L14.1757 17.6425L14.5293 17.9961ZM24.8418 28.3086L24.4882 28.6621L24.8418 29.0157L25.1954 28.6621L24.8418 28.3086ZM28.0059 25.1445L28.3594 25.4981L28.713 25.1445L28.3594 24.791L28.0059 25.1445ZM17.6934 14.832L17.3398 14.4785L16.9863 14.832L17.3398 15.1856L17.6934 14.832ZM28.0059 4.51953L28.3594 4.87308L28.713 4.51953L28.3594 4.16598L28.0059 4.51953ZM24.8418 1.35547L25.1954 1.00192L24.8418 0.648362L24.4882 1.00192L24.8418 1.35547ZM14.5293 11.668L14.1757 12.0215L14.5293 12.3751L14.8829 12.0215L14.5293 11.668ZM4.2168 1.35547L4.57035 1.00192L4.2168 0.648362L3.86324 1.00192L4.2168 1.35547ZM0.699181 4.87308L11.0117 15.1856L11.7188 14.4785L1.40629 4.16598L0.699181 4.87308ZM11.0117 14.4785L0.699181 24.791L1.40629 25.4981L11.7188 15.1856L11.0117 14.4785ZM0.699181 25.4981L3.86324 28.6621L4.57035 27.955L1.40629 24.791L0.699181 25.4981ZM4.57035 28.6621L14.8829 18.3496L14.1757 17.6425L3.86324 27.955L4.57035 28.6621ZM14.1757 18.3496L24.4882 28.6621L25.1954 27.955L14.8829 17.6425L14.1757 18.3496ZM25.1954 28.6621L28.3594 25.4981L27.6523 24.791L24.4882 27.955L25.1954 28.6621ZM28.3594 24.791L18.0469 14.4785L17.3398 15.1856L27.6523 25.4981L28.3594 24.791ZM18.0469 15.1856L28.3594 4.87308L27.6523 4.16598L17.3398 14.4785L18.0469 15.1856ZM28.3594 4.16598L25.1954 1.00192L24.4882 1.70902L27.6523 4.87308L28.3594 4.16598ZM24.4882 1.00192L14.1757 11.3144L14.8829 12.0215L25.1954 1.70902L24.4882 1.00192ZM14.8829 11.3144L4.57035 1.00192L3.86324 1.70902L14.1757 12.0215L14.8829 11.3144ZM3.86324 1.00192L0.699181 4.16598L1.40629 4.87308L4.57035 1.70902L3.86324 1.00192Z" fill="#283593"/>
</svg>
