<svg width="38" height="42" viewBox="0 0 38 42" fill="none" xmlns="http://www.w3.org/2000/svg">
<path fill-rule="evenodd" clip-rule="evenodd" d="M27.6686 0.0873362C25.3567 0.581737 23.396 2.30326 22.5976 4.53974C22.3528 5.22538 22.2494 5.74466 22.2129 6.47117C22.1456 7.81082 22.5545 9.10272 23.3718 10.1329L23.6355 10.4654L23.3673 10.871C23.038 11.3688 22.1941 13.0364 22.1941 13.1894C22.1941 13.2506 22.2458 13.3645 22.3089 13.4424L22.4236 13.5841L22.7803 13.4722C23.2401 13.328 23.5729 13.1581 24.4311 12.6296L25.1298 12.1992L26.4753 12.4222C27.934 12.664 28.4539 12.6899 29.2507 12.5606C31.4393 12.2053 33.3548 10.7965 34.301 8.84622C34.6568 8.11283 34.8183 7.5503 34.9171 6.70024C35.0452 5.59861 34.8269 4.32922 34.3443 3.369C33.5351 1.75904 31.8253 0.472551 29.9782 0.0839893C29.4391 -0.0294527 28.2062 -0.0276265 27.6686 0.0873362ZM29.9721 0.752416C33.2743 1.55594 35.0298 4.83645 33.8711 8.0385C32.9067 10.704 29.8496 12.3876 27.0603 11.7893C24.9062 11.3274 25.0949 11.3148 24.0876 11.9881C23.6813 12.2597 23.3387 12.4707 23.3263 12.4571C23.3138 12.4434 23.5192 12.0353 23.7828 11.5502C24.0463 11.0651 24.262 10.6303 24.2621 10.5838C24.2622 10.5374 24.0719 10.2137 23.8392 9.86464C23.4034 9.21075 23.1178 8.56933 22.9441 7.85419C22.7937 7.23528 22.8085 6.0587 22.9746 5.43024C23.4444 3.65136 24.5703 2.20861 26.2087 1.28581C27.0731 0.79901 27.9412 0.58861 28.9155 0.62979C29.2835 0.645361 29.759 0.700531 29.9721 0.752416ZM28.3985 2.40721C27.9585 2.48026 27.2591 2.69091 27.1596 2.78032C27.0582 2.87132 27.0503 2.94139 27.0867 3.42813C27.1369 4.09905 27.2993 4.96102 27.6085 6.19745C27.7382 6.716 27.8881 7.35924 27.9419 7.62688C28.0817 8.32396 28.208 8.68065 28.3287 8.71897C28.3864 8.73722 28.5912 8.71112 28.7839 8.66094C28.9767 8.61076 29.1446 8.5697 29.1571 8.5697C29.2513 8.5697 29.3105 7.93503 29.3529 6.47117C29.428 3.87186 29.3631 2.60283 29.1464 2.44139C29.0486 2.36858 28.7212 2.35356 28.3985 2.40721ZM1.26048 2.82588C0.523194 3.05283 -0.247665 3.97605 0.0758727 4.24461C0.206285 4.35282 0.332928 4.26845 0.662853 3.85385C0.985235 3.44875 1.44569 3.15611 1.76084 3.15611C1.96205 3.15611 2.08359 3.02059 2.03097 2.8549C1.98298 2.70362 1.69308 2.69273 1.26048 2.82588ZM28.6636 3.46919C28.747 4.26802 28.6841 7.71812 28.5861 7.71812C28.5657 7.71812 28.4855 7.4239 28.4077 7.06423C27.968 5.02982 27.8509 4.3662 27.8363 3.82673L27.8206 3.25045L28.1248 3.17868C28.6318 3.05909 28.62 3.05277 28.6636 3.46919ZM2.77543 3.58701C2.33498 3.69084 1.79405 4.01815 1.38821 4.42648C0.770577 5.04776 0.550566 5.65828 0.847522 5.92695C1.03183 6.0938 1.1651 5.97811 1.24478 5.58213C1.33201 5.14861 1.3814 5.06552 1.77136 4.69673C2.16303 4.3263 2.61448 4.08147 3.15535 3.94619C3.44057 3.87484 3.55657 3.81657 3.57189 3.73707C3.61204 3.52843 3.28516 3.46687 2.77543 3.58701ZM15.8986 3.70842C14.8017 3.76158 13.6894 3.869 11.8232 4.10209C10.7139 4.24065 10.1976 4.26802 7.89985 4.30999C5.15954 4.36012 4.84506 4.39053 4.46015 4.64272C4.26337 4.77167 4.10687 5.01911 4.15042 5.13249C4.18564 5.2244 4.17828 5.22635 3.70279 5.25117C3.44075 5.26479 3.40182 5.32428 3.44063 5.65171C3.47445 5.93748 3.46867 5.95414 3.33589 5.95414C3.25858 5.95414 3.14903 5.91223 3.0924 5.86096C2.99903 5.77647 2.98096 5.78073 2.89903 5.90658C2.8219 6.02495 2.81095 6.43449 2.82433 8.69135C2.8396 11.255 2.86989 12.0019 3.07129 14.774C3.19976 16.5425 3.24903 20.8302 3.16071 22.5599C3.12233 23.3126 3.00931 25.0644 2.90961 26.4528C2.5994 30.7729 2.55189 31.5883 2.47805 33.8534C2.39982 36.2536 2.46065 38.5762 2.64264 40.1388C2.76971 41.2299 2.78686 41.2476 3.55717 41.0805C3.73041 41.0429 3.74908 41.0544 3.78199 41.2191C3.84446 41.5316 4.01003 41.558 5.66586 41.5198C7.12735 41.4863 8.10368 41.3883 9.71206 41.1138L10.399 40.9966L10.9993 41.39C11.9686 42.025 12.362 42.1422 12.5218 41.8436C12.5648 41.7633 12.6937 41.7271 13.0524 41.6946C13.6218 41.6431 13.5868 41.6465 15.9898 41.4152C18.1038 41.2117 18.1028 41.2119 19.4874 41.0832C20.0226 41.0335 21.1723 40.9243 22.0421 40.8406C25.0272 40.5534 28.5651 40.2732 31.6342 40.0811C32.6611 40.0168 33.5563 39.9347 33.6236 39.8987C33.6909 39.8627 33.7755 39.7309 33.8117 39.6059C33.9062 39.2793 33.8424 36.2478 33.6943 34.0257C33.6273 33.0221 33.5166 31.106 33.4481 29.7678C33.3796 28.4297 33.2947 27.0474 33.2595 26.6961C33.2241 26.3448 33.1829 25.9113 33.1678 25.7327C33.1409 25.4146 32.9373 23.9774 32.5084 21.0775C32.1038 18.3426 31.9466 16.5471 31.8858 13.9655L31.8459 12.275L31.4494 12.2928L31.0528 12.3105L31.0657 13.0405C31.1275 16.5542 31.285 18.3821 31.8654 22.322C32.3244 25.4388 32.4039 26.2532 32.5356 29.19C32.5708 29.9762 32.6533 31.5227 32.719 32.6267C32.916 35.9416 32.9964 38.4418 32.9208 38.8979L32.8896 39.0865L31.967 39.1279C30.0677 39.2132 25.4335 39.5664 21.4946 39.926C18.116 40.2345 13.3938 40.6911 13.0907 40.7386L12.7766 40.7878L12.8403 40.6306C12.9494 40.3611 12.9139 38.4442 12.7741 37.0671C12.7029 36.3645 12.6446 35.5134 12.6445 35.1757C12.6443 34.6664 12.6262 34.546 12.5379 34.4702C12.3734 34.3289 12.2454 34.3019 12.0254 34.362C11.9142 34.3924 11.2484 34.499 10.5458 34.5988C8.6516 34.8681 8.17941 34.9784 7.09663 35.4045C6.39304 35.6814 5.47413 36.0026 5.38551 36.0026C5.31781 36.0026 5.35394 35.1845 5.49712 33.4783C5.61805 32.037 5.69767 27.5116 5.64001 25.3579C5.61628 24.4714 5.55448 22.9796 5.50266 22.0428C5.28545 18.1174 5.11039 13.9309 5.01045 10.2728C4.99171 9.58703 4.94853 8.32791 4.9144 7.47481C4.88028 6.62172 4.85552 5.80056 4.85942 5.65001C4.86331 5.49946 4.84841 5.27732 4.82639 5.15634C4.78916 4.95214 4.79859 4.93329 4.95923 4.8918C5.05437 4.86729 6.51451 4.82575 8.20398 4.79953C10.4916 4.76401 11.6406 4.71942 12.7052 4.62477C15.2705 4.39673 15.9785 4.36462 19.1984 4.32976L22.3766 4.2954V3.96906V3.64272L19.6242 3.65197C18.1104 3.65708 16.4338 3.68244 15.8986 3.70842ZM4.38418 7.20109C4.34707 10.3114 4.54269 17.5872 4.76769 21.465C4.91203 23.9529 4.98971 26.4704 4.95346 27.4868C4.93496 28.0054 4.9051 28.9634 4.88709 29.6158C4.81252 32.3207 4.73381 34.1709 4.67754 34.5428C4.59196 35.1078 4.60273 36.1632 4.69768 36.5196C4.88411 37.2193 5.03235 37.361 6.14895 37.907C6.59341 38.1243 7.23075 38.5003 7.5653 38.7425C8.32302 39.2913 9.42453 40.1756 9.43238 40.2416C9.44831 40.3756 7.28738 40.6338 5.84694 40.67C5.13606 40.6878 4.55309 40.6919 4.55151 40.6791C4.54993 40.6663 4.48308 39.9715 4.40303 39.1352C4.32292 38.2988 4.18424 36.9028 4.09482 36.033C3.84312 33.5842 3.82639 31.1361 4.03467 27.2236C4.34312 21.4302 4.33624 17.0076 4.00845 10.2728C3.9767 9.62048 3.93558 8.59403 3.91709 7.99184C3.8986 7.38966 3.86745 6.61478 3.84787 6.2699L3.81228 5.64283L4.10729 5.66163L4.4023 5.68042L4.38418 7.20109ZM3.44008 9.254C3.44501 12.2137 3.39702 11.7969 3.31399 8.15912C3.28199 6.75633 3.28954 6.44076 3.35505 6.44076C3.42038 6.44076 3.43625 6.96642 3.44008 9.254ZM28.277 9.42115C28.0278 9.6703 28.0204 9.68879 28.0464 10.0017C28.1056 10.7153 28.9077 11.2144 29.5017 10.9072C29.8878 10.7076 30.0084 10.0898 29.7476 9.6481C29.6229 9.43678 29.1992 9.22772 28.8223 9.19153C28.5497 9.16531 28.5205 9.1776 28.277 9.42115ZM29.2186 9.82431C29.2733 9.879 29.3092 9.99451 29.299 10.0828C29.2734 10.3034 29.0731 10.321 28.8836 10.1193L28.7346 9.96056L28.8859 9.84432C29.0715 9.70168 29.0946 9.70029 29.2186 9.82431ZM20.2173 11.8899C20.05 11.9369 19.571 12.0182 19.1528 12.0703C18.7346 12.1225 17.7629 12.2519 16.9935 12.3577C15.6674 12.5402 15.5073 12.5495 13.9217 12.5361C12.6461 12.5252 12.0751 12.5455 11.5166 12.6214C10.9333 12.7007 10.6874 12.708 10.308 12.6573C9.76334 12.5845 9.64996 12.6083 9.67581 12.7897C9.68913 12.8832 9.77818 12.9487 9.99837 13.0271C10.2633 13.1215 10.4201 13.1298 11.2149 13.0911C11.7167 13.0667 12.9348 13.0545 13.9217 13.0641C15.6991 13.0812 15.7354 13.079 17.7604 12.8328C18.8847 12.6961 20.0139 12.5843 20.2695 12.5843C20.6532 12.5843 20.7555 12.563 20.856 12.4626C20.9945 12.3241 21.008 12.2082 20.9077 12.0176C20.7769 11.7691 20.6985 11.7546 20.2173 11.8899ZM26.2087 16.2041C24.1458 16.63 23.023 16.7316 19.1528 16.8418C16.9026 16.906 16.0345 16.9643 12.249 17.3057C9.91309 17.5164 9.69065 17.5536 9.74661 17.7241C9.77453 17.8094 12.0151 17.7784 14.2867 17.6615C15.307 17.6089 17.7021 17.541 19.609 17.5107C23.6511 17.4462 25.3649 17.3226 26.817 16.9905C27.7668 16.7733 27.959 16.6478 27.8816 16.2953C27.7967 15.9089 27.6714 15.9021 26.2087 16.2041ZM26.3304 22.0152C24.4431 22.2083 23.4946 22.2582 20.6127 22.316C19.057 22.3472 17.3873 22.3878 16.9022 22.4063C16.4171 22.4247 15.2401 22.4672 14.2867 22.5007C12.4397 22.5655 12.1927 22.5837 11.3366 22.7173C11.0355 22.7642 10.5239 22.8028 10.1996 22.8029C9.84923 22.8031 9.594 22.8294 9.57021 22.8678C9.50823 22.9681 9.71188 23.1532 10.009 23.2666C10.2969 23.3766 10.4821 23.3747 13.7696 23.2282C14.4722 23.1969 16.9083 23.1557 19.1832 23.1365C23.1898 23.1028 24.8075 23.0408 26.9512 22.8385C27.9467 22.7445 28.0944 22.6774 28.0944 22.3186C28.0944 22.1411 28.0597 22.0559 27.9591 21.9855C27.7981 21.8727 27.7062 21.8743 26.3304 22.0152ZM28.2059 26.9698C28.1892 26.9865 27.7672 27.0395 27.2681 27.0875C26.7691 27.1355 25.7586 27.2749 25.0226 27.3973C22.927 27.7457 22.4111 27.785 19.0312 27.8533C14.9154 27.9365 10.9091 28.0776 10.6144 28.1497C10.3224 28.2211 10.2489 28.2912 10.2993 28.4499C10.3302 28.5475 10.412 28.5829 10.6855 28.6175C11.1817 28.6802 21.3588 28.5957 22.5591 28.519C23.1111 28.4837 24.466 28.3467 25.57 28.2146C26.674 28.0826 27.851 27.9451 28.1856 27.9092C29.2889 27.7906 29.3109 27.78 29.3109 27.3692C29.3109 27.0551 29.1335 26.9394 28.652 26.9394C28.4233 26.9394 28.2226 26.9531 28.2059 26.9698ZM27.8815 32.9128C27.5308 33.0095 27.2035 33.0341 26.0262 33.052C25.118 33.0659 24.3528 33.1104 23.9277 33.1743C23.0241 33.3099 21.7237 33.5524 21.6476 33.5994C21.5634 33.6514 21.5698 33.8332 21.6589 33.9223C21.7615 34.025 22.541 34.0148 23.6607 33.8961C24.2876 33.8297 25.0724 33.7997 26.0368 33.8053C27.5943 33.8144 28.2124 33.7576 28.5765 33.5718C28.8453 33.4347 28.9305 33.2179 28.8204 32.9519C28.7591 32.8038 28.7168 32.78 28.528 32.787C28.4066 32.7915 28.1156 32.8481 27.8815 32.9128ZM3.21734 35.0902C3.26843 35.8013 3.50134 38.3496 3.6711 40.0557C3.70073 40.3533 3.69476 40.3695 3.54562 40.398C3.45876 40.4146 3.37786 40.3975 3.36387 40.3594C3.2601 40.0775 3.14623 37.9798 3.12737 36.0026C3.11539 34.748 3.11642 33.8311 3.12975 33.9649C3.14307 34.0987 3.18248 34.6051 3.21734 35.0902ZM35.0575 33.8153C34.99 33.9244 35.2305 37.6111 35.3529 38.3444C35.4133 38.706 35.4424 38.7702 35.5456 38.7702C35.6872 38.7702 35.6863 38.7992 35.5865 37.5537C35.549 37.0853 35.49 36.1079 35.4554 35.3816C35.4208 34.6553 35.366 33.9915 35.3337 33.9066C35.2738 33.7491 35.1282 33.701 35.0575 33.8153ZM11.9152 35.2879C11.9156 35.3631 11.9579 35.8901 12.0091 36.4588C12.1529 38.0573 12.1758 39.9459 12.0581 40.5038C12.0053 40.7547 11.9516 40.9711 11.9388 40.9847C11.8878 41.0391 10.6802 40.1728 9.35969 39.1345C7.75617 37.8738 7.14419 37.4736 6.24231 37.0956C5.98307 36.987 5.77133 36.8814 5.77188 36.8609C5.7734 36.8034 8.17436 35.9013 8.72101 35.7529C8.98865 35.6803 9.79612 35.5187 10.5154 35.3939C11.2347 35.2691 11.8437 35.1634 11.8688 35.159C11.8939 35.1546 11.9148 35.2126 11.9152 35.2879ZM36.6394 35.3129C36.554 35.3983 36.545 35.4902 36.5814 35.9059C36.6384 36.5579 36.7256 36.8185 36.895 36.8427C37.1183 36.8745 37.1782 36.6638 37.1404 35.9789C37.1136 35.4914 37.0853 35.3539 36.9989 35.2907C36.855 35.1855 36.761 35.1913 36.6394 35.3129Z" fill="#464D9E"/>
</svg>
