<svg width="50" height="42" viewBox="0 0 50 42" fill="none" xmlns="http://www.w3.org/2000/svg">
<path fill-rule="evenodd" clip-rule="evenodd" d="M28.6738 0.0397772C26.3396 0.286142 23.6492 1.20296 22.1209 2.27284C20.4361 3.45215 19.0086 5.50107 18.1687 7.94537C17.873 8.8059 17.8586 8.83111 17.6893 8.78579C17.4088 8.71072 16.4331 8.73935 15.9784 8.836C15.3749 8.96435 14.4429 9.27824 13.8808 9.54255C13.2709 9.82921 12.765 10.1986 12.3882 10.6322C12.0608 11.0089 11.5077 12.0866 11.4358 12.4876C11.4101 12.6317 11.3648 12.7495 11.3352 12.7495C11.3056 12.7495 11.0677 12.669 10.8065 12.5707C8.10413 11.5536 4.99412 12.1781 2.84262 14.1701C1.59613 15.3242 0.616961 17.2844 0.228211 19.404C-0.00125474 20.6554 -0.077581 23.3296 0.0917598 24.1853C0.569964 26.6011 2.23474 28.7102 4.51836 29.7933C5.71164 30.3593 7.03906 30.5512 8.89888 30.4265C9.52805 30.3843 10.5222 30.3114 11.1082 30.2645C11.968 30.1957 12.4195 30.1972 13.4475 30.2721C14.1482 30.3232 15.3275 30.38 16.0683 30.3983L17.4152 30.4317L17.0434 30.721C16.739 30.9578 14.9353 32.4634 14.4797 32.8609C14.4137 32.9185 14.3202 33.0659 14.272 33.1884C14.1371 33.5309 14.2694 33.8444 14.6357 34.0502C14.9177 34.2088 15.0158 34.2189 16.8164 34.2743C17.8534 34.3062 18.8825 34.3139 19.1034 34.2914L19.5049 34.2506V34.7775C19.5049 35.0673 19.4398 36.2709 19.3602 37.4521C19.2069 39.7244 19.235 40.6466 19.4714 41.1036C19.5282 41.2136 19.5747 41.3776 19.5747 41.4682C19.5747 41.8482 19.6271 41.8625 21.3356 41.9521C22.5822 42.0176 23.6514 42.0162 26.3285 41.9461C28.2022 41.897 30.4035 41.8653 31.2204 41.8756C32.328 41.8896 32.7275 41.8724 32.7916 41.808C32.9165 41.6827 32.8895 39.0063 32.7473 37.4132C32.6276 36.0723 32.6038 35.1202 32.6765 34.5894L32.7198 34.2734L32.9723 34.3431C33.2545 34.421 34.1461 34.4388 36.0393 34.4041C37.2169 34.3825 37.323 34.3701 37.4122 34.2426C37.48 34.1458 37.5526 34.1183 37.6547 34.1508C37.7693 34.1871 37.8156 34.1577 37.8705 34.0132C37.9892 33.7011 37.9538 33.0912 37.7996 32.7889C37.6049 32.4072 36.2817 31.2948 34.8098 30.2752L34.4541 30.0289L35.4116 30.0574C36.444 30.088 39.5204 29.9689 40.7685 29.8498C45.4615 29.4023 47.7614 27.9084 48.827 24.6156C49.7773 21.6788 49.4545 18.3838 47.9798 15.9689C47.0944 14.5191 45.6467 13.3649 44.1245 12.8953C43.5772 12.7264 42.5154 12.5407 42.0953 12.5403L41.816 12.54L41.8085 11.5798C41.7948 9.8114 41.2796 7.88078 40.2574 5.76636C38.8244 2.80258 35.904 0.743188 32.284 0.143966C31.494 0.0131718 29.4774 -0.0449979 28.6738 0.0397772ZM29.3601 0.581389C29.4469 0.692141 29.4444 0.694585 29.3337 0.607785C29.2173 0.516515 29.1804 0.459184 29.2379 0.459184C29.2523 0.459184 29.3073 0.514211 29.3601 0.581389ZM29.9187 1.14004C30.0055 1.25079 30.0031 1.25323 29.8923 1.16643C29.776 1.07517 29.739 1.01783 29.7965 1.01783C29.811 1.01783 29.866 1.07286 29.9187 1.14004ZM31.1318 1.50749C32.8699 1.63095 34.0429 1.93137 35.4614 2.61627C37.3052 3.50655 38.9038 5.05226 39.7796 6.79148C40.3063 7.83727 40.5984 8.96163 41.0809 11.8003C41.2886 13.0222 41.3705 13.2768 41.5354 13.2135C41.58 13.1964 41.6514 13.2383 41.6941 13.3066C41.7367 13.375 42.0173 13.5315 42.3176 13.6544C42.6178 13.7774 42.942 13.9641 43.038 14.0694C43.1341 14.1746 43.4169 14.3814 43.6665 14.5289C45.7403 15.7541 46.7823 17.9917 46.4677 20.5442C46.379 21.2638 45.9946 22.1945 45.5721 22.7125C44.8998 23.5368 43.4841 24.2577 41.8469 24.6093C40.918 24.8088 39.8678 24.8887 37.1024 24.9698C33.639 25.0715 30.9739 25.1769 30.0494 25.2489C29.6077 25.2831 29.0126 25.3267 28.7268 25.3456L28.2073 25.3799L27.7841 25.0448C27.2869 24.6511 27.0247 24.5083 26.6406 24.422C26.2958 24.3445 26.1193 24.4168 24.9459 25.116L24.1075 25.6155L23.325 25.6426C22.8947 25.6574 21.867 25.7044 21.0412 25.7467C18.9919 25.8521 16.4566 25.8379 13.9533 25.707C12.8011 25.6468 10.6329 25.5808 9.13498 25.5604C6.00304 25.5176 5.09517 25.4507 4.06928 25.1873C3.08207 24.9337 2.51448 24.6065 1.76282 23.8575C1.11102 23.2079 0.740981 22.6939 0.519476 22.1301C0.377719 21.7692 0.37772 21.7692 0.51424 20.8802C0.669964 19.8654 0.719613 19.6559 1.00718 18.8C1.3754 17.704 1.85207 16.8447 2.59011 15.9466C3.88346 14.3726 5.38301 13.5984 7.57341 13.3736C8.46962 13.2817 8.73016 13.3157 10.0596 13.6981C11.2043 14.0273 11.8561 14.1081 11.966 13.9343C12.0536 13.7959 12.0495 13.4463 11.9574 13.182C11.8909 12.9913 11.9096 12.9122 12.1124 12.5256C12.4115 11.9554 13.1928 11.1693 13.7788 10.8488C14.6125 10.3929 15.3962 10.1954 16.7747 10.0937C17.5851 10.034 18.0654 9.94066 18.201 9.81664C18.2328 9.78759 18.2848 9.65784 18.3165 9.52831C18.3854 9.24765 19.0211 7.7055 19.275 7.20342C20.0762 5.6188 21.9913 3.72365 23.6775 2.84664C25.3041 2.00064 27.4848 1.49688 29.7352 1.4473C29.9656 1.4422 30.5941 1.46929 31.1318 1.50749ZM45.471 15.0205C46.378 15.4941 46.339 15.446 46.1975 15.9158C46.132 16.1331 46.0621 16.3102 46.0421 16.3095C46.0222 16.3086 45.8959 16.1293 45.7615 15.911C45.627 15.6926 45.3487 15.3318 45.1429 15.1094C44.9372 14.8868 44.7907 14.7048 44.8175 14.7048C44.8444 14.7048 45.1385 14.8469 45.471 15.0205ZM47.2816 16.3272L47.44 16.4973L47.2042 17.0151C47.0745 17.2999 46.9114 17.7215 46.8419 17.9519C46.7623 18.2155 46.7057 18.3191 46.6894 18.2312C46.6751 18.1544 46.567 17.7753 46.4492 17.3887L46.235 16.6859L46.3545 16.1487L46.474 15.6115L46.7986 15.8843C46.9771 16.0344 47.1945 16.2337 47.2816 16.3272ZM47.9616 17.2195C48.2211 17.6467 48.6245 18.66 48.6245 18.8846C48.6245 19.0344 48.2865 19.8195 47.5079 21.4784C46.3514 23.9421 45.7837 25.4088 45.4736 26.7344C45.3506 27.2603 45.2778 27.4404 45.1559 27.5202C44.9546 27.6521 44.2859 27.917 44.2486 27.8797C44.0978 27.729 45.4248 23.9593 46.1049 22.6064C46.2913 22.2356 46.4829 21.8066 46.5307 21.653C46.5785 21.4993 46.7675 21.0123 46.9508 20.5706C47.5989 19.0084 47.936 18.062 47.9137 17.8675C47.8964 17.7169 47.8085 17.879 47.5271 18.5804C47.3267 19.0797 47.0875 19.6441 46.9954 19.8348L46.8279 20.1813L46.8406 19.5904C46.8515 19.0905 46.9097 18.824 47.2182 17.8623C47.4188 17.237 47.6112 16.7427 47.6458 16.7641C47.6803 16.7854 47.8225 16.9904 47.9616 17.2195ZM48.7467 20.8499C48.7085 22.1264 48.7822 21.8595 48.0137 23.5035C47.8791 23.7915 47.6594 24.2629 47.5255 24.551C47.3917 24.839 47.1736 25.3727 47.0409 25.7368C46.865 26.2198 46.7395 26.4504 46.5774 26.589C46.2476 26.8707 45.6224 27.2983 45.589 27.2649C45.5457 27.2216 46.4084 24.9643 47.2267 22.9798C48.803 19.1572 48.7055 19.3763 48.7483 19.558C48.7664 19.6348 48.7657 20.2161 48.7467 20.8499ZM0.699572 23.042C0.69175 23.0846 0.732532 23.1089 0.790142 23.0962C0.847753 23.0833 0.871496 23.0963 0.842865 23.1249C0.814235 23.1535 0.868074 23.2783 0.962555 23.4021C1.13106 23.623 1.13211 23.6328 1.01975 23.9188C0.88204 24.2694 0.854458 24.2331 0.65055 23.4325C0.567521 23.1066 0.44769 22.7772 0.384144 22.7004C0.320598 22.6236 0.36871 22.6516 0.491124 22.7627C0.613538 22.8738 0.707323 22.9995 0.699572 23.042ZM48.9039 22.8316C48.9039 22.846 48.8488 22.9011 48.7817 22.9538C48.6709 23.0406 48.6685 23.0381 48.7553 22.9274C48.8465 22.811 48.9039 22.7741 48.9039 22.8316ZM48.3452 23.3879C48.3452 23.4012 48.2745 23.4719 48.1881 23.545L48.031 23.6781L48.164 23.5209C48.289 23.3733 48.3452 23.3321 48.3452 23.3879ZM44.9969 24.324C44.6064 25.3262 44.3084 26.2935 44.1162 27.1826C44.0225 27.6158 43.9458 27.9841 43.9458 28.0008C43.9458 28.0724 42.4194 28.4946 42.3633 28.4385C42.3464 28.4216 42.4637 28.0035 42.6241 27.5094C42.8677 26.7591 43.0563 26.2629 43.7171 24.6348C43.7373 24.5849 43.9307 24.4545 44.1467 24.3451C44.3627 24.2357 44.6808 24.0346 44.8537 23.8982C45.0265 23.7619 45.1891 23.6487 45.215 23.6467C45.2409 23.6448 45.1428 23.9496 44.9969 24.324ZM2.11694 24.5449C2.11694 24.6158 1.59062 25.5979 1.55249 25.5981C1.53007 25.5983 1.39893 25.3598 1.26108 25.0682C0.990697 24.4961 0.991606 24.5636 1.24474 23.8656C1.26688 23.8046 1.4189 23.8978 1.69746 24.143C1.92818 24.3461 2.11694 24.5269 2.11694 24.5449ZM3.12949 25.1444C3.32152 25.2488 3.50064 25.3474 3.5276 25.3635C3.55448 25.3797 3.49652 25.5099 3.39883 25.6528C3.10854 26.0773 2.89164 26.5455 2.84234 26.8535L2.79612 27.1425L2.58676 26.9466C2.47161 26.8388 2.23956 26.5655 2.07099 26.3393C1.73168 25.8838 1.73231 25.9518 2.06002 25.0928L2.26631 24.5521L2.52328 24.7533C2.66469 24.864 2.93745 25.0399 3.12949 25.1444ZM43.219 25.097C42.8242 25.876 42.0604 28.0197 42.0604 28.3485C42.0604 28.4123 41.9897 28.494 41.9033 28.5299C41.7133 28.6091 40.7273 28.7577 40.6834 28.7139C40.6662 28.6968 40.8881 28.0594 41.1763 27.2977C42.0954 24.869 41.9712 25.1197 42.297 25.0361C42.4549 24.9956 42.757 24.9056 42.9682 24.8361C43.1794 24.7666 43.3623 24.718 43.3744 24.7281C43.3866 24.7382 43.3167 24.9042 43.219 25.097ZM41.6414 25.2074C41.6414 25.2228 41.5129 25.5134 41.3558 25.8533C40.9198 26.7969 40.6622 27.4605 40.4823 28.1045C40.3923 28.4267 40.3025 28.7064 40.2828 28.7261C40.2631 28.7459 39.9322 28.7771 39.5475 28.7956C38.9376 28.825 38.8482 28.815 38.8482 28.7171C38.8482 28.4896 39.2932 27.4929 39.8028 26.5793C40.5238 25.2863 40.4504 25.3666 40.996 25.275C41.5663 25.1793 41.6414 25.1714 41.6414 25.2074ZM38.3527 25.5425C38.3059 25.6309 38.1968 25.8157 38.1105 25.9533C37.7883 26.4665 37.3581 27.3784 37.1301 28.0316L36.8948 28.7059L36.4923 28.6851C36.271 28.6737 36.0079 28.6486 35.9078 28.6294L35.7257 28.5945L36.066 27.7424C36.2532 27.2738 36.508 26.58 36.6321 26.2008C36.7955 25.7021 36.8966 25.4969 36.9976 25.4591C37.0745 25.4304 37.43 25.4012 37.7876 25.3944L38.4379 25.3818L38.3527 25.5425ZM40.1051 25.4246C40.1051 25.4442 39.9486 25.7102 39.7572 26.0155C39.2162 26.8786 38.7862 27.7492 38.6221 28.3137L38.4721 28.8292L37.8789 28.7836C37.5527 28.7585 37.2745 28.7267 37.2608 28.713C37.187 28.6392 38.1464 26.5707 38.6164 25.7905L38.8583 25.3889H39.4817C39.8246 25.3889 40.1051 25.405 40.1051 25.4246ZM28.5131 27.0655C30.6631 29.0025 33.6163 31.4051 35.4897 32.7415L36.1465 33.21H34.8757C33.6601 33.21 32.7501 33.3147 32.4174 33.4927C32.3388 33.5348 32.2909 33.6894 32.2625 33.9928C32.0756 35.9871 32.0682 36.207 32.147 37.4348C32.2775 39.467 32.3289 40.4357 32.3078 40.4647C32.2969 40.4796 30.4826 40.4857 28.2759 40.4783C24.1018 40.4643 22.6153 40.5205 21.0086 40.7532C20.5106 40.8253 20.0937 40.875 20.0821 40.8635C20.0335 40.8148 20.0326 37.812 20.0805 35.5682L20.1324 33.1428L19.9519 33.0245C19.7886 32.9175 19.6869 32.9141 18.8875 32.9886C17.9644 33.0747 16.6752 33.0854 16.344 33.0098C16.1552 32.9666 16.1613 32.9581 16.6233 32.6174C17.1112 32.2578 17.8516 31.6272 18.7019 30.847C19.7576 29.8783 20.7031 29.2091 22.5775 28.1039C24.4238 27.0152 25.5148 26.3305 26.1046 25.8903L26.6549 25.4796L27.1475 25.8794C27.4185 26.0992 28.0331 26.633 28.5131 27.0655ZM35.4963 25.5245C35.4963 25.5606 35.4625 25.6111 35.4213 25.6365C35.1875 25.781 34.4288 27.1608 34.0632 28.1065C33.8814 28.5767 33.7964 28.7139 33.6582 28.76C33.5355 28.8009 33.4658 28.8917 33.4248 29.0641L33.3664 29.3098L32.9649 29.0454C32.6381 28.83 32.5715 28.7544 32.6068 28.6386C32.6307 28.5604 32.8853 27.8298 33.1728 27.0151L33.6954 25.5338L34.299 25.5106C34.6311 25.4979 35.0363 25.481 35.1995 25.4731C35.3627 25.4653 35.4963 25.4883 35.4963 25.5245ZM36.6136 25.519C36.6136 25.5878 36.3016 26.3414 36.0169 26.9601C35.9109 27.1906 35.7222 27.6462 35.5975 27.9727L35.3708 28.5663L34.8399 28.5866C34.548 28.5979 34.3091 28.5814 34.3091 28.5501C34.3091 28.3008 35.0769 26.6378 35.4461 26.0872C35.8284 25.5174 35.9058 25.4588 36.2766 25.4588C36.4619 25.4588 36.6136 25.4859 36.6136 25.519ZM4.43268 25.6895L4.63393 25.773L4.44958 26.0433C4.26501 26.3139 3.63374 27.4984 3.57159 27.6908C3.54666 27.7679 3.45853 27.7274 3.21259 27.5259L2.88662 27.2588L3.01601 27.0746C3.08717 26.9732 3.21412 26.7332 3.29813 26.5411C3.38221 26.3491 3.55141 26.0425 3.67431 25.8598C3.91314 25.5045 3.96097 25.4938 4.43268 25.6895ZM33.4321 25.6857C33.4055 25.7721 33.2909 26.0471 33.1775 26.2967C32.8587 26.9981 32.446 28.0527 32.3917 28.3044C32.3648 28.4292 32.32 28.5313 32.2923 28.5313C32.187 28.5313 31.6556 28.0963 31.6556 28.0101C31.6556 27.8668 31.8384 27.4471 32.3339 26.4539L32.7954 25.5286H33.138C33.461 25.5286 33.4778 25.5375 33.4321 25.6857ZM32.4237 25.6233C32.4237 25.637 32.2599 25.9591 32.0598 26.3391C31.8597 26.7191 31.6256 27.2028 31.5396 27.414C31.4537 27.6253 31.3642 27.7981 31.3407 27.7981C31.3174 27.7981 31.0953 27.6567 30.8474 27.4839C30.3422 27.1317 30.3512 27.1687 30.5743 26.3601C30.6495 26.0875 30.6792 25.8453 30.6471 25.7665C30.6014 25.6541 30.572 25.6812 30.4591 25.9409C30.3855 26.11 30.2901 26.3928 30.2469 26.5694C30.2038 26.7459 30.1605 26.9004 30.1507 26.9126C30.1408 26.9249 29.9334 26.7884 29.6896 26.6094C29.2773 26.3065 29.2436 26.2611 29.206 25.9585C29.1659 25.6345 29.1655 25.6342 29.1104 25.8583C29.0492 26.1073 29.0077 26.1002 28.6179 25.7743L28.4084 25.5991L30.416 25.5988C31.5203 25.5986 32.4237 25.6096 32.4237 25.6233ZM5.62889 25.9199C5.84809 25.9457 6.02748 25.9784 6.02748 25.9927C6.02748 26.0069 5.86024 26.309 5.65584 26.664C5.45138 27.0189 5.17645 27.5677 5.04482 27.8837C4.91312 28.1995 4.77702 28.4588 4.74231 28.4598C4.70761 28.4607 4.478 28.349 4.23212 28.2115C3.91851 28.0361 3.80434 27.9371 3.84952 27.8798C3.88499 27.8348 4.14281 27.348 4.42242 26.7981C4.87311 25.9114 4.94775 25.8022 5.0805 25.8355C5.1629 25.8562 5.40962 25.8942 5.62889 25.9199ZM7.62543 26.1282C7.6401 26.1415 7.52914 26.3498 7.37879 26.5911C7.03808 27.1381 6.58746 28.0206 6.37909 28.5488C6.29201 28.7697 6.18258 28.9503 6.13586 28.9503C6.08922 28.9503 5.84041 28.8842 5.58294 28.8034C5.16318 28.6716 5.11954 28.641 5.1599 28.5066C5.2532 28.1963 5.68336 27.2613 5.94271 26.8052C6.44508 25.9217 6.32985 26.003 7.00512 26.0567C7.33158 26.0828 7.6107 26.1149 7.62543 26.1282ZM12.6999 26.1024C12.7265 26.1289 12.5969 26.3799 12.412 26.6601C11.9945 27.2929 11.2796 28.6961 11.2241 28.9915C11.1856 29.1971 11.1591 29.2145 10.8223 29.2549C10.624 29.2787 10.2648 29.2986 10.0241 29.2989L9.5865 29.2995L9.76136 28.9544C9.85752 28.7647 10.0315 28.3693 10.1482 28.0758C10.416 27.4016 11.058 26.1937 11.2051 26.0872C11.279 26.0338 12.6451 26.0476 12.6999 26.1024ZM23.4097 26.0372C23.3937 26.0481 23.3177 26.103 23.2409 26.1594C23.1117 26.2541 23.1084 26.2527 23.197 26.1396C23.2498 26.0724 23.3257 26.0174 23.3658 26.0174C23.4059 26.0174 23.4257 26.0263 23.4097 26.0372ZM9.05111 26.1745C9.02038 26.2226 8.81613 26.5314 8.59714 26.8609C8.17906 27.4901 7.66761 28.4364 7.48165 28.925L7.37167 29.2141L7.06615 29.1551C6.89814 29.1226 6.71805 29.0947 6.66588 29.0931C6.5978 29.0908 6.58432 29.0357 6.61805 28.898C6.67887 28.6498 7.56712 26.8504 7.8417 26.4189L8.05287 26.0872H8.57996C8.98484 26.0872 9.09406 26.1075 9.05111 26.1745ZM10.7938 26.1745C10.5159 26.5255 9.78713 28.0305 9.55508 28.7329L9.36158 29.3184L8.59895 29.2823C8.17947 29.2624 7.82061 29.2304 7.80148 29.2113C7.73793 29.1478 8.34093 27.9514 8.90963 27.0125L9.4701 26.0872H10.1665C10.714 26.0872 10.8481 26.1059 10.7938 26.1745ZM14.3455 26.1445C14.4396 26.1841 14.3842 26.3136 14.0114 26.9252C13.6362 27.5405 12.967 28.7895 12.8646 29.0654C12.8483 29.1092 12.5432 29.1639 12.1567 29.1924L11.4774 29.2424L11.7641 28.625C11.9219 28.2855 12.2825 27.6122 12.5656 27.1288C12.8488 26.6455 13.0804 26.2134 13.0804 26.1687C13.0804 26.0794 14.1424 26.0591 14.3455 26.1445ZM15.9323 26.2643C15.9453 26.2762 15.8062 26.5319 15.6231 26.8326C15.4401 27.1332 15.1083 27.7617 14.8857 28.2294L14.4811 29.0796L13.8681 29.1026C13.5309 29.1153 13.2427 29.1184 13.2276 29.1095C13.2126 29.1006 13.2365 29.0496 13.2808 28.9962C13.3524 28.91 14.0853 27.5352 14.602 26.518L14.7911 26.1456L15.3499 26.1941C15.6571 26.2207 15.9193 26.2523 15.9323 26.2643ZM22.7147 26.2444C22.7093 26.4352 22.5224 26.6517 22.1232 26.9296C21.8929 27.0898 21.5084 27.3601 21.2688 27.5301L20.833 27.8392L21.0374 27.2949C21.4376 26.2298 21.3953 26.2972 21.6675 26.2927C21.8031 26.2905 22.0398 26.2627 22.1934 26.2309C22.6091 26.1449 22.7174 26.1477 22.7147 26.2444ZM17.1307 26.3711C17.1307 26.412 16.9907 26.7184 16.8197 27.052C16.4349 27.8023 16.101 28.5409 16.0443 28.7667C16.0057 28.9207 15.9541 28.9421 15.5145 28.9862C15.2466 29.0132 15.0088 29.0165 14.9861 28.9938C14.9378 28.9456 15.8389 27.115 16.1504 26.6284C16.3615 26.2987 16.365 26.2967 16.7467 26.2967C16.9716 26.2967 17.1307 26.3275 17.1307 26.3711ZM18.2947 26.5586C18.2473 26.6643 18.0644 27.0335 17.8883 27.3791C17.7121 27.7248 17.4968 28.2198 17.4097 28.479L17.2515 28.9503H16.7778H16.3041L16.6534 28.1647C16.8456 27.7327 17.1113 27.1513 17.2439 26.8728L17.485 26.3666H17.9329H18.3808L18.2947 26.5586ZM20.0636 26.394C20.0636 26.4091 19.8631 26.8097 19.6182 27.2844C19.3731 27.7589 19.0849 28.3764 18.9775 28.6564C18.7872 29.1528 18.7772 29.1644 18.5793 29.121C18.4676 29.0965 18.2061 29.0533 17.998 29.025C17.5721 28.9673 17.497 28.9234 17.6038 28.7947C17.6444 28.7457 17.7412 28.5445 17.8188 28.3477C17.8964 28.1508 18.1368 27.6245 18.353 27.1782L18.7461 26.3666H19.4048C19.7671 26.3666 20.0636 26.3789 20.0636 26.394ZM20.698 27.2918L20.2976 28.2171L19.7791 28.6104C19.4939 28.8267 19.2523 28.9966 19.2423 28.9879C19.1974 28.949 19.4672 28.3144 19.9256 27.3805L20.4233 26.3666H20.7608H21.0983L20.698 27.2918Z" fill="#494C9F"/>
</svg>
