<svg width="812" height="1594" viewBox="0 0 812 1594" fill="none" xmlns="http://www.w3.org/2000/svg">
<path d="M70.4194 1542.13C70.4194 1542.13 840.919 982.128 385.919 769.628C-69.0806 557.128 721.419 1.12854 721.419 1.12854" stroke="url(#paint0_linear)"/>
<path d="M161.14 221.916L143.631 221.148C143.525 221.141 143.353 221.142 143.19 221.231C143.096 221.282 143.004 221.364 142.944 221.482C142.906 221.555 142.888 221.628 142.881 221.695C142.855 221.821 142.866 221.95 142.914 222.072C142.969 222.213 143.062 222.315 143.145 222.387L143.152 222.393L143.16 222.399L157.016 233.44L157.018 233.442L167.029 241.499L167.029 241.499C167.115 241.568 167.141 241.623 167.151 241.661C167.161 241.703 167.166 241.78 167.118 241.912L164.34 249.544C164.308 249.631 164.278 249.684 164.256 249.715C164.234 249.705 164.204 249.688 164.163 249.657L133.099 223.654L133.099 223.654L133.092 223.648C133.006 223.578 132.98 223.523 132.97 223.485C132.959 223.443 132.955 223.366 133.003 223.234L136.437 213.799C136.485 213.667 136.538 213.611 136.573 213.586C136.605 213.563 136.66 213.537 136.771 213.54L136.771 213.54L136.781 213.54L177.301 213.588L177.343 213.588L177.376 213.582C177.38 213.583 177.389 213.585 177.404 213.589C177.404 213.593 177.403 213.598 177.403 213.602C177.398 213.643 177.384 213.704 177.354 213.788L174.576 221.42C174.528 221.552 174.475 221.608 174.44 221.633C174.408 221.656 174.353 221.682 174.243 221.679L174.233 221.679L174.223 221.679L161.14 221.916Z" stroke="#6C64A7"/>
<circle cx="155.14" cy="225.86" r="39.5" transform="rotate(-70 155.14 225.86)" stroke="#6C64A7"/>
<path d="M719.141 1484.44L693.053 1504.45C692.913 1504.56 692.746 1504.7 692.664 1504.91C692.618 1505.03 692.599 1505.17 692.632 1505.31C692.655 1505.41 692.697 1505.5 692.747 1505.56C692.821 1505.71 692.936 1505.83 693.084 1505.91C693.249 1506 693.429 1506.03 693.591 1506.03L693.601 1506.03L693.61 1506.03L726.821 1505.19L726.824 1505.19L750.915 1504.7L750.916 1504.7C751.2 1504.69 751.401 1504.76 751.552 1504.87C751.705 1504.98 751.85 1505.16 751.961 1505.47L757.17 1519.78C757.301 1520.14 757.301 1520.37 757.257 1520.52C757.184 1520.62 757.029 1520.73 756.65 1520.74L680.684 1520.83L680.684 1520.83L680.674 1520.83C680.39 1520.84 680.189 1520.77 680.038 1520.66C679.884 1520.55 679.74 1520.37 679.628 1520.06L673.189 1502.37C673.078 1502.06 673.068 1501.82 673.114 1501.64C673.16 1501.46 673.271 1501.28 673.493 1501.1L673.493 1501.1L673.5 1501.1L731.759 1452.33L731.791 1452.3L731.818 1452.27C731.853 1452.23 731.923 1452.17 732.064 1452.12C732.24 1452.06 732.328 1452.09 732.395 1452.13C732.493 1452.2 732.633 1452.37 732.768 1452.74L737.976 1467.05C738.088 1467.35 738.098 1467.59 738.052 1467.77C738.006 1467.95 737.895 1468.13 737.673 1468.31L737.666 1468.32L737.658 1468.33L719.141 1484.44Z" stroke="#483F92"/>
<circle cx="715" cy="1497" r="74.5" transform="rotate(-110 715 1497)" stroke="#483F92"/>
<path d="M69.3622 756.998L60.9734 777.24C60.9228 777.355 60.8611 777.531 60.8905 777.725C60.9074 777.837 60.9551 777.955 61.0481 778.056C61.1076 778.12 61.1746 778.165 61.2403 778.196C61.3576 778.27 61.4927 778.307 61.6339 778.303C61.7954 778.299 61.9356 778.244 62.0448 778.182L62.053 778.178L62.0611 778.173L80.9542 766.617L80.9563 766.616L94.7007 758.301L94.7009 758.301C94.8378 758.218 94.9403 758.202 95.0212 758.21C95.1058 758.219 95.2209 758.26 95.3693 758.385L103.146 764.91C103.298 765.037 103.356 765.131 103.378 765.186C103.364 765.221 103.322 765.283 103.188 765.369L59.3614 790.741L59.3614 790.741L59.3529 790.746C59.216 790.829 59.1135 790.845 59.0326 790.837C58.948 790.828 58.8329 790.787 58.6845 790.662L49.0702 782.595C48.9218 782.471 48.861 782.364 48.8377 782.283C48.8155 782.204 48.8138 782.101 48.8717 781.951L48.8718 781.951L48.8751 781.942L66.255 734.367L66.2695 734.327L66.2771 734.286C66.2771 734.286 66.2775 734.284 66.2787 734.281C66.2799 734.277 66.2821 734.272 66.286 734.264C66.2939 734.249 66.3083 734.226 66.3336 734.196C66.3622 734.161 66.3798 734.151 66.3832 734.15C66.3841 734.15 66.3856 734.15 66.3878 734.15C66.4163 734.152 66.5203 734.177 66.7103 734.337L74.4874 740.863C74.6358 740.987 74.6966 741.093 74.7199 741.175C74.7421 741.253 74.7438 741.357 74.6859 741.506L74.6824 741.515L74.6792 741.525L69.3622 756.998Z" stroke="#6960A5"/>
<circle cx="71.3132" cy="765.687" r="49.5" transform="rotate(-140 71.3132 765.687)" stroke="#6960A5"/>
<path d="M720.677 612.149L695.002 606.453C694.862 606.418 694.663 606.387 694.466 606.453C694.354 606.491 694.242 606.561 694.157 606.674C694.1 606.748 694.066 606.827 694.046 606.902C693.989 607.039 693.975 607.189 694.005 607.337C694.039 607.506 694.124 607.646 694.212 607.754L694.218 607.762L694.225 607.769L711.818 627.688L711.82 627.69L724.51 642.201L724.51 642.201C724.648 642.359 724.7 642.496 724.709 642.619C724.718 642.746 724.686 642.91 724.562 643.124L718.471 653.675C718.331 653.916 718.211 654.017 718.128 654.057C718.063 654.058 717.95 654.026 717.776 653.835L678.658 607.328L678.658 607.328L678.651 607.32C678.513 607.162 678.461 607.025 678.453 606.902C678.443 606.775 678.476 606.611 678.6 606.397L686.13 593.354C686.253 593.14 686.38 593.03 686.494 592.974C686.605 592.921 686.75 592.896 686.955 592.937L686.955 592.937L686.965 592.939L746.81 603.564L746.851 603.572L746.893 603.572C746.914 603.572 746.967 603.579 747.061 603.633C747.121 603.668 747.147 603.697 747.158 603.712C747.167 603.725 747.173 603.739 747.176 603.765C747.182 603.829 747.162 603.979 747.009 604.245L740.918 614.795C740.794 615.009 740.668 615.12 740.554 615.175C740.443 615.229 740.298 615.253 740.092 615.212L740.083 615.21L740.073 615.209L720.677 612.149Z" stroke="#7970AE"/>
<circle cx="710.833" cy="616.167" r="59.5" transform="rotate(-60 710.833 616.167)" stroke="#7970AE"/>
<defs>
<linearGradient id="paint0_linear" x1="70.4194" y1="771.628" x2="721.419" y2="771.628" gradientUnits="userSpaceOnUse">
<stop stop-color="#322885"/>
<stop offset="1" stop-color="#F3EEF4"/>
</linearGradient>
</defs>
</svg>
