<svg width="1593" height="811" viewBox="0 0 1593 811" fill="none" xmlns="http://www.w3.org/2000/svg">
<path d="M51 69.5479C51 69.5479 611 840.048 823.5 385.048C1036 -69.9521 1592 720.548 1592 720.548" stroke="url(#paint0_linear)"/>
<path d="M1371.21 160.268L1371.98 142.759C1371.99 142.653 1371.99 142.481 1371.9 142.319C1371.85 142.224 1371.76 142.133 1371.65 142.072C1371.57 142.035 1371.5 142.016 1371.43 142.01C1371.31 141.984 1371.18 141.995 1371.06 142.042C1370.92 142.097 1370.81 142.19 1370.74 142.274L1370.74 142.281L1370.73 142.288L1359.69 156.144L1359.69 156.146L1351.63 166.157L1351.63 166.157C1351.56 166.244 1351.51 166.269 1351.47 166.279C1351.43 166.29 1351.35 166.294 1351.22 166.246L1343.58 163.468C1343.5 163.437 1343.44 163.407 1343.41 163.384C1343.42 163.363 1343.44 163.332 1343.47 163.292L1369.47 132.228L1369.47 132.228L1369.48 132.22C1369.55 132.134 1369.61 132.108 1369.64 132.098C1369.69 132.088 1369.76 132.083 1369.89 132.131L1379.33 135.565C1379.46 135.614 1379.52 135.666 1379.54 135.701C1379.57 135.733 1379.59 135.789 1379.59 135.899L1379.59 135.899L1379.59 135.909L1379.54 176.429L1379.54 176.471L1379.55 176.504C1379.55 176.509 1379.54 176.518 1379.54 176.532C1379.54 176.532 1379.53 176.532 1379.53 176.531C1379.49 176.526 1379.42 176.513 1379.34 176.483L1371.71 173.705C1371.58 173.657 1371.52 173.604 1371.5 173.569C1371.47 173.537 1371.45 173.482 1371.45 173.371L1371.45 173.361L1371.45 173.352L1371.21 160.268Z" stroke="#6C64A7"/>
<circle cx="1367.27" cy="154.269" r="39.5" transform="rotate(20 1367.27 154.269)" stroke="#6C64A7"/>
<path d="M108.686 718.269L88.6744 692.181C88.5727 692.041 88.4239 691.874 88.2157 691.793C88.098 691.747 87.9598 691.728 87.815 691.761C87.7164 691.783 87.6327 691.825 87.5635 691.875C87.417 691.95 87.2984 692.065 87.2181 692.212C87.128 692.377 87.0996 692.557 87.0975 692.72L87.0974 692.729L87.0977 692.739L87.9394 725.95L87.9394 725.952L88.4323 750.044L88.4323 750.044C88.4382 750.328 88.3717 750.529 88.2628 750.68C88.1516 750.834 87.9649 750.978 87.6577 751.09L73.3476 756.298C72.9866 756.43 72.7562 756.429 72.6133 756.386C72.5082 756.313 72.4008 756.158 72.3859 755.779L72.2958 679.812L72.2959 679.812L72.2956 679.802C72.2897 679.518 72.3562 679.317 72.4651 679.166C72.5762 679.013 72.763 678.868 73.0702 678.757L90.7607 672.318C91.0679 672.206 91.3036 672.196 91.4876 672.243C91.6679 672.288 91.8482 672.4 92.0262 672.621L92.0261 672.621L92.0325 672.629L140.8 730.887L140.827 730.919L140.859 730.947C140.899 730.981 140.955 731.051 141.006 731.193C141.071 731.369 141.043 731.456 140.997 731.523C140.93 731.622 140.762 731.761 140.391 731.896L126.081 737.105C125.774 737.217 125.538 737.226 125.354 737.18C125.174 737.135 124.993 737.023 124.815 736.802L124.809 736.794L124.803 736.787L108.686 718.269Z" stroke="#483F92"/>
<circle cx="96.1285" cy="714.128" r="74.5" transform="rotate(-20 96.1285 714.128)" stroke="#483F92"/>
<path d="M836.131 68.4907L815.888 60.102C815.774 60.0513 815.597 59.9897 815.403 60.019C815.291 60.036 815.173 60.0837 815.073 60.1766C815.008 60.2362 814.963 60.3031 814.932 60.3688C814.859 60.4861 814.822 60.6212 814.825 60.7624C814.829 60.9239 814.885 61.0642 814.946 61.1733L814.951 61.1816L814.956 61.1897L826.511 80.0827L826.513 80.0848L834.827 93.8292L834.828 93.8294C834.91 93.9663 834.927 94.0688 834.918 94.1497C834.91 94.2343 834.868 94.3495 834.744 94.4979L828.218 102.275C828.091 102.426 827.998 102.484 827.942 102.506C827.907 102.493 827.845 102.451 827.76 102.316L802.387 58.49L802.387 58.4899L802.382 58.4815C802.299 58.3445 802.283 58.2421 802.291 58.1612C802.3 58.0766 802.341 57.9614 802.466 57.813L810.533 48.1987C810.658 48.0503 810.764 47.9895 810.846 47.9663C810.924 47.944 811.028 47.9423 811.177 48.0002L811.177 48.0003L811.186 48.0037L858.761 65.3836L858.801 65.398L858.843 65.4057C858.843 65.4057 858.844 65.406 858.848 65.4072C858.851 65.4084 858.857 65.4106 858.864 65.4145C858.88 65.4224 858.903 65.4368 858.933 65.4621C858.967 65.4908 858.977 65.5084 858.979 65.5117C858.979 65.5126 858.979 65.5142 858.979 65.5164C858.976 65.5448 858.951 65.6488 858.792 65.8388L852.266 73.6159C852.141 73.7643 852.035 73.8251 851.953 73.8484C851.875 73.8706 851.771 73.8724 851.622 73.8145L851.613 73.8109L851.604 73.8078L836.131 68.4907Z" stroke="#6960A5"/>
<circle cx="827.442" cy="70.4417" r="49.5" transform="rotate(-50 827.442 70.4417)" stroke="#6960A5"/>
<path d="M980.98 719.805L986.676 694.13C986.71 693.991 986.742 693.791 986.675 693.595C986.638 693.483 986.567 693.37 986.455 693.285C986.381 693.229 986.302 693.194 986.227 693.175C986.089 693.118 985.94 693.103 985.791 693.133C985.622 693.167 985.483 693.252 985.374 693.341L985.367 693.347L985.36 693.353L965.44 710.947L965.438 710.948L950.928 723.639L950.928 723.639C950.77 723.777 950.632 723.829 950.509 723.837C950.383 723.847 950.218 723.814 950.004 723.69L939.454 717.599C939.213 717.46 939.112 717.339 939.071 717.256C939.071 717.191 939.102 717.078 939.293 716.904L985.801 677.786L985.801 677.786L985.808 677.78C985.966 677.642 986.104 677.59 986.226 677.581C986.353 677.572 986.517 677.605 986.731 677.728L999.774 685.258C999.988 685.382 1000.1 685.508 1000.15 685.622C1000.21 685.733 1000.23 685.878 1000.19 686.084L1000.19 686.084L1000.19 686.093L989.564 745.938L989.557 745.979L989.556 746.022C989.556 746.042 989.549 746.096 989.495 746.189C989.46 746.249 989.432 746.275 989.416 746.286C989.403 746.295 989.389 746.302 989.364 746.304C989.299 746.311 989.149 746.291 988.884 746.138L978.333 740.046C978.119 739.923 978.009 739.796 977.953 739.682C977.9 739.571 977.876 739.426 977.916 739.221L977.918 739.211L977.92 739.202L980.98 719.805Z" stroke="#7970AE"/>
<circle cx="976.962" cy="709.962" r="59.5" transform="rotate(30 976.962 709.962)" stroke="#7970AE"/>
<defs>
<linearGradient id="paint0_linear" x1="821.5" y1="69.5479" x2="821.5" y2="720.548" gradientUnits="userSpaceOnUse">
<stop stop-color="#322885"/>
<stop offset="1" stop-color="#F3EEF4"/>
</linearGradient>
</defs>
</svg>
