<svg width="243" height="36" viewBox="0 0 243 36" fill="none" xmlns="http://www.w3.org/2000/svg">
<path d="M13.2963 35.925C10.6203 35.925 8.27881 35.5069 6.27182 34.6706C4.26484 33.8009 2.70943 32.58 1.60559 31.0079C0.535196 29.4023 0 27.5458 0 25.4385V24.3347C0 24.1674 0.0501746 24.0336 0.150524 23.9333C0.284323 23.7995 0.434846 23.7326 0.602095 23.7326H6.322C6.48925 23.7326 6.62305 23.7995 6.72339 23.9333C6.85719 24.0336 6.92409 24.1674 6.92409 24.3347V25.0873C6.92409 26.4253 7.54291 27.5626 8.78055 28.4992C10.0182 29.4023 11.6907 29.8539 13.798 29.8539C15.5708 29.8539 16.8921 29.4859 17.7618 28.75C18.6315 27.9807 19.0663 27.0441 19.0663 25.9403C19.0663 25.1375 18.7987 24.4685 18.2635 23.9333C17.7283 23.3646 16.9925 22.8796 16.0559 22.4782C15.1527 22.0434 13.6977 21.458 11.6907 20.7221C9.44955 19.9528 7.54291 19.1667 5.97078 18.3639C4.43209 17.5611 3.12755 16.474 2.05716 15.1026C1.02022 13.6977 0.501746 11.975 0.501746 9.93456C0.501746 7.92758 1.02022 6.17147 2.05716 4.66624C3.0941 3.161 4.53244 2.00698 6.37217 1.20419C8.21191 0.401397 10.336 0 12.7443 0C15.2865 0 17.5444 0.45157 19.5179 1.35471C21.5249 2.25785 23.0803 3.52894 24.1841 5.16798C25.3214 6.77357 25.8901 8.64675 25.8901 10.7875V11.5402C25.8901 11.7074 25.8232 11.8579 25.6894 11.9917C25.589 12.0921 25.4552 12.1422 25.288 12.1422H19.5179C19.3507 12.1422 19.2001 12.0921 19.0663 11.9917C18.966 11.8579 18.9158 11.7074 18.9158 11.5402V11.1388C18.9158 9.73387 18.3304 8.5464 17.1597 7.57636C16.0224 6.57287 14.4503 6.07112 12.4433 6.07112C10.8712 6.07112 9.63352 6.40562 8.73038 7.07461C7.86069 7.74361 7.42584 8.66348 7.42584 9.83422C7.42584 10.6705 7.67671 11.3729 8.17846 11.9415C8.71365 12.5102 9.483 13.0287 10.4865 13.497C11.5234 13.9318 13.1123 14.5339 15.2531 15.3032C17.628 16.1729 19.4845 16.9423 20.8225 17.6113C22.1939 18.2803 23.4148 19.2838 24.4852 20.6217C25.589 21.9263 26.141 23.6322 26.141 25.7396C26.141 28.8838 24.9869 31.3758 22.6789 33.2156C20.3709 35.0219 17.2433 35.925 13.2963 35.925Z" fill="#322885"/>
<path d="M54.9369 0.401395C55.1041 0.401395 55.2379 0.468295 55.3383 0.602094C55.4721 0.702444 55.539 0.836242 55.539 1.00349V5.9206C55.539 6.08785 55.4721 6.23837 55.3383 6.37217C55.2379 6.47252 55.1041 6.5227 54.9369 6.5227H45.9556C45.7884 6.5227 45.7047 6.60632 45.7047 6.77357V34.9215C45.7047 35.0888 45.6378 35.2393 45.504 35.3731C45.4037 35.4734 45.2699 35.5236 45.1026 35.5236H39.2322C39.065 35.5236 38.9144 35.4734 38.7806 35.3731C38.6803 35.2393 38.6301 35.0888 38.6301 34.9215V6.77357C38.6301 6.60632 38.5465 6.5227 38.3792 6.5227H29.6489C29.4816 6.5227 29.3311 6.47252 29.1973 6.37217C29.0969 6.23837 29.0468 6.08785 29.0468 5.9206V1.00349C29.0468 0.836242 29.0969 0.702444 29.1973 0.602094C29.3311 0.468295 29.4816 0.401395 29.6489 0.401395H54.9369Z" fill="#322885"/>
<path d="M79.3217 35.7247C78.9872 35.7247 78.7698 35.5574 78.6694 35.2229L74.9799 24.335L66.1189 24.391L62.8644 35.2229C62.7641 35.5574 62.5467 35.7247 62.2122 35.7247H55.84C55.6393 35.7247 55.4888 35.6745 55.3884 35.5741C55.2881 35.4403 55.2714 35.2564 55.3383 35.0222L66.176 1.10419C66.2763 0.769691 66.4937 0.602443 66.8282 0.602443H74.7057C75.0401 0.602443 75.2576 0.769691 75.3579 1.10419L86.1956 35.0222C86.2291 35.0891 86.2458 35.1727 86.2458 35.2731C86.2458 35.5741 86.0618 35.7247 85.6939 35.7247H79.3217ZM66.1189 24.391L74.9799 24.335L70.8422 9.43317C70.8088 9.29937 70.7586 9.2492 70.6917 9.28265C70.6248 9.28265 70.5746 9.33282 70.5412 9.43317L66.1189 24.391Z" fill="#322885"/>
<path d="M110.651 1.00349C110.651 0.836242 110.701 0.702444 110.802 0.602094C110.935 0.468295 111.086 0.401395 111.253 0.401395H117.124C117.291 0.401395 117.425 0.468295 117.525 0.602094C117.659 0.702444 117.726 0.836242 117.726 1.00349V34.9215C117.726 35.0888 117.659 35.2393 117.525 35.3731C117.425 35.4734 117.291 35.5236 117.124 35.5236H111.454C111.119 35.5236 110.885 35.3898 110.751 35.1222L97.7562 13.6475C97.6893 13.5471 97.6224 13.5137 97.5555 13.5471C97.4886 13.5471 97.4551 13.614 97.4551 13.7478L97.5555 34.9215C97.5555 35.0888 97.4886 35.2393 97.3548 35.3731C97.2544 35.4734 97.1206 35.5236 96.9534 35.5236H91.0829C90.9157 35.5236 90.7652 35.4734 90.6314 35.3731C90.531 35.2393 90.4809 35.0888 90.4809 34.9215V1.00349C90.4809 0.836242 90.531 0.702444 90.6314 0.602094C90.7652 0.468295 90.9157 0.401395 91.0829 0.401395H96.7527C97.0872 0.401395 97.3213 0.535193 97.4551 0.802791L110.4 22.1772C110.467 22.2775 110.534 22.3277 110.601 22.3277C110.668 22.2942 110.701 22.2106 110.701 22.0768L110.651 1.00349Z" fill="#322885"/>
<path d="M124.157 35.5236C123.99 35.5236 123.839 35.4734 123.705 35.3731C123.605 35.2393 123.555 35.0888 123.555 34.9215V1.00349C123.555 0.836242 123.605 0.702444 123.705 0.602094C123.839 0.468295 123.99 0.401395 124.157 0.401395H136.701C139.209 0.401395 141.4 0.852967 143.274 1.75611C145.18 2.6258 146.652 3.86344 147.689 5.46903C148.726 7.07462 149.244 8.93107 149.244 11.0384V24.8866C149.244 26.9939 148.726 28.8504 147.689 30.456C146.652 32.0616 145.18 33.3159 143.274 34.2191C141.4 35.0888 139.209 35.5236 136.701 35.5236H124.157ZM130.63 29.2016C130.63 29.3689 130.713 29.4525 130.88 29.4525H136.952C138.49 29.4525 139.728 28.934 140.664 27.8971C141.634 26.8601 142.136 25.472 142.17 23.7326V12.1924C142.17 10.453 141.685 9.06487 140.715 8.02793C139.778 6.99099 138.507 6.47252 136.901 6.47252H130.88C130.713 6.47252 130.63 6.55614 130.63 6.72339V29.2016Z" fill="#322885"/>
<path d="M205.589 35.5236C205.255 35.5236 205.021 35.3731 204.887 35.072L198.615 21.1737C198.548 21.0399 198.448 20.973 198.314 20.973H193.648C193.48 20.973 193.397 21.0566 193.397 21.2238V34.9215C193.397 35.0888 193.33 35.2393 193.196 35.3731C193.096 35.4734 192.962 35.5236 192.795 35.5236H186.924C186.757 35.5236 186.606 35.4734 186.473 35.3731C186.372 35.2393 186.322 35.0888 186.322 34.9215V1.00349C186.322 0.836242 186.372 0.702444 186.473 0.602094C186.606 0.468295 186.757 0.401395 186.924 0.401395H201.274C203.415 0.401395 205.288 0.836242 206.894 1.70594C208.533 2.57563 209.787 3.81327 210.657 5.41885C211.56 7.02444 212.012 8.8809 212.012 10.9882C212.012 13.2628 211.443 15.2196 210.306 16.8587C209.168 18.4642 207.579 19.6015 205.539 20.2705C205.372 20.3374 205.322 20.4545 205.388 20.6217L212.212 34.8212C212.279 34.955 212.313 35.0553 212.313 35.1222C212.313 35.3898 212.129 35.5236 211.761 35.5236H205.589ZM193.648 6.47252C193.48 6.47252 193.397 6.55614 193.397 6.72339V15.3032C193.397 15.4705 193.48 15.5541 193.648 15.5541H200.22C201.625 15.5541 202.763 15.136 203.632 14.2998C204.536 13.4635 204.987 12.3764 204.987 11.0384C204.987 9.70042 204.536 8.6133 203.632 7.77706C202.763 6.90736 201.625 6.47252 200.22 6.47252H193.648Z" fill="#322885"/>
<path d="M217.744 35.5236C217.577 35.5236 217.427 35.4734 217.293 35.3731C217.192 35.2393 217.142 35.0888 217.142 34.9215V1.00349C217.142 0.836242 217.192 0.702444 217.293 0.602094C217.427 0.468295 217.577 0.401395 217.744 0.401395H230.288C232.797 0.401395 234.988 0.852967 236.861 1.75611C238.768 2.6258 240.239 3.86344 241.276 5.46903C242.313 7.07462 242.832 8.93107 242.832 11.0384V24.8866C242.832 26.9939 242.313 28.8504 241.276 30.456C240.239 32.0616 238.768 33.3159 236.861 34.2191C234.988 35.0888 232.797 35.5236 230.288 35.5236H217.744ZM224.217 29.2016C224.217 29.3689 224.301 29.4525 224.468 29.4525H230.539C232.078 29.4525 233.315 28.934 234.252 27.8971C235.222 26.8601 235.724 25.472 235.757 23.7326V12.1924C235.757 10.453 235.272 9.06487 234.302 8.02793C233.365 6.99099 232.094 6.47252 230.489 6.47252H224.468C224.301 6.47252 224.217 6.55614 224.217 6.72339V29.2016Z" fill="#322885"/>
<path d="M175.855 35.5236C175.52 35.5236 175.303 35.3563 175.202 35.0219L171.513 24.134L162.652 24.19L159.397 35.0219C159.297 35.3563 159.08 35.5236 158.745 35.5236H152.373C152.172 35.5236 152.022 35.4734 151.921 35.3731C151.821 35.2393 151.804 35.0553 151.871 34.8212L162.709 0.90314C162.809 0.568643 163.027 0.401395 163.361 0.401395H171.239C171.573 0.401395 171.791 0.568643 171.891 0.90314L182.729 34.8212C182.762 34.8881 182.779 34.9717 182.779 35.072C182.779 35.3731 182.595 35.5236 182.227 35.5236H175.855ZM162.652 24.19L171.513 24.134L167.375 9.23212C167.342 9.09832 167.292 9.04815 167.225 9.0816C167.158 9.0816 167.108 9.13177 167.074 9.23212L162.652 24.19Z" fill="#322885"/>
</svg>
